<svg width="520" height="308" viewBox="0 0 520 308" fill="none" xmlns="http://www.w3.org/2000/svg">
<g clip-path="url(#clip0)">
<path d="M151.158 287.698H395.293V303.449H151.158V287.698Z" fill="#1A96CA"/>
<path d="M320.477 161.693H387.417V291.636H320.477V161.693Z" fill="#CDE9F4"/>
<path d="M159.034 161.693H225.974V291.636H159.034V161.693Z" fill="#CDE9F4"/>
<path d="M151.158 161.693L178.722 110.504H367.729L395.293 161.693H151.158Z" fill="#1A96CA"/>
<path d="M225.974 291.636V159.606L273.226 126.254L320.478 159.606V291.636H225.974Z" fill="#CDE9F4"/>
<path d="M225.974 287.698V159.606L273.226 126.254L320.478 159.606V287.698H225.974Z" fill="#CDE9F4"/>
<path d="M273.226 59.3142H308.664V82.9401H273.226V59.3142Z" fill="#1A96CA"/>
<path d="M273.226 205.007C286.274 205.007 296.851 194.43 296.851 181.382C296.851 168.333 286.274 157.756 273.226 157.756C260.177 157.756 249.6 168.333 249.6 181.382C249.6 194.43 260.177 205.007 273.226 205.007Z" fill="#ECD843"/>
<path d="M249.6 220.758H296.851V291.636H249.6V220.758Z" fill="#1A96CA"/>
<path d="M332.291 189.257H348.041V205.007H332.291V189.257Z" fill="#1A96CA"/>
<path d="M359.854 189.257H375.605V205.007H359.854V189.257Z" fill="#1A96CA"/>
<path d="M332.291 220.758H348.041V236.509H332.291V220.758Z" fill="#1A96CA"/>
<path d="M359.854 220.758H375.605V236.509H359.854V220.758Z" fill="#1A96CA"/>
<path d="M332.291 252.259H348.041V268.01H332.291V252.259Z" fill="#1A96CA"/>
<path d="M359.854 252.259H375.605V268.01H359.854V252.259Z" fill="#1A96CA"/>
<path d="M198.41 189.257H214.161V205.007H198.41V189.257Z" fill="#1A96CA"/>
<path d="M170.847 189.257H186.597V205.007H170.847V189.257Z" fill="#1A96CA"/>
<path d="M198.41 220.758H214.161V236.509H198.41V220.758Z" fill="#1A96CA"/>
<path d="M170.847 220.758H186.597V236.509H170.847V220.758Z" fill="#1A96CA"/>
<path d="M198.41 252.259H214.161V268.01H198.41V252.259Z" fill="#1A96CA"/>
<path d="M170.847 252.259H186.597V268.01H170.847V252.259Z" fill="#1A96CA"/>
<path d="M273.225 126.254L215.031 167.32L206.285 149.88L273.225 102.628L340.166 149.88L331.424 167.324L273.225 126.254Z" fill="#1A96CA"/>
<path d="M395.293 283.761H391.355V165.631H395.293C395.974 165.631 396.643 165.454 397.236 165.117C397.828 164.781 398.323 164.297 398.672 163.712C399.021 163.127 399.213 162.461 399.228 161.78C399.243 161.099 399.081 160.426 398.758 159.826L371.194 108.637C370.857 108.011 370.357 107.488 369.747 107.124C369.137 106.759 368.44 106.567 367.729 106.566H304.727C303.682 106.566 302.681 106.981 301.942 107.72C301.204 108.458 300.789 109.46 300.789 110.504C300.789 111.548 301.204 112.55 301.942 113.288C302.681 114.027 303.682 114.441 304.727 114.441H365.378L388.7 157.756H348.041C346.997 157.756 345.995 158.171 345.257 158.909C344.518 159.647 344.103 160.649 344.103 161.693C344.103 162.738 344.518 163.739 345.257 164.478C345.995 165.216 346.997 165.631 348.041 165.631H383.48V283.761H324.415V167.197L329.154 170.542C329.618 170.868 330.146 171.091 330.703 171.195C331.261 171.299 331.834 171.282 332.384 171.144C332.933 171.006 333.447 170.75 333.889 170.396C334.331 170.041 334.692 169.595 334.946 169.088L343.687 151.644C344.109 150.802 344.215 149.836 343.986 148.922C343.756 148.009 343.207 147.207 342.438 146.664L277.163 100.588V86.8779H308.664C309.709 86.8779 310.71 86.4631 311.449 85.7246C312.187 84.9862 312.602 83.9846 312.602 82.9403V59.3144C312.602 58.27 312.187 57.2685 311.449 56.53C310.71 55.7916 309.709 55.3767 308.664 55.3767H273.226C272.181 55.3767 271.18 55.7916 270.441 56.53C269.703 57.2685 269.288 58.27 269.288 59.3144V100.588L204.015 146.664C203.245 147.207 202.696 148.008 202.467 148.922C202.237 149.836 202.343 150.801 202.765 151.644L211.507 169.087C211.761 169.594 212.121 170.04 212.563 170.395C213.005 170.75 213.519 171.005 214.069 171.143C214.619 171.281 215.192 171.299 215.749 171.195C216.306 171.091 216.835 170.868 217.298 170.541L222.036 167.197V283.761H162.971V165.631H198.41C199.455 165.631 200.456 165.216 201.195 164.478C201.933 163.739 202.348 162.738 202.348 161.693C202.348 160.649 201.933 159.647 201.195 158.909C200.456 158.171 199.455 157.756 198.41 157.756H157.751L181.073 114.441H241.724C242.769 114.441 243.77 114.027 244.509 113.288C245.247 112.55 245.662 111.548 245.662 110.504C245.662 109.46 245.247 108.458 244.509 107.72C243.77 106.981 242.769 106.566 241.724 106.566H178.722C178.011 106.567 177.314 106.759 176.704 107.124C176.094 107.488 175.594 108.011 175.257 108.637L147.693 159.826C147.37 160.426 147.208 161.099 147.224 161.78C147.239 162.461 147.43 163.127 147.779 163.712C148.128 164.297 148.623 164.781 149.216 165.117C149.808 165.454 150.477 165.631 151.158 165.631H155.096V283.761H151.158C150.114 283.761 149.112 284.175 148.374 284.914C147.636 285.652 147.221 286.654 147.221 287.698V303.449C147.221 304.493 147.636 305.495 148.374 306.233C149.112 306.972 150.114 307.386 151.158 307.386H395.293C396.337 307.386 397.339 306.972 398.077 306.233C398.816 305.495 399.23 304.493 399.23 303.449V287.698C399.23 286.654 398.816 285.652 398.077 284.914C397.339 284.175 396.337 283.761 395.293 283.761ZM277.163 63.252H304.727V79.0026H277.163V63.252ZM216.495 161.468L211.323 151.144L273.226 107.449L335.128 151.144L329.956 161.468L275.498 123.037C274.834 122.568 274.041 122.316 273.228 122.316C272.414 122.316 271.621 122.568 270.957 123.037L216.495 161.468ZM229.911 161.645L273.226 131.075L316.54 161.645V283.761H300.789V220.758C300.789 219.714 300.374 218.712 299.636 217.974C298.897 217.235 297.896 216.82 296.851 216.82H249.6C248.555 216.82 247.554 217.235 246.815 217.974C246.077 218.712 245.662 219.714 245.662 220.758V283.761H229.911V161.645ZM292.914 283.761H253.537V224.696H292.914V283.761ZM391.355 299.511H155.096V291.636H391.355V299.511Z" fill="#06425C"/>
<path d="M273.225 208.945C278.677 208.945 284.006 207.328 288.539 204.3C293.072 201.271 296.605 196.966 298.691 191.93C300.777 186.893 301.323 181.351 300.259 176.004C299.196 170.657 296.571 165.746 292.716 161.891C288.861 158.036 283.95 155.411 278.603 154.348C273.256 153.284 267.714 153.83 262.677 155.916C257.641 158.002 253.336 161.535 250.307 166.068C247.278 170.601 245.662 175.93 245.662 181.382C245.67 188.689 248.577 195.696 253.744 200.863C258.911 206.03 265.918 208.937 273.225 208.945ZM273.225 161.693C277.119 161.693 280.926 162.848 284.164 165.011C287.401 167.175 289.925 170.25 291.415 173.847C292.905 177.445 293.295 181.403 292.535 185.223C291.776 189.042 289.901 192.55 287.147 195.303C284.394 198.057 280.886 199.932 277.066 200.691C273.247 201.451 269.289 201.061 265.691 199.571C262.093 198.081 259.019 195.557 256.855 192.32C254.692 189.082 253.537 185.275 253.537 181.382C253.543 176.162 255.62 171.158 259.311 167.467C263.001 163.776 268.006 161.699 273.225 161.693Z" fill="#06425C"/>
<path d="M276.348 190.072C277.091 190.789 278.085 191.186 279.118 191.177C280.15 191.168 281.138 190.754 281.868 190.024C282.598 189.294 283.012 188.306 283.021 187.274C283.03 186.241 282.633 185.247 281.916 184.504L277.163 179.751V173.506C277.163 172.462 276.748 171.46 276.01 170.722C275.271 169.983 274.27 169.568 273.225 169.568C272.181 169.568 271.18 169.983 270.441 170.722C269.703 171.46 269.288 172.462 269.288 173.506V181.381C269.288 182.426 269.703 183.427 270.442 184.165L276.348 190.072Z" fill="#06425C"/>
<path d="M285.038 260.135C286.083 260.135 287.084 259.72 287.823 258.981C288.561 258.243 288.976 257.241 288.976 256.197V252.259C288.976 251.215 288.561 250.213 287.823 249.475C287.084 248.737 286.083 248.322 285.038 248.322C283.994 248.322 282.992 248.737 282.254 249.475C281.515 250.213 281.101 251.215 281.101 252.259V256.197C281.101 257.241 281.515 258.243 282.254 258.981C282.992 259.72 283.994 260.135 285.038 260.135Z" fill="#06425C"/>
<path d="M351.979 189.257C351.979 188.213 351.564 187.211 350.825 186.473C350.087 185.734 349.085 185.319 348.041 185.319H332.29C331.246 185.319 330.245 185.734 329.506 186.473C328.768 187.211 328.353 188.213 328.353 189.257V205.007C328.353 206.052 328.768 207.053 329.506 207.792C330.245 208.53 331.246 208.945 332.29 208.945H348.041C349.085 208.945 350.087 208.53 350.825 207.792C351.564 207.053 351.979 206.052 351.979 205.007V189.257ZM344.103 201.07H336.228V193.195H344.103V201.07Z" fill="#06425C"/>
<path d="M359.854 208.945H375.605C376.649 208.945 377.651 208.53 378.389 207.792C379.128 207.053 379.542 206.052 379.542 205.007V189.257C379.542 188.213 379.128 187.211 378.389 186.473C377.651 185.734 376.649 185.319 375.605 185.319H359.854C358.81 185.319 357.808 185.734 357.07 186.473C356.331 187.211 355.917 188.213 355.917 189.257V205.007C355.917 206.052 356.331 207.053 357.07 207.792C357.808 208.53 358.81 208.945 359.854 208.945ZM363.792 193.195H371.667V201.07H363.792V193.195Z" fill="#06425C"/>
<path d="M351.979 220.758C351.979 219.714 351.564 218.712 350.825 217.974C350.087 217.235 349.085 216.82 348.041 216.82H332.29C331.246 216.82 330.245 217.235 329.506 217.974C328.768 218.712 328.353 219.714 328.353 220.758V236.509C328.353 237.553 328.768 238.555 329.506 239.293C330.245 240.031 331.246 240.446 332.29 240.446H348.041C349.085 240.446 350.087 240.031 350.825 239.293C351.564 238.555 351.979 237.553 351.979 236.509V220.758ZM344.103 232.571H336.228V224.696H344.103V232.571Z" fill="#06425C"/>
<path d="M355.917 236.509C355.917 237.553 356.331 238.555 357.07 239.293C357.808 240.031 358.81 240.446 359.854 240.446H375.605C376.649 240.446 377.651 240.031 378.389 239.293C379.128 238.555 379.542 237.553 379.542 236.509V220.758C379.542 219.714 379.128 218.712 378.389 217.974C377.651 217.235 376.649 216.82 375.605 216.82H359.854C358.81 216.82 357.808 217.235 357.07 217.974C356.331 218.712 355.917 219.714 355.917 220.758V236.509ZM363.792 224.696H371.667V232.571H363.792V224.696Z" fill="#06425C"/>
<path d="M348.041 248.322H332.29C331.246 248.322 330.245 248.737 329.506 249.475C328.768 250.213 328.353 251.215 328.353 252.259V268.01C328.353 269.054 328.768 270.056 329.506 270.794C330.245 271.533 331.246 271.948 332.29 271.948H348.041C349.085 271.948 350.087 271.533 350.825 270.794C351.564 270.056 351.979 269.054 351.979 268.01V252.259C351.979 251.215 351.564 250.213 350.825 249.475C350.087 248.737 349.085 248.322 348.041 248.322ZM344.103 264.072H336.228V256.197H344.103V264.072Z" fill="#06425C"/>
<path d="M355.917 268.01C355.917 269.054 356.331 270.056 357.07 270.794C357.808 271.533 358.81 271.948 359.854 271.948H375.605C376.649 271.948 377.651 271.533 378.389 270.794C379.128 270.056 379.542 269.054 379.542 268.01V252.259C379.542 251.215 379.128 250.213 378.389 249.475C377.651 248.737 376.649 248.322 375.605 248.322H359.854C358.81 248.322 357.808 248.737 357.07 249.475C356.331 250.213 355.917 251.215 355.917 252.259V268.01ZM363.792 256.197H371.667V264.072H363.792V256.197Z" fill="#06425C"/>
<path d="M218.099 189.257C218.099 188.213 217.684 187.211 216.945 186.473C216.207 185.734 215.205 185.319 214.161 185.319H198.41C197.366 185.319 196.364 185.734 195.626 186.473C194.888 187.211 194.473 188.213 194.473 189.257V205.007C194.473 206.052 194.888 207.053 195.626 207.792C196.364 208.53 197.366 208.945 198.41 208.945H214.161C215.205 208.945 216.207 208.53 216.945 207.792C217.684 207.053 218.099 206.052 218.099 205.007V189.257ZM210.223 201.07H202.348V193.195H210.223V201.07Z" fill="#06425C"/>
<path d="M190.535 189.257C190.535 188.213 190.12 187.211 189.382 186.473C188.643 185.734 187.642 185.319 186.597 185.319H170.847C169.802 185.319 168.801 185.734 168.062 186.473C167.324 187.211 166.909 188.213 166.909 189.257V205.007C166.909 206.052 167.324 207.053 168.062 207.792C168.801 208.53 169.802 208.945 170.847 208.945H186.597C187.642 208.945 188.643 208.53 189.382 207.792C190.12 207.053 190.535 206.052 190.535 205.007V189.257ZM182.66 201.07H174.784V193.195H182.66V201.07Z" fill="#06425C"/>
<path d="M218.099 220.758C218.099 219.714 217.684 218.712 216.945 217.974C216.207 217.235 215.205 216.82 214.161 216.82H198.41C197.366 216.82 196.364 217.235 195.626 217.974C194.888 218.712 194.473 219.714 194.473 220.758V236.509C194.473 237.553 194.888 238.555 195.626 239.293C196.364 240.031 197.366 240.446 198.41 240.446H214.161C215.205 240.446 216.207 240.031 216.945 239.293C217.684 238.555 218.099 237.553 218.099 236.509V220.758ZM210.223 232.571H202.348V224.696H210.223V232.571Z" fill="#06425C"/>
<path d="M190.535 220.758C190.535 219.714 190.12 218.712 189.382 217.974C188.643 217.235 187.642 216.82 186.597 216.82H170.847C169.802 216.82 168.801 217.235 168.062 217.974C167.324 218.712 166.909 219.714 166.909 220.758V236.509C166.909 237.553 167.324 238.555 168.062 239.293C168.801 240.031 169.802 240.446 170.847 240.446H186.597C187.642 240.446 188.643 240.031 189.382 239.293C190.12 238.555 190.535 237.553 190.535 236.509V220.758ZM182.66 232.571H174.784V224.696H182.66V232.571Z" fill="#06425C"/>
<path d="M214.161 248.322H198.41C197.366 248.322 196.364 248.737 195.626 249.475C194.888 250.213 194.473 251.215 194.473 252.259V268.01C194.473 269.054 194.888 270.056 195.626 270.794C196.364 271.533 197.366 271.948 198.41 271.948H214.161C215.205 271.948 216.207 271.533 216.945 270.794C217.684 270.056 218.099 269.054 218.099 268.01V252.259C218.099 251.215 217.684 250.213 216.945 249.475C216.207 248.737 215.205 248.322 214.161 248.322ZM210.223 264.072H202.348V256.197H210.223V264.072Z" fill="#06425C"/>
<path d="M186.597 248.322H170.847C169.802 248.322 168.801 248.737 168.062 249.475C167.324 250.213 166.909 251.215 166.909 252.259V268.01C166.909 269.054 167.324 270.056 168.062 270.794C168.801 271.533 169.802 271.948 170.847 271.948H186.597C187.642 271.948 188.643 271.533 189.382 270.794C190.12 270.056 190.535 269.054 190.535 268.01V252.259C190.535 251.215 190.12 250.213 189.382 249.475C188.643 248.737 187.642 248.322 186.597 248.322ZM182.66 264.072H174.784V256.197H182.66V264.072Z" fill="#06425C"/>
</g>
<path d="M145.237 12.4091H63.4382C65.1509 12.4091 66.7935 13.0894 68.0046 14.3005C69.2157 15.5116 69.896 17.1541 69.896 18.8668V141.565H134.474L151.695 124.344V18.8668C151.695 17.1541 151.014 15.5116 149.803 14.3005C148.592 13.0894 146.95 12.4091 145.237 12.4091Z" fill="#CDE9F4"/>
<path d="M63.438 12.4091C61.7253 12.4091 60.0827 13.0894 58.8717 14.3005C57.6606 15.5116 56.9802 17.1541 56.9802 18.8668V68.3766H69.8958V18.8668C69.8958 17.1541 69.2154 15.5116 68.0044 14.3005C66.7933 13.0894 65.1507 12.4091 63.438 12.4091Z" fill="#CDE9F4"/>
<path d="M186.136 43.062C186.14 44.2634 185.904 45.4535 185.442 46.5625C184.98 47.6714 184.301 48.6769 183.445 49.5198L178.688 54.2771L121.558 111.429L104.337 115.734H104.316L108.643 98.513L165.794 41.383L170.551 36.6258C171.828 35.3542 173.453 34.4888 175.221 34.1382C176.989 33.7876 178.821 33.9676 180.486 34.6555C182.152 35.3435 183.577 36.5086 184.583 38.0044C185.588 39.5002 186.128 41.2599 186.136 43.062Z" fill="#1A96CA"/>
<path d="M186.136 43.062C186.14 44.2634 185.905 45.4535 185.442 46.5625C184.98 47.6714 184.301 48.6769 183.445 49.5198L178.688 54.2771L165.794 41.383L170.551 36.6258C171.829 35.3542 173.453 34.4888 175.221 34.1382C176.989 33.7876 178.821 33.9676 180.487 34.6555C182.152 35.3435 183.577 36.5086 184.583 38.0044C185.588 39.5002 186.128 41.2599 186.136 43.062Z" fill="#085A7D"/>
<path d="M121.558 111.429L104.337 115.734H104.316L108.643 98.5129L121.558 111.429Z" fill="#ECD843"/>
<path d="M151.694 124.344H134.474V141.565L151.694 124.344Z" fill="#CDE9F4"/>
<path d="M151.693 89.9026C151.122 89.9026 150.575 90.1294 150.171 90.533C149.767 90.9367 149.541 91.4843 149.541 92.0552V122.192H134.473C133.902 122.192 133.354 122.418 132.95 122.822C132.547 123.226 132.32 123.773 132.32 124.344V139.412H72.0472V18.8669C72.0334 17.3571 71.636 15.8756 70.8921 14.5617H145.236C146.377 14.563 147.471 15.017 148.278 15.8241C149.085 16.6312 149.539 17.7255 149.541 18.8669V44.698C149.541 45.2689 149.767 45.8165 150.171 46.2201C150.575 46.6238 151.122 46.8506 151.693 46.8506C152.264 46.8506 152.812 46.6238 153.215 46.2201C153.619 45.8165 153.846 45.2689 153.846 44.698V18.8669C153.844 16.584 152.936 14.3953 151.321 12.781C149.707 11.1668 147.518 10.2589 145.236 10.2565H63.4368C61.1539 10.2589 58.9652 11.1668 57.351 12.781C55.7367 14.3953 54.8288 16.584 54.8264 18.8669V68.3766C54.8264 68.9475 55.0532 69.495 55.4569 69.8987C55.8606 70.3024 56.4081 70.5292 56.979 70.5292H67.742V141.565C67.742 142.136 67.9688 142.683 68.3725 143.087C68.7762 143.491 69.3237 143.717 69.8946 143.717H134.473C135.043 143.716 135.59 143.49 135.994 143.087L153.215 125.866C153.598 125.449 153.821 124.91 153.846 124.344V92.0552C153.846 91.4843 153.619 90.9367 153.215 90.533C152.812 90.1294 152.264 89.9026 151.693 89.9026ZM59.1316 66.224V18.8669C59.1316 17.725 59.5852 16.63 60.3926 15.8226C61.2 15.0152 62.295 14.5617 63.4368 14.5617C64.5786 14.5617 65.6737 15.0152 66.481 15.8226C67.2884 16.63 67.742 17.725 67.742 18.8669V66.224H59.1316ZM136.625 136.368V126.497H146.497L136.625 136.368Z" fill="#06425C"/>
<path d="M138.778 23.172H82.8101C82.2392 23.172 81.6916 23.3988 81.288 23.8025C80.8843 24.2062 80.6575 24.7537 80.6575 25.3246C80.6575 25.8955 80.8843 26.443 81.288 26.8467C81.6916 27.2504 82.2392 27.4772 82.8101 27.4772H138.778C139.348 27.4772 139.896 27.2504 140.3 26.8467C140.703 26.443 140.93 25.8955 140.93 25.3246C140.93 24.7537 140.703 24.2062 140.3 23.8025C139.896 23.3988 139.348 23.172 138.778 23.172Z" fill="#06425C"/>
<path d="M138.778 36.0876H82.8101C82.2392 36.0876 81.6916 36.3144 81.288 36.7181C80.8843 37.1218 80.6575 37.6693 80.6575 38.2402C80.6575 38.8111 80.8843 39.3587 81.288 39.7624C81.6916 40.166 82.2392 40.3928 82.8101 40.3928H138.778C139.348 40.3928 139.896 40.166 140.3 39.7624C140.703 39.3587 140.93 38.8111 140.93 38.2402C140.93 37.6693 140.703 37.1218 140.3 36.7181C139.896 36.3144 139.348 36.0876 138.778 36.0876Z" fill="#06425C"/>
<path d="M140.93 51.1558C140.93 50.5849 140.703 50.0373 140.3 49.6337C139.896 49.23 139.348 49.0032 138.778 49.0032H82.8101C82.2392 49.0032 81.6916 49.23 81.288 49.6337C80.8843 50.0373 80.6575 50.5849 80.6575 51.1558C80.6575 51.7267 80.8843 52.2742 81.288 52.6779C81.6916 53.0816 82.2392 53.3084 82.8101 53.3084H138.778C139.348 53.3084 139.896 53.0816 140.3 52.6779C140.703 52.2742 140.93 51.7267 140.93 51.1558Z" fill="#06425C"/>
<path d="M134.472 64.0714C134.472 63.5005 134.246 62.953 133.842 62.5493C133.438 62.1456 132.891 61.9188 132.32 61.9188H82.8101C82.2392 61.9188 81.6916 62.1456 81.288 62.5493C80.8843 62.953 80.6575 63.5005 80.6575 64.0714C80.6575 64.6423 80.8843 65.1898 81.288 65.5935C81.6916 65.9972 82.2392 66.224 82.8101 66.224H132.32C132.891 66.224 133.438 65.9972 133.842 65.5935C134.246 65.1898 134.472 64.6423 134.472 64.0714Z" fill="#06425C"/>
<path d="M121.557 76.987C121.557 76.416 121.33 75.8685 120.926 75.4648C120.523 75.0611 119.975 74.8344 119.404 74.8344H82.8101C82.2392 74.8344 81.6916 75.0611 81.288 75.4648C80.8843 75.8685 80.6575 76.416 80.6575 76.987C80.6575 77.5579 80.8843 78.1054 81.288 78.5091C81.6916 78.9128 82.2392 79.1396 82.8101 79.1396H119.404C119.975 79.1396 120.523 78.9128 120.926 78.5091C121.33 78.1054 121.557 77.5579 121.557 76.987Z" fill="#06425C"/>
<path d="M108.641 89.9026C108.641 89.3317 108.414 88.7842 108.011 88.3805C107.607 87.9768 107.06 87.75 106.489 87.75H82.8101C82.2392 87.75 81.6916 87.9768 81.288 88.3805C80.8843 88.7842 80.6575 89.3317 80.6575 89.9026C80.6575 90.4735 80.8843 91.021 81.288 91.4247C81.6916 91.8284 82.2392 92.0552 82.8101 92.0552H106.489C107.06 92.0552 107.607 91.8284 108.011 91.4247C108.414 91.021 108.641 90.4735 108.641 89.9026Z" fill="#06425C"/>
<path d="M97.8782 100.666H82.8101C82.2392 100.666 81.6916 100.892 81.288 101.296C80.8843 101.7 80.6575 102.247 80.6575 102.818C80.6575 103.389 80.8843 103.937 81.288 104.34C81.6916 104.744 82.2392 104.971 82.8101 104.971H97.8782C98.4492 104.971 98.9967 104.744 99.4004 104.34C99.8041 103.937 100.031 103.389 100.031 102.818C100.031 102.247 99.8041 101.7 99.4004 101.296C98.9967 100.892 98.4492 100.666 97.8782 100.666Z" fill="#06425C"/>
<path d="M82.8101 117.886H97.8782C98.4492 117.886 98.9967 117.659 99.4004 117.256C99.8041 116.852 100.031 116.305 100.031 115.734C100.031 115.163 99.8041 114.615 99.4004 114.212C98.9967 113.808 98.4492 113.581 97.8782 113.581H82.8101C82.2392 113.581 81.6916 113.808 81.288 114.212C80.8843 114.615 80.6575 115.163 80.6575 115.734C80.6575 116.305 80.8843 116.852 81.288 117.256C81.6916 117.659 82.2392 117.886 82.8101 117.886Z" fill="#06425C"/>
<path d="M82.8101 130.802H125.862C126.433 130.802 126.98 130.575 127.384 130.171C127.788 129.768 128.015 129.22 128.015 128.649C128.015 128.078 127.788 127.531 127.384 127.127C126.98 126.723 126.433 126.497 125.862 126.497H82.8101C82.2392 126.497 81.6916 126.723 81.288 127.127C80.8843 127.531 80.6575 128.078 80.6575 128.649C80.6575 129.22 80.8843 129.768 81.288 130.171C81.6916 130.575 82.2392 130.802 82.8101 130.802Z" fill="#06425C"/>
<path d="M184.982 35.087C182.863 32.9746 179.994 31.7883 177.002 31.7883C174.01 31.7883 171.141 32.9746 169.022 35.087L107.119 96.991C106.857 97.2774 106.664 97.6195 106.553 97.9915L102.248 115.212C102.158 115.573 102.163 115.951 102.262 116.309C102.361 116.667 102.552 116.993 102.815 117.256C103.077 117.519 103.404 117.709 103.762 117.808C104.12 117.907 104.498 117.912 104.859 117.822L122.079 113.517C122.449 113.403 122.791 113.21 123.079 112.951L184.982 51.0464C186.031 49.999 186.863 48.7551 187.43 47.3858C187.998 46.0166 188.29 44.5489 188.29 43.0667C188.29 41.5845 187.998 40.1168 187.43 38.7476C186.863 37.3784 186.031 36.1345 184.982 35.087ZM121.556 108.384L111.686 98.5129L165.685 44.5126L175.556 54.3847L121.556 108.384ZM109.808 102.723L117.346 110.262L107.295 112.776L109.808 102.723ZM181.938 48.0026L178.602 51.3392L168.728 41.4691L172.066 38.1313C173.378 36.8334 175.15 36.1075 176.995 36.1123C178.84 36.1172 180.608 36.8522 181.912 38.1569C183.217 39.4616 183.952 41.2297 183.957 43.0747C183.962 44.9198 183.236 46.6917 181.938 48.0031L181.938 48.0026Z" fill="#06425C"/>
<g clip-path="url(#clip1)">
<path d="M421.572 215.318V189.316L456.857 205.13L492.145 189.316L492.143 215.318L456.857 231.13L421.572 215.318Z" fill="#085A7D"/>
<path d="M403 180.987L456.857 156.844L510.714 180.987L456.857 205.13L403 180.987Z" fill="#1A96CA"/>
<path d="M507 234.844V221.844L512.571 218.13L518.143 221.844V234.844H507Z" fill="#ECD843"/>
<path d="M519.173 220.299L514.428 217.136V182.844C514.426 181.95 514.101 181.088 513.512 180.415C512.924 179.742 512.113 179.304 511.228 179.182L457.617 155.149C457.378 155.043 457.119 154.987 456.857 154.987C456.595 154.987 456.336 155.043 456.097 155.149L402.24 179.292C401.913 179.439 401.635 179.677 401.441 179.977C401.246 180.278 401.142 180.629 401.142 180.987C401.142 181.345 401.246 181.696 401.441 181.997C401.635 182.297 401.913 182.535 402.24 182.682L419.714 190.515V215.319C419.714 215.677 419.818 216.027 420.012 216.328C420.207 216.629 420.484 216.867 420.811 217.013L456.097 232.825C456.336 232.932 456.595 232.987 456.857 232.987C457.119 232.987 457.378 232.932 457.617 232.825L492.903 217.013C493.23 216.867 493.507 216.629 493.702 216.328C493.896 216.027 494 215.677 494 215.319V190.515L510.714 183.022V217.136L505.97 220.299C505.715 220.469 505.507 220.698 505.362 220.968C505.218 221.237 505.143 221.538 505.143 221.844V234.844C505.143 235.337 505.338 235.809 505.687 236.157C506.035 236.506 506.507 236.701 507 236.701H518.143C518.635 236.701 519.108 236.506 519.456 236.157C519.804 235.809 520 235.337 520 234.844V221.844C520 221.538 519.924 221.237 519.78 220.968C519.636 220.698 519.427 220.469 519.173 220.299ZM456.857 158.879L502.032 179.13H458.714C458.222 179.13 457.749 179.325 457.401 179.674C457.053 180.022 456.857 180.494 456.857 180.987C456.857 181.48 457.053 181.952 457.401 182.3C457.749 182.648 458.222 182.844 458.714 182.844H502.032L456.857 203.095L407.539 180.987L456.857 158.879ZM490.286 192.183V214.116L456.857 229.095L423.428 214.115V192.183L456.097 206.824C456.336 206.931 456.595 206.986 456.857 206.986C457.119 206.986 457.378 206.931 457.617 206.824L490.286 192.183ZM516.286 232.987H508.857V222.838L512.571 220.362L516.286 222.838V232.987Z" fill="#06425C"/>
</g>
<g clip-path="url(#clip2)">
<path d="M34.0827 252.255H108.263V268.294H34.0827C31.9558 268.294 29.916 267.449 28.4121 265.945C26.9081 264.441 26.0632 262.401 26.0632 260.274C26.0632 258.147 26.9081 256.108 28.4121 254.604C29.916 253.1 31.9558 252.255 34.0827 252.255Z" fill="#CDE9F4"/>
<path d="M28.4091 254.601C27.2885 255.723 26.5256 257.152 26.2168 258.708C25.9081 260.264 26.0674 261.876 26.6745 263.341C27.2816 264.807 28.3094 266.059 29.628 266.941C30.9466 267.822 32.4968 268.293 34.0829 268.294H114.278V276.313H34.0829C29.8291 276.313 25.7495 274.624 22.7416 271.616C19.7338 268.608 18.0439 264.528 18.0439 260.274C18.0439 256.021 19.7338 251.941 22.7416 248.933C25.7495 245.925 29.8291 244.235 34.0829 244.235H114.278V252.255H34.0829C31.9565 252.259 29.9175 253.102 28.4091 254.601Z" fill="#085A7D"/>
<path d="M85.187 206.143C88.4408 202.19 90.2197 197.229 90.2192 192.109V178.075H100.244V196.118C100.24 198.776 99.1833 201.324 97.304 203.203C95.4248 205.083 92.8769 206.14 90.2192 206.143H85.187Z" fill="#ECD843"/>
<path d="M46.112 206.143C43.4543 206.14 40.9064 205.083 39.0272 203.203C37.1479 201.324 36.0908 198.776 36.0876 196.118V178.075H46.112V192.109C46.111 197.229 47.8899 202.19 51.1442 206.143H46.112Z" fill="#ECD843"/>
<path d="M52.1267 234.211C54.2529 234.209 56.2913 233.363 57.7947 231.86C59.2981 230.356 60.1438 228.318 60.1462 226.192V212.659C65.306 214.656 71.0253 214.656 76.1852 212.659V226.192C76.1874 228.318 77.033 230.356 78.5365 231.86C80.0399 233.363 82.0784 234.209 84.2046 234.211H52.1267Z" fill="#ECD843"/>
<path d="M68.1656 214.162C62.3187 214.156 56.7131 211.83 52.5787 207.696C48.4443 203.561 46.1187 197.956 46.1121 192.109V168.05H90.2192V192.109C90.2126 197.956 87.8869 203.561 83.7525 207.696C79.6181 211.83 74.0126 214.156 68.1656 214.162Z" fill="#ECD843"/>
<path d="M62.8968 190.87L57.626 185.733L64.9077 184.675L68.1656 178.075L71.4235 184.675L78.7052 185.733L73.4364 190.87L74.6794 198.123L68.1656 194.699L61.6518 198.123L62.8968 190.87Z" fill="#1A96CA"/>
<path d="M46.1121 244.235V240.226C46.1138 238.631 46.7481 237.102 47.8756 235.975C49.0032 234.847 50.532 234.213 52.1267 234.211H84.2046C85.7992 234.213 87.3281 234.847 88.4556 235.975C89.5832 237.102 90.2174 238.631 90.2192 240.226V244.235H46.1121Z" fill="#ECD843"/>
<path d="M74.1802 260.274H90.2192V284.333L82.1997 278.318L74.1802 284.333H74.1822L74.1802 260.274Z" fill="#1A96CA"/>
<path d="M40.0974 160.031H96.2338V168.05H40.0974V160.031Z" fill="#ECD843"/>
<path d="M62.5846 199.898L68.1656 196.964L73.7475 199.898C74.0786 200.072 74.4516 200.15 74.8244 200.122C75.1972 200.095 75.555 199.964 75.8573 199.744C76.1597 199.525 76.3946 199.225 76.5354 198.878C76.6763 198.532 76.7176 198.153 76.6546 197.785L75.5894 191.57L80.1044 187.168C80.3723 186.907 80.5617 186.576 80.6513 186.213C80.7409 185.849 80.727 185.468 80.6113 185.113C80.4955 184.757 80.2825 184.44 79.9963 184.199C79.7101 183.958 79.3622 183.802 78.9919 183.749L72.7541 182.842L69.9629 177.187C69.7783 176.874 69.5153 176.615 69.1999 176.435C68.8846 176.255 68.5278 176.161 68.1648 176.161C67.8017 176.161 67.445 176.256 67.1298 176.436C66.8145 176.616 66.5517 176.875 66.3672 177.188L63.5772 182.842L57.3375 183.748C56.9671 183.802 56.6192 183.958 56.3331 184.199C56.047 184.441 55.8341 184.757 55.7184 185.113C55.6028 185.469 55.5891 185.85 55.6789 186.213C55.7687 186.576 55.9583 186.907 56.2264 187.168L60.7413 191.569L59.6751 197.784C59.6118 198.153 59.653 198.532 59.7939 198.879C59.9349 199.225 60.17 199.525 60.4728 199.745C60.7755 199.965 61.1337 200.096 61.507 200.123C61.8802 200.15 62.2535 200.072 62.5846 199.898V199.898ZM65.1963 186.659C65.5183 186.612 65.824 186.488 66.0872 186.297C66.3504 186.106 66.5631 185.854 66.707 185.562L68.1656 182.604L69.6261 185.563C69.7699 185.854 69.9825 186.106 70.2454 186.297C70.5084 186.488 70.8139 186.612 71.1356 186.659L74.3975 187.133L72.0364 189.434C71.8039 189.661 71.63 189.941 71.5297 190.25C71.4295 190.559 71.4058 190.888 71.4608 191.208L72.0167 194.459L69.0974 192.924C68.8099 192.773 68.49 192.694 68.1652 192.694C67.8404 192.694 67.5204 192.773 67.2329 192.924L64.3146 194.458L64.8726 191.208C64.9271 190.888 64.9031 190.559 64.8025 190.25C64.7019 189.94 64.5277 189.66 64.295 189.433L61.9348 187.133L65.1963 186.659Z" fill="#06425C"/>
<path d="M110.268 254.26H114.278C114.809 254.26 115.319 254.049 115.695 253.673C116.071 253.297 116.283 252.787 116.283 252.255V244.235C116.283 243.704 116.071 243.194 115.695 242.818C115.319 242.442 114.809 242.231 114.278 242.231H92.2241V240.226C92.2219 238.099 91.3763 236.061 89.8728 234.558C88.3693 233.054 86.3309 232.208 84.2046 232.206C82.61 232.204 81.0812 231.57 79.9536 230.443C78.826 229.315 78.1918 227.786 78.19 226.192V213.951C81.1771 212.572 83.8508 210.597 86.0469 208.148H90.2193C93.4085 208.144 96.4662 206.876 98.7213 204.621C100.976 202.365 102.245 199.308 102.248 196.119V178.075C102.248 177.543 102.037 177.033 101.661 176.657C101.285 176.281 100.775 176.07 100.244 176.07H92.2241V170.055H96.2339C96.7656 170.055 97.2755 169.844 97.6515 169.468C98.0275 169.092 98.2387 168.582 98.2387 168.05V160.031C98.2387 159.499 98.0275 158.989 97.6515 158.613C97.2755 158.237 96.7656 158.026 96.2339 158.026H40.0975C39.5658 158.026 39.0558 158.237 38.6798 158.613C38.3039 158.989 38.0926 159.499 38.0926 160.031V168.05C38.0926 168.582 38.3039 169.092 38.6798 169.468C39.0558 169.844 39.5658 170.055 40.0975 170.055H44.1072V176.07H36.0878C35.556 176.07 35.0461 176.281 34.6701 176.657C34.2941 177.033 34.0829 177.543 34.0829 178.075V196.119C34.0864 199.308 35.3549 202.365 37.61 204.621C39.8652 206.876 42.9228 208.144 46.1121 208.148H50.2846C52.4809 210.597 55.1545 212.572 58.1413 213.951V226.192C58.1396 227.786 57.5053 229.315 56.3778 230.443C55.2502 231.57 53.7214 232.204 52.1267 232.206C50.0006 232.209 47.9622 233.054 46.4587 234.558C44.9553 236.061 44.1096 238.1 44.1072 240.226V242.231H34.0829C29.2974 242.231 24.7079 244.132 21.324 247.515C17.9401 250.899 16.0391 255.489 16.0391 260.274C16.0391 265.06 17.9401 269.649 21.324 273.033C24.7079 276.417 29.2974 278.318 34.0829 278.318H72.1754V284.333C72.1754 284.705 72.2791 285.07 72.4748 285.387C72.6706 285.704 72.9507 285.96 73.2837 286.126C73.6167 286.293 73.9895 286.363 74.3603 286.33C74.7312 286.296 75.0853 286.16 75.3832 285.937L82.1998 280.824L89.0163 285.937C89.3142 286.16 89.6684 286.296 90.0392 286.33C90.41 286.363 90.7828 286.293 91.1159 286.126C91.4489 285.96 91.729 285.704 91.9247 285.387C92.1204 285.07 92.2241 284.705 92.2241 284.333V278.318H114.278C114.809 278.318 115.319 278.107 115.695 277.731C116.071 277.355 116.283 276.845 116.283 276.313V268.294C116.283 267.762 116.071 267.252 115.695 266.876C115.319 266.5 114.809 266.289 114.278 266.289H110.268V254.26ZM106.258 258.27H34.0829C33.5512 258.27 33.0412 258.481 32.6652 258.857C32.2892 259.233 32.078 259.743 32.078 260.274C32.078 260.806 32.2892 261.316 32.6652 261.692C33.0412 262.068 33.5512 262.279 34.0829 262.279H72.1754V266.289H34.0829C32.4877 266.289 30.9579 265.655 29.8299 264.527C28.702 263.399 28.0683 261.87 28.0683 260.274C28.0683 258.679 28.702 257.149 29.8299 256.021C30.9579 254.893 32.4877 254.26 34.0829 254.26H106.258V258.27ZM98.2387 180.08V196.119C98.2365 198.245 97.3909 200.283 95.8874 201.787C94.384 203.29 92.3455 204.136 90.2193 204.138H89.0093C91.0827 200.465 92.1889 196.326 92.2241 192.109V180.08H98.2387ZM42.1024 162.036H94.229V166.045H42.1024V162.036ZM47.3221 204.138H46.1121C43.9859 204.136 41.9475 203.29 40.4441 201.787C38.9407 200.283 38.095 198.245 38.0926 196.119V180.08H44.1072V192.109C44.1501 196.325 45.2558 200.462 47.3221 204.138ZM48.117 192.109V170.055H88.2144V192.109C88.2144 197.426 86.1021 202.526 82.3423 206.285C78.5824 210.045 73.4829 212.157 68.1657 212.157C62.8484 212.157 57.749 210.045 53.9891 206.285C50.2292 202.526 48.117 197.426 48.117 192.109ZM62.1511 226.192V215.405C64.1216 215.881 66.1388 216.137 68.1657 216.167C70.1933 216.147 72.2118 215.892 74.1803 215.405V226.192C74.1779 228.362 74.8831 230.473 76.1892 232.206H60.1414C61.4476 230.473 62.1531 228.362 62.1511 226.192ZM48.117 240.226C48.118 239.163 48.5408 238.143 49.2926 237.392C50.0443 236.64 51.0636 236.217 52.1267 236.216H84.2046C85.2677 236.217 86.2869 236.64 87.0386 237.392C87.7903 238.143 88.2132 239.163 88.2144 240.226V242.231H48.117V240.226ZM34.0829 274.308C30.3608 274.308 26.7912 272.83 24.1593 270.198C21.5274 267.566 20.0488 263.996 20.0488 260.274C20.0488 256.552 21.5274 252.983 24.1593 250.351C26.7912 247.719 30.3608 246.24 34.0829 246.24H112.273V250.25H34.0829C31.4243 250.25 28.8745 251.306 26.9946 253.186C25.1147 255.066 24.0585 257.616 24.0585 260.274C24.0585 262.933 25.1147 265.483 26.9946 267.363C28.8745 269.243 31.4243 270.299 34.0829 270.299H72.1754V274.308H34.0829ZM88.2144 280.323L83.4027 276.714C83.0561 276.454 82.6342 276.313 82.2006 276.313C81.767 276.313 81.3451 276.454 80.9985 276.714L76.1852 280.323V262.279H88.2144V280.323ZM112.273 274.308H92.2241V270.299H112.273V274.308ZM92.2241 266.289V262.279H106.258V266.289H92.2241Z" fill="#06425C"/>
</g>
<g clip-path="url(#clip3)">
<path d="M416 124.977C412.844 124.974 409.819 123.719 407.587 121.487C405.356 119.256 404.101 116.23 404.097 113.075H427.903C427.899 116.23 426.644 119.256 424.413 121.487C422.181 123.719 419.156 124.974 416 124.977Z" fill="#1A96CA"/>
<path d="M396.162 113.075V103.092C396.144 100.367 395.573 97.6735 394.482 95.1758C393.392 92.6781 391.806 90.4278 389.82 88.5615C386.167 85.0658 383.263 80.864 381.284 76.2115C379.305 71.5589 378.293 66.5526 378.309 61.4967C378.309 51.5003 382.28 41.9133 389.348 34.8448C396.417 27.7762 406.004 23.8052 416 23.8052C425.997 23.8052 435.584 27.7762 442.652 34.8448C449.721 41.9133 453.692 51.5003 453.692 61.4967C453.707 66.5526 452.695 71.5589 450.716 76.2115C448.737 80.864 445.833 85.0658 442.18 88.5615C440.194 90.4278 438.608 92.6781 437.518 95.1758C436.428 97.6735 435.856 100.367 435.838 103.092V113.075H396.162Z" fill="#ECD843"/>
<path d="M396.163 103.156H435.838V113.075H396.163V103.156Z" fill="#CDE9F4"/>
<path d="M428.895 61.4967C427.053 61.4967 425.287 62.2282 423.985 63.5303C422.683 64.8324 421.951 66.5984 421.951 68.4399V75.3831H428.895C430.736 75.3831 432.502 74.6516 433.804 73.3495C435.106 72.0474 435.838 70.2813 435.838 68.4399C435.838 66.5984 435.106 64.8324 433.804 63.5303C432.502 62.2282 430.736 61.4967 428.895 61.4967Z" fill="#1A96CA"/>
<path d="M403.106 61.4967C401.264 61.4967 399.498 62.2282 398.196 63.5303C396.894 64.8324 396.163 66.5984 396.163 68.4399C396.163 70.2813 396.894 72.0474 398.196 73.3495C399.498 74.6516 401.264 75.3831 403.106 75.3831H410.049V68.4399C410.049 66.5984 409.317 64.8324 408.015 63.5303C406.713 62.2282 404.947 61.4967 403.106 61.4967Z" fill="#1A96CA"/>
<path d="M416 17.8539C416.526 17.8539 417.031 17.6449 417.403 17.2729C417.775 16.9008 417.984 16.3963 417.984 15.8701V1.98377C417.984 1.45764 417.775 0.95306 417.403 0.581032C417.031 0.209003 416.526 0 416 0C415.474 0 414.969 0.209003 414.597 0.581032C414.225 0.95306 414.016 1.45764 414.016 1.98377V15.8701C414.016 16.3963 414.225 16.9008 414.597 17.2729C414.969 17.6449 415.474 17.8539 416 17.8539Z" fill="#06425C"/>
<path d="M397.853 19.421C397.993 19.8037 398.246 20.1342 398.58 20.3678C398.913 20.6014 399.311 20.7267 399.718 20.7267C399.949 20.7267 400.179 20.6857 400.396 20.6055C400.641 20.5166 400.866 20.3803 401.058 20.2044C401.25 20.0284 401.406 19.8163 401.516 19.5801C401.626 19.3439 401.689 19.0884 401.7 18.828C401.711 18.5677 401.671 18.3077 401.581 18.0629L399.206 11.5383C399.019 11.0522 398.65 10.6587 398.176 10.4427C397.702 10.2268 397.163 10.2056 396.674 10.3838C396.185 10.562 395.785 10.9253 395.562 11.3953C395.338 11.8654 395.308 12.4045 395.478 12.8964L397.853 19.421Z" fill="#06425C"/>
<path d="M367.764 37.922L373.777 41.3936C374.233 41.6567 374.774 41.7279 375.283 41.5917C375.791 41.4554 376.224 41.1229 376.487 40.6671C376.75 40.2114 376.822 39.6698 376.685 39.1616C376.549 38.6533 376.217 38.22 375.761 37.9569L369.748 34.4853C369.522 34.3551 369.273 34.2705 369.015 34.2366C368.756 34.2026 368.494 34.2198 368.242 34.2873C367.99 34.3547 367.755 34.4711 367.548 34.6297C367.341 34.7883 367.168 34.9861 367.037 35.2118C366.907 35.4374 366.823 35.6865 366.789 35.9449C366.755 36.2032 366.772 36.4657 366.839 36.7173C366.907 36.969 367.023 37.2049 367.182 37.4116C367.34 37.6183 367.538 37.7917 367.764 37.922Z" fill="#06425C"/>
<path d="M362.274 74.9376C362.39 74.9376 362.506 74.9276 362.62 74.9077L369.457 73.7015C369.975 73.6101 370.436 73.3165 370.738 72.8854C371.039 72.4542 371.158 71.9209 371.066 71.4026C370.975 70.8844 370.681 70.4237 370.25 70.122C369.819 69.8202 369.286 69.702 368.767 69.7935L361.931 70.9994C361.442 71.0854 361.003 71.3513 360.701 71.7449C360.398 72.1385 360.255 72.631 360.298 73.1254C360.341 73.6198 360.568 74.0801 360.933 74.4154C361.299 74.7508 361.777 74.9369 362.274 74.937V74.9376Z" fill="#06425C"/>
<path d="M383.878 98.6769L379.415 103.995C379.242 104.194 379.111 104.425 379.029 104.675C378.946 104.925 378.914 105.189 378.935 105.451C378.956 105.714 379.028 105.969 379.149 106.203C379.269 106.437 379.435 106.645 379.637 106.814C379.838 106.984 380.072 107.111 380.323 107.189C380.574 107.268 380.839 107.295 381.101 107.27C381.363 107.245 381.617 107.168 381.849 107.044C382.081 106.92 382.286 106.75 382.452 106.546L386.916 101.228C387.088 101.029 387.22 100.798 387.302 100.548C387.384 100.298 387.416 100.034 387.396 99.7719C387.375 99.5095 387.302 99.2538 387.182 99.0197C387.061 98.7857 386.895 98.578 386.694 98.4087C386.492 98.2394 386.259 98.1119 386.008 98.0336C385.756 97.9554 385.492 97.9279 385.23 97.9529C384.968 97.9779 384.713 98.0547 384.481 98.179C384.249 98.3033 384.044 98.4726 383.878 98.6769Z" fill="#06425C"/>
<path d="M383.878 28.2841C384.044 28.4884 384.249 28.6576 384.481 28.7819C384.713 28.9062 384.968 28.9831 385.23 29.0081C385.492 29.033 385.756 29.0056 386.007 28.9274C386.259 28.8491 386.492 28.7216 386.694 28.5523C386.895 28.383 387.061 28.1753 387.181 27.9413C387.302 27.7072 387.375 27.4515 387.395 27.1891C387.416 26.9267 387.384 26.6628 387.302 26.4127C387.22 26.1627 387.088 25.9316 386.916 25.7328L377.989 15.0952C377.823 14.8909 377.618 14.7217 377.386 14.5974C377.154 14.4731 376.899 14.3962 376.637 14.3712C376.375 14.3463 376.111 14.3737 375.859 14.452C375.608 14.5302 375.375 14.6577 375.173 14.827C374.972 14.9963 374.806 15.204 374.685 15.4381C374.565 15.6721 374.492 15.9278 374.471 16.1902C374.451 16.4526 374.483 16.7166 374.565 16.9666C374.647 17.2166 374.778 17.4478 374.951 17.6465L383.878 28.2841Z" fill="#06425C"/>
<path d="M369.114 57.197C369.61 57.1966 370.088 57.0104 370.453 56.6751C370.819 56.3397 371.046 55.8796 371.089 55.3854C371.132 54.8912 370.988 54.3988 370.686 54.0053C370.384 53.6119 369.945 53.3458 369.457 53.2596L355.782 50.8476C355.263 50.7561 354.73 50.8743 354.299 51.1761C353.868 51.4779 353.574 51.9386 353.483 52.4568C353.391 52.975 353.51 53.5084 353.811 53.9395C354.113 54.3706 354.574 54.6642 355.092 54.7556L368.766 57.1671C368.881 57.187 368.997 57.1971 369.114 57.197Z" fill="#06425C"/>
<path d="M373.777 85.5674L361.75 92.5106C361.294 92.7736 360.962 93.2069 360.825 93.7152C360.689 94.2235 360.76 94.765 361.024 95.2208C361.287 95.6765 361.72 96.0091 362.228 96.1453C362.736 96.2815 363.278 96.2103 363.734 95.9472L375.76 89.004C375.986 88.8738 376.184 88.7004 376.342 88.4937C376.501 88.287 376.617 88.0511 376.685 87.7994C376.752 87.5477 376.77 87.2852 376.736 87.0269C376.702 86.7686 376.617 86.5195 376.487 86.2938C376.357 86.0682 376.183 85.8704 375.976 85.7117C375.77 85.5531 375.534 85.4367 375.282 85.3693C375.03 85.3018 374.768 85.2846 374.51 85.3186C374.251 85.3526 374.002 85.4371 373.777 85.5674Z" fill="#06425C"/>
<path d="M431.605 20.6047C431.822 20.6849 432.051 20.7259 432.283 20.7259C432.69 20.7259 433.087 20.6006 433.421 20.367C433.755 20.1334 434.008 19.8029 434.148 19.4202L436.522 12.8964C436.692 12.4045 436.662 11.8654 436.438 11.3953C436.215 10.9253 435.815 10.562 435.326 10.3838C434.837 10.2056 434.297 10.2268 433.824 10.4427C433.35 10.6587 432.98 11.0522 432.794 11.5383L430.419 18.0621C430.33 18.3069 430.29 18.5669 430.301 18.8272C430.312 19.0876 430.375 19.3431 430.485 19.5793C430.595 19.8155 430.75 20.0276 430.943 20.2036C431.135 20.3795 431.36 20.5158 431.605 20.6047Z" fill="#06425C"/>
<path d="M455.512 40.6671C455.776 41.1227 456.209 41.4551 456.717 41.5913C457.225 41.7275 457.767 41.6564 458.223 41.3936L464.236 37.922C464.462 37.7917 464.659 37.6183 464.818 37.4116C464.977 37.2049 465.093 36.969 465.16 36.7173C465.228 36.4657 465.245 36.2032 465.211 35.9449C465.177 35.6865 465.093 35.4374 464.962 35.2118C464.832 34.9861 464.659 34.7883 464.452 34.6297C464.245 34.4711 464.009 34.3547 463.758 34.2873C463.506 34.2198 463.243 34.2026 462.985 34.2366C462.727 34.2705 462.478 34.3551 462.252 34.4853L456.239 37.9569C456.013 38.0871 455.815 38.2606 455.657 38.4672C455.498 38.6739 455.382 38.9099 455.314 39.1615C455.247 39.4132 455.23 39.6757 455.264 39.9341C455.298 40.1924 455.382 40.4415 455.512 40.6671Z" fill="#06425C"/>
<path d="M470.069 70.9999L463.234 69.794C462.715 69.7025 462.182 69.8207 461.751 70.1225C461.32 70.4242 461.026 70.8849 460.935 71.4031C460.843 71.9214 460.961 72.4547 461.263 72.8858C461.565 73.317 462.026 73.6106 462.544 73.702L469.381 74.9082C469.495 74.9281 469.611 74.9381 469.727 74.9381C470.224 74.938 470.702 74.7519 471.067 74.4165C471.433 74.0812 471.66 73.6209 471.703 73.1265C471.746 72.6321 471.602 72.1395 471.3 71.746C470.998 71.3524 470.559 71.0864 470.07 71.0005L470.069 70.9999Z" fill="#06425C"/>
<path d="M448.122 98.6769C447.956 98.4726 447.751 98.3033 447.519 98.179C447.287 98.0547 447.033 97.9779 446.771 97.9529C446.508 97.9279 446.244 97.9554 445.993 98.0336C445.741 98.1119 445.508 98.2394 445.307 98.4087C445.105 98.578 444.939 98.7857 444.819 99.0197C444.698 99.2538 444.625 99.5095 444.605 99.7719C444.584 100.034 444.616 100.298 444.698 100.548C444.781 100.798 444.912 101.029 445.084 101.228L449.548 106.546C449.889 106.939 450.371 107.182 450.89 107.223C451.409 107.264 451.923 107.099 452.322 106.765C452.72 106.43 452.971 105.952 453.021 105.434C453.07 104.916 452.914 104.399 452.586 103.995L448.122 98.6769Z" fill="#06425C"/>
<path d="M446.601 28.9921C446.891 28.9928 447.177 28.9297 447.44 28.8074C447.703 28.685 447.936 28.5064 448.122 28.2841L457.049 17.6465C457.221 17.4478 457.353 17.2166 457.435 16.9666C457.517 16.7166 457.549 16.4526 457.528 16.1902C457.508 15.9278 457.435 15.6721 457.315 15.4381C457.194 15.204 457.028 14.9963 456.827 14.827C456.625 14.6577 456.392 14.5302 456.14 14.452C455.889 14.3737 455.625 14.3463 455.363 14.3712C455.101 14.3962 454.846 14.4731 454.614 14.5974C454.382 14.7217 454.177 14.8909 454.011 15.0952L445.084 25.7328C444.841 26.0219 444.686 26.3742 444.637 26.7484C444.587 27.1226 444.646 27.5032 444.805 27.8454C444.964 28.1876 445.218 28.4773 445.536 28.6804C445.854 28.8835 446.224 28.9917 446.601 28.9921Z" fill="#06425C"/>
<path d="M476.219 50.8475L462.543 53.2595C462.055 53.3457 461.616 53.6118 461.314 54.0053C461.012 54.3987 460.868 54.8911 460.912 55.3853C460.955 55.8795 461.181 56.3396 461.547 56.675C461.912 57.0103 462.39 57.1965 462.886 57.1969C463.002 57.1969 463.119 57.1869 463.233 57.167L476.908 54.7551C477.426 54.6637 477.887 54.3701 478.189 53.939C478.491 53.5079 478.609 52.9746 478.517 52.4563C478.426 51.9381 478.132 51.4774 477.701 51.1756C477.27 50.8738 476.737 50.7556 476.219 50.8471V50.8475Z" fill="#06425C"/>
<path d="M470.249 92.5106L458.223 85.5674C457.997 85.4371 457.748 85.3526 457.489 85.3186C457.231 85.2846 456.969 85.3018 456.717 85.3693C456.465 85.4367 456.229 85.5531 456.023 85.7117C455.816 85.8704 455.643 86.0682 455.512 86.2938C455.382 86.5195 455.298 86.7686 455.264 87.0269C455.23 87.2852 455.247 87.5477 455.314 87.7994C455.382 88.0511 455.498 88.287 455.657 88.4937C455.815 88.7004 456.013 88.8738 456.239 89.004L468.265 95.9472C468.721 96.2103 469.263 96.2815 469.771 96.1453C470.279 96.0091 470.712 95.6765 470.976 95.2208C471.239 94.765 471.31 94.2235 471.174 93.7152C471.037 93.2069 470.705 92.7736 470.249 92.5106Z" fill="#06425C"/>
<path d="M416 21.8214C405.481 21.8333 395.397 26.0172 387.959 33.4552C380.521 40.8931 376.337 50.9778 376.325 61.4967C376.308 66.8193 377.374 72.0896 379.457 76.9876C381.54 81.8856 384.597 86.309 388.443 89.9892C390.236 91.671 391.669 93.6996 392.655 95.9519C393.641 98.2042 394.16 100.633 394.179 103.092V113.075C394.179 113.601 394.388 114.105 394.76 114.477C395.132 114.849 395.636 115.058 396.163 115.058H402.273C402.746 118.362 404.395 121.384 406.916 123.57C409.438 125.756 412.663 126.959 416 126.959C419.337 126.959 422.563 125.756 425.084 123.57C427.606 121.384 429.254 118.362 429.728 115.058H435.838C436.364 115.058 436.869 114.849 437.241 114.477C437.613 114.105 437.822 113.601 437.822 113.075V103.092C437.841 100.633 438.359 98.2042 439.345 95.9519C440.331 93.6996 441.764 91.671 443.558 89.9892C447.403 86.309 450.46 81.8856 452.543 76.9876C454.626 72.0896 455.692 66.8193 455.676 61.4967C455.664 50.9778 451.48 40.8931 444.042 33.4552C436.604 26.0172 426.519 21.8333 416 21.8214ZM416 122.993C413.715 122.991 411.5 122.2 409.73 120.754C407.959 119.309 406.741 117.297 406.281 115.058H425.719C425.259 117.297 424.041 119.309 422.271 120.754C420.5 122.2 418.286 122.991 416 122.993ZM398.146 111.091V105.14H433.854V111.091H398.146ZM408.065 73.3993H403.106C402.125 73.3993 401.166 73.1085 400.35 72.5635C399.535 72.0186 398.899 71.244 398.524 70.3378C398.148 69.4316 398.05 68.4344 398.242 67.4724C398.433 66.5103 398.905 65.6267 399.599 64.9331C400.292 64.2395 401.176 63.7672 402.138 63.5758C403.1 63.3844 404.097 63.4826 405.004 63.858C405.91 64.2334 406.684 64.869 407.229 65.6846C407.774 66.5002 408.065 67.459 408.065 68.4399V73.3993ZM419.968 101.172H412.033V77.3669H419.968V101.172ZM440.803 87.1335C436.896 90.8296 434.462 95.8176 433.953 101.172H423.935V77.3669H428.895C430.66 77.3669 432.386 76.8433 433.854 75.8624C435.322 74.8815 436.466 73.4873 437.142 71.8561C437.818 70.2249 437.995 68.43 437.65 66.6984C437.306 64.9667 436.455 63.3761 435.207 62.1276C433.959 60.8792 432.368 60.0289 430.636 59.6845C428.905 59.34 427.11 59.5168 425.479 60.1925C423.847 60.8681 422.453 62.0123 421.472 63.4804C420.491 64.9484 419.968 66.6743 419.968 68.4399V73.3993H412.033V68.4399C412.033 66.6743 411.509 64.9484 410.528 63.4804C409.547 62.0123 408.153 60.8681 406.522 60.1925C404.891 59.5168 403.096 59.34 401.364 59.6845C399.633 60.0289 398.042 60.8792 396.793 62.1276C395.545 63.3761 394.695 64.9667 394.35 66.6984C394.006 68.43 394.183 70.2249 394.858 71.8561C395.534 73.4873 396.678 74.8815 398.146 75.8624C399.614 76.8433 401.34 77.3669 403.106 77.3669H408.065V101.172H398.047C397.539 95.8176 395.105 90.8296 391.197 87.1335C387.737 83.8223 384.986 79.8423 383.112 75.4352C381.237 71.0281 380.278 66.2859 380.292 61.4967C380.292 52.0264 384.054 42.944 390.751 36.2475C397.448 29.551 406.53 25.7889 416 25.7889C425.471 25.7889 434.553 29.551 441.249 36.2475C447.946 42.944 451.708 52.0264 451.708 61.4967C451.723 66.2859 450.763 71.0281 448.889 75.4352C447.014 79.8423 444.263 83.8223 440.803 87.1335ZM423.935 73.3993V68.4399C423.935 67.459 424.226 66.5002 424.771 65.6846C425.316 64.869 426.091 64.2334 426.997 63.858C427.903 63.4826 428.9 63.3844 429.862 63.5758C430.824 63.7672 431.708 64.2395 432.402 64.9331C433.095 65.6267 433.567 66.5103 433.759 67.4724C433.95 68.4344 433.852 69.4316 433.477 70.3378C433.101 71.244 432.466 72.0186 431.65 72.5635C430.834 73.1085 429.876 73.3993 428.895 73.3993H423.935Z" fill="#06425C"/>
<path d="M446.508 52.7285C444.583 46.12 440.571 40.3118 435.072 36.1714C429.574 32.031 422.883 29.7806 416 29.7565C415.474 29.7565 414.969 29.9655 414.597 30.3375C414.225 30.7095 414.016 31.2141 414.016 31.7402C414.016 32.2664 414.225 32.7709 414.597 33.143C414.969 33.515 415.474 33.724 416 33.724C422.023 33.7451 427.877 35.7142 432.689 39.3372C437.5 42.9602 441.011 48.0425 442.695 53.8251C442.847 54.3239 443.188 54.7431 443.646 54.9922C444.104 55.2412 444.641 55.3001 445.142 55.156C445.643 55.012 446.067 54.6766 446.323 54.2224C446.578 53.7681 446.645 53.2316 446.508 52.7287V52.7285Z" fill="#06425C"/>
</g>
<defs>
<clipPath id="clip0">
<rect width="252.01" height="252.01" fill="white" transform="translate(147.221 55.3767)"/>
</clipPath>
<clipPath id="clip1">
<rect width="118.857" height="118.857" fill="white" transform="translate(401.143 136.416)"/>
</clipPath>
<clipPath id="clip2">
<rect width="128.312" height="128.312" fill="white" transform="translate(0 158.026)"/>
</clipPath>
<clipPath id="clip3">
<rect width="126.961" height="126.961" fill="white" transform="translate(352.52)"/>
</clipPath>
</defs>
</svg>
