<svg width="25" height="25" viewBox="0 0 25 25" fill="none" xmlns="http://www.w3.org/2000/svg">
<path d="M13.1406 4.03125L15.4844 5.01562L16.4688 7.35938C16.5156 7.45312 16.6094 7.54688 16.75 7.54688C16.8438 7.54688 16.9375 7.45312 16.9844 7.35938L17.9688 5.01562L20.3125 4.03125C20.4062 3.98438 20.4531 3.89062 20.4531 3.79688C20.4531 3.65625 20.4062 3.5625 20.3125 3.51562L17.9688 2.53125L16.9844 0.1875C16.9375 0.09375 16.8438 0 16.75 0C16.6094 0 16.5156 0.09375 16.4688 0.1875L15.4844 2.53125L13.1406 3.51562C13.0469 3.5625 13 3.65625 13 3.79688C13 3.89062 13.0469 3.98438 13.1406 4.03125ZM18.0625 12.5625L13.1406 11.8125L10.9375 7.35938C10.5625 6.5625 9.39062 6.5625 9.01562 7.35938L6.8125 11.8125L1.89062 12.5625C1 12.6562 0.671875 13.7812 1.28125 14.3906L4.84375 17.8594L4 22.7812C3.85938 23.625 4.79688 24.3281 5.59375 23.9062L9.95312 21.5625L14.3594 23.9062C14.5 23.9531 14.7344 24 14.875 24C15.4844 24 15.9531 23.5312 15.9531 22.9219C15.9531 22.875 15.9531 22.8281 15.9531 22.7812L15.1094 17.8594L18.6719 14.3906C19.2812 13.7812 18.9531 12.6562 18.0625 12.5625ZM24.8594 10.3125L22.9844 9.51562L22.1875 7.64062C22.1406 7.59375 22.0469 7.54688 22 7.54688C21.9062 7.54688 21.8125 7.59375 21.7656 7.64062L20.9688 9.51562L19.0938 10.3125C19.0469 10.3594 19 10.4531 19 10.5C19 10.5938 19.0469 10.6875 19.0938 10.7344L20.9688 11.5312L21.7656 13.4062C21.8125 13.4531 21.9062 13.5 22 13.5C22.0469 13.5 22.1406 13.4531 22.1875 13.4062L22.9844 11.5312L24.8594 10.7344C24.9062 10.6875 25 10.5938 25 10.5C25 10.4531 24.9062 10.3594 24.8594 10.3125Z" fill="#085A7D"/>
</svg>
