<svg width="25" height="24" viewBox="0 0 25 24" fill="none" xmlns="http://www.w3.org/2000/svg">
<path d="M11.5 4.5L12.25 3L13.75 2.25L12.25 1.5L11.5 0L10.75 1.5L9.25 2.25L10.75 3L11.5 4.5ZM4.75 7.5L5.96875 5.01562L8.5 3.75L5.96875 2.53125L4.75 0L3.48438 2.53125L1 3.75L3.48438 5.01562L4.75 7.5ZM21.25 13.5L19.9844 16.0312L17.5 17.25L19.9844 18.5156L21.25 21L22.4688 18.5156L25 17.25L22.4688 16.0312L21.25 13.5ZM24.5312 4.45312L20.5469 0.46875C20.2656 0.1875 19.8906 0 19.5156 0C19.0938 0 18.7188 0.1875 18.4375 0.46875L1.42188 17.4844C0.8125 18.0938 0.8125 19.0312 1.42188 19.5938L5.40625 23.5781C5.6875 23.8594 6.0625 24 6.4375 24C6.85938 24 7.23438 23.8594 7.51562 23.5781L24.5312 6.5625C25.1406 5.95312 25.1406 5.01562 24.5312 4.45312ZM17.8281 9.5625L15.4375 7.17188L19.5156 3.09375L21.9062 5.48438L17.8281 9.5625Z" fill="#085A7D"/>
</svg>
