<!-- Created with Inkscape (http://www.inkscape.org/) -->
<svg width="158.83" height="150" version="1.1" viewBox="0 0 158.83 150" xmlns="http://www.w3.org/2000/svg">
 <g transform="matrix(2.2627 0 0 -2.2627 -1116.5 1573.7)">
  <path transform="translate(503.09 643.61)" d="m0 0 0.391-1.235 3.153-3.401 30.408 2.287 10.868 17.159 0.931 13.904 0.661 6.756 5.091 2.399 5.337-0.123 2.178 3.232-7.515 1.542-8.249-1.346 3.329 10.452-0.196 0.221-12.778 0.049-39.631-7.099-1.542-22.472 0.71-10.501z" fill="#fff"/>
  <g fill="#0067b1">
   <path transform="translate(504.39 662.51)" d="m0 0c3.709 8.42 6.413 9.99 10.732 11.256 0 0-6.282-10.471-7.591-16.011-1.428-1.517-3.503-2.979-4.232-2.705-1.259 0.473-0.595 3.632 1.091 7.46"/>
   <path transform="translate(503.48 642.37)" d="m0 0c-5.944 5.697-10.001 12.24-10.048 21.461v31.682h44.815c-6.334-2.948-9.743-7.894-11.041-11.059l-2.985-6.924-3.658-0.943c-0.218-1.622 0.967-2.432 2.538-2.214l-6.374-14.713c-1.839-1.63-4.391-3.507-4.916-3.285-0.826 0.351-0.531 1.542 0.239 3.275l7.407 16.676c-4.35-1.096-11.625-1.647-15.726-7.319-5.871-8.119-6.064-15.007-4.886-16.578 1.047-1.396 5.322 0.437 8.826 3.825 0-4.696 2.954-3.026 4.794-1.84 0.839 0.541 2.357 1.728 3.306 2.692l-2.176-4.684c-4.411-9.328-7.16-10.114-10.115-10.052"/>
   <path transform="translate(558.22 678.76)" d="m0 0c-2.962 1.241-5.504 0.47-8.248-0.144v-14.592c0-23.471-28.558-34.804-28.558-34.804s-7.417 3.557-14.821 9.782c0 0 5.344-0.883 11.123 14.174 0 0 5.94 13.592 9.896 23.04l5.012 1.332-6.736-15.191c-1.239-2.862-0.612-4.641 0.514-5.159 2.231-1.027 11.512 6.157 14.636 10.977 0 0-1.339-0.134-2.231-1.116-2.026-2.228-7.832-6.786-8.74-6.203-0.625 0.402-0.257 1.416 0.152 2.273 0.715 1.669 4.101 8.909 6.89 15.345l14.397 3.25c5.454 0.982 7.394 0.216 8.529-0.24l-1.815-2.724"/>
   <path transform="translate(561.91 684.26)" d="m0 0c-2.057 0.51-3.948 1.156-8.868 0.238 0 0-8.426-1.643-14.686-3.188l2.276 5.249s-4.158-0.373-5.931-4.467l-1.109-1.957-4.863-1.198c0.207 0.515 1.608 3.816 1.771 4.24 2.266 5.892 10.412 12.273 17.73 12.273h1.741v-9.07c6.595 1.61 10.652 1.13 13.662 0.454l-1.723-2.574"/>
  </g>
 </g>
</svg>
