<svg width="1141" height="248" viewBox="0 0 1141 248" fill="none" xmlns="http://www.w3.org/2000/svg">
<path d="M84.3666 161.974C98.41 176.123 95.2366 200.247 90.3487 217.721C88.6708 223.669 86.3363 228.804 88.1236 235.195C90.0934 242.067 101.875 254.701 106.398 242.51C116.721 214.692 125.439 172.54 105.632 147.16C83.3088 118.529 35.5976 128.688 6.45288 139.032C-0.0034491 141.36 -2.41089 146.68 2.95114 152.147C9.11566 158.391 16.265 160.275 24.5817 157.43C40.4489 152.036 60.6569 148.416 76.3053 156.211C79.2963 157.689 82.0321 159.61 84.3666 161.974C64.5599 141.951 104.173 181.997 84.3666 161.974Z" fill="#904199"/>
<path d="M39.1738 184.842C39.1738 172.207 49.2778 161.974 61.7527 161.974C74.2277 161.974 84.3317 172.207 84.3317 184.842C84.3317 197.476 74.2277 207.71 61.7527 207.71C49.3143 207.71 39.1738 197.476 39.1738 184.842Z" fill="#904199"/>
<path d="M159.583 161.974C145.612 176.123 148.749 200.247 153.637 217.721C155.278 223.669 157.649 228.804 155.862 235.195C153.856 242.067 142.11 254.701 137.551 242.51C127.265 214.692 118.547 172.577 138.317 147.16C160.641 118.529 208.352 128.688 237.496 139.032C243.916 141.286 246.36 146.643 240.998 152.11C234.834 158.354 227.684 160.238 219.404 157.393C203.5 151.963 183.292 148.342 167.608 156.137C164.689 157.689 161.917 159.61 159.583 161.974C179.389 141.951 139.812 181.997 159.583 161.974Z" fill="#ED1C2E"/>
<path d="M182.197 207.71C169.722 207.71 159.582 197.476 159.582 184.879C159.582 172.207 169.686 161.974 182.197 161.974C194.636 161.974 204.776 172.207 204.776 184.879C204.776 197.476 194.636 207.71 182.197 207.71Z" fill="#ED1C2E"/>
<path d="M244.428 125.881C244.428 124.994 244.574 124.145 244.865 123.369C245.157 122.593 245.595 121.891 246.106 121.3C246.616 120.709 247.236 120.266 247.929 119.896C248.659 119.564 249.389 119.379 250.155 119.379C250.957 119.379 251.723 119.564 252.416 119.896C253.109 120.229 253.729 120.709 254.276 121.3C254.751 121.891 255.188 122.593 255.517 123.369C255.808 124.145 255.954 124.994 255.954 125.881C255.954 126.768 255.772 127.617 255.517 128.393C255.188 129.169 254.751 129.871 254.276 130.462C253.729 131.053 253.146 131.496 252.416 131.866C251.759 132.235 250.993 132.383 250.155 132.383C249.352 132.383 248.623 132.198 247.929 131.866C247.236 131.533 246.616 131.053 246.106 130.462C245.595 129.871 245.194 129.169 244.865 128.393C244.537 127.617 244.428 126.768 244.428 125.881ZM245.96 125.881C245.96 126.546 246.069 127.174 246.324 127.802C246.507 128.393 246.835 128.91 247.236 129.354C247.601 129.76 248.039 130.129 248.55 130.388C249.06 130.647 249.607 130.794 250.191 130.794C250.775 130.794 251.322 130.647 251.832 130.388C252.343 130.129 252.781 129.76 253.146 129.354C253.547 128.91 253.839 128.393 254.057 127.802C254.276 127.211 254.386 126.546 254.386 125.881C254.386 125.216 254.276 124.551 254.057 123.96C253.839 123.369 253.547 122.852 253.146 122.408C252.781 121.965 252.343 121.596 251.832 121.337C251.322 121.078 250.775 120.968 250.191 120.968C249.607 120.968 249.06 121.078 248.55 121.337C248.039 121.596 247.601 121.928 247.236 122.408C246.835 122.852 246.507 123.369 246.324 123.96C246.106 124.588 245.96 125.216 245.96 125.881ZM247.966 122.408H250.082C250.227 122.408 250.446 122.408 250.738 122.445C251.03 122.482 251.322 122.556 251.577 122.704C251.832 122.852 252.088 123.073 252.307 123.369C252.489 123.664 252.598 124.108 252.598 124.625C252.598 124.994 252.562 125.29 252.453 125.475C252.416 125.696 252.307 125.881 252.161 126.029C252.051 126.14 251.869 126.25 251.723 126.361C251.541 126.435 251.395 126.509 251.212 126.509L252.781 129.206H251.139L249.79 126.62H249.534V129.206H247.966V122.408ZM249.534 125.253H250.155C250.227 125.253 250.337 125.253 250.446 125.253C250.556 125.253 250.629 125.216 250.738 125.179C250.811 125.105 250.921 125.068 250.957 124.957C251.066 124.847 251.066 124.736 251.066 124.551C251.066 124.366 251.066 124.219 250.957 124.145C250.921 124.034 250.811 123.96 250.738 123.923C250.629 123.886 250.556 123.849 250.446 123.849C250.337 123.849 250.227 123.849 250.155 123.849H249.534V125.253Z" fill="#F2C318"/>
<path d="M887.947 85.0958H910.307V96.622H910.636C911.365 94.9965 912.386 93.371 913.736 91.7455C915.086 90.12 916.691 88.6793 918.551 87.3863C920.411 86.0932 922.527 85.0588 924.934 84.2461C927.305 83.4334 929.895 83.027 932.704 83.027C938.613 83.027 943.355 84.0614 947.003 86.0933C950.614 88.1251 953.459 90.9697 955.465 94.5902C957.471 98.2106 958.857 102.459 959.587 107.336C960.317 112.212 960.681 117.532 960.681 123.221V170.065H937.373V128.43C937.373 125.992 937.3 123.443 937.154 120.82C937.008 118.197 936.534 115.795 935.768 113.579C935.002 111.362 933.798 109.552 932.193 108.148C930.588 106.744 928.29 106.043 925.263 106.043C922.272 106.043 919.828 106.671 917.967 107.89C916.107 109.109 914.685 110.734 913.7 112.803C912.715 114.835 912.058 117.162 911.766 119.711C911.475 122.261 911.292 124.957 911.292 127.765V170.065H887.984V85.0958H887.947Z" fill="#4D4D4C"/>
<path d="M569.727 85.0955H591.175V96.2893H591.466C592.415 94.7746 593.619 93.223 595.114 91.6344C596.61 90.0828 598.361 88.642 600.403 87.349C602.409 86.056 604.598 85.0216 607.005 84.2089C609.376 83.3961 611.93 82.9897 614.629 82.9897C620.21 82.9897 625.28 84.0611 629.876 86.2407C634.436 88.4204 638.339 91.4497 641.622 95.3287C644.904 99.2078 647.385 103.863 649.172 109.219C650.923 114.576 651.799 120.487 651.799 126.878C651.799 132.826 650.996 138.515 649.391 143.909C647.786 149.34 645.488 154.142 642.533 158.317C639.579 162.528 635.968 165.853 631.736 168.365C627.505 170.877 622.69 172.133 617.292 172.133C612.404 172.133 607.881 171.284 603.686 169.584C599.491 167.885 596.063 165.003 593.363 160.94H593.035V209.889H569.727V85.0955ZM591.175 127.58C591.175 133.971 592.816 139.18 596.063 143.133C599.345 147.086 603.905 149.081 609.814 149.081C615.723 149.081 620.319 147.086 623.566 143.133C626.812 139.18 628.454 133.971 628.454 127.58C628.454 121.189 626.812 115.98 623.566 112.027C620.319 108.074 615.723 106.079 609.814 106.079C603.905 106.079 599.309 108.074 596.063 112.027C592.816 115.98 591.175 121.152 591.175 127.58Z" fill="#4D4D4C"/>
<path d="M474.631 127.58C474.631 120.819 475.725 114.687 477.914 109.219C480.102 103.752 483.057 99.06 486.851 95.144C490.644 91.2281 495.094 88.2357 500.237 86.1299C505.344 84.0241 510.816 82.9897 516.615 82.9897C522.415 82.9897 527.887 84.0611 532.993 86.1299C538.136 88.2357 542.587 91.2281 546.38 95.144C550.174 99.06 553.128 103.752 555.317 109.219C557.469 114.687 558.563 120.819 558.563 127.58C558.563 134.341 557.469 140.473 555.317 145.941C553.128 151.408 550.174 156.1 546.38 160.016C542.587 163.932 538.136 166.924 532.993 169.03C527.85 171.136 522.415 172.17 516.615 172.17C510.816 172.17 505.344 171.136 500.237 169.03C495.094 166.924 490.644 163.932 486.851 160.016C483.057 156.137 480.102 151.408 477.914 145.941C475.689 140.436 474.631 134.341 474.631 127.58ZM497.939 127.58C497.939 133.971 499.581 139.18 502.827 143.133C506.11 147.086 510.67 149.081 516.579 149.081C522.488 149.081 527.048 147.086 530.33 143.133C533.577 139.18 535.218 133.971 535.218 127.58C535.218 121.189 533.577 115.98 530.33 112.027C527.048 108.074 522.488 106.079 516.579 106.079C510.67 106.079 506.074 108.074 502.827 112.027C499.544 115.98 497.939 121.152 497.939 127.58Z" fill="#4D4D4C"/>
<path d="M384.494 127.58C384.494 120.819 385.588 114.687 387.777 109.219C389.966 103.752 392.92 99.06 396.714 95.144C400.507 91.2281 404.957 88.2357 410.101 86.1299C415.207 84.0241 420.679 82.9897 426.479 82.9897C432.278 82.9897 437.75 84.0611 442.893 86.1299C448.036 88.2357 452.486 91.2281 456.243 95.144C460.037 99.06 462.991 103.752 465.18 109.219C467.369 114.687 468.426 120.819 468.426 127.58C468.426 134.341 467.332 140.473 465.18 145.941C462.991 151.408 460.037 156.1 456.243 160.016C452.45 163.932 448 166.924 442.893 169.03C437.75 171.136 432.278 172.17 426.479 172.17C420.679 172.17 415.207 171.136 410.101 169.03C404.957 166.924 400.507 163.932 396.714 160.016C392.92 156.137 389.966 151.408 387.777 145.941C385.552 140.436 384.494 134.341 384.494 127.58ZM407.803 127.58C407.803 133.971 409.444 139.18 412.69 143.133C415.973 147.086 420.533 149.081 426.442 149.081C432.351 149.081 436.947 147.086 440.194 143.133C443.44 139.18 445.082 133.971 445.082 127.58C445.082 121.189 443.44 115.98 440.194 112.027C436.911 108.074 432.351 106.079 426.442 106.079C420.533 106.079 415.937 108.074 412.69 112.027C409.408 115.98 407.803 121.152 407.803 127.58Z" fill="#4D4D4C"/>
<path d="M1137.23 155.361C1133.51 160.718 1128.76 164.856 1123.07 167.774C1117.38 170.693 1111.47 172.133 1105.35 172.133C1099.55 172.133 1094.08 171.099 1088.97 168.993C1083.83 166.888 1079.38 163.895 1075.62 159.979C1071.82 156.063 1068.87 151.371 1066.68 145.904C1064.49 140.436 1063.4 134.304 1063.4 127.543C1063.4 120.783 1064.49 114.65 1066.68 109.182C1068.87 103.715 1071.82 99.0231 1075.62 95.1072C1079.41 91.1912 1083.86 88.1988 1088.97 86.093C1094.11 83.9873 1099.55 82.9529 1105.35 82.9529C1110.74 82.9529 1115.63 84.0242 1120.05 86.093C1124.46 88.1988 1128.18 91.1912 1131.24 95.1072C1134.31 99.0231 1136.64 103.715 1138.32 109.182C1139.96 114.65 1140.8 120.783 1140.8 127.543V135.745H1086.71C1087.66 140.769 1089.66 144.759 1092.76 147.714C1095.86 150.707 1099.69 152.184 1104.25 152.184C1108.08 152.184 1111.33 151.224 1113.95 149.303C1116.62 147.382 1118.92 144.906 1120.89 141.877L1137.23 155.361ZM1117.49 117.938C1117.6 113.505 1116.29 109.737 1113.63 106.596C1110.93 103.456 1107.46 101.868 1103.19 101.868C1100.6 101.868 1098.34 102.348 1096.37 103.272C1094.4 104.195 1092.73 105.414 1091.3 106.855C1089.92 108.296 1088.82 109.995 1088.06 111.916C1087.29 113.837 1086.85 115.832 1086.74 117.938H1117.49V117.938Z" fill="#4D4D4C"/>
<path d="M732.258 155.361C728.537 160.718 723.795 164.856 718.105 167.774C712.415 170.693 706.506 172.133 700.378 172.133C694.578 172.133 689.106 171.099 684 168.993C678.857 166.888 674.406 163.895 670.613 159.979C666.819 156.063 663.865 151.371 661.676 145.904C659.524 140.436 658.43 134.304 658.43 127.543C658.43 120.783 659.524 114.65 661.676 109.182C663.865 103.715 666.819 99.0231 670.613 95.1072C674.406 91.1912 678.857 88.1988 684 86.093C689.106 83.9873 694.578 82.9529 700.378 82.9529C705.776 82.9529 710.664 84.0242 715.078 86.093C719.491 88.1988 723.212 91.1912 726.276 95.1072C729.34 99.0231 731.674 103.715 733.352 109.182C735.03 114.65 735.833 120.783 735.833 127.543V135.745H681.738C682.687 140.769 684.693 144.759 687.793 147.714C690.894 150.707 694.724 152.184 699.283 152.184C703.113 152.184 706.36 151.224 708.986 149.303C711.649 147.382 713.947 144.906 715.917 141.877L732.258 155.361ZM712.524 117.938C712.634 113.505 711.321 109.737 708.621 106.596C705.922 103.456 702.457 101.868 698.189 101.868C695.599 101.868 693.338 102.348 691.368 103.272C689.398 104.195 687.72 105.414 686.334 106.855C684.948 108.296 683.854 109.995 683.088 111.916C682.285 113.837 681.848 115.832 681.775 117.938H712.524V117.938Z" fill="#4D4D4C"/>
<path d="M816.636 46.2684H836.698L884.555 170.065H857.198L847.714 143.835H804.963L795.808 170.065H769.07L816.636 46.2684ZM825.974 82.2879L812.623 120.746H839.506L825.974 82.2879Z" fill="#4D4D4C"/>
<path d="M360.384 78.4458C358.013 75.1948 355.058 72.6826 351.593 70.9463C348.128 69.21 344.115 68.3234 339.556 68.3234C334.996 68.3234 330.765 69.3208 326.898 71.2788C322.995 73.2737 319.64 76.0445 316.794 79.591C313.949 83.1375 311.724 87.386 310.119 92.2625C308.514 97.139 307.712 102.459 307.712 108.148C307.712 113.985 308.514 119.305 310.119 124.144C311.724 128.984 313.913 133.158 316.721 136.742C319.53 140.288 322.813 143.059 326.57 145.054C330.364 147.049 334.413 148.047 338.753 148.047C343.714 148.047 348.128 146.864 351.958 144.537C355.788 142.21 358.961 138.922 361.442 134.747L381.65 151.704C376.981 159.056 371.071 164.449 363.922 167.959C356.773 171.468 349.404 173.205 341.854 173.205C333.245 173.205 325.33 171.69 318.071 168.661C310.812 165.631 304.538 161.309 299.249 155.62C293.96 149.968 289.838 143.133 286.884 135.079C283.929 127.026 282.434 118.049 282.434 108.148C282.434 98.2472 283.929 89.2701 286.884 81.2165C289.838 73.1629 293.96 66.3284 299.249 60.6761C304.538 55.0238 310.812 50.6646 318.071 47.6722C325.33 44.6428 333.245 43.1282 341.854 43.1282C344.954 43.1282 348.201 43.4607 351.556 44.0887C354.912 44.7167 358.232 45.7511 361.515 47.155C364.761 48.5588 367.898 50.406 370.925 52.7703C373.917 55.0977 376.616 57.9423 379.023 61.3411L360.384 78.4458Z" fill="#4D4D4C"/>
<path d="M84.3666 86.0548C98.3735 71.8687 95.2365 47.7448 90.3487 30.2707C88.6708 24.3229 86.2998 19.1878 88.1236 12.7597C90.0934 5.88831 101.875 -6.67234 106.398 5.48193C116.721 33.2631 125.439 75.4521 105.632 100.832C83.3087 129.389 35.5976 119.304 6.45288 108.96C-0.0034491 106.669 -2.41089 101.312 2.95114 95.8817C9.11566 89.6014 16.265 87.7542 24.5817 90.5619C40.4489 95.9925 60.6569 99.6129 76.3053 91.8179C79.2963 90.3402 82.0321 88.4192 84.3666 86.0548C64.5598 106.078 104.173 65.9947 84.3666 86.0548Z" fill="#0071B9"/>
<path d="M61.786 40.2836C74.261 40.2836 84.365 50.5168 84.365 63.1513C84.365 75.7859 74.261 86.0191 61.786 86.0191C49.3111 86.0191 39.2071 75.7859 39.2071 63.1513C39.1707 50.5168 49.3111 40.2836 61.786 40.2836Z" fill="#0071B9"/>
<path d="M159.582 86.0563C145.612 71.8701 148.749 47.7463 153.637 30.2722C155.278 24.3244 157.649 19.1893 155.862 12.7612C153.855 5.88977 142.11 -6.67088 137.551 5.4834C127.228 33.2646 118.51 75.4536 138.317 100.834C160.64 129.391 208.351 119.305 237.496 108.961C243.916 106.671 246.36 101.314 240.998 95.8831C234.833 89.6398 227.684 87.7557 219.404 90.6003C203.5 96.0309 183.292 99.6513 167.607 91.8563C164.689 90.3417 161.917 88.4206 159.582 86.0563C179.389 106.079 139.812 65.9962 159.582 86.0563Z" fill="#F2C318"/>
<path d="M204.776 63.1513C204.776 75.7859 194.636 86.0191 182.197 86.0191C169.722 86.0191 159.582 75.7859 159.582 63.1513C159.582 50.5168 169.686 40.2836 182.197 40.2836C194.636 40.2836 204.776 50.5168 204.776 63.1513Z" fill="#F2C318"/>
<path d="M1051.76 170.064H1030.31V158.871H1029.98C1029.03 160.385 1027.83 161.937 1026.33 163.525C1024.84 165.077 1023.05 166.518 1021.04 167.811C1019.04 169.104 1016.81 170.138 1014.37 170.951C1011.93 171.764 1009.41 172.17 1006.82 172.17C1001.24 172.17 996.131 171.099 991.608 168.919C987.048 166.776 983.145 163.747 979.863 159.831C976.58 155.915 974.099 151.297 972.312 145.941C970.561 140.584 969.686 134.673 969.686 128.282C969.686 122.334 970.488 116.645 972.093 111.251C973.698 105.82 975.959 101.018 978.914 96.8431C981.869 92.6316 985.48 89.3067 989.711 86.7946C993.942 84.2825 998.794 83.0264 1004.16 83.0264C1009.04 83.0264 1013.57 83.8761 1017.76 85.5755C1021.96 87.2749 1025.39 90.1564 1028.08 94.2202H1028.38V37.882H1051.68V170.064H1051.76ZM1030.31 127.58C1030.31 121.189 1028.67 115.98 1025.42 112.027C1022.14 108.074 1017.58 106.079 1011.67 106.079C1005.76 106.079 1001.16 108.074 997.918 112.027C994.672 115.98 993.03 121.189 993.03 127.58C993.03 133.971 994.672 139.18 997.918 143.133C1001.2 147.086 1005.76 149.081 1011.67 149.081C1017.58 149.081 1022.18 147.086 1025.42 143.133C1028.67 139.18 1030.31 133.971 1030.31 127.58Z" fill="#4D4D4C"/>
</svg>
