<svg width="450" height="118" viewBox="0 0 450 118" fill="none" xmlns="http://www.w3.org/2000/svg">
<path d="M135.1 75.3C135.5 73.9 135.5 72.6 135.4 71C137.8 71.5 137.7 75.1 135.1 75.3ZM119.7 100.4C119.7 100.4 119.2 102.9 117.8 102.2C116.3 101.5 116 99.2 116 99.2C116 99.2 117.7 100 119.7 100.4ZM130.8 104.5C129.1 107.3 124.5 104.2 124.5 104.2C125.8 103.2 126.7 101.4 126.9 99.2C129.3 99.4 132.6 101.6 130.8 104.5ZM112 27.2C110.1 26.5 110.6 20.6 110.6 20.6C111.1 23.3 114.2 25.1 117 23.5C117 23.5 114.2 28.1 112 27.2ZM107.6 73C106.2 73.3 104.4 72.7 103.3 71.9C99.9 69.3 98.5 62.2 98.2 56.8C99.7 59.9 102 64.8 106.2 63.5C107.6 63.1 109.4 61.1 109.4 61.1C110.8 64.7 111.9 72.2 107.6 73ZM130.7 16.6C132.1 16.7 133.5 17.5 133.5 18.6C133.5 20.3 131.8 20.7 130.6 20.6C128.9 20.4 128.1 19.4 128.1 18.4C128.1 17.3 129.3 16.6 130.7 16.6ZM112.2 9.39999C114.2 4.49999 119.5 3.69999 119.5 3.69999C115.4 3.59999 102.4 5.59999 101.2 18.6C100.8 22.9 102.4 26.4 104.2 29.4C102 27.7 99.4 24.9 99 21.1C98.7 18 100.3 13.2 100.3 13.2C97.2 16.9 93.8 21.5 94.6 27.8C95.3 33.6 99.2 37.6 101.8 40.9C99.9 40 98.7 39 96.9 37.1C97.5 44.1 99.7 49.5 104.6 52.2C98.3 51.6 97.1 47.2 95.3 42.2C94.1 38.7 92 36.8 90.1 34.7C93.1 35.3 94.7 37.2 96.2 39.3C95.3 33.2 90.9 30.6 84.7 29.8C87.3 27.4 91.6 29.8 93.7 30.9C93.7 30.9 92.4 28.4 91.3 27.2C88.3 24 81.7 24.7 77.7 26C79.1 23.5 83 21.6 86.4 22.6C84.3 20.8 81.8 19.5 78.5 19.3C72.8 18.9 68.1 22 65.4 24C66.1 20.4 69 19.1 71.6 17.5C62.3 16 57.6 21.7 54.6 27.5C54.3 24 57.4 20 57.4 20C46 24.7 47.7 37.5 47.7 37.5C45.6 36.2 45.7 31.5 46.4 29.3C46.4 29.3 44.1 32.6 44 37.2C43.9 41.9 47.2 46.9 47.2 46.9C43.8 46.4 41.7 39.6 41.7 39.6C39.9 49.2 48 57 48 57C44.3 56.6 41.2 52 41.2 52C42.5 61.5 50.9 66.6 50.9 66.6C48.3 67.1 44.5 64.5 44.5 64.5C47.7 71.8 52.4 75.3 52.4 75.3C49.5 75.4 46.4 71.9 46.4 71.9C46.1 75.3 48 79.7 48 79.7C45 78.7 44.1 74.4 44.1 74.4C41.7 77.8 42.1 82.9 42.1 82.9C39.2 81 39.4 76.9 39.4 76.9C36.6 78.3 35 83.9 35 83.9C33.6 80.9 35.1 77.3 35.1 77.3C31.2 78.3 28.7 82.9 28.7 82.9C28.5 80.1 30.3 76.7 30.3 76.7C27.2 76.8 24.6 81.2 24.6 81.2C24.1 78.3 26.8 75.1 26.8 75.1C23.4 74.7 20.5 78.4 20.5 78.4C20.1 75.1 23.4 72.6 23.4 72.6C19.8 71.7 17.1 74.9 17.1 74.9C16.6 71.4 20.4 68.9 20.4 68.9C17.5 67.7 14.4 70.2 14.4 70.2C14 66.6 18 64.6 18 64.6C15.6 62.9 12.4 64.6 12.4 64.6C12.9 61.7 16.6 60.9 16.6 60.9C14.5 58.5 11.4 58.8 11.4 58.8C12.4 56.2 15.8 56.7 15.8 56.7C14.2 54.4 11.2 53.6 11.2 53.6C13.1 52 15.7 53.1 15.7 53.1C15 50.5 11.9 49 11.9 49C14.3 48.2 16.6 49.8 16.6 49.8C16.3 47.5 13.8 45.3 13.8 45.3C16.6 45.4 18.5 47.4 18.5 47.4C18.5 45.4 17.1 43 17.1 43C19.3 43.7 21.3 46 21.3 46C21.5 44.1 21 43 21 43C24.7 44.4 27 47.2 29 50.4C28 44.6 24.3 40.4 18.5 39.9C8.4 39 2 50.5 2 58.9C2 68.7 5.3 75.2 9.7 81.6C14.8 89 23.6 94.7 31.8 96.4C29.2 97.2 26.7 99.3 26.7 101.8C31 102.1 34.5 104 36.3 106.4H51.3C54.9 106.4 58.3 106.3 59.4 106.1C62.2 105.5 63.5 99.3 66.8 99.4C70.1 99.5 69.1 104.8 66.3 105C65.4 105 65 104.6 64.2 104.3C67.2 111.4 76 103.4 71.9 98.4C76.7 98.6 76.4 104.8 73 105.4C78.2 105.9 79.8 100.7 77.3 96.9C74.9 93.1 70.1 93.8 66.3 95.7C62.5 97.5 59 98.9 56.5 99.2C54.4 99.5 52.4 99.3 51.1 98.5C47.2 96.2 54.2 92.3 55.8 91.3C62 87.5 68.6 83 69.2 74.1C69.7 67.4 67.2 64 65.1 59.9C63.4 56.5 61.6 53.1 61.3 48.8C60.9 42.8 65.3 38.4 70.6 38.6C78.1 38.9 81.9 44.9 82.4 52.4C82.6 55.4 81.9 58.9 81.7 61.9C80.9 74.3 86.8 80.7 93.5 86.5C99.6 91.8 105.6 95.2 113.1 98.5C113.6 103.3 116.5 108.6 122.3 106C125.3 111.1 136.3 110.2 134.7 102.7C134 99.2 128.9 98.7 129.2 94.8C129.4 92.9 131.5 91.9 133.5 92.6C135.6 93.3 136.6 96.5 136.4 98.8C139.7 93.3 136.3 85.3 129.5 86.8C126 87.6 122.6 93.7 122.6 93.7C118.2 91.3 114 89 114 89C124.1 88.5 130.5 84 134.2 77.2C139.1 78.3 142.4 75 141.1 71C141.1 71 145.4 72.3 145.8 75.8C146.3 79.3 141.6 80.1 139 78.4C139 78.4 141.2 83.7 145.5 82.7C149.8 81.7 149.3 77.1 148.4 75.3C147.5 73.5 143.6 70.1 144.6 67.8C145.6 65.5 150.2 67 149.6 73C153 68.3 150 60.7 144.5 60.7C140.4 60.7 138.8 64.2 137.8 67.7C137.8 67.7 136.5 67.2 135 67.5C134.2 61.8 130.5 58 124.7 55.7C119.5 53.7 114.4 50.1 113.9 44.4C113.7 41.7 114.5 39.5 116.5 38.5C121.7 35.8 125.3 41.6 126.2 45.4C126.1 40.9 127.8 38.8 129.8 36.6C128.2 33.9 125.1 31.7 121 32.2C118.1 32.6 115.4 34.1 115.4 34.1C116.8 31 119.1 25.6 124.3 25.3C128.5 25.1 130.6 28.8 131.8 32.5C132.5 25.6 136.2 20.8 139.7 17.1C135.7 19.5 133.6 14.5 129.7 14.5C124.2 14.5 121.5 20.6 116.8 21.2C114.8 21.4 113.4 20 112.5 19.4C111.4 18.1 110.2 14.3 112.2 9.39999Z" fill="black"/>
<path d="M157.5 4.90002H158.5V106.7H157.5V4.90002Z" fill="black"/>
<path d="M166.6 17.7C167 17.7 167.7 17.6 168 17.5C168.5 17.3 168.6 17 168.6 16.6V7C168.6 6.6 168.5 6.2 168 6C167.6 5.8 167 5.7 166.7 5.7V5.3H172.9C175.5 5.3 180 6.7 180 11.8C180 16.2 176.2 18.2 172.5 18.2H166.6V17.7ZM177.1 11.8C177.1 8.4 175.3 5.9 172.5 5.9H171.1V16.3C171.2 17.2 171.7 17.7 172.9 17.7C175.8 17.6 177.1 15.2 177.1 11.8ZM193 15.2C192.8 13.4 192.4 11.9 190.5 11.9H189.4V16.5C189.4 16.9 189.5 17.3 190 17.4C190.2 17.5 191 17.6 191.4 17.7V18.1H185V17.7C185.3 17.7 186.2 17.6 186.4 17.5C186.9 17.3 187 17 187 16.6V6.9C187 6.5 186.9 6.1 186.4 6C186.1 5.9 185.3 5.7 185 5.7V5.3H191.7C194.1 5.3 196.1 6.2 196.1 8.2C196.1 10.3 194.2 11.1 192.6 11.5V11.7C193.5 11.8 195 12.3 195.4 13.7C195.7 14.7 195.8 15.5 196 16.5C196.2 17.2 196.6 17.4 196.9 17.4C197.4 17.4 197.8 16.9 197.8 15.7V15.3H198.3V15.7C198.3 17.4 197.6 18.5 195.7 18.5C194.1 18.4 193.3 17.4 193 15.2ZM190.1 11.4C191.8 11.4 193.2 10.7 193.2 8.6C193.2 6.5 192.1 5.9 190.5 5.9H189.3V11.5H190.1V11.4ZM202.4 17.7C202.7 17.7 203.6 17.6 203.9 17.5C204.4 17.3 204.5 17 204.5 16.6V7C204.5 6.6 204.4 6.3 203.9 6.1C203.5 5.9 202.8 5.8 202.4 5.7V5.3H213.1V8.4H212.6C212.4 7.6 211.4 6 210.5 5.9C210 5.8 209.5 5.8 209 5.8H207V11.2H208.4C209.4 11.2 209.8 10.9 210 10.6C210.3 10.3 210.6 9.3 210.6 8.8H211.1V14.1H210.6C210.5 13.5 210.2 12.5 210 12.3C209.7 12 209.4 11.7 208.4 11.7H207V15.9C207 17.4 207.3 17.6 209.1 17.6C210.3 17.6 211.6 17.6 212 17.2C212.7 16.5 213.4 15 213.6 14.4H214.1L213.9 18.2H202.4V17.7ZM228.5 6.5C228.5 6 227.7 5.8 226.7 5.7V5.3H232V5.7C231.6 5.7 231 5.9 230.7 6C230 6.3 229.5 6.8 229.1 7.3C228.1 8.6 227 9.9 226.2 11C227.1 12.3 229.3 15.5 229.8 16.1C230.2 16.6 230.6 17.1 231.2 17.5C231.5 17.7 232.1 17.7 232.6 17.8V18.2H225.2V17.8C226.3 17.7 227.2 17.6 227.2 17C227.2 16.5 226 14.7 224.5 12.7C223.7 13.7 221.5 16.4 221.5 17C221.5 17.5 222.3 17.7 223.3 17.8V18.2H218V17.8C218.4 17.8 218.9 17.6 219.3 17.5C220 17.2 220.5 16.7 220.9 16.2C222.1 14.8 223.2 13.3 224.1 12.2C222.9 10.5 221.6 8.6 220.8 7.4C220.4 6.8 220.1 6.4 219.4 6.1C219.1 6 218.5 5.9 218 5.8V5.3H225.4V5.7C224.3 5.8 223.5 5.9 223.5 6.5C223.5 7.2 225.1 9.3 225.9 10.5C226.8 9.2 228.5 7 228.5 6.5ZM236.6 17.7C236.9 17.7 237.8 17.6 238.1 17.5C238.6 17.3 238.7 17 238.7 16.6V7C238.7 6.6 238.6 6.3 238.1 6.1C237.7 5.9 237 5.8 236.6 5.7V5.3H247.3V8.4H246.8C246.6 7.6 245.6 6 244.7 5.9C244.2 5.8 243.7 5.8 243.2 5.8H241.2V11.2H242.6C243.6 11.2 244 10.9 244.2 10.6C244.5 10.3 244.8 9.3 244.8 8.8H245.3V14.1H244.8C244.7 13.5 244.4 12.5 244.2 12.3C243.9 12 243.6 11.7 242.6 11.7H241.2V15.9C241.2 17.4 241.5 17.6 243.3 17.6C244.5 17.6 245.8 17.6 246.2 17.2C246.9 16.5 247.6 15 247.8 14.4H248.3L248.1 18.2H236.6V17.7ZM252.9 17.7C253.2 17.7 254.1 17.6 254.3 17.5C254.8 17.3 254.9 17 254.9 16.6V7C254.9 6.6 254.8 6.3 254.3 6.1C254 5.9 253.2 5.8 252.9 5.7V5.3H259.3V5.7C259 5.7 258.3 5.9 257.9 6C257.4 6.2 257.3 6.5 257.3 6.9V15.9C257.3 17.4 257.6 17.6 259.4 17.6C260.4 17.6 261.6 17.5 262 17.1C262.6 16.5 263.4 15 263.7 14.3H264.2L263.9 18.1H252.8V17.7H252.9ZM277.3 14.3V6.9C277.3 6.5 277.2 6.2 276.7 6C276.4 5.8 275.7 5.7 275.4 5.7V5.3H281.7V5.7C281.4 5.7 280.7 5.8 280.4 5.9C279.9 6.1 279.8 6.4 279.8 6.8V14.1C279.8 16 280.5 17.6 283 17.6C285.5 17.6 286.5 15.9 286.5 14.1V8.8C286.5 7.3 286.3 6.6 285.9 6.3C285.5 6 284.4 5.8 284.1 5.7V5.3H289.7V5.7C289.4 5.7 288.4 5.9 288 6.2C287.5 6.5 287.4 7.4 287.4 8.7V14.2C287.4 17.3 284.8 18.5 282.6 18.5C279.1 18.4 277.3 16.7 277.3 14.3ZM296.6 7.9V14.6C296.6 16.1 296.8 16.8 297.2 17.2C297.5 17.5 298.7 17.8 299 17.8V18.2H293.4V17.8C293.7 17.8 294.8 17.5 295.1 17.3C295.5 17 295.7 16.2 295.7 14.7V8C295.7 7.4 295.5 6.9 295.1 6.5C294.7 6.1 293.8 5.7 293.2 5.7V5.3H297.4L304.8 14.7V8.8C304.8 7.4 304.6 6.5 304.2 6.2C303.9 6 302.7 5.7 302.4 5.6V5.3H307.9V5.7C307.6 5.7 306.5 5.9 306.2 6.2C305.7 6.5 305.6 7.4 305.6 8.7V18.2H304.6L296.6 7.9ZM312.3 17.7C312.6 17.7 313.4 17.6 313.7 17.5C314.2 17.3 314.3 17 314.3 16.6V6.9C314.3 6.5 314.2 6.2 313.7 6C313.4 5.9 312.7 5.7 312.3 5.6V5.3H318.7V5.7C318.4 5.7 317.7 5.9 317.3 6C316.8 6.2 316.7 6.5 316.7 6.9V16.6C316.7 17 316.9 17.3 317.3 17.5C317.5 17.6 318.3 17.8 318.7 17.8V18.2H312.3V17.7ZM324.6 7.1C324.4 6.6 324.2 6.3 323.8 6.1C323.5 5.9 323 5.8 322.6 5.7V5.3H329V5.7C328 5.8 327.2 6 327.2 6.4C327.2 6.5 327.2 6.7 327.3 6.9C327.5 7.5 329.1 12.2 330.3 15.3C331.1 13.3 332.3 10.4 332.7 9.4C333.2 8.1 333.6 7.2 333.6 6.6C333.6 6 332.4 5.7 331.5 5.7V5.3H336.6V5.7C336.2 5.7 335.7 5.9 335.4 6.1C334.9 6.4 334.6 7 334.3 7.6C333.7 9 330.9 15.7 329.8 18.3H328.8C327.3 14.6 325.1 8.4 324.6 7.1ZM340.1 17.7C340.4 17.7 341.3 17.6 341.6 17.5C342.1 17.3 342.2 17 342.2 16.6V7C342.2 6.6 342.1 6.3 341.6 6.1C341.2 5.9 340.5 5.8 340.1 5.7V5.3H350.8V8.4H350.3C350 7.6 349 6 348.1 5.9C347.6 5.8 347.1 5.8 346.6 5.8H344.6V11.2H346C347 11.2 347.4 10.9 347.6 10.6C347.9 10.3 348.2 9.3 348.2 8.8H348.7V14.1H348.2C348.1 13.5 347.8 12.5 347.6 12.3C347.3 12 347 11.7 346 11.7H344.6V15.9C344.6 17.4 344.9 17.6 346.7 17.6C347.9 17.6 349.2 17.6 349.6 17.2C350.3 16.5 351 15 351.2 14.4H351.7L351.5 18.2H340V17.7H340.1ZM364.5 15.2C364.3 13.4 363.9 11.9 362 11.9H360.9V16.5C360.9 16.9 361 17.3 361.5 17.4C361.7 17.5 362.5 17.6 362.9 17.7V18.1H356.5V17.7C356.8 17.7 357.7 17.6 357.9 17.5C358.4 17.3 358.5 17 358.5 16.6V6.9C358.5 6.5 358.4 6.1 357.9 6C357.6 5.9 356.8 5.7 356.5 5.7V5.3H363.2C365.6 5.3 367.6 6.2 367.6 8.2C367.6 10.3 365.7 11.1 364.1 11.5V11.7C365 11.8 366.5 12.3 366.9 13.7C367.2 14.7 367.3 15.5 367.5 16.5C367.7 17.2 368.1 17.4 368.4 17.4C368.9 17.4 369.3 16.9 369.3 15.7V15.3H369.8V15.7C369.8 17.4 369.1 18.5 367.2 18.5C365.5 18.4 364.8 17.4 364.5 15.2ZM361.6 11.4C363.3 11.4 364.7 10.7 364.7 8.6C364.7 6.5 363.5 5.9 362 5.9H360.8V11.5H361.6V11.4ZM375.4 17.4L374.8 18.3H374.2L374.1 13.7H374.6C375.3 15.6 376.7 17.8 378.9 17.8C380.5 17.8 381.3 16.8 381.3 15.5C381.3 14.4 380.6 13.6 379.4 13.1C378.5 12.7 377.7 12.5 376.8 12.1C375.3 11.4 374.5 10.3 374.5 8.6C374.5 6.6 376.1 5 378.6 5C379.8 5 380.9 5.5 381.6 5.9L382.2 5.1H382.9L383 9.5H382.6C381.8 7.1 380.6 5.6 378.7 5.6C377.8 5.6 376.8 6.3 376.8 7.6C376.8 8.7 377.4 9.4 378.6 9.9C379.5 10.3 380.4 10.6 381.1 10.9C382.6 11.6 383.6 12.4 383.6 14.4C383.6 16.7 381.7 18.4 379.1 18.4C377.1 18.4 376.1 17.9 375.4 17.4ZM388.3 17.7C388.6 17.7 389.4 17.6 389.7 17.5C390.2 17.3 390.3 17 390.3 16.6V6.9C390.3 6.5 390.2 6.2 389.7 6C389.4 5.9 388.7 5.7 388.3 5.6V5.3H394.7V5.7C394.4 5.7 393.7 5.9 393.3 6C392.8 6.2 392.7 6.5 392.7 6.9V16.6C392.7 17 392.9 17.3 393.3 17.5C393.5 17.6 394.3 17.8 394.7 17.8V18.2H388.3V17.7ZM401.7 17.7C402 17.7 403 17.5 403.2 17.5C403.7 17.3 403.8 17 403.8 16.6V5.8H403.1C402.7 5.8 402.1 5.8 401.6 5.9C400.8 6 399.8 7.8 399.5 8.7H399V5.3H411V8.7H410.5C410.3 7.9 409.3 6.1 408.4 5.9C408 5.8 407.4 5.8 406.9 5.8H406.2V16.4C406.2 16.8 406.4 17.2 406.8 17.3C407 17.4 408 17.6 408.3 17.6V18H401.6V17.7H401.7ZM417.4 17.7C417.7 17.7 418.7 17.6 418.9 17.5C419.4 17.3 419.5 17 419.5 16.6V13.6C419.5 13 419.3 12.6 419 11.9C418.3 10.6 417.1 8.3 416.5 7.3C416.2 6.7 415.8 6.3 415.3 6C415 5.8 414.5 5.7 414.1 5.7V5.3H420.8V5.7C420.1 5.7 418.9 5.9 418.9 6.3C418.9 6.5 420.4 9.4 421.8 11.9C422.6 10.5 424.8 6.9 424.8 6.5C424.8 5.9 423.7 5.7 422.9 5.7V5.3H427.7V5.7C427.4 5.7 426.9 5.9 426.6 6.1C426.1 6.4 425.8 6.7 425.4 7.2C424.8 8 423.4 10.4 422.6 11.8C422.1 12.7 422 13.3 422 14.1V16.4C422 16.8 422.2 17.2 422.6 17.3C422.8 17.4 423.8 17.6 424.1 17.6V18H417.4V17.7Z" fill="black"/>
<path d="M198.8 68.8H167V67.5999C168 67.4999 170.3 67.3 171 67C172.3 66.5 172.7 65.3999 172.7 64.1999V35.7999C172.7 34.5999 172.4 33.6 171 33C170 32.6 168 32 167 31.9V30.7H184.4V32C183.4 32.1 181.3 32.3999 180.3 32.7999C178.9 33.1999 178.6 34.3999 178.6 35.5999V62.2C178.6 66.9 179.2 67.3 185.2 67.3C188.4 67.3 192.3 67 193.4 65.9C194.8 64.3 197.7 59.9 198.2 58H199.5L198.8 68.8ZM214.2 69.5C205.8 69.5 201.9 63.4 201.9 56C201.9 49.3 206.2 42.9 213.6 42.9C221.2 42.9 224 47.8999 224 53.5999V54.0999H207.4V54.7C207.4 61.9 209.7 67 215.7 67C220 67 221.4 65.4 223.6 62L224.6 62.7C222.6 66.7 218.9 69.5 214.2 69.5ZM213.5 44.2C210 44.2 207.5 47.7 207.4 52.9L218.6 52.7999C218.6 48.7999 217.7 44.2 213.5 44.2ZM242.9 68.8H223.5V67.5999C224.5 67.4999 226.9 67.2 227.6 66.9C228.9 66.4 229.3 65.4999 229.3 64.1999V35.7C229.3 34.5 228.9 33.5 227.6 32.9C226.4 32.4 224.7 32 223.7 32V30.7999H242.7C246.8 30.7999 253.6 32.5 253.6 38.4C253.6 44.7 249.3 46.5999 244 48.0999V48.5999C248 48.9999 255.6 51.4 255.6 58.7C255.7 65.9 248.2 68.8 242.9 68.8ZM239.8 32.2999C238.9 32.2999 236.6 32.4 235.2 32.4V47.9H238.7C244.8 47.9 247 44.1 247 39.4C247 33.9 243.2 32.2999 239.8 32.2999ZM240 49.4C239 49.4 236.3 49.5 235.3 49.5V63.7999C235.7 66.2999 237.2 67.1999 240.5 67.1999C247.1 67.1999 248.9 62.0999 248.9 57.5999C248.8 53.0999 245.7 49.4 240 49.4ZM270.4 69.5999C263.7 69.5999 257.8 64.4999 257.8 56.2999C257.8 48.3999 263 42.9 270.8 42.9C278.6 42.9 283.5 48.5 283.5 55.9C283.5 63.3 278.8 69.5999 270.4 69.5999ZM270.7 44.2C264.9 44.2 263.4 50.6 263.4 55.9C263.4 62.5 265.5 68.3 270.7 68.3C275.7 68.3 277.8 62.7 277.8 56C277.8 50.1 276.1 44.2 270.7 44.2ZM318.4 48.0999C315.9 54.1999 314.9 56.9999 312.4 63.2999C311.6 65.2999 311.1 66.7999 310.3 69.1999H308.7C306.2 62.4999 304 56.6 301.8 51.2C300.2 54.8 298.6 59.2999 297 63.2999C296.2 65.1999 295.6 66.7999 294.8 69.1999H293.1C289.1 59.1999 287.5 55.1999 284.3 47.5999C283.7 46.0999 281.8 44.9999 280.2 44.7999V43.5999H292.2V44.9C290.9 45 289.2 45.1999 289.2 46.0999C289.2 46.1999 289.3 46.5999 289.6 47.2999C290.7 50.0999 293.3 56.5 295.6 62.4H295.8C297.5 57.9 299.3 53.7999 300.9 49.2999C300.8 48.9999 300.3 48.1 299.9 47.2C299.2 45.6 297.8 44.9999 296.2 44.7999V43.5999H307.7V44.7999C306.4 44.8999 304.8 45 304.8 45.9C304.8 46 304.9 46.5 305.2 47.2C306.3 50 308.9 56.9 311 62.4H311.2C313.4 56.6 314.9 52.6 316.5 48C316.7 47.5 316.8 46.8999 316.8 46.5999C316.8 45.2999 313.7 44.7 312.8 44.7V43.5999H322.8V44.7C321.4 44.9 319.1 46.1999 318.4 48.0999Z" fill="black"/>
<path d="M177 106.4C171.1 106.4 167.1 102.4 167.1 96C167.1 89.9 171.6 85.2 177.6 85.2C179.2 85.2 181.2 86 182.1 86.8L183 85.3H184.2L184.3 92.7H183.6C182.5 89.2 180.5 86.1 176.7 86.1C173.7 86.1 170.7 89 170.7 95.8C170.7 101.2 173.9 104.9 177.8 104.9C181.4 104.9 183.1 103 184.3 100.4L185.1 100.8C183.9 103.6 181.5 106.4 177 106.4ZM192.5 106.4C188.9 106.4 185.8 103.7 185.8 99.3C185.8 95.1 188.6 92.1 192.7 92.1C196.9 92.1 199.5 95.1 199.5 99.1C199.5 103 197 106.4 192.5 106.4ZM192.7 92.8C189.6 92.8 188.8 96.2 188.8 99.1C188.8 102.6 189.9 105.7 192.7 105.7C195.3 105.7 196.5 102.7 196.5 99.1C196.5 96 195.6 92.8 192.7 92.8ZM200 106V105.4C200.5 105.4 200.9 105.3 201.3 105.2C201.9 105 202.1 104.5 202.1 103.9V86.9C202 86.2 201.8 85.5 201.3 85.2C200.9 85 199.8 84.6 199.2 84.6V84L204.6 83.7L204.8 83.9V103.6C204.8 104.3 205.1 104.7 205.6 105C206 105.2 206.4 105.3 206.9 105.4V106H200ZM207.7 106V105.4C208.2 105.4 208.6 105.3 209 105.2C209.6 105 209.8 104.5 209.8 103.9V86.9C209.7 86.2 209.5 85.5 209 85.2C208.6 85 207.5 84.6 206.9 84.6V84L212.3 83.7L212.5 83.9V103.6C212.5 104.3 212.8 104.7 213.3 105C213.7 105.2 214.1 105.3 214.6 105.4V106H207.7ZM221.7 106.3C217.2 106.3 215.1 103 215.1 99.1C215.1 95.5 217.4 92.1 221.4 92.1C225.5 92.1 227 94.8 227 97.8V98.1H218.1V98.4C218.1 102.2 219.3 105 222.5 105C224.8 105 225.6 104.2 226.7 102.4L227.2 102.8C226.2 104.8 224.2 106.3 221.7 106.3ZM221.4 92.8C219.5 92.8 218.2 94.6 218.1 97.4L224.1 97.3C224.1 95.2 223.6 92.8 221.4 92.8ZM241.2 95C240.2 95 239.9 94.3 239.9 93.1C238.9 93.1 238.5 93.3 238.1 93.6V93.8C238.8 94.6 239.2 95.7 239.2 96.6C239.2 99.2 236.6 100.8 234.2 100.8H232.5C232 101.1 231.5 101.4 231.5 102.1C231.5 103.6 233.2 103.5 234.7 103.6C235.6 103.6 237.4 103.7 238 103.8C239.8 103.9 241.8 105.3 241.8 107.9C241.8 110.6 239.4 112.8 234.3 112.8C229.6 112.8 227.8 111.4 227.8 109.2C227.8 107.5 229.3 106.1 232.5 106V105.8C231.3 105.5 229.4 104.8 229.4 103.1C229.4 101.6 231.1 101.1 232 100.7V100.5C229.9 99.7 228.6 98.3 228.6 96.5C228.6 93.8 231 92.1 233.9 92.1C236 92.1 237.6 93 238 93C239.1 92.3 239.7 92.1 241 92.1C241.7 92.1 242.4 92.7 242.4 93.5C242.4 94.4 242 95 241.2 95ZM237.8 106.4C237.1 106.3 235.9 106.2 233.2 106.2C231.1 106.6 230.3 107.4 230.3 109.3C230.3 110.5 231.5 112 234.8 112C237.7 112 239.4 110.8 239.4 108.5C239.3 107.8 239.2 106.8 237.8 106.4ZM233.8 92.8C231.9 92.8 231.4 94.5 231.4 96.5C231.4 98.6 232.4 100.2 233.9 100.2C235.7 100.2 236.4 98.5 236.4 96.6C236.4 94.6 235.7 92.8 233.8 92.8ZM249.1 106.3C244.6 106.3 242.5 103 242.5 99.1C242.5 95.5 244.8 92.1 248.8 92.1C252.9 92.1 254.4 94.8 254.4 97.8V98.1H245.5V98.4C245.5 102.2 246.7 105 249.9 105C252.2 105 253 104.2 254.1 102.4L254.6 102.8C253.6 104.8 251.6 106.3 249.1 106.3ZM248.7 92.8C246.8 92.8 245.5 94.6 245.4 97.4L251.4 97.3C251.5 95.2 251 92.8 248.7 92.8ZM267.5 106.4C263.9 106.4 260.8 103.7 260.8 99.3C260.8 95.1 263.6 92.1 267.7 92.1C271.9 92.1 274.5 95.1 274.5 99.1C274.5 103 272 106.4 267.5 106.4ZM267.7 92.8C264.6 92.8 263.8 96.2 263.8 99.1C263.8 102.6 264.9 105.7 267.7 105.7C270.3 105.7 271.5 102.7 271.5 99.1C271.5 96 270.6 92.8 267.7 92.8ZM285.9 87.9C285.2 87.9 284.2 87.6 284.2 86.6C284.2 86.2 284.4 85.7 284.4 85C284.3 84.6 284 84.4 283.7 84.4C281.8 84.4 280.9 86.2 280.8 90.7V92.5H284.6V93.8H280.8V103.7C280.8 104.3 281.1 104.8 281.6 105C282 105.2 283 105.3 283.5 105.4V106H275.9V105.4C276.4 105.4 276.8 105.3 277.2 105.2C277.8 105 278 104.5 278 103.9V93.9H275V92.6H278V91.7C278 89.2 278.6 87.1 280 85.6C281.2 84.3 282.9 83.8 284.4 83.8C286.6 83.8 287.6 85.1 287.6 86.4C287.5 86.9 286.9 87.9 285.9 87.9ZM301.8 106H291.4V105.3C291.9 105.3 293.2 105.1 293.6 104.9C294.3 104.6 294.5 104.1 294.5 103.5V88.3C294.5 87.6 294.3 87.1 293.6 86.8C293 86.5 292.1 86.3 291.5 86.3V85.6H301.7C303.9 85.6 307.5 86.5 307.5 89.7C307.5 93.1 305.2 94.1 302.3 94.9V95.2C304.4 95.4 308.5 96.7 308.5 100.6C308.7 104.4 304.7 106 301.8 106ZM300.2 86.4C299.7 86.4 298.5 86.4 297.8 86.5V94.8H299.6C302.9 94.8 304 92.8 304 90.3C304 87.3 302 86.4 300.2 86.4ZM300.3 95.6C299.8 95.6 298.3 95.6 297.8 95.7V103.4C298 104.7 298.8 105.2 300.6 105.2C304.1 105.2 305.1 102.5 305.1 100C305.1 97.5 303.4 95.6 300.3 95.6ZM320.5 106L320.3 105.8V104H320.2C319.1 105.1 318 106.3 315.4 106.3C312.6 106.3 311.5 104.2 311.5 101.4V95.1C311.4 94.5 311.2 93.9 310.7 93.6C310.3 93.4 309.7 93.2 309.2 93.1V92.5L314 92.1L314.2 92.3V101.8C314.2 103.9 315.3 104.9 316.6 104.9C318.8 104.9 319.8 103.5 320.2 102.9V94.9C320.1 94.3 319.9 93.7 319.4 93.4C319 93.2 318.2 93 317.5 93V92.4L322.7 92L322.9 92.2V103C323 103.6 323.2 104.1 323.7 104.4C324.1 104.6 324.6 104.8 325.1 104.8V105.4L320.5 106ZM330.5 106.4C329 106.4 327.5 105.7 327 105.2L326.7 106.1H325.7L325.6 101.5H326.2C326.5 103 328.3 105.7 330.7 105.7C332.8 105.7 333.5 104.6 333.5 103.1C333.5 101.6 332.3 100.9 330 100.2C328.1 99.6 326 98.5 326 96C326 93.8 327.7 92.1 330.5 92.1C331.7 92.1 332.9 92.4 333.6 92.9L333.8 92.1H334.7L334.9 96.2H334.3C334 94.5 332.5 92.8 330.4 92.8C328.6 92.8 328.1 93.8 328.1 94.9C328.1 96.6 329.1 96.9 331.6 97.7C334 98.5 335.6 99.6 335.6 102C335.5 104.8 333.3 106.4 330.5 106.4ZM336.4 106V105.4C336.9 105.4 337.3 105.3 337.7 105.2C338.3 105 338.5 104.5 338.5 103.9V95.4C338.4 94.8 338.2 94.2 337.7 93.9C337.3 93.7 336.5 93.4 335.9 93.3V92.7L341 92.4L341.2 92.6V103.7C341.2 104.3 341.5 104.8 342 105.1C342.5 105.3 342.9 105.4 343.3 105.5V106.1H336.4V106ZM339.6 88.3C338.6 88.3 337.8 87.5 337.8 86.5C337.8 85.5 338.6 84.6 339.6 84.6C340.7 84.6 341.5 85.4 341.5 86.4C341.5 87.4 340.7 88.3 339.6 88.3ZM353.1 106V105.4C353.6 105.4 354.1 105.3 354.5 105.2C355.1 105 355.3 104.5 355.3 103.9V96.7C355.3 94.6 354.1 93.5 352.8 93.5C350.6 93.5 349.4 94.9 349.1 95.6V103.7C349.1 104.4 349.4 104.8 349.9 105C350.3 105.2 350.8 105.3 351.3 105.4V106H344.3V105.4C344.8 105.4 345.2 105.3 345.6 105.2C346.2 105 346.4 104.5 346.4 103.9V95.4C346.3 94.8 346.1 94.2 345.6 93.8C345.2 93.6 344.7 93.4 344.1 93.3V92.7L348.9 92.4L349.1 92.6V94.6H349.2C350.3 93.5 351.5 92.2 354 92.2C356.8 92.2 358 94.1 358 96.9V103.8C358 104.5 358.2 104.9 358.8 105.1C359.2 105.3 359.6 105.4 360.1 105.4V106H353.1ZM366.5 106.3C362 106.3 359.9 103 359.9 99.1C359.9 95.5 362.2 92.1 366.2 92.1C370.3 92.1 371.8 94.8 371.8 97.8V98.1H362.9V98.4C362.9 102.2 364.1 105 367.3 105C369.6 105 370.4 104.2 371.5 102.4L372 102.8C371 104.8 369 106.3 366.5 106.3ZM366.1 92.8C364.2 92.8 362.9 94.6 362.8 97.4L368.8 97.3C368.8 95.2 368.4 92.8 366.1 92.8ZM377.8 106.4C376.3 106.4 374.8 105.7 374.3 105.2L374 106.1H373L372.9 101.5H373.5C373.8 103 375.6 105.7 378 105.7C380.1 105.7 380.8 104.6 380.8 103.1C380.8 101.6 379.6 100.9 377.3 100.2C375.4 99.6 373.3 98.5 373.3 96C373.3 93.8 375 92.1 377.8 92.1C379 92.1 380.2 92.4 380.9 92.9L381.1 92.1H382L382.2 96.2H381.6C381.3 94.5 379.8 92.8 377.7 92.8C375.9 92.8 375.4 93.8 375.4 94.9C375.4 96.6 376.4 96.9 378.9 97.7C381.3 98.5 382.9 99.6 382.9 102C382.8 104.8 380.6 106.4 377.8 106.4ZM389.2 106.4C387.7 106.4 386.2 105.7 385.7 105.2L385.4 106.1H384.4L384.3 101.5H384.9C385.2 103 387 105.7 389.4 105.7C391.5 105.7 392.2 104.6 392.2 103.1C392.2 101.6 391 100.9 388.7 100.2C386.8 99.6 384.7 98.5 384.7 96C384.7 93.8 386.4 92.1 389.2 92.1C390.4 92.1 391.6 92.4 392.3 92.9L392.5 92.1H393.4L393.6 96.2H393C392.7 94.5 391.2 92.8 389.1 92.8C387.3 92.8 386.8 93.8 386.8 94.9C386.8 96.6 387.8 96.9 390.3 97.7C392.7 98.5 394.3 99.6 394.3 102C394.2 104.8 392 106.4 389.2 106.4Z" fill="black"/>
</svg>
