<svg height="60" viewBox="0 0 197 60" width="197" xmlns="http://www.w3.org/2000/svg"><g fill="none" fill-rule="evenodd"><path d="m30.3395657 60c2.0356594-.0223775 4.0224006-.2470199 5.9413154-.6555396v-58.68909428c-1.9189148-.40851964-3.905656-.63298861-5.9413154-.65536612zm-6.1503456-.560999v-7.0381603h-14.1436266c3.9262987 3.5007792 8.7782284 5.9843358 14.1436266 7.0381603zm18.2418332-2.1223939c2.1251695-.9681309 4.1167678-2.1777307 5.9413154-3.5923709v-47.44847243c-1.8245476-1.41481368-3.8161459-2.62423999-5.9413154-3.5925443zm12.091661-44.6134676v34.5935475c3.4549834-4.8885316 5.4856122-10.855347 5.4856122-17.2967737 0-6.4414268-2.0306288-12.4082421-5.4856122-17.2967738zm-54.5227143 17.2967738c0 1.0024777.05013256 1.993333.14623442 2.9706577h24.04298568v-5.9413154h-24.04298568c-.09610186.9773247-.14623442 1.9681799-.14623442 2.9706577zm1.60892556-9.7151349h22.58029454v-5.9413154h-19.78414671c-1.13795705 1.8568128-2.0797206 3.8466764-2.79614783 5.9413154zm2.79614783 25.3715852h19.78414671v-5.9413154h-22.58029454c.71642723 2.0946389 1.65819078 4.0845025 2.79614783 5.9413154zm19.78414671-38.05737782v-7.0381603c-5.3653982 1.05382456-10.2173279 3.53738114-14.1436266 7.0381603z" fill="#25a6ac"/><g fill="#1a1919"><path d="m69.243 2.419h11.095v2.914h-7.889v3.101h6.952v2.915h-6.952v5.64h-3.206z"/><path d="m89.7674647 10.8905613-1.9357413-4.72512385-1.9357412 4.72512385zm-3.3720651-8.57596359h2.9559128l6.2445394 14.67478889h-3.3512489l-1.3322424-3.2679837h-6.1614476l-1.332069 3.2679837h-3.2679836zm9.5963086 7.43106773v-.04163257c0-4.14226776 3.1224431-7.53514917 7.5977718-7.53514917 2.747576 0 4.391889.91591665 5.744948 2.24815906l-2.039823 2.35206703c-1.124079-1.0199981-2.268975-1.64448672-3.725942-1.64448672-2.456148 0-4.225706 2.03982271-4.225706 4.53777722v.04163258c0 2.49795453 1.727752 4.57940983 4.225706 4.57940983 1.66513 0 2.685128-.6661212 3.830024-1.7067621l2.039996 2.060639c-1.498773 1.6028541-3.164076 2.6020359-5.974275 2.6020359-4.2879813 0-7.4726998-3.3097897-7.4726998-7.49369006"/><path d="m112.083 16.989h3.205v-14.57h-3.205z"/><path d="m119.056 2.419h2.956l6.827 8.971v-8.971h3.164v14.57h-2.727l-7.056-9.262v9.262h-3.164z"/><path d="m134.994839 9.74566544v-.04163257c0-4.14226776 3.226525-7.53514917 7.639404-7.53514917 2.622679 0 4.204544.70775378 5.724133 1.99819014l-2.01918 2.43550564c-1.123906-.93673294-2.123088-1.47795641-3.809208-1.47795641-2.33125 0-4.1839 2.06081247-4.1839 4.53777722v.04163258c0 2.66431133 1.831833 4.62104233 4.413053 4.62104233 1.165539 0 2.206353-.291428 3.018188-.874284v-2.0814553h-3.226351v-2.76839281h6.327805v6.32780451c-1.498773 1.2697935-3.559585 2.3106079-6.223897 2.3106079-4.537604 0-7.660047-3.184892-7.660047-7.49369006"/><path d="m69.243 23.235h3.206v5.766h5.911v-5.766h3.206v14.571h-3.206v-5.85h-5.911v5.85h-3.206z"/><path d="m85.459 37.806h3.206v-14.571h-3.206z"/><path d="m91.5791756 35.6825863 1.8941087-2.2688019c1.3112527 1.0822735 2.6851276 1.769211 4.3504307 1.769211 1.3112526 0 2.1022715-.5204072 2.1022715-1.373875v-.0416326c0-.8118352-.4995909-1.2279874-2.934923-1.8524761-2.9349231-.7493863-4.8292053-1.5612215-4.8292053-4.4545121v-.0416325c0-2.6436686 2.1230879-4.3920632 5.0996435-4.3920632 2.1234348 0 3.9342783.6661212 5.4122343 1.8526496l-1.665303 2.4145158c-1.2904359-.8951003-2.5604029-1.4363238-3.7883904-1.4363238-1.228161 0-1.8734659.5620398-1.8734659 1.2697935v.0416326c0 .9573758.6244887 1.2696201 3.1432595 1.9150985 2.9557398.7700292 4.6208688 1.8316598 4.6208688 4.3710734v.0416326c0 2.893464-2.206353 4.5169609-5.3496124 4.5169609-2.2061795 0-4.4335223-.7700291-6.181917-2.3312507"/><path d="m109.189 26.191h-4.433v-2.956h12.072v2.956h-4.433v11.615h-3.206z"/><path d="m130.130246 30.561953v-.0416325c0-2.4977811-1.832006-4.5794098-4.413053-4.5794098-2.580872 0-4.371247 2.0399961-4.371247 4.5377772v.0416326c0 2.4979545 1.831834 4.5794098 4.413053 4.5794098 2.581047 0 4.371247-2.0398228 4.371247-4.5377773zm-12.135548 0v-.0416325c0-4.1422678 3.268157-7.5351492 7.764301-7.5351492 4.496145 0 7.722323 3.3512488 7.722323 7.4935166v.0416326c0 4.1422677-3.267984 7.5353226-7.764129 7.5353226-4.495971 0-7.722495-3.3514223-7.722495-7.4936901zm24.479433-.2497954c1.561049 0 2.456149-.8326515 2.456149-2.060639v-.0416326c0-1.373875-.957376-2.0816288-2.518597-2.0816288h-3.184892v4.1839004zm-6.452702-7.0771909h6.660865c1.852476 0 3.2888.5204072 4.24635 1.4779565.811835.8116617 1.248803 1.9565575 1.248803 3.3304325v.0416326c0 2.352067-1.26962 3.8300234-3.122269 4.5167874l3.559585 5.2038985h-3.746932l-3.12227-4.662675h-2.51877v4.662675h-3.205362z"/><path d="m154.735 32.061-5.599-8.826h3.746l3.476 5.849 3.539-5.849h3.643l-5.6 8.763v5.808h-3.205z"/><path d="m175.987834 26.8776436v-.0416326c0-.8326515-.56204-1.3530587-1.373875-1.3530587-.853468 0-1.415508.6038458-1.415508 1.4779564v.0416326c0 .6453049.249969 1.1239061.853468 1.8108436 1.269794-.4786012 1.935915-1.0199981 1.935915-1.9357413zm-.16653 7.6808632-2.789383-2.8308417c-.957376.4995909-1.352885 1.2071712-1.352885 1.914925v.0416326c0 1.0199981.853294 1.7069356 2.039823 1.7069356.72857 0 1.436324-.3122443 2.102445-.8326515zm1.7902 1.8318333c-1.186528.9783655-2.581219 1.6234969-4.267338 1.6234969-2.78921 0-4.891481-1.6234969-4.891481-4.2047166v-.0416326c0-1.8524761.999182-3.1639022 2.830842-3.9965537-.707754-.9991818-1.019999-1.914925-1.019999-2.9141068v-.0416326c0-1.9983636 1.602855-3.8300234 4.41288-3.8300234 2.477138 0 4.100809 1.6234969 4.100809 3.6634931v.0416326c0 1.9565576-1.248978 3.1014534-3.059995 3.8092072l1.935915 1.9357412c.478775-.7492128.957549-1.6026806 1.415508-2.497781l2.35224 1.2906098c-.56204 1.0199981-1.186528 2.1022716-1.915098 3.0806371l2.144077 2.1439042-2.35224 1.6444867zm-96.8783081 14.9879005v-.0416326c0-2.497781-1.8314864-4.5794098-4.412706-4.5794098-2.5812197 0-4.3714204 2.0399962-4.3714204 4.5377773v.0416325c0 2.4979546 1.8318333 4.5794098 4.413053 4.5794098 2.5810461 0 4.3710734-2.0398227 4.3710734-4.5377772zm-12.1353752 0v-.0416326c0-4.1422677 3.2681571-7.5351491 7.7643018-7.5351491 4.4961446 0 7.7223222 3.3512488 7.7223222 7.4935166v.0416325c0 4.1422678-3.2678102 7.5353227-7.7639548 7.5353227-4.4961447 0-7.7226692-3.3514223-7.7226692-7.4936901zm17.8187421.9991818v-8.3261681h3.2055348v8.242903c0 2.3728833 1.1865284 3.6010443 3.1432595 3.6010443 1.9565575 0 3.1430859-1.186355 3.1430859-3.4969629v-8.3469844h3.2055348v8.2220867c0 4.4128795-2.4771382 6.5777734-6.3904268 6.5777734-3.9131151 0-6.3069882-2.1857102-6.3069882-6.473692m22.6267842-1.2489772c1.561048 0 2.456322-.8326515 2.456322-2.060639v-.0416326c0-1.373875-.957549-2.0816288-2.518771-2.0816288h-3.184718v4.1839004zm-6.452702-7.0771909h6.661038c1.852303 0 3.2888.5204072 4.246176 1.4779564.811835.8116618 1.248804 1.9565576 1.248804 3.3304326v.0416326c0 2.352067-1.26962 3.8300234-3.12227 4.5167874l3.559585 5.2038985h-3.746931l-3.12227-4.662675h-2.518597v4.662675h-3.205535zm14.196708 12.4476196 1.894109-2.2688019c1.311252 1.0822735 2.685127 1.769211 4.35043 1.769211 1.311426 0 2.102272-.5204072 2.102272-1.373875v-.0416326c0-.8118352-.499591-1.2279875-2.934923-1.8524761-2.934923-.7493863-4.829205-1.5612216-4.829205-4.4545121v-.0416325c0-2.6436686 2.123261-4.3920633 5.099817-4.3920633 2.123261 0 3.934104.6661213 5.412061 1.8526496l-1.665303 2.4145159c-1.290437-.8951003-2.56023-1.4363238-3.788218-1.4363238-1.228334 0-1.873465.5620398-1.873465 1.2697935v.0416326c0 .9573758.624315 1.2696201 3.143085 1.9150985 2.95574.7700291 4.621043 1.8316598 4.621043 4.3710734v.0416326c0 2.893464-2.206353 4.5169609-5.349613 4.5169609-2.206353 0-4.433695-.7700291-6.18209-2.3312507"/><path d="m131.275 44.051h10.991v2.852h-7.806v2.956h6.869v2.851h-6.869v3.06h7.91v2.852h-11.095z"/><path d="m145.659 44.051h3.206v11.657h7.265v2.914h-10.471z"/><path d="m154.631 44.051h3.539l3.809 10.262 3.809-10.262h3.455l-5.89 14.675h-2.831z"/><path d="m171.263 44.051h10.991v2.852h-7.807v2.956h6.87v2.851h-6.87v3.06h7.911v2.852h-11.095z"/><path d="m184.501696 56.4988739 1.894282-2.2688019c1.311426 1.0822735 2.685301 1.769211 4.350604 1.769211 1.311426 0 2.102445-.5204072 2.102445-1.373875v-.0416326c0-.8118352-.499591-1.2279875-2.935097-1.8524761-2.935096-.7493863-4.829378-1.5612216-4.829378-4.4545121v-.0416325c0-2.6436686 2.123261-4.3920633 5.09999-4.3920633 2.123262 0 3.934279.6661213 5.412235 1.8526496l-1.665303 2.4145159c-1.29061-.8951003-2.560403-1.4363238-3.788564-1.4363238s-1.873466.5620398-1.873466 1.2697935v.0416326c0 .9573758.624488 1.2696201 3.143259 1.9150985 2.955913.7700291 4.621216 1.8316598 4.621216 4.3710734v.0416326c0 2.893464-2.206527 4.5169609-5.349786 4.5169609-2.206526 0-4.433869-.7700291-6.182437-2.3312507"/></g></g></svg>