<svg xmlns="http://www.w3.org/2000/svg" xmlns:xlink="http://www.w3.org/1999/xlink" width="432" height="72"><defs><path id="a" d="M0 .172h54.852V68H0z"/></defs><g fill="none" fill-rule="evenodd"><path fill="#013B71" d="M171.272 37.68c-.023.037-.078.06-.166.06h-7.39c-.068 0-.117-.023-.146-.066-.03-.045-.03-.108.015-.192l3.696-9.351s.084-.203.116-.27c.012-.024.021-.044.035-.058a.06.06 0 0 1 .052-.021c.012 0 .032.002.048.017.021.02.03.045.037.063l.102.269 3.61 9.394c.021.06.021.114-.009.155m13.306 10.937c0-.005-.002-.012 0-.006a.679.679 0 0 0-.01-.032c0-.003-.002-.007-.004-.011a.288.288 0 0 0-.009-.032l-.014-.028a.363.363 0 0 0-.058-.088c-.072-.072-.18-.115-.332-.115-.18 0-.37-.007-.566-.017l-.26-.01a8.232 8.232 0 0 1-.306-.016 2.745 2.745 0 0 1-1.42-.546 3.578 3.578 0 0 1-.97-1.1c-.086-.145-.172-.3-.257-.462v-.001l-.003-.006-.007-.012a14.786 14.786 0 0 1-.516-1.134l-9.999-23.26a6.564 6.564 0 0 0-.44-.923c-.008-.011-.344-.546-.763-.546h-.077c-.345 0-.634.364-.729.498a6.249 6.249 0 0 0-.472.972L157.367 45c-.173.423-.349.808-.528 1.155-.039.075-.078.147-.117.218l-.014.026c-.04.073-.082.145-.124.217a3.578 3.578 0 0 1-.97 1.099c-.378.276-.843.516-1.42.546-.315.017-.364.022-.565.03-.195.01-.386.013-.567.013-.15 0-.26.043-.332.115l-.033.043-.023.04c0 .003-.002.003-.002.005-.004.009-.01.019-.013.028a.196.196 0 0 0-.013.04l-.008.03v.005c-.002.004-.002.007-.002.01a.352.352 0 0 0-.008.076c0 .15.058.253.165.31.118.059.292.079.531.079.192 0 .382-.001.571-.003h.015l.633-.011.122-.002c.091-.003.182-.005.273-.01a134.636 134.636 0 0 0 1.944-.067c.442-.021.738-.036.877-.036.411 0 .87.015 1.368.037l1.026.04h.01c.155.006.31.01.465.017.5.02.963.035 1.39.035.196 0 .35-.02.45-.078a.268.268 0 0 0 .112-.11l.001-.001.002-.004.014-.03c.007-.02.015-.036.02-.056a.457.457 0 0 0 .011-.11.352.352 0 0 0-.102-.277c-.08-.072-.232-.115-.463-.115h-.565c-.583 0-.978-.095-1.204-.274-.225-.185-.325-.443-.318-.77 0-.223.043-.544.137-.95.087-.405.231-.846.427-1.31l2.044-4.956a.45.45 0 0 1 .124-.212c.043-.036.122-.05.223-.05h9c.087 0 .168.014.233.05a.395.395 0 0 1 .16.212l2.955 7.432c.081.227.074.406-.006.559a.524.524 0 0 1-.313.259l-.227.047a.37.37 0 0 0-.266.232.381.381 0 0 0-.015.123c0 .082.016.147.047.2a.26.26 0 0 0 .114.11c.1.059.386.079.582.079.427 0 .89-.014 1.39-.035l.425-.016h.001l1.075-.041a31.8 31.8 0 0 1 1.368-.037c.14 0 .435.015.877.037a134.888 134.888 0 0 0 2.984.089h.001c.19.002.381.003.574.003.24 0 .412-.02.53-.078a.303.303 0 0 0 .156-.224.547.547 0 0 0 .007-.074l.002-.013a.547.547 0 0 0-.007-.08"/><g transform="translate(0 .828)"><mask id="b" fill="#fff"><use xlink:href="#a"/></mask><path fill="#013B71" d="M50.412 39.792c0 11.581-12.413 19.781-22.986 23.5-10.575-3.719-22.987-11.919-22.987-23.5V14.62C15.83 9.311 33.078 4.611 50.412 4.611v35.181zM2.564 10.595L0 11.791v28.001C0 53.854 14.037 63.289 25.952 67.48l1.474.52 1.473-.52c11.914-4.189 25.953-13.625 25.953-27.688V.172h-4.44C34.714.172 16.83 3.947 2.564 10.595z" mask="url(#b)"/></g><path fill="#013B71" d="M34.018 54.455c-.209-.003-.43-.007-.685-.015a10.713 10.713 0 0 1-.737-.045 9.894 9.894 0 0 1-.652-.078c-.393-.061-.7-.166-.923-.323a1.329 1.329 0 0 1-.476-.614 3.445 3.445 0 0 1-.215-.906 28.189 28.189 0 0 1-.13-2.12c-.028-.854-.04-1.83-.047-2.92-.008-1.092-.008-2.268-.008-3.535V22.101c-.339-.018-.68-.026-1.019-.025-1.315.002-2.702.081-3.986.365-.144.032-.288.065-.435.102v21.356c0 1.267 0 2.443-.006 3.535a139.72 139.72 0 0 1-.048 2.903 25.897 25.897 0 0 1-.13 2.092c-.062.567-.169 1.005-.337 1.304-.17.299-.455.495-.862.584a4.566 4.566 0 0 1-.63.107c-.229.022-.499.026-.799.031-.245.004-.423.055-.514.14-.092.084-.135.177-.132.275a.34.34 0 0 0 .201.308c.138.07.33.105.584.105.415 0 .868-.006 1.382-.02l1.531-.046c.507-.017.975-.032 1.397-.048.422-.016.753-.022.991-.022.377 0 .914.015 1.6.038.682.022 1.45.041 2.304.062.86.022 1.743.036 2.643.036.238 0 .42-.039.561-.105.144-.071.217-.17.222-.308.004-.098-.048-.189-.154-.275-.1-.083-.26-.134-.49-.14"/><path fill="#013B71" d="M39.632 41.785c-.13 0-.223.039-.277.123-.055.085-.099.224-.138.433a8.025 8.025 0 0 1-.799 2.194 4.736 4.736 0 0 1-.769 1.076 5.441 5.441 0 0 1-1.774 1.2 8.374 8.374 0 0 1-2.183.531c-.542.054-1.13.093-1.767.106.004.643.01 1.283.022 1.926a49.65 49.65 0 0 0 1.437-.066 25.221 25.221 0 0 0 2.583-.277c.806-.131 1.491-.3 2.051-.515.231-.085.4-.175.523-.261a.954.954 0 0 0 .283-.322 3.48 3.48 0 0 0 .208-.57c.084-.276.17-.605.263-1.008.091-.395.176-.82.26-1.257.085-.439.162-.861.223-1.253.07-.4.123-.738.161-1.005.04-.27.061-.439.061-.499a.671.671 0 0 0-.115-.388c-.069-.106-.153-.159-.253-.168m-25.354-.282c.722 1.313 1.736 2.55 3.042 3.695a15.475 15.475 0 0 0 3.528 2.32c.649.312 1.339.582 2.07.815a326.381 326.381 0 0 0 .016-3.123 14.129 14.129 0 0 1-3.931-3.707 14.332 14.332 0 0 1-1.966-3.881c-.842-2.594-.831-5.494-.408-8.167.2-1.206.559-2.352 1.09-3.427.53-1.084 1.284-2.082 2.277-3.004.467-.454 1.082-.891 1.843-1.298.76-.415 1.736-.754 2.919-1.015 1.183-.261 2.635-.4 4.364-.408 1.207 0 2.32.1 3.35.294a13.67 13.67 0 0 1 2.72.775c.79.33 1.42.692 1.905 1.098.156.123.302.26.44.412.072.086.142.175.209.267.244.339.443.733.6 1.177.15.443.268.864.344 1.278.059.356.099.656.114.897l.006.117a2.204 2.204 0 0 0 .025.277c.004.025.01.046.015.067a.617.617 0 0 0 .037.109c.035.074.104.12.2.144l.039.003c.115 0 .214-.06.298-.191.086-.131.139-.346.163-.638a18.264 18.264 0 0 0 .031-.676c.006-.308.006-.662.015-1.053.008-.392.015-.791.015-1.19.008-.401.022-.761.03-1.092.03-.468.062-.853.094-1.137.02-.284.045-.515.067-.676.016-.161.023-.3.023-.4a.373.373 0 0 0-.1-.291c-.068-.085-.207-.123-.406-.123-.661-.031-1.33-.1-2.005-.214-.554-.096-1.135-.196-1.74-.31l-.404-.075a33.48 33.48 0 0 0-2.052-.262 35.846 35.846 0 0 0-2.043-.153 38.74 38.74 0 0 0-1.806-.047c-2.066.009-3.872.2-5.424.562-1.553.369-2.897.868-4.025 1.498-1.131.629-2.098 1.344-2.906 2.136-.89.883-1.636 1.805-2.227 2.78a15.22 15.22 0 0 0-1.398 2.897 15.899 15.899 0 0 0-.731 2.728c-.344 2.14-.25 4.046.193 6.2.276 1.353.776 2.689 1.49 4.012m16.784-27.459c-.002 0-.004.002-.006.004l.006-.004m.068-.032a.843.843 0 0 0-.068.032l.068-.032m-9.712-.351c.105.05.252.075.438.075.251 0 .501.009.744.038.252.032.487.078.714.145.29.084.532.205.722.356.19.152.336.367.441.639.102.268.18.615.205 1.056.01.174.013.63.017.963.001.112.003.21.005.278l.003.07a24.68 24.68 0 0 1 2.663-.3c.635-.04 1.27-.057 1.901-.06.256 0 .512.006.77.012h.124c.01-.166.021-.811.03-.963.034-.676.155-1.174.372-1.496a1.19 1.19 0 0 1 .437-.39l.006-.002.067-.031a2.725 2.725 0 0 1 .348-.132c.227-.067.462-.113.714-.145.243-.03.493-.038.744-.038.187 0 .333-.025.438-.075l.033-.015c.114-.067.167-.191.167-.364 0-.114-.085-.195-.243-.244-.156-.048-.385-.074-.69-.076-.367.002-.767.009-1.2.016-.486.005-.973.014-1.466.03-.494.015-.942.022-1.36.03-.417.007-.752.015-1.009.015l-.183-.001h-.184c-.257 0-.592-.007-1.008-.014-.419-.008-.868-.015-1.36-.03a65.938 65.938 0 0 0-1.466-.03c-.434-.007-.834-.014-1.2-.016-.306.002-.535.028-.69.076-.159.049-.244.13-.244.244 0 .173.053.297.167.364l.033.015M411.853 35.27c-.103-.038-.253-.053-.473-.053-.3 0-.65.007-1.048.015-.406.008-.798.014-1.198.03-.387.015-.72.022-.999.028-.276.007-.443.012-.492.012-.059 0-.246-.005-.55-.012-.304-.006-.69-.013-1.137-.029-.453-.015-.928-.02-1.42-.029-.5-.008-.97-.015-1.413-.015-.22-.007-.37.015-.464.052-.104.043-.147.124-.147.253a.356.356 0 0 0 .102.202.331.331 0 0 0 .203.102c.123 0 .261.006.43.014.158.01.324.014.476.03.158.013.297.031.401.043.388.072.693.166.917.291.224.123.393.31.493.564.108.262.174.616.204 1.08.027.456.043 1.06.034 1.805v6.39c0 .233-.026.414-.094.542a.785.785 0 0 1-.274.334 2.686 2.686 0 0 1-.412.254 4.424 4.424 0 0 1-1.218.435c-.465.1-.957.168-1.464.212-.506.034-.995.05-1.448.05a15.158 15.158 0 0 1-3.43-.377 13.04 13.04 0 0 1-3.245-1.234c-1.06-.57-2.095-1.324-3.109-2.26-.347-.319-.746-.783-1.202-1.39-.45-.615-.892-1.362-1.327-2.235a15.768 15.768 0 0 1-1.072-2.967 15.001 15.001 0 0 1-.442-3.624c.007-1.44.168-2.753.487-3.95.318-1.195.77-2.239 1.331-3.145.565-.905 1.22-1.644 1.964-2.21.974-.73 1.93-1.259 2.855-1.606.936-.34 1.833-.56 2.7-.663a19.927 19.927 0 0 1 2.445-.122c1.654.008 3.08.153 4.281.434 1.196.275 2.176.64 2.936 1.074.755.435 1.29.892 1.61 1.362.201.297.36.595.483.913a5.522 5.522 0 0 1 .385 1.521c0 .174.015.311.051.414a.207.207 0 0 0 .21.152c.13.007.238-.05.32-.166.072-.108.114-.32.114-.618 0-.918.017-1.686.041-2.3.02-.62.042-1.12.07-1.496.027-.383.048-.688.072-.905.022-.218.036-.39.036-.515a.307.307 0 0 0-.094-.239c-.064-.072-.198-.11-.384-.11-.326 0-.674-.02-1.05-.064a16.548 16.548 0 0 1-1.103-.145 45.675 45.675 0 0 1-.933-.18c-.19-.043-.488-.102-.884-.167-.4-.075-.87-.138-1.413-.203a33.173 33.173 0 0 0-1.733-.165 21.306 21.306 0 0 0-1.84-.074c-.98-.008-2.037.035-3.168.144a19.547 19.547 0 0 0-3.492.666 14.893 14.893 0 0 0-3.514 1.536 11.928 11.928 0 0 0-2.428 1.93 12.773 12.773 0 0 0-2.036 2.69 13.827 13.827 0 0 0-1.405 3.41c-.34 1.253-.515 2.624-.522 4.1.007 1.153.13 2.261.382 3.311a14.251 14.251 0 0 0 1.024 2.942c.428.914.914 1.726 1.456 2.451.543.717 1.11 1.326 1.703 1.82a15.168 15.168 0 0 0 3.354 2.137c1.167.537 2.32.932 3.458 1.197a23.87 23.87 0 0 0 3.195.513c1 .078 1.863.116 2.6.108.56 0 1.183-.03 1.864-.08.68-.06 1.391-.146 2.122-.277a18.43 18.43 0 0 0 2.16-.504 11.79 11.79 0 0 0 1.986-.79.85.85 0 0 0 .347-.26c.072-.096.122-.27.146-.526.024-.258.027-.665.027-1.215v-4.13c0-.77 0-1.457.007-2.059 0-.6.014-1.194.036-1.767.038-.644.153-1.13.365-1.45.201-.319.563-.515 1.071-.594a6.59 6.59 0 0 1 .543-.08c.151-.007.29-.007.414-.007a.312.312 0 0 0 .202-.102.317.317 0 0 0 .102-.202c0-.129-.045-.21-.138-.253m-31.801 8.817a.273.273 0 0 0-.247.115c-.057.088-.102.236-.146.45-.071.487-.181.902-.325 1.225a2.344 2.344 0 0 1-.566.812c-.233.21-.516.39-.847.53a5.2 5.2 0 0 1-1.211.274c-.471.059-.932.088-1.396.103-.472.012-.878.012-1.22.012-.942.008-1.703-.035-2.296-.115-.594-.08-1.052-.223-1.37-.434a1.65 1.65 0 0 1-.682-.898c-.13-.391-.201-.892-.216-1.508a16.865 16.865 0 0 1-.013-.82c-.011-.391-.011-.84-.011-1.352.01-.514.01-1.044.01-1.582.005-.536.005-1.027.005-1.484.009-.448.009-.805.009-1.065v-3.086a.32.32 0 0 1 .049-.183c.037-.051.103-.08.21-.08.139 0 .392 0 .756.009.362 0 .78.006 1.259.014.486.006.972.022 1.473.039.492.012.948.026 1.353.04.414.02.727.044.944.073.484.057.869.145 1.136.254.27.107.465.237.579.39.123.146.203.313.242.485.086.24.134.459.15.659.023.195.029.386.023.56 0 .106.022.195.065.252.044.066.108.095.194.095.13-.01.219-.09.276-.23.05-.148.073-.306.073-.464 0-.102.009-.291.03-.573.013-.285.034-.594.058-.928.027-.341.057-.64.087-.894.048-.598.115-1.07.188-1.397.07-.324.107-.543.113-.645 0-.108-.02-.188-.056-.231a.2.2 0 0 0-.16-.072c-.063 0-.145.05-.23.136-.097.096-.204.203-.335.342-.186.188-.433.312-.738.377a10.5 10.5 0 0 1-1.133.144c-.187.015-.498.029-.947.045-.45.006-.964.022-1.536.022-.573.005-1.146.013-1.703.013-.56.008-1.037.008-1.435.008h-.77c-.1 0-.166-.037-.186-.102a.734.734 0 0 1-.03-.291V23.088a.79.79 0 0 1 .044-.296c.03-.066.086-.095.173-.095.095 0 .328 0 .682.008.355 0 .776.006 1.262.013.49.008.984.015 1.477.02.5.016.933.023 1.32.039.38.015.643.029.78.05.689.088 1.21.175 1.582.277.369.092.63.208.796.345.168.138.285.305.362.509.086.226.146.463.175.717.029.245.043.442.043.587 0 .152.02.267.072.355.046.08.123.122.233.122a.311.311 0 0 0 .223-.13.655.655 0 0 0 .122-.26 4.88 4.88 0 0 0 .067-.514c.022-.232.043-.473.06-.74.02-.261.034-.501.049-.717l.045-.463c.048-.515.113-.898.185-1.168.075-.26.112-.45.119-.572a.76.76 0 0 0-.036-.238c-.03-.075-.072-.111-.138-.111a.986.986 0 0 0-.262.074c-.092.037-.146.063-.257.092a6.929 6.929 0 0 1-.708.117c-.31.043-.658.08-1.035.108-.154.009-.477.016-.958.016-.484 0-1.064.006-1.738.006-.673 0-1.37-.006-2.093-.006-.732 0-1.414 0-2.052-.007-.636 0-1.167 0-1.58-.01h-.706c-.067 0-.242-.005-.541-.011-.304-.008-.664-.015-1.106-.03a54.674 54.674 0 0 0-1.392-.027 77.467 77.467 0 0 0-1.398-.016c-.22 0-.37.02-.465.073-.102.043-.145.122-.145.23a.321.321 0 0 0 .103.204.306.306 0 0 0 .203.102c.122 0 .26 0 .427.014a10.487 10.487 0 0 1 .876.07c.412.059.733.168.95.328.218.16.369.385.449.666a4.4 4.4 0 0 1 .166 1.052c.015.224.03.47.044.724.007.26.022.565.022.927.006.362.014.818.014 1.363.01.543.01 1.219.01 2.02v9.445c0 1.195 0 2.298-.01 3.319a109.27 109.27 0 0 1-.055 2.724 20.012 20.012 0 0 1-.156 1.957c-.051.36-.107.68-.171.963a1.73 1.73 0 0 1-.276.668.839.839 0 0 1-.552.326c-.18.027-.376.057-.587.098a3.67 3.67 0 0 1-.588.077c-.107.003-.188.034-.231.099a.315.315 0 0 0-.071.2c0 .114.05.193.158.235.1.05.254.07.449.07.314 0 .666-.006 1.058-.025a63.54 63.54 0 0 0 1.16-.06c.427-.021.79-.037 1.102-.037.31-.007.493-.007.553-.007.279 0 .68 0 1.193.007.515.016 1.175.037 1.979.08.78.022 1.73.052 2.839.079 1.11.028 2.377.053 3.812.053.486.006.87-.01 1.154-.035.282-.031.489-.111.635-.246.146-.14.26-.367.34-.676.06-.204.117-.492.176-.85.058-.36.115-.74.166-1.128.057-.393.094-.731.13-1.03a5.91 5.91 0 0 0 .05-.558c0-.135-.014-.267-.05-.382-.036-.118-.104-.175-.21-.184m51.899.183c-.036-.118-.104-.176-.209-.185a.272.272 0 0 0-.246.116c-.057.088-.103.235-.147.451-.071.485-.181.9-.325 1.223a2.335 2.335 0 0 1-.566.812 2.94 2.94 0 0 1-.847.53c-.34.13-.746.217-1.21.275-.472.058-.932.088-1.397.102-.472.013-.877.013-1.219.013-.943.008-1.704-.035-2.297-.115-.594-.08-1.052-.224-1.37-.435a1.65 1.65 0 0 1-.681-.897c-.132-.392-.202-.893-.218-1.508a18.793 18.793 0 0 1-.012-.82c-.011-.39-.011-.84-.011-1.353.011-.514.011-1.044.011-1.58.004-.537.004-1.028.004-1.485.008-.449.008-.805.008-1.066v-3.086c0-.073.016-.13.05-.182.036-.05.103-.08.211-.08.138 0 .391 0 .755.008.362 0 .78.006 1.259.015.486.006.972.021 1.473.038.492.013.948.026 1.353.041.414.021.727.043.943.072.485.058.87.146 1.138.254.269.108.464.237.578.391.123.145.203.312.243.484.085.24.133.46.149.66.023.195.029.385.023.561 0 .104.022.193.065.251.044.065.109.095.194.095.131-.009.219-.089.275-.23.051-.148.074-.307.074-.465 0-.1.009-.29.031-.573.012-.284.033-.594.057-.928.027-.34.058-.639.086-.893a10.76 10.76 0 0 1 .189-1.397c.071-.325.108-.543.113-.645 0-.108-.02-.188-.056-.23a.197.197 0 0 0-.159-.074c-.064 0-.146.051-.23.137-.098.095-.205.203-.335.341a1.438 1.438 0 0 1-.739.377c-.298.057-.675.11-1.133.144-.187.016-.498.03-.947.045-.45.007-.964.022-1.536.022-.573.006-1.146.013-1.703.013-.559.008-1.037.008-1.435.008h-.768c-.101 0-.168-.036-.188-.1a.752.752 0 0 1-.03-.292V23.088c0-.132.016-.232.044-.297.03-.066.086-.094.174-.094.094 0 .326 0 .681.007.355 0 .776.007 1.263.014.489.007.983.015 1.476.021.501.015.933.022 1.32.038.381.014.643.028.782.05.687.087 1.209.174 1.581.276.368.093.629.208.795.346.168.138.286.305.363.508.086.226.145.464.174.718.029.245.043.442.043.587 0 .151.02.267.072.355.046.08.123.122.233.122a.316.316 0 0 0 .223-.13.669.669 0 0 0 .123-.26c.024-.116.045-.29.066-.515.022-.232.043-.472.061-.739.02-.262.033-.5.049-.717l.044-.464a7.24 7.24 0 0 1 .186-1.168c.074-.259.111-.448.119-.57a.73.73 0 0 0-.038-.24c-.029-.074-.071-.11-.137-.11a.767.767 0 0 0-.262.074c-.116.055-.144.07-.257.092-.18.035-.393.074-.708.117-.309.043-.658.081-1.035.108a21.25 21.25 0 0 1-.958.016c-.483 0-1.063.006-1.738.006-.673 0-1.369-.006-2.093-.006-.732 0-1.414 0-2.052-.008-.637 0-1.167 0-1.579-.008h-.707c-.066 0-.242-.006-.54-.013-.305-.007-.665-.014-1.107-.029a59.453 59.453 0 0 0-1.392-.028 77.028 77.028 0 0 0-1.398-.015c-.218 0-.371.021-.464.072-.103.043-.146.123-.146.231a.317.317 0 0 0 .103.203.308.308 0 0 0 .203.103c.122 0 .261 0 .427.014.159.007.325.014.478.03.159.013.299.027.398.041.413.058.733.167.95.327.218.16.369.384.449.666.087.284.145.63.166 1.051.016.225.03.471.045.725.006.26.02.565.02.926.007.363.015.82.015 1.364.01.543.01 1.218.01 2.021v9.442c0 1.195 0 2.298-.01 3.32a104.268 104.268 0 0 1-.056 2.723c-.03.79-.081 1.441-.154 1.957-.052.36-.108.681-.172.963a1.73 1.73 0 0 1-.276.668.835.835 0 0 1-.552.326c-.18.027-.376.058-.587.1a3.649 3.649 0 0 1-.588.075c-.107.004-.188.034-.231.1a.311.311 0 0 0-.071.201c0 .112.05.191.158.233.1.051.254.071.449.071.315 0 .666-.006 1.058-.026.399-.017.782-.037 1.161-.06.426-.02.789-.037 1.101-.037.311-.006.493-.006.553-.006.278 0 .68 0 1.192.006a84.25 84.25 0 0 1 1.98.08c.781.023 1.729.052 2.839.08 1.11.028 2.377.052 3.812.052.486.006.87-.009 1.154-.035.282-.03.49-.11.635-.246.146-.14.261-.366.341-.676.059-.204.117-.492.175-.848.058-.362.115-.74.166-1.129.057-.394.094-.732.13-1.03.036-.296.05-.484.05-.558a1.3 1.3 0 0 0-.05-.383m-121.275-4.111c-.341 1.32-.807 2.442-1.392 3.363-.58.922-1.24 1.683-1.965 2.277a9.474 9.474 0 0 1-2.252 1.377c-.777.326-1.524.557-2.254.687-.723.123-1.377.19-1.958.182-1.74-.008-3.34-.334-4.803-.978a11.06 11.06 0 0 1-3.833-2.79c-1.088-1.224-1.93-2.688-2.536-4.415-.603-1.723-.905-3.657-.912-5.817.007-2.015.284-3.767.819-5.275.54-1.507 1.303-2.76 2.28-3.76a9.495 9.495 0 0 1 3.487-2.262c1.334-.5 2.809-.745 4.413-.745 1.218 0 2.384.18 3.506.551 1.13.368 2.172.92 3.129 1.65a11.17 11.17 0 0 1 2.517 2.725c.718 1.087 1.275 2.348 1.673 3.782.397 1.434.602 3.037.607 4.811-.005 1.777-.18 3.326-.526 4.637m.107-15.847c-1.37-1.195-2.964-2.113-4.795-2.744-1.834-.632-3.834-.95-6-.956-1.762.005-3.357.224-4.791.651-1.435.435-2.718 1.021-3.841 1.77a14.11 14.11 0 0 0-2.92 2.563 15.06 15.06 0 0 0-2.034 3.058 15.159 15.159 0 0 0-1.2 3.253 13.724 13.724 0 0 0-.387 3.14c0 1.112.122 2.244.382 3.383a15.048 15.048 0 0 0 1.167 3.34 13.695 13.695 0 0 0 2 3.028 12.982 12.982 0 0 0 2.87 2.478c1.108.715 2.369 1.277 3.79 1.673 1.42.407 2.999.608 4.746.616 1.847-.008 3.556-.267 5.137-.774 1.572-.515 2.994-1.232 4.246-2.16a14.014 14.014 0 0 0 3.218-3.276 14.834 14.834 0 0 0 2.034-4.135c.473-1.5.71-3.08.71-4.743-.013-2.155-.396-4.09-1.15-5.795-.764-1.709-1.82-3.168-3.182-4.37M280.839 42.39c-.125 0-.211.036-.261.117-.051.079-.093.21-.132.407-.043.24-.13.548-.25.925a9.085 9.085 0 0 1-.502 1.147 4.45 4.45 0 0 1-.726 1.014 5.081 5.081 0 0 1-1.672 1.129 7.698 7.698 0 0 1-2.06.5c-.76.08-1.615.117-2.57.113-1.638-.008-3.161-.248-4.571-.711-1.408-.474-2.684-1.125-3.813-1.966a13.253 13.253 0 0 1-2.898-2.942 13.503 13.503 0 0 1-1.856-3.658 13.475 13.475 0 0 1-.644-4.118 21.914 21.914 0 0 1 .26-3.585 11.523 11.523 0 0 1 1.029-3.233c.499-1.02 1.21-1.962 2.144-2.831.443-.43 1.022-.841 1.74-1.226.717-.392 1.637-.71 2.755-.957 1.116-.248 2.484-.375 4.115-.384 1.137 0 2.187.095 3.158.276.972.18 1.826.427 2.566.732.745.31 1.34.65 1.797 1.037.333.259.623.593.86.985a4.8 4.8 0 0 1 .553 1.29c.13.462.197.934.197 1.418 0 .262.012.457.056.588.037.131.123.197.246.197.11 0 .205-.058.282-.181.08-.124.134-.328.153-.604a8.17 8.17 0 0 0 .029-.636c.006-.29.006-.623.015-.994.006-.37.014-.745.014-1.122.007-.377.023-.716.029-1.03.028-.442.06-.802.088-1.072.02-.268.043-.483.063-.639.016-.15.023-.28.023-.375a.372.372 0 0 0-.092-.276c-.066-.078-.196-.116-.386-.116a15.8 15.8 0 0 1-1.89-.202 86.124 86.124 0 0 1-2.021-.363c-.632-.1-1.277-.18-1.934-.245a36.866 36.866 0 0 0-3.632-.189c-1.95.006-3.652.19-5.116.53-1.464.348-2.733.817-3.798 1.412-1.065.593-1.98 1.268-2.74 2.015-.84.834-1.542 1.7-2.1 2.622a14.41 14.41 0 0 0-1.32 2.733c-.324.905-.55 1.76-.69 2.571-.125.813-.191 1.53-.191 2.16-.016 1.18.114 2.413.375 3.688.259 1.276.732 2.535 1.404 3.782.685 1.24 1.642 2.408 2.87 3.488a14.71 14.71 0 0 0 3.327 2.186c1.224.586 2.603 1.023 4.13 1.319 1.527.297 3.247.45 5.152.45.84 0 1.689-.03 2.544-.08a24.88 24.88 0 0 0 2.435-.26c.76-.123 1.407-.282 1.935-.486.218-.08.376-.166.492-.247a.937.937 0 0 0 .268-.305 3.42 3.42 0 0 0 .196-.535c.082-.26.16-.575.247-.951a40.276 40.276 0 0 0 .455-2.368c.066-.38.117-.698.153-.952.036-.252.057-.411.057-.468a.626.626 0 0 0-.11-.364c-.063-.101-.142-.15-.237-.16m-71.577-.304c-.147-.006-.252.05-.32.162-.065.109-.115.304-.159.578a3.79 3.79 0 0 1-.252.789c-.118.29-.27.58-.45.869a6.224 6.224 0 0 1-.601.822 5.05 5.05 0 0 1-1.682 1.259c-.624.284-1.346.472-2.173.564-.827.096-1.805.14-2.928.133-1.036 0-2.11-.167-3.21-.508a12.364 12.364 0 0 1-3.203-1.522c-1.03-.68-1.957-1.543-2.784-2.572-.825-1.038-1.484-2.248-1.969-3.637-.486-1.394-.733-2.963-.746-4.717a20.462 20.462 0 0 1 .282-3.558 11.814 11.814 0 0 1 1.072-3.284c.507-1.028 1.231-1.95 2.166-2.768a7.606 7.606 0 0 1 1.9-1.194c.695-.312 1.477-.537 2.346-.683.87-.144 1.863-.21 2.973-.21 1.768.008 3.274.218 4.528.618 1.255.388 2.203.913 2.862 1.555a4.915 4.915 0 0 1 1.082 1.639c.243.602.374 1.203.395 1.796 0 .242.032.435.082.575a.319.319 0 0 0 .31.209c.175-.008.298-.095.379-.263.078-.164.123-.382.143-.651.014-.19.022-.447.03-.77l.022-1.048c.006-.385.013-.767.028-1.144.016-.385.03-.725.052-1.038.027-.434.055-.775.085-1.043.023-.261.044-.471.064-.622.016-.16.023-.282.023-.378a.352.352 0 0 0-.117-.282c-.085-.078-.23-.132-.446-.153a32.78 32.78 0 0 1-1.8-.274 91.12 91.12 0 0 0-2.029-.334 76.667 76.667 0 0 0-1.68-.197 29.871 29.871 0 0 0-1.76-.144 38.495 38.495 0 0 0-2.123-.05c-1.892 0-3.58.16-5.059.47-1.477.312-2.796.76-3.956 1.348a14.228 14.228 0 0 0-3.115 2.095c-.905.818-1.654 1.688-2.24 2.6a13.536 13.536 0 0 0-1.37 2.74 14.42 14.42 0 0 0-.68 2.6c-.13.82-.197 1.552-.19 2.189a17.04 17.04 0 0 0 .4 3.71c.276 1.276.769 2.524 1.464 3.754.695 1.232 1.674 2.384 2.92 3.45a15.56 15.56 0 0 0 3.788 2.332 19.293 19.293 0 0 0 4.392 1.277c1.56.266 3.21.397 4.95.39.84 0 1.688-.031 2.558-.081a23.713 23.713 0 0 0 2.434-.258c.76-.123 1.406-.283 1.92-.488.32-.115.543-.254.681-.397.139-.146.247-.376.32-.69.08-.258.16-.573.237-.957a30.726 30.726 0 0 0 .407-2.405c.059-.383.103-.716.132-.99.035-.276.05-.465.05-.56a.94.94 0 0 0-.117-.441.403.403 0 0 0-.318-.212M85.556 48.305c-.194 0-.405-.008-.644-.015a10.768 10.768 0 0 1-.694-.043 7.958 7.958 0 0 1-.617-.074c-.37-.056-.659-.16-.87-.303a1.281 1.281 0 0 1-.449-.578 3.329 3.329 0 0 1-.203-.858 28.188 28.188 0 0 1-.123-1.998c-.022-.806-.035-1.725-.044-2.756-.007-1.026-.007-2.136-.007-3.332V28.97c0-.79 0-1.447.007-1.984 0-.536.009-.985.015-1.34 0-.205.004-.393.01-.566l.005-.137h.003l.007-.217.016-.273.002-.101c.004-.146.008-.277.011-.334.032-.648.149-1.124.356-1.434.101-.152.237-.274.411-.37l.016-.008c.02-.01.04-.02.06-.028l.001-.001.067-.03c.021-.008.042-.018.065-.026l.028-.011a3.09 3.09 0 0 1 .171-.06 4.18 4.18 0 0 1 .973-.161 10.588 10.588 0 0 1 .416-.012l.012-.001h.007l.02-.001.074-.002a.83.83 0 0 0 .325-.074.274.274 0 0 0 .088-.063l.006-.005c.078-.082.097-.204.097-.312a.206.206 0 0 0-.046-.13.384.384 0 0 0-.186-.113c-.149-.05-.368-.074-.659-.076-.127 0-.259.002-.394.004-.238.002-.488.007-.752.01a96.86 96.86 0 0 0-1.069.023l-.331.009c-.471.015-.899.022-1.299.03l-.538.01c-.16.003-.302.004-.425.004h-.35c-.122 0-.264-.001-.424-.004l-.538-.01c-.4-.008-.829-.015-1.299-.03l-.331-.01c-.358-.01-.714-.016-1.069-.021-.264-.004-.514-.01-.753-.011l-.393-.004c-.292.002-.51.027-.659.076a.398.398 0 0 0-.187.113.206.206 0 0 0-.045.13l.001.009-.001.006c0 .078.013.143.036.198l.008.019a.267.267 0 0 0 .03.049c.007.01.014.022.023.03l.006.006a.268.268 0 0 0 .057.049c.009.006.021.009.03.014a.835.835 0 0 0 .326.074l.073.002h.028l.011.002c.085 0 .168.002.252.004.056.002.111.004.165.008a4.192 4.192 0 0 1 .973.162c.059.018.116.038.171.059.01.004.019.008.028.01l.065.028a1.315 1.315 0 0 1 .127.058l.017.009c.096.05.185.106.263.168.182.147.325.349.419.61.101.255.168.587.196 1.006a61.713 61.713 0 0 1 .029 1.08l.004.349.004.218c0 .355.006.804.006 1.34v11.36c0 1.197 0 2.307-.006 3.333a133.03 133.03 0 0 1-.044 2.74 22.954 22.954 0 0 1-.123 1.97c-.058.538-.16.952-.319 1.234-.159.282-.427.468-.811.549-.175.044-.371.08-.595.103a8.037 8.037 0 0 1-.752.029c-.233.006-.4.05-.485.129-.089.08-.132.168-.124.263 0 .13.065.222.187.29.133.064.313.099.551.099.393 0 .82-.006 1.305-.021.477-.014.956-.03 1.442-.043.478-.014.92-.028 1.318-.044.399-.015.711-.021.934-.021.357 0 .863.015 1.509.037.646.02 1.368.037 2.173.057.813.02 1.645.035 2.494.035.224 0 .399-.035.528-.098.137-.07.202-.161.21-.291 0-.095-.043-.183-.146-.263-.092-.078-.246-.123-.464-.13m28.998-24.273a49.494 49.494 0 0 0-.232-1.195c-.08-.392-.144-.726-.208-1.009-.06-.275-.096-.455-.118-.52a2.234 2.234 0 0 0-.108-.403 1.016 1.016 0 0 0-.058-.127c-.073-.109-.159-.166-.269-.166-.144.006-.333.064-.578.166-.247.103-.602.195-1.073.268a26.52 26.52 0 0 1-1.862.138c-.667.022-1.327.035-1.963.035h-13.13c-.637 0-1.296-.013-1.963-.035a26.551 26.551 0 0 1-1.863-.138c-.471-.073-.826-.165-1.073-.268-.245-.102-.433-.16-.578-.166-.109 0-.195.057-.269.166-.02.036-.039.08-.058.127a2.234 2.234 0 0 0-.108.402c-.022.066-.058.246-.117.521-.065.283-.129.617-.209 1.008l-.082.41c-.052.26-.103.52-.15.785-.08.406-.137.768-.188 1.08-.051.32-.08.543-.08.674 0 .196.021.347.08.45.051.101.136.16.268.16a.403.403 0 0 0 .166-.032.264.264 0 0 0 .115-.093.892.892 0 0 0 .152-.355c.045-.137.11-.312.211-.536a4.13 4.13 0 0 1 .442-.723c.183-.276.421-.494.718-.655.297-.158.681-.274 1.16-.346.404-.067.904-.104 1.493-.123l.325-.008 5.52-.127.176-.004v14.957c0 1.138 0 2.202-.008 3.203a138.59 138.59 0 0 1-.043 2.681 24.347 24.347 0 0 1-.124 1.985c-.057.544-.159.986-.319 1.32a1.13 1.13 0 0 1-.811.637 3.34 3.34 0 0 1-.572.102 8.427 8.427 0 0 1-.776.03c-.232.005-.399.05-.485.128-.088.08-.131.168-.123.261 0 .131.065.224.188.291.096.048.221.081.376.093.055.005.113.007.175.007.391 0 .818-.007 1.304-.02l1.441-.044c.487-.014.921-.029 1.319-.044a25 25 0 0 1 .824-.02c.037-.002.073-.002.106-.002h.009l.106.001c.358.002.826.017 1.412.036.646.021 1.37.036 2.174.058.484.012.977.021 1.477.028.331.004.664.007 1.002.007.224 0 .398-.035.536-.1.13-.067.201-.16.201-.29 0-.094-.043-.182-.136-.262-.103-.078-.255-.123-.472-.129-.187 0-.406-.007-.644-.016a10.114 10.114 0 0 1-.696-.043 8.739 8.739 0 0 1-.616-.072c-.369-.059-.659-.174-.855-.342a1.347 1.347 0 0 1-.434-.65 4.44 4.44 0 0 1-.19-.922 28.896 28.896 0 0 1-.128-2.014 84.644 84.644 0 0 1-.074-2.695c-.007-1-.015-2.065-.015-3.203V23.395l5.52.127.325.008c.589.02 1.089.056 1.494.123.478.072.862.188 1.159.346.298.161.536.38.718.655a4.07 4.07 0 0 1 .653 1.26.922.922 0 0 0 .152.354.27.27 0 0 0 .115.093.403.403 0 0 0 .166.032.28.28 0 0 0 .269-.16c.059-.103.08-.254.08-.45 0-.13-.03-.354-.08-.674-.052-.312-.109-.674-.189-1.08m35.271 24.276h-.017a23.233 23.233 0 0 1-.642-.016 9.533 9.533 0 0 1-.694-.042 9.242 9.242 0 0 1-.599-.071l-.018-.003a2.294 2.294 0 0 1-.236-.046l-.031-.007-.02-.003a1.895 1.895 0 0 1-.583-.247 1.279 1.279 0 0 1-.449-.58 3.342 3.342 0 0 1-.203-.856 27.683 27.683 0 0 1-.122-1.997c-.023-.807-.036-1.726-.044-2.757-.008-1.026-.008-2.136-.008-3.332v-9.376c0-.79 0-1.45.008-1.984l.001-.352c.002-.385.009-.715.013-.99v-.017c0-.197.005-.381.01-.55l.005-.134h.003l.008-.218.015-.273.003-.101.001-.025c.003-.136.006-.254.01-.31.032-.648.148-1.124.355-1.434a1.147 1.147 0 0 1 .411-.367l.017-.011.06-.026.001-.001c.021-.011.044-.02.066-.03.022-.01.042-.02.065-.027l.028-.01a2.04 2.04 0 0 1 .172-.06c.026-.008.054-.014.081-.021a4.191 4.191 0 0 1 .891-.141h.006l.159-.008c.083-.002.167-.005.251-.005h.013c.208 0 .489-.023.58-.243a.516.516 0 0 0 .036-.2v-.014a.2.2 0 0 0-.046-.13.28.28 0 0 0-.07-.061.477.477 0 0 0-.116-.051c-.149-.05-.367-.075-.659-.077l-.393.003c-.239.003-.489.009-.753.013a64.154 64.154 0 0 0-1.4.029c-.471.015-.899.022-1.299.032l-.538.009c-.16.003-.301.004-.425.004h-.349c-.123 0-.265-.001-.425-.004l-.538-.01c-.4-.01-.828-.016-1.299-.031a64.154 64.154 0 0 0-1.4-.029c-.264-.004-.514-.01-.752-.013l-.394-.003a3.464 3.464 0 0 0-.465.03 1.181 1.181 0 0 0-.194.047.38.38 0 0 0-.186.112.23.23 0 0 0-.031.052c-.066.159.027.382.176.459a.798.798 0 0 0 .325.072c.024.002.049.002.073.003h.04c.084 0 .168.004.252.006l.165.008a4.402 4.402 0 0 1 .972.163c.06.018.116.037.172.059l.027.01c.023.008.043.018.065.027.022.01.045.019.066.03h.001l.06.027a1.367 1.367 0 0 1 .7.788c.1.254.167.587.195 1.005a62.577 62.577 0 0 1 .029 1.08l.005.35.003.217c0 .355.006.805.006 1.342v5.928c0 .107-.028.172-.071.208a.243.243 0 0 1-.145.052h-14.434a.315.315 0 0 1-.182-.052.163.163 0 0 1-.051-.066.334.334 0 0 1-.027-.145V28.66c0-.918.007-1.672.007-2.261a50.8 50.8 0 0 1 .028-1.42c.014-.367.029-.695.05-.98.029-.642.154-1.112.356-1.425.183-.268.479-.445.897-.538.199-.055.404-.095.622-.122l.193-.018.097-.006.165-.008c.084-.002.168-.005.252-.005h.019l.02-.001c.025-.001.05-.001.073-.003.185-.01.402-.05.481-.24a.536.536 0 0 0 .036-.198l-.001-.005v-.008l.001-.002a.201.201 0 0 0-.016-.078.195.195 0 0 0-.03-.052.38.38 0 0 0-.186-.112c-.15-.05-.368-.075-.66-.077l-.393.003c-.238.003-.488.009-.753.013a64.035 64.035 0 0 0-1.399.029c-.471.015-.899.022-1.299.032l-.538.009c-.16.003-.302.004-.425.004h-.35c-.123 0-.264-.001-.424-.004l-.538-.01c-.4-.01-.829-.016-1.299-.031a64.154 64.154 0 0 0-1.4-.029c-.265-.004-.515-.01-.753-.013l-.393-.003c-.185 0-.34.013-.468.033a1.01 1.01 0 0 0-.192.044.386.386 0 0 0-.186.112.2.2 0 0 0-.045.13v.015c0 .078.013.143.036.199.031.074.082.13.154.167a.803.803 0 0 0 .326.072c.023.002.049.002.073.003h.039c.085 0 .168.004.252.006l.165.008a4.39 4.39 0 0 1 .972.163c.06.018.117.037.172.059l.028.01c.022.008.043.018.064.027.023.01.045.019.067.03h.001l.06.027.017.01c.096.05.184.107.263.169.181.147.325.348.419.609.101.254.167.587.196 1.005.008.226.015.474.021.727.004.107.005.226.007.353l.005.35.004.217c0 .355.006.805.006 1.342v11.36c0 1.196 0 2.306-.006 3.332a140.654 140.654 0 0 1-.044 2.74 23.37 23.37 0 0 1-.123 1.97c-.059.538-.16.952-.319 1.233-.16.283-.427.469-.811.55-.175.044-.371.08-.595.104-.218.02-.471.028-.753.028-.232.007-.399.052-.484.129-.089.08-.132.169-.124.263 0 .13.065.222.187.29.132.064.311.099.548.099h.003c.392 0 .819-.007 1.305-.02.477-.015.956-.03 1.442-.043l1.318-.044c.361-.015.65-.022.868-.022h.066c.357 0 .863.015 1.508.037.646.02 1.369.037 2.174.057l.509.013.201.004a106.362 106.362 0 0 0 1.629.018h.154c.225 0 .399-.035.529-.098.137-.07.202-.161.21-.291 0-.094-.043-.183-.147-.263-.092-.077-.245-.122-.463-.13-.194 0-.405-.007-.645-.015a9.533 9.533 0 0 1-.694-.042 7.469 7.469 0 0 1-.616-.074 2.564 2.564 0 0 1-.532-.134 1.442 1.442 0 0 1-.338-.17 1.287 1.287 0 0 1-.45-.578 3.384 3.384 0 0 1-.203-.857 28.891 28.891 0 0 1-.122-1.997l-.019-.822c-.021-.613-.035-1.28-.047-1.998-.005-.987-.012-2.051-.012-3.181V35.61c0-.052.01-.09.027-.12a.13.13 0 0 1 .051-.054.374.374 0 0 1 .182-.043h14.434c.05 0 .093.02.145.057a.203.203 0 0 1 .071.158v2.739l-.001 2.13c-.001.41-.002.813-.005 1.202v.094c-.004.488-.009.95-.016 1.385-.007.45-.016.87-.027 1.262a22.896 22.896 0 0 1-.124 1.97c-.058.537-.16.95-.319 1.232-.159.283-.427.469-.81.55a4.189 4.189 0 0 1-.596.104h-.007c-.216.02-.467.028-.745.028-.233.007-.4.052-.485.129-.089.08-.132.169-.123.263 0 .13.065.222.187.29a.76.76 0 0 0 .135.049c.113.034.249.05.415.05h.039c.383 0 .796-.007 1.266-.02.478-.015.957-.03 1.442-.043l1.318-.044c.399-.016.711-.022.935-.022h.036c.354 0 .847.016 1.472.037.646.02 1.368.037 2.173.057l.556.014a98.18 98.18 0 0 0 1.898.02h.04c.224 0 .399-.034.529-.097l.07-.043a.31.31 0 0 0 .139-.248c0-.094-.042-.183-.146-.263-.09-.075-.239-.12-.449-.13m80.782-10.623c-.022.037-.079.06-.166.06h-7.392c-.066 0-.116-.023-.145-.066-.028-.045-.028-.108.016-.192l3.696-9.351s.084-.203.116-.27c.012-.024.021-.044.033-.058a.066.066 0 0 1 .054-.021c.012 0 .032.002.048.017.021.02.03.045.037.063l.102.269 3.608 9.394c.023.06.023.114-.007.155m13.296 10.899c0-.003-.002-.007-.004-.011a.288.288 0 0 0-.009-.032.394.394 0 0 0-.072-.116c-.072-.072-.18-.115-.332-.115-.18 0-.37-.007-.566-.017l-.26-.01a8.111 8.111 0 0 1-.306-.016 2.749 2.749 0 0 1-1.42-.546 3.604 3.604 0 0 1-.97-1.1 9.308 9.308 0 0 1-.256-.462v-.001a.02.02 0 0 1-.004-.006.075.075 0 0 0-.007-.012l.011.018c-.179-.346-.354-.73-.527-1.152l-9.998-23.26a6.666 6.666 0 0 0-.442-.923c-.007-.011-.343-.546-.762-.546h-.077c-.346 0-.634.364-.73.498a6.351 6.351 0 0 0-.47.972l-10 23.259a14.493 14.493 0 0 1-.644 1.373l-.015.026c-.04.073-.082.145-.124.217a3.578 3.578 0 0 1-.97 1.099c-.379.276-.843.516-1.42.546-.316.017-.364.022-.565.03-.195.01-.386.013-.567.013-.15 0-.26.043-.332.115l-.033.043-.022.04c0 .003-.002.003-.004.005l-.012.028a.283.283 0 0 0-.014.04c-.002.01-.005.019-.006.03 0 0 0 .003-.002.005v.01a.431.431 0 0 0-.009.076c0 .15.057.253.165.31.118.059.291.079.531.079.192 0 .382-.001.571-.003h.015a121 121 0 0 0 .633-.011l.122-.002c.092-.003.183-.005.272-.01a134.132 134.132 0 0 0 1.945-.067c.442-.021.738-.036.876-.036.412 0 .87.015 1.368.037l1.027.04h.01c.155.006.308.01.464.017.5.02.963.035 1.391.035.195 0 .35-.02.45-.078a.265.265 0 0 0 .112-.11l.001-.001.002-.004a.2.2 0 0 1 .015-.03c.006-.02.014-.036.018-.056a.457.457 0 0 0 .012-.11.356.356 0 0 0-.102-.277c-.08-.072-.232-.115-.463-.115h-.565c-.582 0-.978-.095-1.204-.274-.225-.185-.325-.443-.318-.77 0-.223.043-.544.137-.95.087-.405.231-.846.427-1.31l2.044-4.956a.45.45 0 0 1 .125-.212c.042-.036.121-.05.223-.05h8.998c.088 0 .168.014.235.05a.4.4 0 0 1 .158.212l2.956 7.432c.08.227.074.406-.006.559a.526.526 0 0 1-.313.259l-.227.047a.372.372 0 0 0-.267.232.411.411 0 0 0-.014.123c0 .082.016.147.048.2a.253.253 0 0 0 .113.11c.1.059.387.079.582.079.428 0 .89-.014 1.39-.035l.424-.016h.002l1.074-.041c.5-.022.958-.037 1.37-.037.138 0 .434.015.877.037a133.135 133.135 0 0 0 2.983.089h.001c.19.002.381.003.573.003.24 0 .413-.02.53-.078a.303.303 0 0 0 .157-.224.541.541 0 0 0 .008-.074v-.013a.381.381 0 0 0-.016-.118m92.146-4.666a.32.32 0 0 0-.261.147.809.809 0 0 0-.131.332 5.02 5.02 0 0 1-.325 1.107 3.917 3.917 0 0 1-.587.979 2.594 2.594 0 0 1-1.158.775 6.296 6.296 0 0 1-1.565.306c-.59.043-1.22.056-1.885.049-.995 0-1.835-.028-2.515-.086-.681-.065-1.232-.16-1.651-.291-.413-.123-.726-.289-.921-.492-.232-.21-.4-.617-.513-1.231-.111-.615-.181-1.5-.22-2.652a156.46 156.46 0 0 1-.048-4.421v-11.55c.005-.545.005-1 .005-1.364.009-.361.009-.666.015-.926l.02-.725a5.36 5.36 0 0 1 .11-.864c.016-.074.033-.143.052-.209.079-.283.224-.507.42-.667.196-.158.485-.274.856-.346.224-.022.455-.043.695-.058.238-.022.427-.03.566-.03a.387.387 0 0 0 .202-.08.273.273 0 0 0 .1-.181.23.23 0 0 0-.157-.231c-.101-.049-.25-.071-.436-.072l-.507.004c-.237.002-.48.006-.728.011-.477.006-.934.012-1.36.028-.428.015-.791.022-1.073.029h-.02a32.48 32.48 0 0 1-.51.013h-.014c-.07 0-.252-.006-.55-.013l-.018-.001c-.322-.007-.706-.013-1.15-.028-.458-.016-.905-.022-1.352-.028-.221-.005-.423-.008-.608-.011a33.588 33.588 0 0 0-.524-.004l-.02.001c-.184 0-.331.022-.431.071a.229.229 0 0 0-.157.231.26.26 0 0 0 .1.181.39.39 0 0 0 .202.08c.14 0 .328.008.567.03.239.015.47.036.694.057.37.073.66.189.855.347.198.16.34.384.42.667a4.657 4.657 0 0 1 .167 1.073c.016.225.034.471.045.725.007.26.023.565.023.926.007.364.013.819.013 1.364.009.543.009 1.218.009 2.021v9.443c0 1.195 0 2.297-.01 3.319a96.218 96.218 0 0 1-.055 2.724c-.03.789-.081 1.441-.155 1.957-.05.36-.107.681-.17.947-.06.277-.154.493-.278.668a.953.953 0 0 1-.551.342 9.88 9.88 0 0 1-.585.123 4.526 4.526 0 0 1-.588.051c-.11.005-.187.035-.233.1a.315.315 0 0 0-.072.202c0 .111.052.191.16.233.025.011.05.02.08.028.095.03.218.043.367.043.315 0 .662-.007 1.046-.027.382-.016.775-.037 1.174-.059.376-.022.71-.037.992-.037.148-.004.269-.006.366-.006l.208-.001h.034l.208.001c.493.002 1.034.01 1.613.03.68.013 1.457.035 2.318.056h.013c.88.043 1.868.072 2.95.097 1.096.02 2.326.034 3.688.034.508 0 .905-.008 1.205-.034.303-.026.527-.075.679-.14a.713.713 0 0 0 .348-.304c.073-.132.146-.304.202-.523.082-.28.153-.606.218-.977.065-.375.13-.755.183-1.131.05-.377.093-.709.123-1.001.027-.281.043-.477.043-.584 0-.198-.023-.342-.067-.429-.043-.096-.11-.138-.195-.138m22.667 0a.317.317 0 0 0-.26.147.782.782 0 0 0-.131.332 5.078 5.078 0 0 1-.326 1.107 3.887 3.887 0 0 1-.587.979 2.594 2.594 0 0 1-1.158.775 6.296 6.296 0 0 1-1.565.306 22.79 22.79 0 0 1-1.886.049c-.993 0-1.834-.028-2.514-.086-.68-.065-1.231-.16-1.652-.291-.411-.123-.725-.289-.92-.492-.231-.21-.4-.617-.513-1.231-.111-.615-.181-1.5-.22-2.652a156.46 156.46 0 0 1-.048-4.421v-11.55c.005-.545.005-1 .005-1.364.009-.361.009-.666.015-.926l.022-.725c.016-.334.055-.62.109-.864a2.66 2.66 0 0 1 .052-.209c.079-.283.223-.507.42-.667.194-.158.483-.274.855-.346.223-.022.455-.043.695-.058.237-.022.427-.03.566-.03a.387.387 0 0 0 .202-.08.27.27 0 0 0 .1-.181.231.231 0 0 0-.157-.231c-.101-.049-.25-.071-.436-.072l-.506.004c-.238.002-.48.006-.73.011-.476.006-.932.012-1.358.028-.43.015-.791.022-1.074.029h-.02a32.48 32.48 0 0 1-.51.013h-.014c-.07 0-.251-.006-.55-.013l-.017-.001c-.323-.007-.707-.013-1.15-.028a62.481 62.481 0 0 0-1.353-.028c-.22-.005-.422-.008-.607-.011a33.767 33.767 0 0 0-.524-.004l-.02.001c-.185 0-.332.022-.432.071a.23.23 0 0 0-.157.231.268.268 0 0 0 .1.181.39.39 0 0 0 .202.08c.139 0 .328.008.567.03.24.015.47.036.694.057.37.073.66.189.855.347.198.16.34.384.42.667a4.573 4.573 0 0 1 .167 1.073c.017.225.034.471.046.725.006.26.022.565.022.926.007.364.013.819.013 1.364.009.543.009 1.218.009 2.021v9.443c0 1.195 0 2.297-.01 3.319a96.218 96.218 0 0 1-.055 2.724c-.03.789-.082 1.441-.155 1.957-.05.36-.107.681-.17.947-.06.277-.154.493-.277.668a.956.956 0 0 1-.551.342 9.92 9.92 0 0 1-.586.123 4.526 4.526 0 0 1-.587.051c-.11.005-.188.035-.233.1a.308.308 0 0 0-.071.202c0 .111.05.191.159.233a.52.52 0 0 0 .079.028c.096.03.218.043.368.043.314 0 .66-.007 1.045-.027.382-.016.774-.037 1.174-.059.377-.022.71-.037.992-.037.149-.004.27-.006.366-.006l.208-.001h.034l.208.001c.495.002 1.033.01 1.613.03.68.013 1.457.035 2.318.056h.013c.882.043 1.868.072 2.95.097 1.095.02 2.326.034 3.688.034.509 0 .905-.008 1.205-.034.302-.026.528-.075.679-.14a.709.709 0 0 0 .348-.304c.073-.132.146-.304.202-.523.082-.28.153-.606.218-.977.066-.375.133-.755.183-1.131.05-.377.093-.709.123-1.001.027-.281.043-.477.043-.584 0-.198-.022-.342-.067-.429-.043-.096-.11-.138-.195-.138"/></g></svg>