<?xml version="1.0" encoding="UTF-8"?>
<svg width="269.9998px" height="92.4065624px" viewBox="0 0 269.9998 92.4065624" version="1.1" xmlns="http://www.w3.org/2000/svg" xmlns:xlink="http://www.w3.org/1999/xlink">
    <title>logo</title>
    <defs>
        <polygon id="path-1" points="0 0 152.628643 0 152.628643 88.465284 0 88.465284"></polygon>
    </defs>
    <g id="logo" stroke="none" stroke-width="1" fill="none" fill-rule="evenodd">
        <path d="M76.2871189,63.2735742 C76.2871189,63.2735742 86.9647146,30.9599874 93.8452118,14.9566439 C90.5548131,9.42299616 80.982867,2.84174884 71.260621,2.24324909 C69.0209719,2.6918989 50.4539794,27.4913888 38.1343345,48.0176804 L39.7606338,42.2482328 C42.1537328,33.8732862 44.7794818,24.2297901 44.7794818,19.742842 C44.7794818,7.32869701 32.3653368,0.747449695 21.2980413,0 C19.2028422,12.7133948 11.0690955,43.0825324 7.03034714,55.6465273 C4.78709805,62.8249244 0,73.2950701 0,73.2950701 C3.88844842,81.3712168 14.807244,86.9057646 22.7344407,87.0551645 C25.5761896,83.465516 31.3807372,71.244421 34.299436,66.0604231 C43.1162824,50.3995295 58.6813261,31.0549373 61.5149749,27.6808387 C59.5718757,35.9068354 51.9218788,54.7312277 52.0573288,65.6671232 C52.1869287,76.136369 59.2361759,87.0551645 71.201671,87.0551645 C85.1107153,87.0551645 97.2265104,62.2268746 97.2265104,50.7104793 C93.6364119,53.5522282 83.9159658,60.2828754 76.2871189,63.2735742" id="Fill-1" fill="#0E91C9"></path>
        <g id="Group-5" transform="translate(117.371157, 3.941278)">
            <mask id="mask-2" fill="white">
                <use xlink:href="#path-1"></use>
            </mask>
            <g id="Clip-4"></g>
            <path d="M129.580147,38.5766843 L127.104698,38.5766843 L127.104698,37.1668349 L129.580147,37.1668349 L129.580147,34.2215861 C129.580147,30.8056374 131.491746,29.2391881 134.217845,29.2391881 C135.000845,29.2391881 135.439595,29.333238 136.034945,29.520888 L136.034945,30.9311874 C135.565145,30.7745875 134.969795,30.6490375 134.279945,30.6490375 C132.462846,30.6490375 131.240647,31.6831371 131.240647,34.0649861 L131.240647,37.1668349 L135.815345,37.1668349 L135.815345,38.5766843 L131.240647,38.5766843 L131.240647,53.5544782 L129.580147,53.5544782 L129.580147,38.5766843 Z M124.078449,45.5017315 L124.078449,45.2510816 C124.078449,40.9265833 121.383401,38.3260344 117.905802,38.3260344 C114.396253,38.3260344 111.701654,40.9895833 111.701654,45.2510816 L111.701654,45.5017315 C111.701654,49.7002298 114.333253,52.3952787 117.905802,52.3952787 C121.414451,52.3952787 124.078449,49.7317297 124.078449,45.5017315 L124.078449,45.5017315 Z M109.977705,45.5017315 L109.977705,45.2510816 C109.977705,40.3316836 113.518754,36.916185 117.905802,36.916185 C122.3239,36.916185 125.801949,40.2376336 125.801949,45.2195816 L125.801949,45.4702315 C125.801949,50.4211295 122.2924,53.8051281 117.874302,53.8051281 C113.424704,53.8051281 109.977705,50.3270795 109.977705,45.5017315 L109.977705,45.5017315 Z M36.832485,45.5017315 L36.832485,45.2510816 C36.832485,40.9265833 34.1378861,38.3260344 30.6593875,38.3260344 C27.1502889,38.3260344 24.45569,40.9895833 24.45569,45.2510816 L24.45569,45.5017315 C24.45569,49.7002298 27.087739,52.3952787 30.6593875,52.3952787 C34.1693861,52.3952787 36.832485,49.7317297 36.832485,45.5017315 L36.832485,45.5017315 Z M22.7321907,45.5017315 L22.7321907,45.2510816 C22.7321907,40.3316836 26.2727893,36.916185 30.6593875,36.916185 C35.0779357,36.916185 38.5559843,40.2376336 38.5559843,45.2195816 L38.5559843,45.4702315 C38.5559843,50.4211295 35.0464357,53.8051281 30.6283375,53.8051281 C26.1787393,53.8051281 22.7321907,50.3270795 22.7321907,45.5017315 L22.7321907,45.5017315 Z M100.322509,53.5544782 L102.014508,53.5544782 L102.014508,29.333238 L100.322509,29.333238 L100.322509,53.5544782 Z M93.9784117,53.5544782 L95.638911,53.5544782 L95.638911,37.1668349 L93.9784117,37.1668349 L93.9784117,53.5544782 Z M93.6026619,32.4665868 C93.6026619,31.839737 94.1350116,31.3073872 94.7933614,31.3073872 C95.4512611,31.3073872 95.9521109,31.839737 95.9521109,32.4665868 C95.9521109,33.1244865 95.4512611,33.6572863 94.7933614,33.6572863 C94.1350116,33.6572863 93.6026619,33.1244865 93.6026619,32.4665868 L93.6026619,32.4665868 Z M75.4429193,45.5327814 L75.4429193,45.2821316 C75.4429193,40.2686836 78.9520178,36.916185 83.2769661,36.916185 C86.5975147,36.916185 89.6687635,38.6707342 90.1070633,42.3683827 L88.477614,42.3683827 C88.0703641,39.6107839 85.845565,38.3260344 83.2769661,38.3260344 C79.8610175,38.3260344 77.1664186,40.9580833 77.1664186,45.2821316 L77.1664186,45.5327814 C77.1664186,49.8568297 79.8295175,52.3952787 83.2769661,52.3952787 C86.002165,52.3952787 88.321014,50.8283793 88.7282639,47.8831305 L90.2641132,47.8831305 C89.8253634,51.3922291 87.0052146,53.8051281 83.2769661,53.8051281 C78.8579679,53.8051281 75.4429193,50.5151794 75.4429193,45.5327814 L75.4429193,45.5327814 Z M58.814076,37.1668349 L60.4750254,37.1668349 L60.4750254,40.3627336 C61.2269751,38.5766843 63.3577242,36.916185 66.271473,36.916185 C69.7499716,36.916185 72.0998706,38.7958342 72.0998706,43.4650323 L72.0998706,53.5544782 L70.4389213,53.5544782 L70.4389213,43.3709823 C70.4389213,39.8929337 68.809472,38.3575344 65.8957232,38.3575344 C63.1691743,38.3575344 60.4750254,40.1750836 60.4750254,43.6216322 L60.4750254,53.5544782 L58.814076,53.5544782 L58.814076,37.1668349 Z M41.4445331,47.5384306 L41.4445331,37.1668349 L43.1054824,37.1668349 L43.1054824,47.4443807 C43.1054824,50.9224293 44.7349318,52.3637787 47.5861306,52.3637787 C50.2496795,52.3637787 52.9442784,50.5777294 52.9442784,47.1311808 L52.9442784,37.1668349 L54.6052278,37.1668349 L54.6052278,53.5544782 L52.9442784,53.5544782 L52.9442784,50.4211295 C52.1923287,52.2071787 50.0930796,53.8051281 47.2103808,53.8051281 C43.8259321,53.8051281 41.4445331,52.0505788 41.4445331,47.5384306 L41.4445331,47.5384306 Z M0,42.4934827 L0,42.2428328 C0,35.6314355 4.54319815,30.8686374 10.4030958,30.8686374 C15.0403439,30.8686374 18.7690424,33.2810864 19.4584421,37.8872846 L17.7034428,37.8872846 C17.0144931,34.284136 14.5700941,32.2784868 10.4341457,32.2784868 C5.42069779,32.2784868 1.78604927,36.2893352 1.78604927,42.2117828 L1.78604927,42.4624327 C1.78604927,48.5095302 5.10749792,52.3322787 10.4341457,52.3322787 C14.4760441,52.3322787 17.3591929,50.2015295 18.0796426,46.3477311 L19.709092,46.3477311 C18.8941423,51.1730792 15.2284438,53.8051281 10.4030958,53.8051281 C4.01084837,53.8051281 0,49.2619299 0,42.4934827 L0,42.4934827 Z M34.6702359,74.8034695 L34.6702359,74.5843196 C34.6702359,71.4509709 33.1973865,69.5708717 30.6598375,69.5708717 C28.1528885,69.5708717 26.6489891,71.3884209 26.6489891,74.5213196 L26.6489891,74.7724195 C26.6489891,77.9053183 28.0903386,79.7858675 30.6598375,79.7858675 C33.1973865,79.7858675 34.6702359,77.9053183 34.6702359,74.8034695 L34.6702359,74.8034695 Z M22.011291,74.8660195 L22.011291,74.6153696 C22.011291,69.4768217 25.7404395,66.1238731 30.6598375,66.1238731 C35.5792355,66.1238731 39.276884,69.4138217 39.276884,74.5213196 L39.276884,74.7724195 C39.276884,79.9420174 35.5477355,83.2324161 30.6283375,83.2324161 C25.7404395,83.2324161 22.011291,79.9735174 22.011291,74.8660195 L22.011291,74.8660195 Z M138.590944,77.7487183 L142.821392,77.7487183 C143.009492,79.2215677 143.729941,80.0675674 145.704091,80.0675674 C147.45864,80.0675674 148.27314,79.4096676 148.27314,78.2815181 C148.27314,77.1533686 147.30204,76.6835688 144.952141,76.3388689 C140.596143,75.6809692 138.904593,74.4272697 138.904593,71.231371 C138.904593,67.8158724 142.037942,66.1238731 145.390891,66.1238731 C149.025539,66.1238731 151.751638,67.4401225 152.158888,71.199871 L147.99144,71.199871 C147.74034,69.8525715 146.98884,69.2257218 145.421941,69.2257218 C143.949541,69.2257218 143.103542,69.9155715 143.103542,70.9181711 C143.103542,71.9518207 143.886541,72.3590705 146.26794,72.7042204 C150.372839,73.2995701 152.628688,74.3332197 152.628688,77.8427683 C152.628688,81.3838168 150.059639,83.2324161 145.735141,83.2324161 C141.317492,83.2324161 138.747543,81.2893169 138.590944,77.7487183 L138.590944,77.7487183 Z M129.175597,78.0308682 L129.175597,69.7274716 L127.076348,69.7274716 L127.076348,66.5000729 L129.175597,66.5000729 L129.175597,62.9590244 L133.687746,62.9590244 L133.687746,66.5000729 L137.134294,66.5000729 L137.134294,69.7274716 L133.687746,69.7274716 L133.687746,77.6236184 C133.687746,78.9394178 134.345645,79.5662676 135.504845,79.5662676 C136.194245,79.5662676 136.695994,79.4722176 137.228344,79.2530677 L137.228344,82.7621663 C136.601944,82.9817662 135.692945,83.2009161 134.470745,83.2009161 C131.024197,83.2009161 129.175597,81.4463668 129.175597,78.0308682 L129.175597,78.0308682 Z M120.668351,82.8877162 L125.180499,82.8877162 L125.180499,66.5000729 L120.668351,66.5000729 L120.668351,82.8877162 Z M120.324101,61.7998248 C120.324101,60.3899754 121.452251,59.3243758 122.8936,59.3243758 C124.365999,59.3243758 125.494149,60.3899754 125.494149,61.7998248 C125.494149,63.2096742 124.365999,64.2748238 122.8936,64.2748238 C121.452251,64.2748238 120.324101,63.2096742 120.324101,61.7998248 L120.324101,61.7998248 Z M110.272905,69.7274716 L108.110656,69.7274716 L108.110656,66.5000729 L110.272905,66.5000729 L110.272905,64.6199737 C110.272905,60.7972252 112.497254,58.885626 116.131903,58.885626 C117.103452,58.885626 117.761352,58.979676 118.482252,59.1988259 L118.482252,62.6143245 C118.043502,62.4577246 117.479652,62.3326246 116.821752,62.3326246 C115.380403,62.3326246 114.785053,63.2411742 114.785053,64.4944237 L114.785053,66.5000729 L118.357152,66.5000729 L118.357152,69.7274716 L114.785053,69.7274716 L114.785053,82.8877162 L110.272905,82.8877162 L110.272905,69.7274716 Z M102.868608,74.8034695 L102.868608,74.5843196 C102.868608,71.4509709 101.395309,69.5708717 98.8577597,69.5708717 C96.3508107,69.5708717 94.8464614,71.3884209 94.8464614,74.5213196 L94.8464614,74.7724195 C94.8464614,77.9053183 96.2882608,79.7858675 98.8577597,79.7858675 C101.395309,79.7858675 102.868608,77.9053183 102.868608,74.8034695 L102.868608,74.8034695 Z M90.2096632,74.8660195 L90.2096632,74.6153696 C90.2096632,69.4768217 93.9379117,66.1238731 98.8577597,66.1238731 C103.776708,66.1238731 107.474356,69.4138217 107.474356,74.5213196 L107.474356,74.7724195 C107.474356,79.9420174 103.745658,83.2324161 98.8258097,83.2324161 C93.9379117,83.2324161 90.2096632,79.9735174 90.2096632,74.8660195 L90.2096632,74.8660195 Z M79.6490676,66.5000729 L84.1927157,66.5000729 L84.1927157,69.6334216 C85.2268153,67.4401225 86.8247646,66.280473 89.4883135,66.249423 L89.4883135,70.4794213 C86.1353649,70.4479213 84.1927157,71.5450209 84.1927157,74.6783696 L84.1927157,82.8877162 L79.6490676,82.8877162 L79.6490676,66.5000729 Z M72.7874703,74.8034695 L72.7874703,74.5528196 C72.7874703,71.231371 71.158021,69.6019216 68.8706719,69.6019216 C66.4892729,69.6019216 64.8598236,71.262421 64.8598236,74.5528196 L64.8598236,74.8034695 C64.8598236,78.0934182 66.4262729,79.6918175 68.9017219,79.6918175 C71.4082209,79.6918175 72.7874703,77.9993682 72.7874703,74.8034695 L72.7874703,74.8034695 Z M60.4732254,66.5000729 L65.0159735,66.5000729 L65.0159735,69.0691219 C65.9254231,67.5026725 67.8365724,66.1238731 70.2490214,66.1238731 C74.2598697,66.1238731 77.3932185,69.1006218 77.3932185,74.5213196 L77.3932185,74.7724195 C77.3932185,80.1926673 74.3228697,83.2324161 70.2490214,83.2324161 C67.7114724,83.2324161 65.8624232,81.9791666 65.0159735,80.3807673 L65.0159735,88.465464 L60.4732254,88.465464 L60.4732254,66.5000729 Z M41.9863329,66.5000729 L46.529531,66.5000729 L46.529531,69.1006218 C47.3444807,67.4711725 49.13098,66.1238731 51.8566289,66.1238731 C55.0844776,66.1238731 57.3713766,68.0665223 57.3713766,72.4535705 L57.3713766,82.8877162 L52.8277285,82.8877162 L52.8277285,73.1114702 C52.8277285,70.8866711 51.9506788,69.8215216 49.9454797,69.8215216 C48.0023804,69.8215216 46.529531,71.0122211 46.529531,73.4246701 L46.529531,82.8877162 L41.9863329,82.8877162 L41.9863329,66.5000729 Z M0.751949694,60.4840254 L6.64289729,60.4840254 L15.1658938,75.2422193 L15.1658938,60.4840254 L19.677592,60.4840254 L19.677592,82.8877162 L14.6015941,82.8877162 L5.26409786,66.9383727 L5.26409786,82.8877162 L0.751949694,82.8877162 L0.751949694,60.4840254 Z M109.358955,24.2212401 L111.050955,24.2212401 L111.050955,0 L109.358955,0 L109.358955,24.2212401 Z M103.245708,18.9260923 L103.245708,16.1369934 L99.8927593,16.1369934 C96.4772607,16.1369934 93.8141618,16.8578931 93.8141618,19.8031419 C93.8141618,21.9028411 95.1295112,23.1245906 97.8250101,23.1245906 C100.832359,23.1245906 103.245708,21.3700413 103.245708,18.9260923 L103.245708,18.9260923 Z M92.1532125,19.8031419 C92.1532125,16.0118935 95.787411,14.8526939 99.8302093,14.8526939 L103.245708,14.8526939 L103.245708,13.3798445 C103.245708,10.3090458 101.992008,8.99279634 99.1093096,8.99279634 C96.6338606,8.99279634 94.8793113,10.0583959 94.5031115,12.4708449 L92.8741122,12.4708449 C93.249862,9.02429632 96.0700109,7.58294691 99.1718596,7.58294691 C102.587808,7.58294691 104.906207,9.21239625 104.906207,13.3798445 L104.906207,24.2212401 L103.245708,24.2212401 L103.245708,21.7142912 C102.211608,23.3126905 100.456609,24.47189 97.6990102,24.47189 C94.4716115,24.47189 92.1532125,22.9054407 92.1532125,19.8031419 L92.1532125,19.8031419 Z M75.1306194,7.83359681 L76.7915687,7.83359681 L76.7915687,11.0299455 C77.5435184,9.24344623 79.6747175,7.58294691 82.5884664,7.58294691 C86.0669649,7.58294691 88.416414,9.46304614 88.416414,14.1317942 L88.416414,24.2212401 L86.7559147,24.2212401 L86.7559147,14.0377443 C86.7559147,10.5596957 85.1264653,9.02429632 82.2122665,9.02429632 C79.4861676,9.02429632 76.7915687,10.8418456 76.7915687,14.2883942 L76.7915687,24.2212401 L75.1306194,24.2212401 L75.1306194,7.83359681 Z M69.8120716,16.1684934 L69.8120716,15.9178435 C69.8120716,11.5937953 67.1165727,8.99279634 63.6394241,8.99279634 C60.1294255,8.99279634 57.4352766,11.6563453 57.4352766,15.9178435 L57.4352766,16.1684934 C57.4352766,20.3674417 60.0668755,23.0620406 63.6394241,23.0620406 C67.1485226,23.0620406 69.8120716,20.3984917 69.8120716,16.1684934 L69.8120716,16.1684934 Z M55.7117773,16.1684934 L55.7117773,15.9178435 C55.7117773,10.9984455 59.2519259,7.58294691 63.6394241,7.58294691 C68.0570723,7.58294691 71.5355709,10.9043956 71.5355709,15.8863435 L71.5355709,16.1369934 C71.5355709,21.0878914 68.0260223,24.47189 63.6079241,24.47189 C59.1583259,24.47189 55.7117773,20.9938414 55.7117773,16.1684934 L55.7117773,16.1684934 Z M50.4463294,24.2212401 L52.1068288,24.2212401 L52.1068288,7.83359681 L50.4463294,7.83359681 L50.4463294,24.2212401 Z M50.0705796,3.13334872 C50.0705796,2.50649898 50.6029294,1.9741492 51.2612791,1.9741492 C51.9191788,1.9741492 52.4204786,2.50649898 52.4204786,3.13334872 C52.4204786,3.79169846 51.9191788,4.32404824 51.2612791,4.32404824 C50.6029294,4.32404824 50.0705796,3.79169846 50.0705796,3.13334872 L50.0705796,3.13334872 Z M40.2848836,20.2733917 L40.2848836,9.24344623 L37.8719846,9.24344623 L37.8719846,7.83359681 L40.2848836,7.83359681 L40.2848836,4.10489833 L41.9453829,4.10489833 L41.9453829,7.83359681 L46.2388312,7.83359681 L46.2388312,9.24344623 L41.9453829,9.24344623 L41.9453829,20.1478418 C41.9453829,22.121991 42.8858825,23.0305406 44.3897819,23.0305406 C45.2357816,23.0305406 45.8936813,22.8739407 46.4579811,22.6858408 L46.4579811,24.0961402 C45.9251813,24.2837901 45.2983315,24.44039 44.295732,24.44039 C41.694733,24.44039 40.2848836,22.9054407 40.2848836,20.2733917 L40.2848836,20.2733917 Z M32.9939866,18.9260923 L32.9939866,16.1369934 L29.6414879,16.1369934 C26.2259893,16.1369934 23.5624404,16.8578931 23.5624404,19.8031419 C23.5624404,21.9028411 24.8782399,23.1245906 27.5732888,23.1245906 C30.5810875,23.1245906 32.9939866,21.3700413 32.9939866,18.9260923 L32.9939866,18.9260923 Z M21.9014911,19.8031419 C21.9014911,16.0118935 25.5365896,14.8526939 29.5784879,14.8526939 L32.9939866,14.8526939 L32.9939866,13.3798445 C32.9939866,10.3090458 31.7407371,8.99279634 28.8575882,8.99279634 C26.3825893,8.99279634 24.62759,10.0583959 24.2518401,12.4708449 L22.6223908,12.4708449 C22.9981406,9.02429632 25.8182895,7.58294691 28.9205882,7.58294691 C32.3360868,7.58294691 34.6549359,9.21239625 34.6549359,13.3798445 L34.6549359,24.2212401 L32.9939866,24.2212401 L32.9939866,21.7142912 C31.959887,23.3126905 30.2053377,24.47189 27.4477388,24.47189 C24.2203401,24.47189 21.9014911,22.9054407 21.9014911,19.8031419 L21.9014911,19.8031419 Z M1.2217495,1.81754926 L3.60314853,1.81754926 L16.1369934,21.8087911 L16.1369934,1.81754926 L17.7974927,1.81754926 L17.7974927,24.2212401 L15.7297436,24.2212401 L2.91419881,3.76019847 L2.91419881,24.2212401 L1.2217495,24.2212401 L1.2217495,1.81754926 Z" id="Fill-3" fill="#000000" mask="url(#mask-2)"></path>
        </g>
    </g>
</svg>