<svg width="199" height="56" fill="none" xmlns="http://www.w3.org/2000/svg"><g clip-path="url(#a)"><path d="M68.232 18.947c0-5.04 3.159-8.805 8.017-8.805 4.859 0 7.97 3.663 7.97 8.703 0 5.04-3.158 8.805-8.017 8.805-4.858 0-7.97-3.663-7.97-8.703Zm11.59 0c0-4.146-1.097-6.798-3.62-6.798s-3.573 2.559-3.573 6.704c0 4.146 1.097 6.798 3.62 6.798s3.574-2.559 3.574-6.704ZM92.596 27.26h-7.069v-1.47l1.168-.24.556-1.035v-7.093l-.556-1.035-1.168-.24v-1.47h5.227v.606l-.243 3.065.196.093c1.191-2.963 2.477-4.076 3.77-4.076 1.214 0 2.037.871 2.037 1.976 0 1.57-1.363 2.34-2.625 2.263l-1.191-1.275c-1.34.94-1.944 2.263-1.944 3.88v3.306l.557 1.035 1.285.24v1.47ZM103.261 27.65c-3.91 0-6.198-2.777-6.198-6.487 0-3.951 2.625-6.875 6.198-6.875 3.574 0 5.47 2.745 5.47 6.58v.77h-7.923c.196 2.605 1.286 3.74 3.425 3.74 1.121 0 2.163-.334 3.55-.94l.705 1.4c-1.747 1.182-3.448 1.812-5.227 1.812Zm-2.476-7.545h4.255c-.047-2.698-.533-4.145-2.037-4.145-1.364 0-2.14 1.33-2.21 4.145h-.008ZM115.385 31.819c-3.401 0-6.003-.941-6.003-2.847 0-.87.556-1.664 2.578-2.559v-.218c-.752-.388-1.262-.964-1.262-1.594 0-.871.753-1.594 2.406-2.217v-.194c-1.528-.653-2.696-1.859-2.696-3.593 0-2.56 2.555-4.27 5.227-4.27 1.701 0 2.798.435 3.738 1.229l3.26-1.23h.486v2.583h-2.359l-.094.194c.29.482.486 1.058.486 1.618 0 2.458-2.453 4.006-5.297 4.006a9.26 9.26 0 0 1-1.387-.117c-.369.334-.51.576-.51.84 0 .389.337.552 1.991.7l3.205.288c2.116.194 3.573 1.089 3.573 2.745 0 2.7-3.792 4.628-7.335 4.628l-.007.008Zm.196-1.517c2.476 0 4.223-1.034 4.223-2.123 0-.677-.438-1.011-2.695-1.229l-3.668-.366c-.533.77-.729 1.4-.729 2 0 1.111.996 1.71 2.869 1.71v.008Zm1.966-11.65c0-1.494-.532-2.894-1.747-2.894-1.019 0-1.748.894-1.748 2.652 0 1.517.51 2.917 1.748 2.917 1.019 0 1.747-.895 1.747-2.676ZM123.668 21.039c0-3.835 2.649-6.751 6.387-6.751 3.981 0 6.386 2.776 6.386 6.61 0 3.835-2.648 6.752-6.386 6.752-3.981 0-6.387-2.777-6.387-6.611Zm8.871.194c0-3.422-.972-5.164-2.649-5.164s-2.312 1.812-2.312 4.628c0 3.422.972 5.164 2.649 5.164s2.312-1.812 2.312-4.628ZM137.225 25.79l1.167-.24.557-1.035v-7.093l-.557-1.035-1.167-.24v-1.47h5.227v.606l-.243 2.263.196.094c1.191-2.124 2.311-3.283 4.106-3.283 2.037 0 3.307 1.3 3.307 3.765v6.393l.556 1.035 1.043.24v1.47h-5.76v-1.353l.462-.459.196-.598v-6.13c0-1.111-.58-1.54-1.481-1.54-.557 0-1.191.312-1.63.747-.611.607-.752 1.377-.752 2.676v4.145l.415.794.823.365v1.354h-6.465v-1.47ZM157.122 25.285l6.755-9.932 1.897-2.364-.173-.553-2.986.094h-1.089l-1.481.964-.337 2.8h-2.037v-5.763h12.734v1.975l-6.755 9.933-1.897 2.364.173.552 2.986-.093h1.7l1.481-.965.337-3.04h2.045v6.004h-13.337v-1.976h-.016ZM172.034 21.039c0-3.835 2.649-6.751 6.387-6.751 3.981 0 6.387 2.776 6.387 6.61 0 3.835-2.649 6.752-6.387 6.752-3.981 0-6.387-2.777-6.387-6.611Zm8.871.194c0-3.422-.972-5.164-2.649-5.164s-2.311 1.812-2.311 4.628c0 3.422.971 5.164 2.648 5.164s2.312-1.812 2.312-4.628ZM186.219 21.039c0-3.835 2.648-6.751 6.386-6.751 3.981 0 6.387 2.776 6.387 6.61 0 3.835-2.648 6.752-6.387 6.752-3.98 0-6.386-2.777-6.386-6.611Zm8.871.194c0-3.422-.972-5.164-2.649-5.164s-2.312 1.812-2.312 4.628c0 3.422.972 5.164 2.649 5.164s2.312-1.812 2.312-4.628ZM72.221 36.618h-2.037V35.42h5.43v1.198H73.57v6.969h-1.356v-6.97h.008ZM78.122 43.727c-.439 0-.83-.078-1.191-.226a2.738 2.738 0 0 1-1.481-1.532 2.845 2.845 0 0 1-.204-1.097c0-.389.07-.747.204-1.089.133-.342.329-.653.58-.918.25-.264.548-.474.9-.622a3.067 3.067 0 0 1 1.192-.225c.439 0 .839.077 1.191.225.353.148.659.358.917.622a2.881 2.881 0 0 1 .792 2.007c0 .381-.07.755-.204 1.097a2.936 2.936 0 0 1-.588.91 2.691 2.691 0 0 1-.917.622c-.36.148-.752.226-1.19.226Zm0-1.136c.243 0 .462-.047.666-.14.204-.093.368-.218.51-.373.14-.156.25-.343.329-.553.078-.21.117-.427.117-.66 0-.234-.039-.452-.117-.662a1.788 1.788 0 0 0-.33-.552 1.546 1.546 0 0 0-1.175-.513 1.51 1.51 0 0 0-.658.14c-.196.093-.36.217-.51.373-.14.155-.25.342-.32.552a1.89 1.89 0 0 0-.11.661c0 .226.039.451.11.661a1.556 1.556 0 0 0 1.488 1.066ZM87.73 43.85c0 .46-.07.849-.204 1.175-.133.327-.33.6-.58.81-.25.21-.556.365-.917.466-.36.101-.776.148-1.238.148-.462 0-.862-.063-1.199-.195a2.652 2.652 0 0 1-.846-.505 2.24 2.24 0 0 1-.729-1.548h1.293c.031.295.164.552.415.778.243.225.596.334 1.058.334.517 0 .925-.117 1.207-.342.29-.226.439-.599.439-1.112v-1.004a1.738 1.738 0 0 1-.737.638 2.138 2.138 0 0 1-.956.233c-.415 0-.791-.077-1.136-.225a2.67 2.67 0 0 1-.886-.622 2.894 2.894 0 0 1-.572-.91 2.845 2.845 0 0 1-.203-1.097 2.958 2.958 0 0 1 .775-2.007c.243-.264.541-.474.886-.622a2.848 2.848 0 0 1 1.136-.225c.321 0 .643.077.956.233.322.156.564.373.737.646v-.74h1.285l.023 5.71-.007-.016Zm-2.923-4.712a1.51 1.51 0 0 0-.659.14 1.72 1.72 0 0 0-.509.373c-.141.155-.25.342-.321.552-.079.21-.11.436-.11.661 0 .226.04.451.11.661a1.556 1.556 0 0 0 1.489 1.066c.243 0 .462-.047.666-.14.204-.093.368-.218.51-.373.14-.156.25-.343.328-.553.079-.21.118-.427.118-.66 0-.234-.04-.452-.118-.662a1.784 1.784 0 0 0-.329-.552 1.545 1.545 0 0 0-1.175-.513ZM90.269 41.254c.015.194.047.38.101.552.055.17.141.319.251.45.11.125.259.226.439.304.18.078.4.11.666.11.368 0 .635-.07.8-.21.164-.14.282-.312.36-.506h1.293a1.93 1.93 0 0 1-.25.668c-.134.21-.299.405-.51.568a2.453 2.453 0 0 1-.737.39 3.03 3.03 0 0 1-.948.147c-.462 0-.862-.078-1.207-.226a2.36 2.36 0 0 1-.854-.606c-.227-.257-.4-.56-.51-.91a3.496 3.496 0 0 1-.172-1.12c0-.397.063-.778.18-1.136.118-.35.298-.653.525-.91.228-.257.51-.459.847-.599a2.842 2.842 0 0 1 1.152-.218c.352 0 .682.063.995.187.314.125.58.296.815.521.227.226.407.482.54.778.134.296.197.614.197.972v.335c0 .124-.024.28-.055.459h-3.918Zm1.394-2.287c-.4 0-.736.117-.995.342-.258.226-.4.56-.4 1.003h2.728c0-.42-.126-.746-.369-.987s-.564-.358-.956-.358h-.008ZM98.662 43.587a7.784 7.784 0 0 1-.408.046 6.005 6.005 0 0 1-.54.024c-.157 0-.338-.016-.541-.04a1.369 1.369 0 0 1-.58-.225c-.18-.124-.337-.319-.463-.575-.125-.257-.188-.615-.188-1.074v-2.528h-.932V38.15h.932v-1.641h1.286v1.64h1.253v1.066h-1.253v2.233c0 .233.015.42.054.56.032.14.087.249.157.319a.55.55 0 0 0 .25.147c.095.024.212.032.338.032h.352c.134 0 .228-.016.298-.032v1.12l-.015-.007ZM99.751 35.42h1.277v3.484c.173-.295.408-.52.721-.669a2.443 2.443 0 0 1 1.066-.225c.408 0 .737.062 1.003.194.274.133.486.311.643.537.133.202.227.428.274.677.047.249.078.56.078.933v3.228h-1.285v-2.816a3.46 3.46 0 0 0-.055-.653 1.473 1.473 0 0 0-.196-.521 1.006 1.006 0 0 0-.36-.342 1.173 1.173 0 0 0-.572-.133c-.447 0-.776.156-.995.475-.22.319-.322.708-.322 1.174v2.816h-1.277v-8.167.008ZM107.32 41.254c.016.194.047.38.102.552.055.17.141.319.251.45.11.125.259.226.439.304.18.078.399.11.666.11.368 0 .635-.07.799-.21.165-.14.282-.312.361-.506h1.293a1.934 1.934 0 0 1-.251.668c-.133.21-.298.405-.509.568a2.461 2.461 0 0 1-.737.39 3.026 3.026 0 0 1-.948.147c-.463 0-.862-.078-1.207-.226a2.356 2.356 0 0 1-.854-.606c-.228-.257-.4-.56-.51-.91a3.51 3.51 0 0 1-.172-1.12c0-.397.063-.778.18-1.136.118-.35.298-.653.525-.91.228-.257.51-.459.847-.599a2.842 2.842 0 0 1 1.152-.218c.352 0 .681.063.995.187.313.125.58.296.815.521.227.226.407.482.541.778.133.296.195.614.195.972v.335c0 .124-.023.28-.054.459h-3.919Zm1.395-2.287c-.399 0-.736.117-.995.342-.259.226-.4.56-.4 1.003h2.727c0-.42-.125-.746-.368-.987s-.564-.358-.956-.358h-.008ZM116.16 39.325a2.606 2.606 0 0 0-.251-.047c-.062 0-.149-.008-.25-.008-.549 0-.972.156-1.254.474-.29.312-.439.817-.439 1.502v2.348h-1.278v-5.436h1.278v.871c.063-.125.149-.241.266-.358.118-.117.243-.218.4-.303a2.095 2.095 0 0 1 1.027-.288c.203 0 .368.031.509.078v1.166h-.008ZM123.275 36.563a1.855 1.855 0 0 0-.564-.086c-.102 0-.204 0-.305.009a.553.553 0 0 0-.275.093.628.628 0 0 0-.203.257c-.055.116-.079.28-.079.49v.816h1.434v1.066h-1.434v4.371h-1.277v-4.371h-1.121v-1.066h1.121v-.676c0-.522.07-.926.219-1.206.149-.28.322-.49.533-.63.204-.132.423-.218.651-.241.227-.023.423-.039.579-.039.157 0 .314.016.439.039.133.031.228.062.298.101v1.073h-.016ZM126.638 43.727a3.09 3.09 0 0 1-1.191-.226 2.74 2.74 0 0 1-1.482-1.532 2.845 2.845 0 0 1-.203-1.097c0-.389.07-.747.203-1.089a2.84 2.84 0 0 1 .58-.918c.251-.264.549-.474.902-.622a3.063 3.063 0 0 1 1.191-.225c.439 0 .838.077 1.191.225.353.148.658.358.917.622.25.265.446.568.587.918a3.013 3.013 0 0 1 0 2.186 2.948 2.948 0 0 1-.587.91 2.7 2.7 0 0 1-.917.622 3.093 3.093 0 0 1-1.191.226Zm0-1.136c.243 0 .462-.047.666-.14.204-.093.368-.218.509-.373a1.852 1.852 0 0 0 .447-1.213 1.851 1.851 0 0 0-.447-1.214 1.545 1.545 0 0 0-1.175-.513c-.243 0-.463.046-.659.14-.195.093-.36.217-.509.373a1.55 1.55 0 0 0-.321.552c-.079.21-.11.436-.11.661 0 .226.039.451.11.661a1.55 1.55 0 0 0 .83.926c.196.093.416.14.659.14ZM134.325 39.325a2.606 2.606 0 0 0-.251-.047c-.062 0-.149-.008-.25-.008-.549 0-.972.156-1.254.474-.29.312-.439.817-.439 1.502v2.348h-1.277v-5.436h1.277v.871c.063-.125.149-.241.266-.358.118-.117.243-.218.4-.303a2.095 2.095 0 0 1 1.027-.288c.203 0 .368.031.509.078v1.166h-.008ZM143.149 37.761l-1.904 5.818h-.979l-2.845-8.167h1.418l1.897 5.818 1.904-5.818h.995l1.905 5.818 1.896-5.818h1.418l-2.844 8.167h-.98l-1.896-5.818h.015ZM149.474 36.167c0-.265.094-.49.274-.67a.92.92 0 0 1 .666-.271c.259 0 .494.093.674.272.18.179.274.404.274.669a.908.908 0 0 1-.274.66.94.94 0 0 1-.674.273.92.92 0 0 1-.666-.272.877.877 0 0 1-.274-.661Zm.305 1.983h1.278v5.437h-1.278V38.15ZM152.772 35.42h1.278v8.167h-1.278V35.42ZM159.864 42.848a1.736 1.736 0 0 1-.736.638 2.141 2.141 0 0 1-.956.233 2.85 2.85 0 0 1-1.137-.226 2.678 2.678 0 0 1-.885-.622 2.886 2.886 0 0 1-.572-.91 2.845 2.845 0 0 1-.204-1.097 2.962 2.962 0 0 1 .776-2.006 2.57 2.57 0 0 1 .885-.622 2.848 2.848 0 0 1 1.137-.226c.321 0 .642.078.956.233.321.156.564.374.736.646v-3.47h1.286v8.168h-1.286v-.739Zm-1.622-.257a1.568 1.568 0 0 0 1.176-.513c.141-.156.25-.343.329-.553.078-.21.117-.427.117-.66 0-.234-.039-.452-.117-.662a1.8 1.8 0 0 0-.329-.552 1.547 1.547 0 0 0-1.176-.513 1.51 1.51 0 0 0-.658.14 1.552 1.552 0 0 0-.831.926c-.078.21-.109.435-.109.66 0 .226.039.452.109.662a1.551 1.551 0 0 0 .831.925c.196.093.415.14.658.14ZM162.858 35.42h1.278v8.167h-1.278V35.42ZM165.554 36.167c0-.265.094-.49.274-.67a.92.92 0 0 1 .666-.271c.259 0 .494.093.674.272.18.179.274.404.274.669a.908.908 0 0 1-.274.66.938.938 0 0 1-.674.273.92.92 0 0 1-.666-.272.877.877 0 0 1-.274-.661Zm.305 1.983h1.278v5.437h-1.278V38.15ZM172.065 36.563a1.855 1.855 0 0 0-.564-.086c-.102 0-.204 0-.305.009a.553.553 0 0 0-.275.093.628.628 0 0 0-.203.257c-.055.116-.079.28-.079.49v.816h1.434v1.066h-1.434v4.371h-1.277v-4.371h-1.121v-1.066h1.121v-.676c0-.522.07-.926.219-1.206.149-.28.322-.49.533-.63.204-.132.423-.218.651-.241.227-.023.423-.039.579-.039.157 0 .314.016.439.039.134.031.228.062.298.101v1.073h-.016ZM173.837 41.254c.016.194.047.38.102.552.055.17.141.319.251.45.109.125.258.226.438.304.181.078.4.11.667.11.368 0 .634-.07.799-.21.164-.14.282-.312.36-.506h1.293a1.932 1.932 0 0 1-.25.668c-.134.21-.298.405-.51.568a2.444 2.444 0 0 1-.736.39 3.038 3.038 0 0 1-.949.147c-.462 0-.862-.078-1.206-.226a2.369 2.369 0 0 1-1.364-1.516 3.482 3.482 0 0 1-.172-1.12c0-.397.062-.778.18-1.136.117-.35.298-.653.525-.91.227-.257.509-.459.846-.599a2.842 2.842 0 0 1 1.152-.218c.353 0 .682.063.995.187.314.125.58.296.815.521.228.226.408.482.541.778.133.296.196.614.196.972v.335c0 .124-.023.28-.055.459h-3.918Zm1.395-2.287c-.4 0-.737.117-.995.342-.259.226-.4.56-.4 1.003h2.727c0-.42-.125-.746-.368-.987s-.565-.358-.956-.358h-.008ZM28.211 56c15.581 0 28.212-12.536 28.212-28S43.793 0 28.21 0C12.631 0 0 12.536 0 28s12.63 28 28.211 28Z" fill="#275937"/><path d="M26.746 38.967v-2.56c0-5.086-3.464-6.89-6.818-7.108-3.66-.241-7.601.98-7.601.98l-.533-1.105c-3.26.016-5.846 1.307-5.846 1.307-.196 3.111 2.179 4.48 2.179 4.48l2.562.117c.988.124 1.183 2.434 1.473 3.25a.817.817 0 0 0 .768.545h1.96a.816.816 0 0 0 .814-.809v-2.372c0-.179.157-.311.337-.311a9.54 9.54 0 0 1 2.673.373c.627.18.854.81.031 1.167-.65.28-1.027.793-1.01 1.291.015.35.187.661.626.661h5.627c.454 0 .509.265.376.56-.447.95-.847 1.54-2.218 1.493-2.484-.085-3.683-.155-6.152-.248-2.303-.086-3.056.567-2.735 2.2.322 1.634 3.73 5.772 9.02 6.044 4.733.241 4.467-8.711 4.467-9.94v-.015Zm-17.17-6.41a.923.923 0 0 1-.924-.917c0-.506.415-.918.924-.918.51 0 .925.412.925.918a.923.923 0 0 1-.925.918ZM36.69 13.3c-.814.187-1.143-1.089-.438-1.431.4-.195 2.194-.762 2.555-1.462.164-.312.196-2.194.196-2.194L35.79 7.84l-.463-.817-2.539-.272-1.042-.793c-.415-.28-.823-.117-1.042.31-.172.343-.204.856.094 1.37 0 0-.972.7-.972 2.94V25.9c0 .389.322.708.713.708h1.654a.713.713 0 0 0 .713-.708v-.474c0-2.108.666-3.695 1.505-4.426.54-.474 1.042-.288 1.042.257V25.9c0 .389.321.708.713.708h1.653a.713.713 0 0 0 .713-.708v-.474c0-2.108.667-3.695 1.505-4.426.54-.474 1.042-.288 1.042.257V25.9c0 .389.322.708.713.708h1.654a.713.713 0 0 0 .713-.708v-4.643c0-.522.502-.732 1.042-.257.839.731 1.505 2.31 1.505 4.425l-.04.475c0 .389.322.708.714.708h1.834a.713.713 0 0 0 .713-.708v-1.874c0-10.85-7.421-12.04-13.267-10.718l.03-.008ZM34.2 10.064a.923.923 0 0 1-.925-.917c0-.506.416-.918.925-.918.51 0 .925.412.925.918a.923.923 0 0 1-.925.917ZM22.953 20.23c-.415-.125-.51-.53-.43-.856.078-.326.313-.56.861-.52 2.743.21 3.7-2.42 3.715-3.485l-3.26.108c-.635.024-.925-.793-.102-.925 2.845-.482 3.432-2.497 3.417-3.726l-3.025.304c-.58.054-.729-.654-.032-.871 1.85-.584 2.86-2.178 2.963-2.863.125-.816.078-1.438.078-1.438-6.183 0-8.048 2.13-8.785 6.02-.211 1.112-.815 1.236-1.23 1.182-.635-.078-1.395-.77-1.88-1.758-.377-.762-.385-1.649-.385-1.649s-1.747 1.112-2.821 2.279c-1.434 1.563-.987 2.862-.094 3.749.909.902 1.889 2.286-.165 2.605-3.526.545-5.775 2.412-5.775 8.556 0 0 .627.054 1.45-.078.69-.109 2.296-1.104 2.883-2.94.228-.7.933-.552.878.031l-.305 3.003c1.238.015 3.267-.568 3.753-3.392.141-.808.956-.528.933.102l-.11 3.235c1.074-.008 3.722-.964 3.51-3.687-.046-.575.228-.824.573-.879.313-.046.697.063.815.452l.69 4.114s2.35.187 4.294-1.719c1.92-1.929 1.732-4.262 1.732-4.262l-4.146-.684v-.008Zm-9.13-5.593a.923.923 0 0 1-.924-.917c0-.506.415-.918.925-.918s.925.412.925.918a.923.923 0 0 1-.925.917ZM49.856 29.711c-.243-.264-.588-.357-.948-.357h-7.304c-5.603 0-8.879.217-10.58 1.897-1.057 1.05-1.386 2.621-1.386 5.102v5.982c0 4.316.619 6.735 4.435 6.735 4.82 0 4.036-5.973 4.036-5.973h-2.586s.102 3.103-1.262 3.103c-1.097 0-1.05-1.252-.932-2.605.125-1.447.564-2.785 2.484-2.785 1.63 0 2.672.257 4.24 1.3 1.042.691 3.158 2.301 4.748.645 2.79-2.902 4.937-7.117 5.384-12.064a1.267 1.267 0 0 0-.345-.98h.016ZM34.59 38.547a.98.98 0 1 1 0-1.96.98.98 0 1 1 0 1.96Z" fill="#A5D867"/></g><defs><clipPath id="a"><path fill="#fff" d="M0 0h199v56H0z"/></clipPath></defs></svg>