<svg width="363" height="30" viewBox="0 0 363 30" fill="none" xmlns="http://www.w3.org/2000/svg">
<g clip-path="url(#clip0_905_148041)">
<path d="M0.799741 29.0106C0.12937 28.7397 0 28.5512 0 27.7032C0 25.5948 0.164653 23.298 0.211696 22.6855C0.25874 22.1084 0.376349 21.6961 0.717415 21.6961C1.09376 21.6961 1.14081 22.0377 1.14081 22.3439C1.14081 22.8386 1.30546 23.6514 1.51716 24.2992C2.44627 27.126 4.91605 28.1625 7.52697 28.1625C11.314 28.1625 13.1604 25.8304 13.1604 23.8045C13.1604 21.9317 12.5254 20.1296 9.04413 17.6796L7.11534 16.3015C2.48155 13.0153 0.882067 10.3298 0.882067 7.23204C0.882067 3.02709 4.7514 0 10.5848 0C13.3133 0 15.0775 0.376914 16.1712 0.647821C16.5476 0.730271 16.7593 0.836278 16.7593 1.10718C16.7593 1.60188 16.5946 2.72085 16.5946 5.70082C16.5946 6.5371 16.4653 6.84335 16.1359 6.84335C15.8419 6.84335 15.7126 6.61955 15.7126 6.16019C15.7126 5.81861 15.5009 4.62898 14.6188 3.63958C13.9837 2.90931 12.7723 1.76678 10.0438 1.76678C6.93893 1.76678 5.04542 3.41578 5.04542 5.7126C5.04542 7.47939 6.00982 8.81037 9.5028 11.225L10.6789 12.0259C15.7243 15.583 17.5708 18.1508 17.5708 21.7903C17.5708 24.0047 16.6417 26.6549 13.6191 28.4452C11.5139 29.6702 9.16174 30.0118 6.93893 30.0118C4.50442 30.0118 2.61092 29.7409 0.799741 29.0224V29.0106Z" fill="#18191B"/>
<path d="M30.5195 4.5112C30.6254 3.94583 30.8488 3.65137 31.1429 3.65137C31.4369 3.65137 31.6486 3.81627 32.1308 4.6761L42.0805 23.3805L51.9714 4.45231C52.2301 3.92227 52.4418 3.65137 52.7711 3.65137C53.1005 3.65137 53.3121 3.98117 53.4298 4.6761L56.7463 25.1708C57.0756 27.2556 57.4402 28.2214 58.534 28.5159C59.5925 28.8104 60.3216 28.8457 60.7921 28.8457C61.1214 28.8457 61.3801 28.881 61.3801 29.0813C61.3801 29.3522 60.945 29.4464 60.4392 29.4464C59.5219 29.4464 54.5 29.3522 53.0416 29.2462C52.2066 29.1755 51.9832 29.0813 51.9832 28.881C51.9832 28.7161 52.1243 28.6101 52.383 28.5159C52.6065 28.4452 52.7123 28.0212 52.5594 27.0907L50.3719 12.4971H50.2308L42.2922 27.5501C41.4572 29.1048 41.269 29.4111 40.9397 29.4111C40.6104 29.4111 40.2458 28.7515 39.6695 27.7503C38.7992 26.2191 35.9178 21.1543 35.4826 20.2238C35.1533 19.5289 32.9658 15.3475 31.6956 12.8622H31.5545L29.661 26.0542C29.5904 26.6549 29.5551 27.0789 29.5551 27.609C29.5551 28.245 30.0256 28.5395 30.6489 28.669C31.3075 28.7986 31.8132 28.8339 32.1778 28.8339C32.4718 28.8339 32.7188 28.9046 32.7188 29.0695C32.7188 29.364 32.3895 29.4346 31.8485 29.4346C30.3196 29.4346 28.6848 29.3404 28.0262 29.3404C27.3323 29.3404 25.5917 29.4346 24.4156 29.4346C24.051 29.4346 23.757 29.364 23.757 29.0695C23.757 28.9046 23.9805 28.8339 24.3451 28.8339C24.6391 28.8339 24.8861 28.8339 25.4388 28.7397C26.462 28.5395 26.756 27.2438 26.9325 26.1249L30.5195 4.5112Z" fill="#18191B"/>
<path d="M69.3422 14.0047C69.3422 8.96351 69.3422 8.03301 69.2716 6.97294C69.2011 5.8422 68.8365 5.27683 68.0367 5.11193C67.6369 5.0177 67.1664 4.98236 66.7313 4.98236C66.3667 4.98236 66.1432 4.91169 66.1432 4.65256C66.1432 4.45233 66.4373 4.39343 67.0136 4.39343C68.4013 4.39343 70.6947 4.48766 71.7532 4.48766C72.6588 4.48766 74.811 4.39343 76.1988 4.39343C76.6692 4.39343 76.9633 4.4641 76.9633 4.65256C76.9633 4.92347 76.7398 4.98236 76.3752 4.98236C76.0106 4.98236 75.7166 5.0177 75.2815 5.07659C74.2935 5.24149 74.0113 5.80686 73.929 6.96116C73.8584 8.02123 73.8584 8.95174 73.8584 13.993V19.8351C73.8584 23.0507 73.8584 25.6655 73.9995 27.0907C74.1054 27.9859 74.3641 28.5866 75.4579 28.7162C75.9636 28.7868 76.7751 28.8457 77.3161 28.8457C77.716 28.8457 77.9041 28.94 77.9041 29.1049C77.9041 29.3404 77.6101 29.4347 77.2103 29.4347C74.811 29.4347 72.5059 29.3404 71.5297 29.3404C70.6947 29.3404 68.4013 29.4347 66.943 29.4347C66.4726 29.4347 66.2138 29.3404 66.2138 29.1049C66.2138 28.94 66.3549 28.8457 66.8019 28.8457C67.3429 28.8457 67.7898 28.7751 68.1191 28.7162C68.8483 28.5866 69.0599 28.0212 69.1776 27.0554C69.354 25.6655 69.354 23.0389 69.354 19.8234V13.9812L69.3422 14.0047Z" fill="#18191B"/>
<path d="M92.8405 6.24262L87.4187 6.37218C85.3018 6.44285 84.4315 6.60775 83.8905 7.33802C83.5259 7.83272 83.3495 8.2332 83.2671 8.5041C83.1966 8.77501 83.0907 8.90457 82.8673 8.90457C82.6085 8.90457 82.538 8.73967 82.538 8.37454C82.538 7.8445 83.2319 4.82919 83.3024 4.55828C83.4083 4.12248 83.5259 3.92224 83.7376 3.92224C84.0316 3.92224 84.3962 4.25204 85.3018 4.32271C86.3603 4.41694 87.7363 4.48761 88.9476 4.48761H103.367C105.695 4.48761 106.577 4.15781 106.859 4.15781C107.118 4.15781 107.154 4.35805 107.154 4.85275C107.154 5.54768 107.048 7.83272 107.048 8.70434C107.012 9.03414 106.942 9.23437 106.718 9.23437C106.424 9.23437 106.354 9.06947 106.318 8.57477L106.283 8.20964C106.213 7.3498 105.225 6.4193 101.979 6.34863L97.392 6.2544V19.8469C97.392 22.8975 97.392 25.5123 97.5801 26.9376C97.686 27.8681 97.9095 28.5983 99.0032 28.7279C99.5089 28.7986 100.32 28.8575 100.861 28.8575C101.261 28.8575 101.449 28.9517 101.449 29.1166C101.449 29.3522 101.155 29.4464 100.756 29.4464C98.3564 29.4464 96.0512 29.3522 95.0398 29.3522C94.2048 29.3522 91.9114 29.4464 90.4531 29.4464C89.9826 29.4464 89.7239 29.3522 89.7239 29.1166C89.7239 28.9517 89.865 28.8575 90.3119 28.8575C90.8529 28.8575 91.2998 28.7868 91.6291 28.7279C92.3583 28.5983 92.5818 27.8681 92.6876 26.9022C92.864 25.5123 92.864 22.8857 92.864 19.8351V6.24262H92.8405Z" fill="#18191B"/>
<path d="M134.733 14.9235C134.839 14.9235 134.956 14.8528 134.956 14.6879V13.993C134.956 8.95173 134.956 8.02123 134.886 6.96116C134.815 5.83041 134.521 5.30038 133.321 5.07659C133.027 5.00592 132.416 4.98236 131.898 4.98236C131.499 4.98236 131.275 4.91169 131.275 4.68789C131.275 4.4641 131.534 4.39343 132.04 4.39343C134.004 4.39343 136.297 4.48766 137.285 4.48766C138.155 4.48766 140.449 4.39343 141.872 4.39343C142.377 4.39343 142.636 4.4641 142.636 4.68789C142.636 4.91169 142.413 4.98236 141.978 4.98236C141.683 4.98236 141.354 5.01769 140.919 5.07659C139.931 5.24149 139.649 5.80686 139.567 6.96116C139.496 8.02123 139.496 8.95173 139.496 13.993V19.8351C139.496 22.8858 139.496 25.5006 139.672 26.9258C139.778 27.8563 140.002 28.5866 141.095 28.7162C141.601 28.7868 142.401 28.8457 142.954 28.8457C143.354 28.8457 143.542 28.94 143.542 29.1049C143.542 29.3404 143.248 29.4347 142.813 29.4347C140.449 29.4347 138.155 29.3404 137.132 29.3404C136.297 29.3404 134.004 29.4347 132.581 29.4347C132.075 29.4347 131.816 29.3404 131.816 29.1049C131.816 28.94 131.957 28.8457 132.404 28.8457C132.945 28.8457 133.392 28.7751 133.721 28.7162C134.451 28.5866 134.627 27.8563 134.78 26.8905C134.968 25.5006 134.968 22.874 134.968 19.8233V16.9023C134.968 16.7727 134.862 16.702 134.745 16.702H120.831C120.726 16.702 120.608 16.7374 120.608 16.9023V19.8233C120.608 22.874 120.608 25.4888 120.784 26.914C120.89 27.8445 121.114 28.5748 122.207 28.7044C122.713 28.7751 123.525 28.8339 124.066 28.8339C124.466 28.8339 124.654 28.9282 124.654 29.0931C124.654 29.3287 124.36 29.4229 123.925 29.4229C121.561 29.4229 119.267 29.3286 118.244 29.3286C117.409 29.3286 115.116 29.4229 113.657 29.4229C113.187 29.4229 112.928 29.3287 112.928 29.0931C112.928 28.9282 113.069 28.8339 113.516 28.8339C114.057 28.8339 114.504 28.7633 114.833 28.7044C115.563 28.5748 115.739 27.8446 115.892 26.8787C116.08 25.4888 116.08 22.8622 116.08 19.8116V13.9694C116.08 8.92818 116.08 7.99767 116.009 6.9376C115.939 5.80686 115.645 5.27682 114.445 5.05303C114.151 4.98236 113.54 4.9588 113.022 4.9588C112.622 4.9588 112.399 4.88813 112.399 4.66434C112.399 4.44054 112.658 4.36987 113.163 4.36987C115.127 4.36987 117.421 4.4641 118.409 4.4641C119.279 4.4641 121.572 4.36987 122.995 4.36987C123.501 4.36987 123.76 4.44054 123.76 4.66434C123.76 4.88813 123.536 4.9588 123.101 4.9588C122.807 4.9588 122.478 4.99414 122.043 5.05303C121.055 5.21793 120.773 5.7833 120.69 6.9376C120.62 7.99767 120.62 8.92818 120.62 13.9694V14.6643C120.62 14.8292 120.726 14.8999 120.843 14.8999H134.756L134.733 14.9235Z" fill="#18191B"/>
<path d="M162.994 25.8303C158.878 22.5441 157.784 18.2567 157.784 14.5465C157.784 11.9434 158.666 7.43221 162.7 4.06354C165.723 1.54293 169.721 0.0117188 175.978 0.0117188C178.577 0.0117188 180.142 0.16484 182.07 0.388633C183.67 0.57709 185.011 0.930447 186.269 1.03645C186.728 1.07179 186.904 1.27203 186.904 1.49582C186.904 1.80206 186.775 2.26142 186.692 3.60418C186.61 4.86449 186.645 6.97285 186.563 7.73846C186.516 8.31561 186.434 8.62185 186.057 8.62185C185.716 8.62185 185.634 8.31561 185.634 7.78557C185.587 6.59594 185.046 5.26496 183.999 4.26378C182.611 2.92102 179.33 1.89629 175.473 1.89629C171.815 1.89629 169.427 2.73257 167.569 4.26378C164.5 6.83151 163.7 10.4593 163.7 14.1813C163.7 23.2862 171.309 27.8091 176.943 27.8091C180.683 27.8091 182.952 27.4204 184.634 25.6654C185.352 24.9352 185.893 23.828 186.057 23.1448C186.187 22.5323 186.269 22.3792 186.598 22.3792C186.892 22.3792 186.975 22.6501 186.975 22.9564C186.975 23.4157 186.469 26.7491 186.046 28.0447C185.834 28.6925 185.669 28.881 184.952 29.1519C183.27 29.7644 180.083 30.0353 177.39 30.0353C171.627 30.0353 166.805 28.8928 162.971 25.8657L162.994 25.8303Z" fill="#18191B"/>
<path d="M193.62 16.9141C193.62 11.2486 197.736 3.91052 208.662 3.91052C217.729 3.91052 223.375 8.71618 223.375 16.3134C223.375 23.9105 217.541 29.9058 208.297 29.9058C197.842 29.9058 193.62 22.7798 193.62 16.9023V16.9141ZM218.282 17.5501C218.282 10.1178 213.578 5.51241 207.603 5.51241C203.416 5.51241 198.642 7.63255 198.642 15.8893C198.642 22.7916 202.828 28.2568 209.826 28.2568C212.378 28.2568 218.282 27.1261 218.282 17.5501V17.5501Z" fill="#18191B"/>
<path d="M237.029 19.8351C237.029 24.0754 237.029 26.3722 237.794 26.9612C238.417 27.4559 239.358 27.6914 242.204 27.6914C244.133 27.6914 245.556 27.6561 246.461 26.7609C246.896 26.3251 247.332 25.4064 247.414 24.7703C247.449 24.4759 247.52 24.2756 247.814 24.2756C248.073 24.2756 248.108 24.4405 248.108 24.841C248.108 25.2062 247.849 27.6914 247.567 28.6573C247.343 29.3875 247.167 29.5524 245.273 29.5524C240.028 29.5524 237.629 29.3522 234.677 29.3522C233.842 29.3522 231.548 29.4464 230.09 29.4464C229.62 29.4464 229.361 29.3522 229.361 29.1166C229.361 28.9517 229.502 28.8575 229.949 28.8575C230.49 28.8575 230.937 28.7868 231.266 28.7279C231.995 28.5984 232.172 27.8681 232.325 26.9023C232.513 25.5124 232.513 22.8858 232.513 19.8351V13.993C232.513 8.95174 232.513 8.02123 232.442 6.96116C232.372 5.83042 232.078 5.30038 230.878 5.07659C230.584 5.00592 230.149 4.98236 229.679 4.98236C229.279 4.98236 229.055 4.91169 229.055 4.6879C229.055 4.4641 229.314 4.39343 229.855 4.39343C231.572 4.39343 233.865 4.48766 234.842 4.48766C235.712 4.48766 238.37 4.39343 239.793 4.39343C240.299 4.39343 240.557 4.4641 240.557 4.6879C240.557 4.91169 240.334 4.98236 239.899 4.98236C239.499 4.98236 238.911 5.0177 238.476 5.07659C237.488 5.24149 237.205 5.80686 237.123 6.96116C237.053 8.02123 237.053 8.95174 237.053 13.993V19.8351H237.029Z" fill="#18191B"/>
<path d="M261.245 19.8351C261.245 24.0754 261.245 26.3722 262.009 26.9612C262.633 27.4559 263.573 27.6914 266.42 27.6914C268.348 27.6914 269.771 27.6561 270.677 26.7609C271.112 26.3251 271.547 25.4064 271.618 24.7703C271.653 24.4759 271.724 24.2756 272.018 24.2756C272.265 24.2756 272.312 24.4405 272.312 24.841C272.312 25.2062 272.053 27.6914 271.771 28.6573C271.547 29.3875 271.371 29.5524 269.477 29.5524C264.232 29.5524 261.833 29.3522 258.881 29.3522C258.046 29.3522 255.752 29.4464 254.294 29.4464C253.824 29.4464 253.565 29.3522 253.565 29.1166C253.565 28.9517 253.706 28.8575 254.153 28.8575C254.694 28.8575 255.141 28.7868 255.47 28.7279C256.199 28.5984 256.376 27.8681 256.529 26.9023C256.717 25.5124 256.717 22.8858 256.717 19.8351V13.993C256.717 8.95174 256.717 8.02123 256.646 6.96116C256.576 5.83042 256.282 5.30038 255.082 5.07659C254.788 5.00592 254.353 4.98236 253.882 4.98236C253.483 4.98236 253.259 4.91169 253.259 4.6879C253.259 4.4641 253.518 4.39343 254.059 4.39343C255.776 4.39343 258.069 4.48766 259.045 4.48766C259.916 4.48766 262.574 4.39343 263.997 4.39343C264.503 4.39343 264.761 4.4641 264.761 4.6879C264.761 4.91169 264.538 4.98236 264.103 4.98236C263.703 4.98236 263.115 5.0177 262.68 5.07659C261.692 5.24149 261.409 5.80686 261.327 6.96116C261.257 8.02123 261.257 8.95174 261.257 13.993V19.8351H261.245Z" fill="#18191B"/>
<path d="M280.921 14.0047C280.921 8.96349 280.921 8.03298 280.85 6.97291C280.78 5.84217 280.486 5.31213 279.286 5.08834C278.992 5.01767 278.38 4.99411 277.863 4.99411C277.463 4.99411 277.24 4.92344 277.24 4.69965C277.24 4.47586 277.498 4.40518 278.039 4.40518C279.968 4.40518 282.261 4.49941 283.285 4.49941C284.449 4.49941 291.694 4.49941 292.388 4.46408C293.081 4.39341 293.658 4.33451 293.952 4.26384C294.14 4.22851 294.352 4.13428 294.54 4.13428C294.728 4.13428 294.763 4.26384 294.763 4.42874C294.763 4.66431 294.575 5.06478 294.469 6.58422C294.434 6.91402 294.363 8.37456 294.293 8.77503C294.258 8.93993 294.187 9.14017 293.928 9.14017C293.67 9.14017 293.599 8.97527 293.599 8.6808C293.599 8.44523 293.564 7.87986 293.376 7.49117C293.117 6.89046 292.752 6.50177 290.941 6.30153C290.318 6.23086 286.495 6.17197 285.766 6.17197C285.59 6.17197 285.507 6.2662 285.507 6.50177V14.8881C285.507 15.1237 285.543 15.2532 285.766 15.2532C286.566 15.2532 290.753 15.2532 291.588 15.1826C292.458 15.1119 293.011 15.0177 293.34 14.6879C293.599 14.4287 293.74 14.2521 293.917 14.2521C294.058 14.2521 294.175 14.3227 294.175 14.5112C294.175 14.6996 293.999 15.2415 293.881 16.9258C293.811 17.5854 293.74 18.9164 293.74 19.1519C293.74 19.4229 293.74 19.788 293.411 19.788C293.152 19.788 293.081 19.6584 293.081 19.4935C293.046 19.1637 293.046 18.7279 292.94 18.3039C292.764 17.6443 292.246 17.1496 290.906 17.0082C290.212 16.9376 286.613 16.914 285.731 16.914C285.555 16.914 285.507 17.0436 285.507 17.2438V19.8587C285.507 20.9894 285.472 24.04 285.507 24.9941C285.578 27.2792 286.166 27.7856 289.883 27.7856C290.823 27.7856 292.364 27.7856 293.305 27.3852C294.258 26.9847 294.693 26.2898 294.94 24.9352C295.01 24.5701 295.081 24.4405 295.34 24.4405C295.634 24.4405 295.634 24.6996 295.634 25.0412C295.634 25.8068 295.34 28.0565 295.163 28.7161C294.904 29.576 294.575 29.576 293.199 29.576C287.695 29.576 285.26 29.3757 283.108 29.3757C282.273 29.3757 279.98 29.47 278.522 29.47C278.051 29.47 277.792 29.3757 277.792 29.1402C277.792 28.9753 277.933 28.881 278.38 28.881C278.921 28.881 279.368 28.8104 279.698 28.7515C280.427 28.6219 280.603 27.8916 280.756 26.9258C280.932 25.5359 280.932 22.9093 280.932 19.8587V14.0165L280.921 14.0047Z" fill="#18191B"/>
<path d="M328.235 27.2321C328.235 28.1272 328.2 28.1979 327.764 28.4217C325.4 29.5525 321.825 29.9176 318.991 29.9176C310.064 29.9176 302.161 26.066 302.161 16.9141C302.161 11.6137 305.183 7.89168 308.5 6.066C311.993 4.14609 315.239 3.91052 318.297 3.91052C320.814 3.91052 324.013 4.31099 324.742 4.44056C325.506 4.57012 326.776 4.77036 327.623 4.80569C328.058 4.84103 328.141 4.97059 328.141 5.20616C328.141 5.5713 327.882 6.50181 327.882 10.6479C327.882 11.1779 327.776 11.3428 327.482 11.3428C327.223 11.3428 327.153 11.1779 327.118 10.907C327.012 10.1414 326.823 9.08131 325.883 8.15081C324.789 7.09073 321.872 5.55952 317.756 5.55952C315.756 5.55952 313.099 5.68909 310.546 7.62077C308.512 9.17554 307.195 11.6608 307.195 15.748C307.195 22.874 312.181 28.2097 319.873 28.2097C320.814 28.2097 322.096 28.2097 322.966 27.8446C323.507 27.609 323.66 27.185 323.66 26.6196V23.4983C323.66 21.8375 323.66 20.5772 323.625 19.5878C323.589 18.457 323.26 17.927 322.06 17.6914C321.766 17.6208 321.155 17.5972 320.637 17.5972C320.308 17.5972 320.096 17.5265 320.096 17.3263C320.096 17.0554 320.355 16.9965 320.861 16.9965C322.754 16.9965 325.048 17.0907 326.141 17.0907C327.235 17.0907 329.199 16.9965 330.399 16.9965C330.869 16.9965 331.128 17.0672 331.128 17.3263C331.128 17.5265 330.905 17.5972 330.658 17.5972C330.364 17.5972 330.117 17.6325 329.67 17.6914C328.682 17.8563 328.317 18.4217 328.282 19.5878C328.247 20.5772 328.247 21.9082 328.247 23.5689V27.2203L328.235 27.2321Z" fill="#18191B"/>
<path d="M338.937 14.0047C338.937 8.96349 338.937 8.03298 338.867 6.97291C338.796 5.84217 338.502 5.31213 337.302 5.08834C337.008 5.01767 336.397 4.99411 335.879 4.99411C335.479 4.99411 335.256 4.92344 335.256 4.69965C335.256 4.47586 335.515 4.40518 336.056 4.40518C337.985 4.40518 340.278 4.49941 341.301 4.49941C342.465 4.49941 349.71 4.49941 350.404 4.46408C351.098 4.39341 351.674 4.33451 351.968 4.26384C352.145 4.22851 352.368 4.13428 352.556 4.13428C352.744 4.13428 352.768 4.26384 352.768 4.42874C352.768 4.66431 352.592 5.06478 352.474 6.58422C352.439 6.91402 352.368 8.37456 352.298 8.77503C352.262 8.93993 352.192 9.14017 351.933 9.14017C351.674 9.14017 351.604 8.97527 351.604 8.6808C351.604 8.44523 351.568 7.87986 351.38 7.49117C351.121 6.89046 350.757 6.50177 348.946 6.30153C348.322 6.23086 344.5 6.17197 343.771 6.17197C343.595 6.17197 343.512 6.2662 343.512 6.50177V14.8881C343.512 15.1237 343.547 15.2532 343.771 15.2532C344.571 15.2532 348.758 15.2532 349.604 15.1826C350.475 15.1119 351.027 15.0177 351.357 14.6879C351.615 14.4287 351.757 14.2521 351.945 14.2521C352.086 14.2521 352.203 14.3227 352.203 14.5112C352.203 14.6996 352.015 15.2415 351.909 16.9258C351.839 17.5854 351.768 18.9164 351.768 19.1519C351.768 19.4229 351.768 19.788 351.439 19.788C351.18 19.788 351.11 19.6584 351.11 19.4935C351.074 19.1637 351.074 18.7279 350.969 18.3039C350.792 17.6443 350.275 17.1496 348.934 17.0082C348.24 16.9376 344.641 16.914 343.759 16.914C343.583 16.914 343.536 17.0436 343.536 17.2438V19.8587C343.536 20.9894 343.5 24.04 343.536 24.9941C343.606 27.2792 344.194 27.7856 347.911 27.7856C348.852 27.7856 350.392 27.7856 351.333 27.3852C352.274 26.9847 352.721 26.2898 352.968 24.9352C353.039 24.5701 353.109 24.4405 353.368 24.4405C353.662 24.4405 353.662 24.6996 353.662 25.0412C353.662 25.8068 353.368 28.0565 353.191 28.7161C352.933 29.576 352.615 29.576 351.227 29.576C345.723 29.576 343.289 29.3757 341.136 29.3757C340.301 29.3757 338.008 29.47 336.55 29.47C336.079 29.47 335.821 29.3757 335.821 29.1402C335.821 28.9753 335.962 28.881 336.409 28.881C336.95 28.881 337.397 28.8104 337.714 28.7515C338.443 28.6219 338.631 27.8916 338.773 26.9258C338.961 25.5359 338.961 22.9093 338.961 19.8587V14.0165L338.937 14.0047Z" fill="#18191B"/>
<path d="M363 27.444C363 28.8103 361.977 29.8233 360.53 29.8233C359.084 29.8233 358.06 28.8103 358.06 27.444C358.06 26.0777 359.06 25.053 360.53 25.053C362 25.053 363 26.0659 363 27.444ZM362.6 27.444C362.6 26.2897 361.753 25.4417 360.53 25.4417C359.307 25.4417 358.46 26.2426 358.46 27.4558C358.46 28.669 359.331 29.4464 360.53 29.4464C361.73 29.4464 362.6 28.6572 362.6 27.4558V27.444ZM361.048 27.7385L361.8 28.6926H361.024L360.354 27.8209H360.119V28.6926H359.472V26.0895H360.73C361.377 26.0895 361.706 26.4546 361.706 26.9258C361.706 27.3498 361.459 27.656 361.059 27.7385H361.048ZM360.648 27.3145C360.907 27.3145 361.024 27.1613 361.024 26.9729C361.024 26.7609 360.883 26.6549 360.648 26.6549H360.107V27.3145H360.648Z" fill="#18191B"/>
</g>
<defs>
<clipPath id="clip0_905_148041">
<rect width="363" height="30" fill="white"/>
</clipPath>
</defs>
</svg>
