<svg xmlns="http://www.w3.org/2000/svg" viewBox="0 0 410.35 42.27"><defs><style>.cls-1{fill:#8c1515;}</style></defs><title>Logo-Color</title><g id="Layer_2" data-name="Layer 2"><g id="Layer_1-2" data-name="Layer 1"><path class="cls-1" d="M84.53,13.22a7.22,7.22,0,0,1,6.22-3.34c2.23-.14,4.76.23,6.32,2-.79,1-1.55,2.12-2.35,3.17-.89-1-1.62-2.45-3-2.74a2.81,2.81,0,0,0-3.55,1.81c-.59,2.4-.24,4.9-.32,7.35h4.58v2.73H87.79q0,6.17,0,12.34A17.14,17.14,0,0,0,88.18,40a8.29,8.29,0,0,0,3.34.76c0,.28,0,.86,0,1.14a75.44,75.44,0,0,0-11.24,0c0-.24,0-.72,0-1,1.18-.21,2.65-.76,2.7-2.18.46-4.83.15-9.7.24-14.55H80.47c0-.41,0-.83,0-1.24.93-.43,1.83-.9,2.72-1.39,0-2.8-.17-5.83,1.32-8.34Z"/><path class="cls-1" d="M152.06,9.88A40.83,40.83,0,0,1,144.69,11c0,.23-.07.68-.1.91.93.28,2.44.21,2.5,1.5a70.36,70.36,0,0,1,.18,7.92c-3.57-.61-7.55-.57-10.59,1.65-3.32,2.33-4.46,6.67-4.13,10.54A9.14,9.14,0,0,0,137,41.07a10.18,10.18,0,0,0,10.42-.64q0,.91,0,1.82a37.88,37.88,0,0,1,7.17-1.07v-1c-3.42-.58-2.48-2.17-2.72-4.86,0-8.46-.13-16.93.18-25.39Zm-8.88,13.65a7.28,7.28,0,0,1,4.1,1.25c0,4.55,0,9.11,0,13.66-2.54,1.17-6,1.08-8-1.07-1.71-1.83-2-4.5-1.84-6.88.17-2.17.62-4.65,2.52-6a5.69,5.69,0,0,1,3.18-1Z"/><path class="cls-1" d="M8,12.66a43,43,0,0,1,8.61.41,37.83,37.83,0,0,0,0,6.09h-1.1c-.22-1.27-.45-2.8-1.79-3.37a9.77,9.77,0,0,0-6.41-.32c-2.71.8-3.16,4.79-1.14,6.54,2.52,2.21,5.62,3.65,8.2,5.8,4,3.22,3.52,10.72-1.28,13-4,1.87-8.79,1.4-13,.22,0-2,0-4-.14-6l1.21,0c.21,1.26.41,2.81,1.69,3.46a8.55,8.55,0,0,0,7.62.28c3-1.64,2.42-6.37-.35-8C7.76,28.91,5,27.54,2.77,25.45a7.72,7.72,0,0,1-1.18-9.16A8,8,0,0,1,8,12.66Z"/><path class="cls-1" d="M25.1,17,26,17c0,1.52,0,3,0,4.57h7v2.62H26c0,3.67-.06,7.34,0,11,.1,1.4.14,3.14,1.44,4,1.65,1,3.62.37,5.26-.28.51,1.24-.78,1.93-1.68,2.45a8.71,8.71,0,0,1-6.83.28c-1.86-.69-2.75-2.72-2.85-4.58-.22-4.29,0-8.58,0-12.88H18.7v-.86c3-1.12,5-3.67,6.41-6.38Z"/><path class="cls-1" d="M43.79,20.88c-3.15,0-6.32,1.53-7.33,4.69l1.11.62a4.75,4.75,0,0,1,6.26-2c1.75.79,1.9,2.93,1.86,4.6a57.3,57.3,0,0,0-8.18,2.87C34.4,33.31,34,38,36.23,40.48c2.62,2.41,7,2,9.6-.26a3.65,3.65,0,0,0,4.29,1.7c1.42-.28,2.36-1.46,3.29-2.46l-.65-.74c-.59.15-1.24.61-1.82.16-.74-.51-.65-1.54-.7-2.33.05-3.39.24-6.79.06-10.18a5.43,5.43,0,0,0-2.43-4.47,8.62,8.62,0,0,0-4.07-1Zm1.85,10.56c0,2.28,0,4.57,0,6.85-1.46.65-3.2,1.25-4.74.51-1.89-1-1.81-4-.25-5.27a19.47,19.47,0,0,1,5-2.09Z"/><path class="cls-1" d="M104,21a10.22,10.22,0,0,0-6.48,2.1,11.19,11.19,0,0,0-3.72,9.11A10.12,10.12,0,0,0,96.93,40c2.68,2.33,6.57,2.56,9.9,1.87a9.46,9.46,0,0,0,6.9-7.3c.8-3.58.47-7.74-2-10.63A9.84,9.84,0,0,0,104,21Zm0,2.44a4.26,4.26,0,0,1,3.25,1.52,10.67,10.67,0,0,1,1.93,6.34c0,2.41-.29,5-1.8,7a4.44,4.44,0,0,1-6.41.41,8.14,8.14,0,0,1-2.1-4.73,15.28,15.28,0,0,1,.48-6.79,5.17,5.17,0,0,1,3-3.43,4.64,4.64,0,0,1,1.66-.27Z"/><path class="cls-1" d="M55,22.35A18.11,18.11,0,0,0,62.21,21c.08.58.14,1.16.19,1.75a10.26,10.26,0,0,1,8.9-1.31,5.83,5.83,0,0,1,3.79,5c.44,4.19-.2,8.43.36,12.61.06,1.31,1.48,1.61,2.5,1.83,0,.24,0,.73,0,1-3.47-.28-10.41,0-10.41,0v-1s2.5-.7,2.66-1.42A49.79,49.79,0,0,0,70.61,30c-.11-1.89-.07-4.24-1.87-5.39s-4.31-.6-6.28.12c0,4.09,0,8.18,0,12.27.06,1.09,0,2.34.69,3.24a6.47,6.47,0,0,0,2,.68c0,.24,0,.74,0,1a60.09,60.09,0,0,0-10.26,0c0-.24,0-.73,0-1,1-.24,2.41-.57,2.61-1.83.48-3,.11-6.09.22-9.13a34.42,34.42,0,0,0-.16-5.2c-.24-1.17-1.67-1.1-2.57-1.34,0-.27,0-.81,0-1.08Z"/><path class="cls-1" d="M116.06,22.26a23.65,23.65,0,0,0,7.21-1.15l.07,1.8a7,7,0,0,1,8.39-.5l-2.61,4A4.39,4.39,0,0,0,123.48,25s0,8.27,0,12.4c.1.92,0,2.12.82,2.72a7.69,7.69,0,0,0,2.78.61c0,.28,0,.86,0,1.14a76.93,76.93,0,0,0-11.26,0V40.75c1.21-.21,2.47-.62,2.65-1.34.52-1.78.27-3.66.32-5.49-.05-2.91.1-5.83-.07-8.74,0-1.41-1.62-1.54-2.65-1.75,0-.4,0-.81,0-1.17Z"/><rect x="163.87" width="0.5" height="42.27"/><path d="M175.27,14.36a5.88,5.88,0,0,0,4.15,1.88c2,0,3.14-1,3.14-2.45s-1.08-2-2.5-2.66l-2.15-.94c-1.42-.6-3-1.67-3-3.87s2-4,4.72-4A6.24,6.24,0,0,1,184,4.2l-1,1.24A4.79,4.79,0,0,0,179.57,4c-1.67,0-2.79.85-2.79,2.2s1.31,2,2.5,2.5l2.13.92c1.74.76,3.09,1.79,3.09,4,0,2.38-1.95,4.28-5.11,4.28a7.29,7.29,0,0,1-5.27-2.22Z"/><path d="M191.71,6.23A4.59,4.59,0,0,1,195,7.56L194,8.78a3.37,3.37,0,0,0-2.24-1c-2,0-3.48,1.74-3.48,4.31s1.4,4.26,3.44,4.26a4,4,0,0,0,2.61-1.12l.85,1.24a5.51,5.51,0,0,1-3.62,1.44c-3,0-5.22-2.13-5.22-5.82S188.85,6.23,191.71,6.23Z"/><path d="M197.53,1.33h1.88V5.78l-.07,2.29A5.32,5.32,0,0,1,203,6.23c2.34,0,3.39,1.51,3.39,4.35v7.05h-1.88v-6.8c0-2.08-.64-3-2.11-3-1.15,0-1.92.6-3,1.72v8.06h-1.88Z"/><path d="M214.22,6.23c2.73,0,5.15,2.13,5.15,5.86s-2.43,5.82-5.15,5.82-5.15-2.13-5.15-5.82S211.5,6.23,214.22,6.23Zm0,10.12c1.92,0,3.21-1.72,3.21-4.26s-1.28-4.31-3.21-4.31S211,9.53,211,12.1,212.32,16.36,214.22,16.36Z"/><path d="M226.55,6.23c2.73,0,5.15,2.13,5.15,5.86s-2.43,5.82-5.15,5.82-5.15-2.13-5.15-5.82S223.82,6.23,226.55,6.23Zm0,10.12c1.92,0,3.21-1.72,3.21-4.26s-1.28-4.31-3.21-4.31-3.21,1.74-3.21,4.31S224.65,16.36,226.55,16.36Z"/><path d="M234.54,1.33h1.88v14.2c0,.6.25.82.53.82a1.58,1.58,0,0,0,.41,0l.25,1.42a2.53,2.53,0,0,1-1.08.18c-1.42,0-2-.89-2-2.52Z"/><path d="M249.15,6.23c2.73,0,5.15,2.13,5.15,5.86s-2.43,5.82-5.15,5.82S244,15.78,244,12.1,246.43,6.23,249.15,6.23Zm0,10.12c1.92,0,3.21-1.72,3.21-4.26s-1.28-4.31-3.21-4.31-3.21,1.74-3.21,4.31S247.25,16.36,249.15,16.36Z"/><path d="M262.16,2.87a3.13,3.13,0,0,0-1.26-.27c-1.05,0-1.56.73-1.56,2.15V6.51h2.36V8h-2.36v9.6h-1.88V8H256V6.62l1.51-.11V4.75c0-2.27,1-3.69,3.25-3.69a5,5,0,0,1,1.85.37Z"/><path d="M175.22,25.69h1.9V32h7v-6.3H186v15h-1.92V33.64h-7v7.08h-1.9Z"/><path d="M189.72,29.58h1.9v6.8c0,2.08.62,3,2.08,3,1.15,0,1.95-.57,3-1.88v-7.9h1.88V40.71H197L196.86,39h-.07a4.71,4.71,0,0,1-3.66,2c-2.36,0-3.41-1.51-3.41-4.35Z"/><path d="M202.25,29.58h1.56l.16,1.6H204a4.89,4.89,0,0,1,3.46-1.88,2.92,2.92,0,0,1,3.07,2.13c1.17-1.26,2.31-2.13,3.66-2.13,2.29,0,3.39,1.51,3.39,4.35v7.05h-1.88v-6.8c0-2.08-.66-3-2.06-3-.87,0-1.76.57-2.79,1.72v8.06H209v-6.8c0-2.08-.66-3-2.08-3a4.18,4.18,0,0,0-2.79,1.72v8.06h-1.88Z"/><path d="M227.44,33.66c0-1.42-.48-2.79-2.29-2.79a6,6,0,0,0-3.32,1.19l-.76-1.31a8.26,8.26,0,0,1,4.37-1.44c2.73,0,3.87,1.81,3.87,4.58v6.83h-1.56l-.16-1.33h0a6,6,0,0,1-3.69,1.6,3,3,0,0,1-3.27-3.16C220.59,35.4,222.7,34.19,227.44,33.66Zm-3,5.82a4.56,4.56,0,0,0,3-1.49V34.9c-3.73.46-5,1.37-5,2.79A1.71,1.71,0,0,0,224.39,39.48Z"/><path d="M232.78,29.58h1.56l.16,1.6h.07a5.25,5.25,0,0,1,3.73-1.88c2.34,0,3.39,1.51,3.39,4.35v7.05h-1.88v-6.8c0-2.08-.64-3-2.11-3-1.15,0-1.92.6-3,1.72v8.06h-1.88Z"/><path d="M244.87,26.08a1.31,1.31,0,0,1,2.61,0,1.31,1.31,0,0,1-2.61,0Zm.34,3.5h1.88V40.71h-1.88Z"/><path d="M251.08,31.12h-1.65V29.7l1.74-.11.23-3.12H253v3.12h3v1.53h-3V37.3c0,1.37.44,2.15,1.72,2.15a4,4,0,0,0,1.26-.3l.37,1.42a6.88,6.88,0,0,1-2.06.41c-2.38,0-3.18-1.51-3.18-3.71Z"/><path d="M258.06,26.08a1.31,1.31,0,0,1,2.61,0,1.31,1.31,0,0,1-2.61,0Zm.34,3.5h1.88V40.71h-1.88Z"/><path d="M268.12,29.31c2.84,0,4.44,2,4.44,5.22a6.62,6.62,0,0,1-.07,1H265c.14,2.4,1.58,3.92,3.71,3.92a5,5,0,0,0,2.77-.87l.66,1.24A6.63,6.63,0,0,1,268.46,41c-3,0-5.34-2.18-5.34-5.82S265.57,29.31,268.12,29.31Zm2.79,5c0-2.27-1-3.53-2.75-3.53-1.56,0-3,1.28-3.21,3.53Z"/><path d="M274.92,38.2a5,5,0,0,0,3.27,1.33c1.47,0,2.2-.78,2.2-1.74,0-1.15-1.33-1.65-2.54-2.11-1.58-.57-3.32-1.33-3.32-3.21s1.42-3.16,3.82-3.16a5.55,5.55,0,0,1,3.46,1.26l-.89,1.19a4.13,4.13,0,0,0-2.54-1c-1.4,0-2,.76-2,1.6,0,1.05,1.21,1.44,2.47,1.92,1.6.6,3.39,1.26,3.39,3.37,0,1.81-1.44,3.32-4.08,3.32A6.7,6.7,0,0,1,274,39.46Z"/><path d="M295.55,33.66c0-1.42-.48-2.79-2.29-2.79a6,6,0,0,0-3.32,1.19l-.76-1.31a8.26,8.26,0,0,1,4.37-1.44c2.73,0,3.87,1.81,3.87,4.58v6.83h-1.56l-.16-1.33h0A6,6,0,0,1,292,41a3,3,0,0,1-3.27-3.16C288.71,35.4,290.81,34.19,295.55,33.66Zm-3,5.82a4.56,4.56,0,0,0,3-1.49V34.9c-3.73.46-5,1.37-5,2.79A1.71,1.71,0,0,0,292.51,39.48Z"/><path d="M300.89,29.58h1.56l.16,1.6h.07a5.25,5.25,0,0,1,3.73-1.88c2.34,0,3.39,1.51,3.39,4.35v7.05h-1.88v-6.8c0-2.08-.64-3-2.11-3-1.15,0-1.92.6-3,1.72v8.06h-1.88Z"/><path d="M317.36,29.31a4.59,4.59,0,0,1,3.11,1.28l-.09-1.9V24.41h1.9V40.71h-1.56l-.16-1.31h-.07A5,5,0,0,1,317.13,41c-2.79,0-4.6-2.11-4.6-5.82S314.82,29.31,317.36,29.31Zm.18,10.1a3.77,3.77,0,0,0,2.84-1.53V32.06a3.87,3.87,0,0,0-2.7-1.17c-1.79,0-3.21,1.72-3.21,4.26S315.6,39.41,317.54,39.41Z"/><path d="M330.71,37.44a5.88,5.88,0,0,0,4.15,1.88c2,0,3.14-1,3.14-2.45s-1.08-2-2.5-2.66l-2.15-.94c-1.42-.6-3-1.67-3-3.87s2-4,4.72-4a6.24,6.24,0,0,1,4.44,1.85l-1,1.24A4.79,4.79,0,0,0,335,27.09c-1.67,0-2.79.85-2.79,2.2s1.31,2,2.5,2.5l2.13.92c1.74.76,3.09,1.79,3.09,4,0,2.38-1.95,4.28-5.11,4.28a7.29,7.29,0,0,1-5.27-2.22Z"/><path d="M347.16,29.31a4.59,4.59,0,0,1,3.25,1.33l-.94,1.21a3.37,3.37,0,0,0-2.25-1c-2,0-3.48,1.74-3.48,4.31s1.4,4.26,3.44,4.26a4,4,0,0,0,2.61-1.12l.85,1.24A5.51,5.51,0,0,1,347,41c-3,0-5.22-2.13-5.22-5.82S344.29,29.31,347.16,29.31Z"/><path d="M352.63,26.08a1.31,1.31,0,0,1,2.61,0,1.31,1.31,0,0,1-2.61,0Zm.34,3.5h1.88V40.71H353Z"/><path d="M362.68,29.31c2.84,0,4.44,2,4.44,5.22a6.62,6.62,0,0,1-.07,1h-7.51c.14,2.4,1.58,3.92,3.71,3.92a5,5,0,0,0,2.77-.87l.66,1.24A6.63,6.63,0,0,1,363,41c-3,0-5.34-2.18-5.34-5.82S360.14,29.31,362.68,29.31Zm2.79,5c0-2.27-1-3.53-2.75-3.53-1.56,0-3,1.28-3.21,3.53Z"/><path d="M369.78,29.58h1.56l.16,1.6h.07a5.25,5.25,0,0,1,3.73-1.88c2.34,0,3.39,1.51,3.39,4.35v7.05h-1.88v-6.8c0-2.08-.64-3-2.11-3-1.15,0-1.92.6-3,1.72v8.06h-1.88Z"/><path d="M386.76,29.31A4.59,4.59,0,0,1,390,30.64l-.94,1.21a3.37,3.37,0,0,0-2.25-1c-2,0-3.48,1.74-3.48,4.31s1.4,4.26,3.44,4.26a4,4,0,0,0,2.61-1.12l.85,1.24A5.51,5.51,0,0,1,386.62,41c-3,0-5.22-2.13-5.22-5.82S383.89,29.31,386.76,29.31Z"/><path d="M396.26,29.31c2.84,0,4.44,2,4.44,5.22a6.62,6.62,0,0,1-.07,1h-7.51c.14,2.4,1.58,3.92,3.71,3.92a5,5,0,0,0,2.77-.87l.66,1.24A6.63,6.63,0,0,1,396.61,41c-3,0-5.34-2.18-5.34-5.82S393.72,29.31,396.26,29.31Zm2.79,5c0-2.27-1-3.53-2.75-3.53-1.56,0-3,1.28-3.21,3.53Z"/><path d="M403.06,38.2a5,5,0,0,0,3.28,1.33c1.47,0,2.2-.78,2.2-1.74,0-1.15-1.33-1.65-2.54-2.11-1.58-.57-3.32-1.33-3.32-3.21s1.42-3.16,3.82-3.16A5.56,5.56,0,0,1,410,30.57l-.89,1.19a4.13,4.13,0,0,0-2.54-1c-1.4,0-2,.76-2,1.6,0,1.05,1.21,1.44,2.47,1.92,1.6.6,3.39,1.26,3.39,3.37,0,1.81-1.44,3.32-4.08,3.32a6.7,6.7,0,0,1-4.15-1.53Z"/></g></g></svg>