<svg version="1.1" id="Layer_1" xmlns="http://www.w3.org/2000/svg" x="0" y="0" viewBox="0 0 150.033 150.441" xml:space="preserve"><style>.st1{fill:#141413}</style><path class="st1" d="M18.797 19.751v15.035c0 .237.192.428.428.428h3.59a.428.428 0 00.428-.428V19.751c0-.237.192-.428.428-.428h4.927a.428.428 0 00.428-.428v-3.596a.428.428 0 00-.428-.428H13.5a.428.428 0 00-.428.428v3.596c0 .237.192.428.428.428h4.868a.427.427 0 01.429.428zM33.365 35.214h12.728a.393.393 0 00.393-.393v-3.125a.393.393 0 00-.393-.393H37.87a.393.393 0 01-.393-.393v-3.497c0-.217.176-.393.393-.393h7.031a.393.393 0 00.393-.393v-3.125a.393.393 0 00-.393-.393H37.87a.393.393 0 01-.393-.393v-3.537c0-.217.176-.393.393-.393h8.223a.393.393 0 00.393-.393v-3.125a.393.393 0 00-.393-.393H33.365a.393.393 0 00-.393.393v19.557c0 .213.176.389.393.389zM49.727 35.214h4.346a.642.642 0 00.539-.294l4.202-6.531a.205.205 0 01.344 0l4.202 6.531a.642.642 0 00.539.294h4.318a.335.335 0 00.273-.53l-6.419-9.928a.536.536 0 01.003-.588l5.8-8.762a.336.336 0 00-.27-.535h-4.32a.64.64 0 00-.536.29l-3.592 5.493a.205.205 0 01-.342 0l-3.592-5.493a.64.64 0 00-.536-.29h-4.35a.335.335 0 00-.27.535l5.829 8.761c.119.178.12.41.003.59l-6.444 9.927c-.158.221 0 .53.273.53zM82.924 15.039a.265.265 0 00-.247-.168h-4.026a.263.263 0 00-.247.17l-7.643 19.814a.264.264 0 00.247.36h4.079c.111 0 .21-.069.248-.173l1.262-3.387a.29.29 0 01.273-.189h7.591a.29.29 0 01.271.186l1.316 3.393c.04.102.138.169.247.169h4.137a.265.265 0 00.247-.362l-7.755-19.813zm.372 12.735h-5.322a.061.061 0 01-.058-.081l2.703-7.884a.061.061 0 01.116.001l2.618 7.884a.06.06 0 01-.057.08zM101.16 23.356l-2.15-.756c-2.035-.698-2.18-1.655-2.18-2.18 0-1.336 1.075-1.888 2.47-1.888.776 0 2.047.198 2.923 1.843a.519.519 0 00.689.217l2.738-1.37a.52.52 0 00.243-.685c-1.278-2.633-3.623-3.986-6.594-3.986-3.982 0-6.859 2.266-6.859 5.928 0 1.687.669 4.504 5.173 6.046l2.209.754c1.918.669 2.354 1.395 2.354 2.18 0 1.512-1.454 2.093-3.051 2.093-1.732 0-2.951-.83-3.545-2.358a.532.532 0 00-.595-.345l-3.071.602a.518.518 0 00-.418.592c.651 3.475 4.054 5.491 7.774 5.491 3.575 0 7.295-1.888 7.295-6.161-.028-1.861-.842-4.593-5.405-6.017zM18.959 48.807h-3.841a.332.332 0 00-.332.332v19.679c0 .183.149.332.332.332h13.054a.332.332 0 00.332-.332v-3.585a.332.332 0 00-.332-.332h-8.548a.332.332 0 01-.332-.332v-15.43a.333.333 0 00-.333-.332zM31.011 69.15h3.779c.17 0 .321-.105.38-.264l1.245-3.341a.22.22 0 01.206-.143h7.689a.22.22 0 01.205.14l1.3 3.349a.407.407 0 00.379.259h3.838a.403.403 0 00.375-.55L42.76 49.063a.403.403 0 00-.375-.256h-3.837a.402.402 0 00-.376.258l-7.536 19.538a.401.401 0 00.375.547zm9.272-15.002a.205.205 0 01.389.002l2.421 7.291a.205.205 0 01-.195.27h-4.921a.205.205 0 01-.194-.272l2.5-7.291zM68.386 60.762l-3.445-10.926a.517.517 0 00-.493-.362h-2.585a.518.518 0 00-.493.36l-3.432 10.801c-.062.195-.339.193-.398-.002l-3.5-11.461a.517.517 0 00-.495-.366H50.04a.517.517 0 00-.493.672l6.068 19.309a.517.517 0 00.493.362h2.815a.518.518 0 00.494-.363l3.54-11.373a.191.191 0 01.365 0l3.541 11.373a.516.516 0 00.494.363h2.814a.516.516 0 00.493-.362l6.069-19.309a.517.517 0 00-.493-.672h-3.505a.52.52 0 00-.495.366L68.701 60.76c-.045.157-.266.158-.315.002zM27.022 95.85v6.876a.36.36 0 00.361.361h3.783a.36.36 0 00.361-.361V83.104a.36.36 0 00-.361-.361h-3.783a.36.36 0 00-.361.361v7.777a.36.36 0 01-.361.361h-7.009a.36.36 0 01-.361-.361v-7.777a.36.36 0 00-.361-.361h-3.784a.36.36 0 00-.361.361v19.622a.36.36 0 00.361.361h3.784a.36.36 0 00.361-.361V95.85a.36.36 0 01.361-.361h7.009c.2 0 .361.161.361.361zM41.054 86.655h8.462a.273.273 0 00.273-.273v-3.365a.273.273 0 00-.273-.273H36.549a.273.273 0 00-.273.273v19.797c0 .151.122.273.273.273h12.968a.273.273 0 00.273-.273v-3.365a.273.273 0 00-.273-.273h-8.462a.273.273 0 01-.273-.273v-3.737c0-.151.122-.273.273-.273h7.27a.273.273 0 00.273-.273v-3.365a.273.273 0 00-.273-.273h-7.27a.273.273 0 01-.273-.273v-3.777a.272.272 0 01.272-.277zM60.127 82.743h-3.958a.273.273 0 00-.273.273v19.797c0 .151.122.273.273.273H69.34a.273.273 0 00.273-.273v-3.702a.273.273 0 00-.273-.273h-8.666a.273.273 0 01-.273-.273V83.016a.274.274 0 00-.274-.273zM82.112 82.743h-8.427a.495.495 0 00-.495.495v19.354c0 .273.222.495.495.495H77.2a.495.495 0 00.495-.495v-6.189c0-.273.221-.495.495-.495h3.922c4.185 0 6.539-2.936 6.539-6.509 0-3.575-2.325-6.656-6.539-6.656zm-.581 9.62H78.19a.495.495 0 01-.495-.495v-5.055c0-.273.221-.495.495-.495h3.341c1.599 0 2.587 1.249 2.587 3.051-.001 1.743-.989 2.994-2.587 2.994zM31.047 116.361c-5.841 0-10.579 4.708-10.579 10.491 0 5.785 4.737 10.492 10.579 10.492 5.812 0 10.55-4.708 10.55-10.492-.001-5.784-4.738-10.491-10.55-10.491zm0 16.857c-3.371 0-6.132-2.646-6.132-6.366 0-3.72 2.761-6.364 6.132-6.364 3.342 0 6.104 2.644 6.104 6.364-.001 3.72-2.762 6.366-6.104 6.366zM61.918 132.93a.401.401 0 00-.588-.147c-.513.356-1.145.58-1.702.58-1.919 0-2.753-1.552-3.28-3.535a.408.408 0 01.26-.482c2.465-.934 3.95-3.232 3.95-5.981 0-3.575-2.295-6.684-6.481-6.684h-8.632a.407.407 0 00-.407.407v19.53c0 .225.182.407.407.407h3.662a.407.407 0 00.407-.407v-6.423c0-.225.182-.407.407-.407h1.939c.2 0 .372.143.401.341.343 2.331 1.909 7.215 6.495 7.215 1.95 0 3.042-.606 4.263-1.534a.409.409 0 00.115-.511l-1.216-2.369zm-8.422-6.746h-3.575a.407.407 0 01-.407-.407v-4.911c0-.225.182-.407.407-.407h3.575c1.599 0 2.558 1.162 2.558 2.877 0 1.686-.96 2.848-2.558 2.848zM83.145 125.951h-8.434a.462.462 0 00-.462.462v2.68c0 .255.207.462.462.462h4.219c.255 0 .462.207.462.462v2.141a.461.461 0 01-.274.427c-1.036.436-2.328.632-3.474.632-3.692 0-6.278-2.646-6.278-6.308 0-2.934 1.685-6.423 6.626-6.423 1.795-.025 3.449.809 4.568 1.568.209.142.495.08.636-.13l1.727-2.579a.465.465 0 00-.112-.634c-1.982-1.422-4.06-2.352-6.964-2.352-6.801 0-10.986 4.824-10.986 10.491 0 5.755 4.563 10.492 10.811 10.492 1.78 0 4.652-.372 7.545-2.773.25-.207.39-.523.39-.848v-7.31a.462.462 0 00-.462-.46z"/><g id="TlCYKi_3_"><path d="M12.648 132.987l1.926-.155a.828.828 0 00.7-.508c.224-.537.575-1.381.743-1.788.034-.081.148-.078.181.004l.741 1.781c.12.289.391.486.703.511l1.924.155c.088.007.122.117.055.174l-1.46 1.251a.84.84 0 00-.271.835l.44 1.869a.097.097 0 01-.146.106l-1.638-.999a.84.84 0 00-.878 0l-1.641.997a.097.097 0 01-.146-.106l.444-1.867a.842.842 0 00-.27-.835l-1.461-1.251c-.067-.057-.034-.167.054-.174z" fill="#1f5766"/></g></svg>