<svg width="160" height="124" viewBox="0 0 160 124" fill="none" xmlns="http://www.w3.org/2000/svg">
<g clip-path="url(#clip0_665_135446)">
<path fill-rule="evenodd" clip-rule="evenodd" d="M96.032 41.905C92.832 44.876 89.989 48.197 87.857 51.955C91.589 49.159 95.677 46.799 99.942 44.789H100.031C109.094 40.506 119.046 37.885 128.732 36.486C138.684 35.088 148.192 35 156.19 35.874C156.19 35.874 154.235 34.476 151.48 32.728C146.06 29.145 137.618 23.726 135.752 23.814C125.622 24.513 108.117 30.719 96.032 41.905Z" fill="#124EC2"/>
<path fill-rule="evenodd" clip-rule="evenodd" d="M92.652 39.188C91.262 41.9307 90.0235 44.7476 88.942 47.626C90.885 45.19 92.829 43.016 94.684 41.015C107.054 28.054 118.097 24.922 139.92 17.355C139.92 17.355 123.222 8.56903 120.836 9.87403C111.029 14.919 100.869 22.487 92.652 39.188Z" fill="#124EC2"/>
<path fill-rule="evenodd" clip-rule="evenodd" d="M80.264 32.2989C71.178 11.4729 43.386 3.24695 43.386 3.24695C54.788 11.2969 66.813 27.3109 71.713 42.6239C72.96 45.6869 74.029 49.0119 75.098 53.0379H85.43C86.499 49.0119 87.568 45.6879 88.815 42.6239C93.625 27.3989 105.739 11.3849 117.141 3.24695C117.052 3.24695 89.261 11.4729 80.264 32.2989ZM63.401 41.9359C66.604 44.8979 69.451 48.2089 71.587 51.9559C67.85 49.1669 63.757 46.8149 59.487 44.8109H59.397C50.322 40.4549 40.357 37.8409 30.658 36.4469C20.782 35.0529 11.173 34.9659 3.254 35.8369C3.254 35.8369 5.211 34.4429 7.97 32.7009C13.397 29.1279 21.85 23.7269 23.718 23.8139C33.772 24.5979 51.39 30.7839 63.401 41.9359Z" fill="#124EC2"/>
<path fill-rule="evenodd" clip-rule="evenodd" d="M66.792 39.188C68.182 41.9307 69.4205 44.7476 70.502 47.626C68.559 45.19 66.615 43.016 64.76 41.015C52.39 28.054 41.346 24.922 19.524 17.355C19.524 17.355 36.222 8.56903 38.608 9.87403C48.415 14.919 58.575 22.487 66.792 39.188Z" fill="#124EC2"/>
<path fill-rule="evenodd" clip-rule="evenodd" d="M79.81 55.708H73.241C63.476 47.17 25.124 37.208 12.518 37.92C12.162 37.92 11.718 38.187 11.275 38.543C7.635 41.3 1.155 50.905 0 51.705C33.913 49.037 56.551 53.128 67.204 55.885C68.624 56.241 69.779 56.597 70.755 56.864C71.732 57.131 72.531 57.397 73.152 57.664V59.532H86.292V57.664C86.912 57.486 87.712 57.22 88.688 56.864C89.665 56.597 90.908 56.241 92.239 55.886C102.981 53.128 125.531 49.037 159.444 51.706C158.29 50.905 151.809 41.3 148.258 38.543C147.814 38.187 147.37 37.92 147.015 37.92C134.409 37.209 96.057 47.17 86.291 55.708H79.81ZM65.08 68.191V98.43C65.08 105.375 64.811 112.143 59.36 117.417C54.801 121.812 47.652 123.395 41.217 123.395C34.871 123.395 27.632 121.812 23.074 117.417C17.623 112.231 17.354 105.375 17.354 98.43V68.191H31.654V96.496C31.654 103.44 32.19 111.087 41.306 111.087C50.422 111.087 50.958 103.44 50.958 96.496V68.19L65.08 68.191ZM83.666 80.06V89.095H99.26V101.053H83.666V122.311H69.418V68.191H100.873V80.15H83.666V80.06ZM129.47 122.311H115.574V80.061H104.127V68.19H141.005V80.15H129.557V122.312L129.47 122.311Z" fill="#124EC2"/>
<path d="M79.722 18.4C84.2148 18.4 87.857 14.281 87.857 9.2C87.857 4.11898 84.2148 0 79.722 0C75.2291 0 71.587 4.11898 71.587 9.2C71.587 14.281 75.2291 18.4 79.722 18.4Z" fill="#124EC2"/>
</g>
<defs>
<clipPath id="clip0_665_135446">
<rect width="160" height="124" fill="white"/>
</clipPath>
</defs>
</svg>
