<svg width="234" height="69" viewBox="0 0 234 69" fill="none" xmlns="http://www.w3.org/2000/svg">
<path d="M25.035 41.2956H28.1477L23.091 49.2765V54.8791H20.2457V49.2498L15.1891 41.2918H18.4469L21.7543 46.822L25.035 41.2956ZM36.2903 41.2232H33.2502L27.781 54.8791H30.7218L31.8409 51.9177H37.5048L38.5742 54.8791H41.6143L36.2903 41.2232ZM32.62 49.6386L34.6862 44.0588L36.7295 49.6386H32.62ZM52.923 54.8791H44.5131V41.2956H47.3584V52.3598H52.9268V54.8791H52.923ZM64.4532 54.8791H55.9707V41.2956H64.4074L64.9192 43.7234H58.7931V46.8753H63.972V49.1088H58.7931V52.4551H64.9917L64.4532 54.8791ZM80.0204 55.1459C78.2062 55.1459 76.7893 54.6238 75.7772 53.5795C74.7651 52.5352 74.2572 51.0869 74.2572 49.2269V41.2956H77.1025V49.2536C77.1025 50.3551 77.3622 51.1974 77.8816 51.7881C78.401 52.3789 79.1305 52.6724 80.07 52.6724C81.0095 52.6724 81.7352 52.3713 82.247 51.7767C82.7588 51.1783 83.0146 50.3284 83.0146 49.2307V41.2994H85.7874V49.2307C85.7874 51.0754 85.2756 52.5237 84.2559 53.5718C83.2285 54.6199 81.8192 55.1459 80.0204 55.1459ZM92.5589 54.8791H89.7861V41.2956H92.6314L98.9026 49.4709L98.8797 41.2956H101.652V54.9515H99.9262L92.536 45.4918L92.5589 54.8791ZM108.657 54.8791H105.812V41.2956H108.657V54.8791ZM122.112 41.2956H125.053L119.439 55.0278H117.128L111.609 41.2956H114.722L118.369 51.144L122.112 41.2956ZM136.446 54.8791H127.959V41.2956H136.396L136.908 43.7234H130.782V46.8753H135.961V49.1088H130.782V52.4551H136.98L136.446 54.8791ZM147.728 49.3718C148.572 49.0173 149.225 48.5028 149.698 47.832C150.168 47.1612 150.405 46.3799 150.405 45.4918C150.405 44.1655 149.969 43.1365 149.102 42.4009C148.236 41.6653 147.017 41.2956 145.444 41.2956H140.532V54.8791H143.377V49.8825H144.886L148.606 54.8791H151.959L147.728 49.3718ZM146.922 47.1536C146.482 47.5347 145.902 47.7253 145.173 47.7253H143.324V43.651H145.268C145.997 43.651 146.563 43.8301 146.968 44.1846C147.372 44.539 147.575 45.0345 147.575 45.6634C147.579 46.277 147.361 46.7724 146.922 47.1536ZM158.032 49.105C156.558 48.5066 155.553 47.8968 155.018 47.2717C154.484 46.6505 154.216 45.8539 154.216 44.882C154.216 43.7653 154.656 42.8468 155.53 42.1265C156.405 41.4061 157.524 41.0479 158.884 41.0479C159.598 41.0479 160.274 41.1279 160.915 41.288C161.557 41.4519 162.176 41.692 162.775 42.0159V44.8058H162.726C162.046 44.3523 161.377 44.0054 160.721 43.7615C160.064 43.5176 159.445 43.3994 158.861 43.3994C158.295 43.3994 157.841 43.5252 157.501 43.7768C157.161 44.0283 156.989 44.3637 156.989 44.7829C156.989 45.1717 157.153 45.5071 157.486 45.7891C157.818 46.0712 158.486 46.4256 159.491 46.8449C160.999 47.4585 162.027 48.0873 162.577 48.7238C163.127 49.3641 163.402 50.1683 163.402 51.1364C163.402 52.3179 162.951 53.2745 162.053 54.0101C161.156 54.7457 159.983 55.1154 158.54 55.1154C157.795 55.1154 157.058 55.0011 156.328 54.7762C155.599 54.5513 154.919 54.2198 154.285 53.7815L153.896 50.7743L153.945 50.7515C154.705 51.3841 155.496 51.8758 156.313 52.2302C157.13 52.5847 157.891 52.7638 158.586 52.7638C159.216 52.7638 159.716 52.6342 160.079 52.3751C160.442 52.1159 160.625 51.7538 160.625 51.285C160.625 50.8467 160.457 50.4847 160.113 50.195C159.785 49.9053 159.086 49.5433 158.032 49.105ZM169.703 54.8791H166.858V41.2956H169.703V54.8791ZM184.831 41.2956V43.8187H180.214V54.8791H177.346V43.8187H172.751V41.2956H184.831ZM196.625 41.2956H199.738L194.681 49.2765V54.8791H191.836V49.2498L186.779 41.2918H190.037L193.344 46.822L196.625 41.2956Z" fill="#00356B"/>
<path d="M31.0197 14.0943H34.0102L29.683 27.754H27.1318L23.9236 19.7236L20.6162 27.754H18.0649L13.8791 14.0943H16.965L19.6384 23.8474L23.7212 13.8999H24.233L28.2432 23.8207L31.0197 14.0943ZM42.6684 27.9484C40.8542 27.9484 39.4373 27.4262 38.4252 26.3819C37.4131 25.3376 36.9052 23.8855 36.9052 22.0256V14.0943H39.7505V22.0523C39.7505 23.1538 40.0102 23.9961 40.5296 24.5868C41.049 25.1776 41.7785 25.471 42.718 25.471C43.6575 25.471 44.3832 25.1699 44.895 24.5754C45.4067 23.977 45.6626 23.1271 45.6626 22.0294V14.0943H48.4354V22.0256C48.4354 23.8703 47.9236 25.3186 46.9039 26.3667C45.8765 27.4224 44.4672 27.9484 42.6684 27.9484ZM67.9822 14.0943V16.6174H63.3647V27.6778H60.4965V16.6174H55.902V14.0943H67.9822ZM74.4672 21.9075C72.993 21.3091 71.9885 20.6993 71.4538 20.0742C70.9192 19.453 70.6518 18.6564 70.6518 17.6845C70.6518 16.5678 71.091 15.6493 71.9656 14.9289C72.8402 14.2086 73.9593 13.8503 75.3189 13.8503C76.0331 13.8503 76.7091 13.9304 77.3469 14.0905C77.9885 14.2543 78.6073 14.4945 79.2069 14.8184V17.6083H79.1572C78.4774 17.1548 77.809 16.8079 77.1521 16.564C76.4952 16.3201 75.8765 16.2019 75.2922 16.2019C74.7231 16.2019 74.2724 16.3277 73.9325 16.5792C73.5926 16.8308 73.4208 17.1662 73.4208 17.5854C73.4208 17.9742 73.585 18.3096 73.9172 18.5916C74.2495 18.8737 74.9179 19.2281 75.9223 19.6473C77.4309 20.261 78.4583 20.8898 79.0083 21.5263C79.5582 22.1628 79.8332 22.9708 79.8332 23.9389C79.8332 25.1204 79.3826 26.077 78.485 26.8126C77.5875 27.5482 76.415 27.9179 74.9714 27.9179C74.2266 27.9179 73.4895 27.8036 72.76 27.5787C72.0306 27.3538 71.3507 27.0222 70.7167 26.5839L70.3272 23.5768L70.3768 23.5539C71.1369 24.1866 71.9274 24.6783 72.7486 25.0327C73.5659 25.3872 74.3259 25.5663 75.021 25.5663C75.6512 25.5663 76.1515 25.4367 76.5143 25.1776C76.8771 24.9184 77.0605 24.5563 77.0605 24.0875C77.0605 23.6492 76.8886 23.2872 76.5487 22.9975C76.2202 22.7078 75.5213 22.3419 74.4672 21.9075ZM90.4125 14.0219H87.3724L81.9032 27.6816H84.844L85.9631 24.7202H91.627L92.6964 27.6816H95.7365L90.4125 14.0219ZM86.7422 22.441L88.8084 16.8613L90.8517 22.441H86.7422ZM101.523 27.6816H98.6773V14.0943H101.523V27.6816ZM114.6 27.6816H111.754V14.0943H114.6V27.6816ZM121.547 27.6816H118.774V14.0943H121.619L127.891 22.2695L127.868 14.0943H130.64V27.754H128.914L121.524 18.2943L121.547 27.6816ZM138.137 21.9075C136.663 21.3091 135.659 20.6993 135.124 20.0742C134.589 19.453 134.322 18.6564 134.322 17.6845C134.322 16.5678 134.761 15.6493 135.636 14.9289C136.511 14.2086 137.63 13.8503 138.989 13.8503C139.703 13.8503 140.379 13.9304 141.021 14.0905C141.663 14.2543 142.281 14.4945 142.881 14.8184V17.6083H142.831C142.152 17.1548 141.483 16.8079 140.826 16.564C140.169 16.3201 139.551 16.2019 138.966 16.2019C138.401 16.2019 137.947 16.3277 137.607 16.5792C137.267 16.8308 137.095 17.1662 137.095 17.5854C137.095 17.9742 137.259 18.3096 137.591 18.5916C137.924 18.8737 138.592 19.2281 139.596 19.6473C141.105 20.261 142.132 20.8898 142.682 21.5263C143.232 22.1666 143.507 22.9708 143.507 23.9389C143.507 25.1204 143.057 26.077 142.159 26.8126C141.262 27.5482 140.089 27.9179 138.645 27.9179C137.901 27.9179 137.164 27.8036 136.434 27.5787C135.705 27.3538 135.025 27.0222 134.391 26.5839L134.001 23.5768L134.055 23.5539C134.815 24.1866 135.605 24.6783 136.423 25.0327C137.24 25.3872 138 25.5663 138.695 25.5663C139.325 25.5663 139.826 25.4367 140.188 25.1776C140.551 24.9184 140.735 24.5563 140.735 24.0875C140.735 23.6492 140.567 23.2872 140.223 22.9975C139.887 22.7078 139.192 22.3419 138.137 21.9075ZM157.68 14.0943V16.6174H153.063V27.6778H150.195V16.6174H145.6V14.0943H157.68ZM163.551 27.6816H160.705V14.0943H163.551V27.6816ZM178.679 14.0943V16.6174H174.061V27.6778H171.193V16.6174H166.598V14.0943H178.679ZM187.348 27.9484C185.534 27.9484 184.117 27.4262 183.105 26.3819C182.093 25.3376 181.585 23.8855 181.585 22.0256V14.0943H184.43V22.0523C184.43 23.1538 184.69 23.9961 185.209 24.5868C185.729 25.1776 186.458 25.471 187.398 25.471C188.337 25.471 189.063 25.1699 189.575 24.5754C190.087 23.977 190.342 23.1271 190.342 22.0294V14.0943H193.115V22.0256C193.115 23.8703 192.603 25.3186 191.584 26.3667C190.556 27.4224 189.147 27.9484 187.348 27.9484ZM208.121 14.0943V16.6174H203.504V27.6778H200.635V16.6174H196.041V14.0943H208.121ZM219.586 27.6816H211.1V14.0943H219.537L220.048 16.5221H213.922V19.674H219.101V21.9075H213.922V25.2538H220.121L219.586 27.6816Z" fill="#286DC0"/>
</svg>
