<svg width="335" height="45" viewBox="0 0 335 45" fill="none" xmlns="http://www.w3.org/2000/svg">
<g clip-path="url(#clip0_624_126503)">
<path d="M35.7699 0.792254V13.1514C35.7699 13.2306 35.7699 13.3891 35.7699 13.4683C35.7699 19.9648 35.6133 35.493 18.3937 44.1285L18.3154 44.2077L18.2371 44.1285C0.939251 35.493 0.78271 19.9648 0.78271 13.4683C0.78271 13.3891 0.78271 13.2306 0.78271 13.1514V0.792254H35.7699ZM36.5526 0H35.7699H0.78271H0V0.792254V13.1514V13.4683C0 19.5687 0 35.8891 17.8458 44.8415L17.9241 44.9208L18.2371 45.0792L18.5502 44.9208L18.6285 44.8415C36.5526 35.8891 36.5526 19.5687 36.5526 13.4683C36.5526 13.3891 36.5526 13.3099 36.5526 13.2306V13.1514V0.792254V0Z" fill="#121212"/>
<path d="M35.7699 13.1514C35.7699 13.2306 35.7699 13.3891 35.7699 13.4683C35.7699 19.9648 35.6133 35.4929 18.3937 44.1285L18.3154 44.2077L18.2372 44.1285C0.939256 35.4929 0.782715 19.9648 0.782715 13.4683C0.782715 13.3891 0.782715 13.2306 0.782715 13.1514V0.792236H35.7699V13.1514Z" fill="white"/>
<path d="M35.7699 13.4683C35.7699 20.044 35.6133 35.5721 18.3154 44.2869C0.939256 35.5721 0.782715 20.044 0.782715 13.4683H35.7699Z" fill="#00447C"/>
<path d="M35.7699 0.792236H0.782715V12.9137H35.7699V0.792236Z" fill="#00447C"/>
<path d="M17.7675 2.21827C18.0806 2.2975 18.3937 2.9313 18.3937 2.9313C18.3937 2.9313 18.5502 2.21827 19.4112 2.21827C20.2722 2.13905 21.6028 2.77285 22.6203 1.9806L23.2465 2.85207L23.4813 2.6144L23.9509 3.01053V4.35736C24.0292 4.59503 24.264 4.75348 24.4988 4.75348C24.4988 4.75348 24.5771 4.51581 24.4988 4.27813C24.264 3.80278 24.3423 3.40665 24.6554 3.08975C24.7336 3.16898 25.125 3.32743 25.2815 3.2482C25.0467 3.48588 24.9685 3.80278 25.0467 4.19891C25.125 4.59503 25.0467 5.07038 24.8119 5.38729C24.5771 5.62496 24.264 5.54574 24.0292 5.38729L23.8727 5.30806V8.71475C23.9509 8.8732 24.0292 9.03165 24.1858 9.11088C24.4988 8.95243 24.264 8.47707 24.3423 8.2394C24.3423 8.08095 24.4988 7.84327 24.5771 7.76405C24.7336 7.84327 25.125 7.9225 25.2033 7.9225C25.2033 8.00172 25.0467 8.31862 25.0467 8.63553C25.125 9.58623 24.8119 9.98236 24.5771 10.0616C24.3423 10.1408 24.1075 9.98236 23.8727 9.8239V11.5669L19.1764 11.4876C19.1764 11.7253 19.0981 12.1214 18.3154 12.1214C17.5327 12.1214 17.4544 11.6461 17.4544 11.4876C15.8108 11.4876 12.6016 11.4084 12.6016 11.4084V9.90313C12.4451 9.98236 12.2886 10.1408 12.0537 10.0616C11.8189 9.98236 11.6624 9.58623 11.5841 9.1901C11.5058 8.79398 11.7407 8.31862 11.3493 8.00172C11.5058 7.9225 11.5841 7.9225 11.7407 7.84327C11.8972 7.84327 12.0537 7.76405 12.0537 7.76405C12.2886 8.08095 12.132 8.71475 12.132 8.8732C12.132 9.03165 12.2103 9.11088 12.2103 9.11088C12.3668 9.03165 12.5234 8.95243 12.6016 8.79398V5.46651C12.4451 5.54574 12.2103 5.70419 11.9755 5.62496C11.7407 5.54574 11.5058 5.30806 11.4276 4.75348C11.3493 4.19891 11.5841 3.5651 11.3493 3.2482L11.9755 3.01053C12.2886 3.48588 12.0537 4.11968 11.9755 4.59503C11.9755 4.67426 11.9755 4.75348 12.0537 4.75348C12.2103 4.67426 12.3668 4.59503 12.5234 4.43658V2.85207L12.9147 2.45595H13.3844C13.3844 2.45595 13.7757 1.90137 13.854 1.74292C15.1063 2.45595 16.5152 1.90137 17.7675 2.21827Z" fill="#121212"/>
<path d="M17.8458 2.53516C18.1589 2.69362 18.2371 2.93129 18.3154 3.24819V10.6161C17.7675 9.66545 17.1413 10.0616 15.1846 10.0616C14.7932 10.0616 14.2453 9.8239 14.0888 9.58622C14.0888 7.13024 14.0888 2.13904 14.0888 2.13904C15.1846 2.77284 16.6717 2.05981 17.8458 2.53516Z" fill="white"/>
<path d="M22.4638 9.74467C22.4638 9.74467 22.3073 10.0616 21.368 10.0616C20.4288 10.1408 19.0199 9.58622 18.3937 10.6161V3.08974C18.472 2.85207 18.7068 2.61439 18.9416 2.53516C19.8026 2.21826 20.1939 2.61439 21.0549 2.53516C21.9159 2.53516 22.229 2.37671 22.4638 2.13904V9.74467Z" fill="white"/>
<path d="M23.09 10.6161C22.9334 10.3785 22.6986 10.0616 22.6986 9.74467V2.21826L23.1682 2.85206L23.09 10.6161Z" fill="#BB9905"/>
<path d="M13.854 8.00171V9.82389C13.7757 10.0616 13.6974 10.22 13.5409 10.3785V6.57565C13.5409 5.38727 13.5409 3.96122 13.6192 2.77284L13.9322 2.29749L13.854 8.00171Z" fill="#BB9905"/>
<path d="M13.4626 2.77283L13.3844 10.6954L17.3762 10.7746L17.5327 10.933L13.1495 10.8538V2.6936L13.4626 2.77283Z" fill="white"/>
<path d="M12.993 4.19888V10.8538L12.8365 11.0123V3.0105L12.993 2.85205V4.19888Z" fill="white"/>
<path d="M23.403 2.85205L23.3247 11.0123C21.9159 11.0123 19.0198 11.0123 19.0198 11.0123L19.0981 10.8538H23.1682V3.0105L23.403 2.85205Z" fill="white"/>
<path d="M23.7944 3.08973C23.7944 3.08973 23.7161 10.5369 23.6379 11.2499L23.4813 11.0123L23.5596 2.85205L23.7944 3.08973Z" fill="white"/>
<path d="M12.0537 3.6443C12.0537 4.04042 11.8972 4.43655 12.0537 4.75345C12.0537 4.75345 12.0537 4.83268 11.8189 4.83268C11.6624 4.83268 11.5841 4.67422 11.5841 4.51577C11.5058 4.04042 11.7407 3.88197 11.6624 3.32739L11.9755 3.24817L12.0537 3.6443Z" fill="white"/>
<path d="M24.8902 3.40662C24.6554 3.80274 24.9684 4.2781 24.8902 4.67422C24.8119 4.75345 24.6554 4.75345 24.5771 4.75345C24.6554 4.51577 24.5771 4.35732 24.4205 3.88197C24.3423 3.48584 24.5771 3.32739 24.5771 3.32739C24.5771 3.32739 24.7336 3.40662 24.8902 3.40662Z" fill="white"/>
<path d="M24.8902 4.91187C24.8902 4.9911 24.8119 5.308 24.6554 5.308C24.4206 5.38722 24.1075 5.14955 23.9509 5.07032C23.9509 4.91187 23.9509 4.75342 23.9509 4.59497C24.1075 4.83265 24.4988 5.07032 24.8902 4.91187Z" fill="white"/>
<path d="M12.6017 5.14954C12.3669 5.22877 12.0538 5.46645 11.819 5.308C11.7407 5.22877 11.7407 5.14954 11.6624 5.07032C11.9755 5.07032 12.3669 4.91187 12.6017 4.75342V5.14954Z" fill="white"/>
<path d="M24.9685 8.00171C24.7336 8.63551 24.9685 8.95242 24.8902 9.19009C24.7336 9.42777 24.3423 9.26932 24.3423 9.26932C24.3423 9.26932 24.4988 9.26932 24.5771 9.03164C24.6554 8.79396 24.4206 8.23939 24.6554 7.92249L24.9685 8.00171Z" fill="white"/>
<path d="M12.0538 8.16016C12.132 8.39784 12.0538 8.71474 12.0538 8.95241L12.132 9.19009C12.0538 9.26932 11.8972 9.19009 11.819 9.19009C11.5841 8.79396 11.9755 8.39784 11.6624 8.00171L11.9755 7.92249C11.9755 8.00171 12.0538 8.08094 12.0538 8.16016Z" fill="white"/>
<path d="M24.8119 9.42774C24.7337 9.58619 24.6554 9.74465 24.4988 9.74465C24.264 9.74465 24.0292 9.66542 23.8727 9.42774V9.03162C24.1075 9.34852 24.4206 9.58619 24.8119 9.42774Z" fill="white"/>
<path d="M12.6016 9.50697C12.4451 9.66542 12.132 9.82387 11.9755 9.74464C11.8972 9.66542 11.8189 9.58619 11.7407 9.42774C12.0537 9.50697 12.3668 9.26929 12.6016 9.11084V9.50697Z" fill="white"/>
<path d="M18.2372 10.8538C18.3154 11.0122 18.2372 11.0122 18.2372 11.1707C17.9241 11.2499 17.6893 10.933 17.4544 10.6953C17.4544 10.6953 14.7932 10.5369 13.5409 10.5369C13.6974 10.2992 13.9322 10.1408 14.0105 9.82385C14.9498 10.6953 17.611 9.50695 18.2372 10.8538Z" fill="#BB9905"/>
<path d="M22.9334 10.6953C21.6811 10.7746 20.3505 10.6953 19.0981 10.7746C18.9416 11.0122 18.7068 11.2499 18.472 11.2499C18.785 10.0615 19.9591 10.3784 21.4463 10.3784C22.3072 10.3784 22.542 10.0615 22.542 10.0615C22.542 10.1407 22.7769 10.4577 22.9334 10.6953Z" fill="#BB9905"/>
<path d="M17.611 11.0123C17.611 11.0916 17.6893 11.0916 17.611 11.0123C17.3762 11.1708 12.9147 11.0916 12.9147 11.0916L13.1495 10.9331L17.611 11.0123Z" fill="white"/>
<path d="M23.403 11.0914L23.6378 11.2499L18.9416 11.0914L19.0199 11.0122C19.0199 11.0914 21.9159 11.0914 23.403 11.0914Z" fill="white"/>
<path d="M18.3154 11.4083C18.472 11.4083 18.7068 11.3291 18.8633 11.2499C19.0199 11.4876 18.7851 11.7252 18.3154 11.7252C17.7675 11.7252 17.5327 11.4083 17.6893 11.1707C17.9241 11.4083 18.1589 11.4083 18.3154 11.4083Z" fill="white"/>
<path d="M16.5152 8.16019C16.3586 8.16019 16.2021 8.08096 16.0455 8.08096C15.889 8.08096 15.7324 8.08096 15.5759 8.16019C15.5759 7.84329 15.6542 7.52639 15.7325 7.36794C16.1238 7.44716 16.3586 7.44716 16.4369 7.52639C16.5152 7.60561 16.4369 7.76406 16.5152 8.16019ZM16.75 7.60561C16.75 7.05103 16.4369 6.97181 16.0455 6.97181C15.7324 6.97181 15.6542 6.89258 15.5759 6.65491H15.4976C15.4194 6.81336 15.3411 6.89258 15.3411 7.05103C15.3411 7.20948 15.4194 7.28871 15.5759 7.36794C15.3411 7.68484 15.3411 8.08096 15.3411 8.55632C15.4976 8.55632 15.7324 8.47709 15.9673 8.47709C16.2021 8.47709 16.3586 8.47709 16.5934 8.55632C16.5934 8.16019 16.75 7.92251 16.75 7.60561Z" fill="#121212"/>
<path d="M20.8201 8.16019C20.6635 8.08096 20.507 8.08096 20.3505 8.08096C20.1939 8.08096 20.0374 8.08096 19.9591 8.16019C19.9591 8.16019 19.9591 7.92251 19.9591 7.84329C19.9591 7.68484 20.0374 7.52639 20.0374 7.28871C20.4287 7.28871 20.5853 7.28871 20.7418 7.36794C20.8201 7.52639 20.8201 7.68484 20.8201 8.16019ZM20.9766 7.52639C20.9766 7.05103 20.8201 6.97181 20.5853 6.97181C20.4287 6.97181 20.0374 6.97181 19.8808 6.89258C19.8026 6.89258 19.8026 6.73413 19.8026 6.65491H19.7243C19.646 6.73413 19.5677 6.89258 19.5677 7.05103C19.5677 7.20948 19.646 7.28871 19.8026 7.36794C19.646 7.68484 19.646 8.08096 19.5677 8.55632C19.8026 8.55632 20.0374 8.47709 20.2722 8.47709C20.4287 8.47709 20.6635 8.47709 20.8201 8.55632C20.8984 8.16019 20.9766 8.08096 20.9766 7.52639Z" fill="#121212"/>
<path d="M17.3762 7.20949C17.3762 6.97181 17.1414 6.89259 17.1414 6.73414V6.49646H17.0631C16.9848 6.57569 16.8283 6.73414 16.8283 6.89259C16.8283 6.97181 16.8283 7.05104 16.9065 7.20949C16.9848 7.28871 16.9848 7.36794 17.0631 7.44716C17.0631 7.44716 17.0631 7.60561 17.0631 7.68484H17.1414C17.2196 7.44716 17.3762 7.36794 17.3762 7.20949Z" fill="#121212"/>
<path d="M21.6811 7.13026C21.6811 6.89259 21.4463 6.97181 21.368 6.73414C21.368 6.65491 21.368 6.57569 21.368 6.49646H21.2897C21.2897 6.57569 21.1332 6.73414 21.1332 6.89259C21.1332 6.97181 21.1332 7.05104 21.2115 7.13026C21.2897 7.20949 21.368 7.20949 21.368 7.28871C21.368 7.28871 21.368 7.44716 21.368 7.52639H21.4463C21.6028 7.44716 21.6811 7.20949 21.6811 7.13026Z" fill="#121212"/>
<path d="M19.8809 5.54569C19.7243 5.30801 19.8809 4.75343 19.646 4.35731C19.646 4.27808 19.4895 4.27808 19.4112 4.27808H19.0199C18.9416 4.27808 18.8633 4.19886 18.8633 4.04041H18.7851C18.7068 4.11963 18.7068 4.19886 18.7068 4.35731C18.7068 4.59498 18.8633 4.75343 19.0199 4.75343C19.2547 4.75343 19.4895 4.67421 19.5678 4.75343C19.5678 4.83266 19.5678 4.91188 19.5678 5.14956C19.5678 5.38724 19.5678 5.70414 19.5678 5.78336H19.646C19.7243 5.78336 19.8026 5.62491 19.8809 5.54569Z" fill="#121212"/>
<path d="M17.2979 5.54569C17.1414 5.30801 17.2196 4.43653 17.0631 4.35731C16.9848 4.27808 16.9066 4.27808 16.8283 4.27808C16.6717 4.27808 16.5935 4.27808 16.5152 4.27808C16.3587 4.27808 16.2804 4.19886 16.2021 3.96118H16.1238C16.1238 4.04041 16.0456 4.19886 16.0456 4.27808C16.0456 4.43653 16.0456 4.67421 16.2804 4.67421C16.2021 4.83266 16.2021 4.91189 16.2021 4.99111C16.2021 5.07034 16.2021 5.22879 16.2021 5.38724C16.0456 5.46646 15.9673 5.46646 15.889 5.46646C15.8108 5.54569 15.8108 5.62491 15.8108 5.78336C16.2804 5.78336 16.4369 5.70414 16.4369 5.54569C16.4369 5.38724 16.2804 5.14956 16.2804 4.83266C16.3587 4.83266 16.4369 4.75344 16.4369 4.67421C16.5935 4.67421 16.75 4.59498 16.9066 4.67421C16.9848 4.75344 16.9848 4.91189 16.9848 5.14956C16.9848 5.38724 16.9848 5.70414 16.9848 5.78336H17.0631C17.1414 5.78336 17.2196 5.62491 17.2979 5.54569Z" fill="#121212"/>
<path d="M20.5853 5.54568C20.507 5.46646 20.507 5.46646 20.507 5.46646C20.4287 5.38723 20.4287 5.14956 20.4287 5.07033C20.4287 4.99111 20.4287 4.91188 20.507 4.91188C20.5853 4.83266 20.5853 4.75343 20.5853 4.59498C20.5853 4.43653 20.4287 4.43653 20.2722 4.43653C20.1939 4.43653 20.1156 4.3573 20.0374 4.3573C20.0374 4.27808 19.9591 4.19885 19.9591 4.19885H19.8808C19.8026 4.27808 19.8026 4.43653 19.8026 4.51575C19.8026 4.83266 19.8808 4.91188 20.1939 4.91188C20.1939 5.14956 20.1156 5.38723 20.1156 5.62491C20.1156 5.70413 20.1156 5.86259 20.1156 6.02104H20.3504C20.4287 5.78336 20.507 5.70413 20.5853 5.54568Z" fill="#121212"/>
<path d="M15.9673 4.75344C15.9673 4.51576 15.8107 4.43654 15.5759 4.35731C15.4194 4.27808 15.3411 4.19886 15.3411 3.88196H15.2628C15.1063 4.04041 15.1063 4.11963 15.028 4.27808C14.8715 4.27808 14.7149 4.11963 14.7932 3.88196H14.7149C14.5584 3.96118 14.5584 4.11963 14.5584 4.27808C14.5584 4.43654 14.6367 4.59499 14.7932 4.67421C14.7149 4.83266 14.5584 4.99111 14.5584 5.14956C14.5584 5.30801 14.6367 5.46647 14.6367 5.54569C14.6367 5.62492 14.6367 5.70414 14.5584 5.78337C14.5584 5.78337 14.5584 5.86259 14.6367 5.86259C14.7149 5.78337 14.8715 5.62492 14.8715 5.38724C14.8715 5.30801 14.7932 5.14956 14.7932 5.07034C14.7932 4.91189 14.9497 4.75344 15.028 4.59499C15.2628 4.75344 15.7324 4.83266 15.7324 5.14956C15.7324 5.22879 15.6542 5.46647 15.5759 5.46647C15.4976 5.54569 15.4194 5.54569 15.3411 5.54569H15.028C14.9497 5.70414 14.9497 5.78337 14.8715 5.94182H14.9497C15.028 5.94182 15.1063 5.94182 15.1063 5.94182C15.2628 5.94182 15.3411 5.94182 15.4194 5.94182C15.6542 5.94182 15.7324 5.86259 15.8107 5.54569C15.8107 5.22879 15.9673 4.99111 15.9673 4.75344Z" fill="#121212"/>
<path d="M18.0024 5.54569C17.9241 5.46646 17.9241 5.46646 17.9241 5.46646C17.8458 5.38724 17.8458 5.14956 17.8458 5.07033C17.8458 4.99111 17.8458 4.91188 17.8458 4.91188C17.8458 4.83266 17.9241 4.75343 17.9241 4.59498C17.9241 4.51576 17.7676 4.43653 17.611 4.43653C17.5327 4.43653 17.4545 4.35731 17.3762 4.27808C17.3762 4.27808 17.2979 4.19885 17.2979 4.11963H17.2197C17.2197 4.27808 17.1414 4.35731 17.1414 4.43653C17.1414 4.75343 17.2197 4.83266 17.5327 4.83266C17.5327 4.99111 17.4545 5.14956 17.4545 5.30801C17.4545 5.46646 17.4545 5.78336 17.3762 5.94181H17.4545C17.8458 5.70414 17.9241 5.70414 18.0024 5.54569Z" fill="#121212"/>
<path d="M22.1507 5.30801C22.1507 5.14956 22.0725 4.99111 21.9159 4.91189C21.8376 4.91189 21.8376 4.83266 21.8376 4.83266C21.9159 4.75344 22.0725 4.67421 22.0725 4.43653C22.0725 4.35731 22.0725 4.27808 21.9942 4.27808C21.9159 4.27808 21.8376 4.19886 21.8376 4.11963C21.8376 4.04041 21.8376 4.04041 21.8376 3.96118H21.7594C21.6811 4.04041 21.5246 4.19886 21.5246 4.27808C21.5246 4.51576 21.8376 4.51576 21.6028 4.83266C21.2897 4.67421 20.8201 4.51576 20.8984 3.96118H20.8201C20.7418 4.04041 20.6636 4.19886 20.6636 4.35731C20.6636 4.67421 20.8201 4.83266 21.0549 4.91189C20.9767 4.99111 20.8984 4.99111 20.8984 4.99111C20.8201 5.07034 20.8201 5.14956 20.8201 5.30801C20.8201 5.38724 20.8201 5.46646 20.8201 5.62491L20.6636 5.70414V5.78336C20.8984 5.78336 21.2115 5.86259 21.2115 5.54569C21.2115 5.46646 21.0549 5.30801 21.0549 5.22879C21.0549 5.07034 21.1332 5.07034 21.1332 4.99111C21.368 5.14956 21.7594 5.30801 21.7594 5.54569C21.7594 5.62491 21.7594 5.70414 21.6811 5.78336H21.9159C22.0725 5.62491 22.1507 5.46646 22.1507 5.30801Z" fill="#121212"/>
<path d="M25.8295 32.4032C26.6904 33.2747 28.021 33.2747 28.882 32.4032C29.743 31.5317 29.743 30.1849 28.882 29.3134C28.021 28.4419 26.6904 28.4419 25.8295 29.3134C24.9685 30.1849 24.9685 31.6109 25.8295 32.4032Z" fill="white"/>
<path d="M21.0549 37.236C21.9159 38.1074 23.2465 38.1074 24.1075 37.236C24.9685 36.3645 24.9685 35.0176 24.1075 34.1462C23.2465 33.2747 21.9159 33.2747 21.0549 34.1462C20.1939 35.0176 20.1939 36.3645 21.0549 37.236Z" fill="white"/>
<path d="M12.3668 34.1462C11.5058 35.0176 11.5058 36.3645 12.3668 37.236C13.2278 38.1074 14.5584 38.1074 15.4194 37.236C16.2804 36.3645 16.2804 35.0176 15.4194 34.1462C14.6367 33.2747 13.2278 33.2747 12.3668 34.1462Z" fill="white"/>
<path d="M7.5923 29.3134C6.73132 30.1849 6.73132 31.5317 7.5923 32.4032C8.45328 33.2747 9.78389 33.2747 10.6449 32.4032C11.5059 31.5317 11.5059 30.1849 10.6449 29.3134C9.86216 28.4419 8.45328 28.4419 7.5923 29.3134Z" fill="white"/>
<path d="M12.3668 18.7764C13.2278 19.6478 14.5584 19.6478 15.4194 18.7764C16.2804 17.9049 16.2804 16.558 15.4194 15.6866C14.5584 14.8151 13.2278 14.8151 12.3668 15.6866C11.5058 16.558 11.5058 17.9049 12.3668 18.7764Z" fill="#87B2D8"/>
<path d="M7.5923 23.6091C8.45328 24.4806 9.78389 24.4806 10.6449 23.6091C11.5059 22.7376 11.5059 21.3908 10.6449 20.5193C9.78389 19.6479 8.45328 19.6479 7.5923 20.5193C6.73132 21.3908 6.73132 22.7376 7.5923 23.6091Z" fill="#87B2D8"/>
<path d="M25.8295 20.5193C24.9685 21.3908 24.9685 22.7376 25.8295 23.6091C26.6904 24.4806 28.021 24.4806 28.882 23.6091C29.743 22.7376 29.743 21.3908 28.882 20.5193C28.0993 19.6479 26.6904 19.6479 25.8295 20.5193Z" fill="#87B2D8"/>
<path d="M21.0549 15.6866C20.1939 16.558 20.1939 17.9049 21.0549 18.7764C21.9159 19.6478 23.2465 19.6478 24.1075 18.7764C24.9685 17.9049 24.9685 16.558 24.1075 15.6866C23.3248 14.8151 21.9159 14.8151 21.0549 15.6866Z" fill="#87B2D8"/>
<path d="M18.2371 18.2218L10.2535 26.382H26.299L18.2371 18.2218Z" fill="white"/>
<path d="M18.2371 34.78L26.299 26.6198H10.2535L18.2371 34.78Z" fill="#87B2D8"/>
<path d="M112.241 24.1637C110.91 24.1637 109.814 23.7676 109.188 23.5299L108.875 20.6778H109.423C109.579 21.3116 110.127 22.1831 110.675 22.6584C111.067 22.9753 111.849 23.3714 112.475 23.3714C113.728 23.3714 114.432 22.5 114.432 21.6285C114.432 20.5985 113.571 20.2024 112.475 19.6478C110.206 18.6971 109.266 17.9841 109.266 16.3996C109.266 14.5774 111.067 13.389 113.415 13.389C114.589 13.389 115.45 13.7059 115.998 13.9436V16.6373H115.45C115.371 15.9242 115.137 15.132 114.511 14.7359C114.276 14.5774 113.65 14.1813 112.945 14.1813C111.693 14.1813 111.067 14.9735 111.067 15.7658C111.067 16.7165 111.693 17.1919 113.102 17.8257C115.215 18.6971 116.232 19.4894 116.232 20.9947C116.232 22.9753 114.432 24.1637 112.241 24.1637Z" fill="#121212"/>
<path d="M127.582 23.5299L127.19 23.6091C126.251 23.926 125.703 24.0845 123.981 24.0845C120.694 24.0845 118.268 21.7077 118.268 18.6179C118.268 15.5281 120.772 13.3098 123.981 13.3098C125.312 13.3098 126.251 13.5475 127.112 13.7852L127.66 13.9436V16.7957H127.112C127.034 16.0827 126.721 15.2904 126.095 14.8943C125.782 14.6566 125.077 14.1021 123.746 14.1021C121.555 14.1021 120.224 16.0035 120.224 18.2218C120.224 21.1531 121.868 23.2922 124.451 23.2922C125.234 23.2922 125.86 22.8961 126.173 22.7376C126.799 22.2623 127.269 21.47 127.425 20.757L127.973 20.8362L127.582 23.5299Z" fill="#121212"/>
<path d="M136.896 23.926V23.3714C137.6 23.3714 138.227 23.1337 138.461 22.8168V19.0933H133.139V22.8168C133.296 23.0545 133.922 23.2922 134.704 23.2922V23.8468H129.773V23.2922C130.4 23.2922 131.104 23.0545 131.261 22.8168V14.6566C131.104 14.419 130.4 14.1813 129.773 14.1021V13.6267H134.704V14.1021C134 14.1813 133.296 14.3397 133.139 14.6566V18.1426H138.461V14.6566C138.227 14.419 137.6 14.1813 136.896 14.1021V13.6267H141.827V14.1021C141.123 14.1813 140.496 14.419 140.262 14.6566V22.8168C140.418 23.0545 141.123 23.2922 141.827 23.3714V23.926H136.896Z" fill="#121212"/>
<path d="M148.402 24.1637C145.193 24.1637 143.314 21.9454 143.314 18.7764C143.314 15.6073 145.897 13.389 149.106 13.389C152.394 13.389 154.194 15.6866 154.194 18.6179C154.194 21.9454 151.689 24.1637 148.402 24.1637ZM148.245 14.1813C146.836 14.1813 145.349 15.845 145.349 18.301C145.349 21.2323 146.758 23.2922 149.185 23.2922C150.75 23.2922 152.237 21.6285 152.237 19.1725C152.237 16.2412 150.672 14.1813 148.245 14.1813Z" fill="#121212"/>
<path d="M161.317 24.1637C158.107 24.1637 156.229 21.9454 156.229 18.7764C156.229 15.6073 158.812 13.389 162.021 13.389C165.308 13.389 167.109 15.6866 167.109 18.6179C167.109 21.9454 164.604 24.1637 161.317 24.1637ZM161.16 14.1813C159.751 14.1813 158.264 15.845 158.264 18.301C158.264 21.2323 159.673 23.2922 162.099 23.2922C163.665 23.2922 165.152 21.6285 165.152 19.1725C165.152 16.2412 163.586 14.1813 161.16 14.1813Z" fill="#121212"/>
<path d="M168.361 23.926V23.3714C168.987 23.2922 169.926 23.1337 170.239 22.6584V14.6566C170.161 14.419 169.457 14.1813 168.674 14.1813V13.6267H173.683V14.1813C172.979 14.2605 172.196 14.419 172.04 14.7359V23.1337L174.857 23.0545C175.875 23.0545 176.579 21.9454 176.658 20.6778H177.206V24.0052H168.361V23.926Z" fill="#121212"/>
<path d="M188.868 24.1637C185.659 24.1637 183.78 21.9454 183.78 18.7764C183.78 15.6073 186.363 13.389 189.572 13.389C192.86 13.389 194.66 15.6866 194.66 18.6179C194.66 21.9454 192.155 24.1637 188.868 24.1637ZM188.711 14.1813C187.303 14.1813 185.815 15.845 185.815 18.301C185.815 21.2323 187.224 23.2922 189.651 23.2922C191.216 23.2922 192.703 21.6285 192.703 19.1725C192.703 16.2412 191.138 14.1813 188.711 14.1813Z" fill="#121212"/>
<path d="M203.583 16.2411C203.505 14.8943 202.957 14.4982 201.783 14.4982H199.591V18.3802L201.704 18.301C202.722 18.2218 203.192 18.2218 203.348 17.0334H203.818V20.5985H203.27C203.113 19.2517 202.722 19.2517 201.704 19.2517C201.313 19.2517 201 19.2517 200.609 19.2517H199.591V22.5792C199.826 23.0545 200.687 23.2922 201.391 23.3714V23.926H195.991V23.3714C196.773 23.2922 197.478 23.1338 197.713 22.6584V14.7359C197.556 14.4982 196.852 14.1813 196.069 14.1813V13.6267H202.644C203.035 13.6267 203.348 13.6267 203.583 13.5475H204.053V16.3204H203.583V16.2411Z" fill="#121212"/>
<path d="M219.315 23.926V23.3714C220.02 23.2922 220.803 23.1338 220.959 22.8169C220.881 20.9154 220.724 18.8556 220.646 16.9542V15.5281C220.568 15.845 220.333 16.3204 220.255 16.558L217.046 23.926H216.341L213.602 16.2411C213.445 15.9242 213.367 15.6073 213.289 15.2112C213.289 15.3697 213.289 15.5281 213.289 15.6073C213.289 15.7658 213.289 15.9242 213.289 16.0827L212.819 22.6584C212.975 22.9753 213.68 23.2922 214.384 23.2922V23.8468H210.158V23.2922C210.862 23.213 211.567 22.8961 211.723 22.5792L212.193 16.875C212.193 16.7957 212.193 16.6373 212.193 16.6373C212.193 16.558 212.193 16.3996 212.193 16.3204C212.271 15.845 212.271 15.2112 212.271 15.132C212.271 15.0528 212.271 14.8151 212.271 14.6566C212.115 14.419 211.567 14.1813 210.862 14.1021V13.5475H214.541L215.089 15.132C215.793 17.1126 216.576 19.2517 217.28 21.3116C218.141 19.3309 219.002 17.2711 219.863 15.2904L220.568 13.5475H223.777V14.1021C223.151 14.1813 222.603 14.419 222.368 14.6566V15.0528C222.368 15.2112 222.446 16.4788 222.446 16.9542L222.759 22.8169C222.994 23.0545 223.699 23.3714 224.325 23.3714V23.926H219.315Z" fill="#121212"/>
<path d="M231.995 23.926V23.3714C232.621 23.2922 233.248 23.0545 233.482 22.8169C233.169 21.8661 232.778 20.8362 232.465 19.8855H229.334L228.317 22.6584C228.551 22.9753 229.178 23.2922 229.804 23.3714V23.926H225.577V23.3714C226.282 23.2922 226.829 23.213 227.143 22.8169L227.221 22.5792C227.612 21.5492 228.082 20.4401 228.551 19.1725L228.786 18.4595L229.021 17.7464C229.491 16.4788 229.96 15.3697 230.195 14.5774C230.352 14.1813 230.352 13.9436 230.352 13.7059C230.352 13.7059 230.352 13.6267 230.352 13.5475H232.308C232.387 14.1021 232.387 14.419 232.543 14.8151L233.639 18.0633L234.03 19.1725C234.422 20.2816 234.735 21.2323 235.204 22.5L235.283 22.7376C235.439 23.1338 235.987 23.3714 236.77 23.3714V23.926H231.995ZM231.134 15.7658L230.978 15.0528C230.9 15.2112 230.821 15.5281 230.743 15.7658L229.569 19.014H232.152L231.134 15.7658Z" fill="#121212"/>
<path d="M249.998 14.1813C249.371 14.2605 248.667 14.5774 248.511 14.8943V21.0739C248.511 21.8661 248.589 23.4506 248.589 24.1637H247.571L241.388 16.4788L240.84 15.6866L240.918 16.3996V20.1232C240.918 20.5193 240.918 20.9947 240.996 21.47C240.996 21.6285 240.996 21.8661 240.996 22.0246V22.183C240.996 22.4207 241.075 22.7376 241.075 22.8961C241.31 23.213 242.171 23.5299 242.875 23.6091V24.1637H238.414V23.6091C239.118 23.5299 239.822 23.213 239.979 22.9753V17.1918C239.979 16.4788 239.979 15.6073 239.901 15.0528C239.744 14.7359 239.04 14.419 238.414 14.419V13.8644H241.701L242.64 15.0528L247.728 21.3116V17.7464C247.728 17.1126 247.65 16.3204 247.65 15.6866C247.65 15.5281 247.65 15.2904 247.65 15.2112V15.132C247.415 14.8151 246.554 14.4982 245.849 14.419V13.8644H250.232L249.998 14.1813Z" fill="#121212"/>
<path d="M256.964 23.926V23.3714C257.59 23.2922 258.216 23.0545 258.451 22.8169C258.138 21.8661 257.746 20.8362 257.433 19.8855H254.303L253.285 22.6584C253.52 22.9753 254.146 23.2922 254.772 23.3714V23.926H250.546V23.3714C251.25 23.2922 251.798 23.213 252.111 22.8169L252.189 22.5792C252.581 21.5492 253.05 20.4401 253.52 19.1725L253.755 18.4595L253.989 17.7464C254.459 16.4788 254.85 15.3697 255.164 14.5774C255.32 14.1813 255.32 13.9436 255.32 13.7059C255.32 13.7059 255.32 13.6267 255.32 13.5475H257.277C257.355 14.1021 257.355 14.419 257.512 14.8151L258.607 18.0633L258.999 19.1725C259.39 20.2816 259.703 21.2323 260.251 22.5L260.329 22.7376C260.486 23.1338 261.034 23.3714 261.817 23.3714V23.926H256.964ZM256.103 15.7658L255.946 15.0528C255.868 15.2112 255.79 15.5281 255.711 15.7658L254.537 19.014H257.12L256.103 15.7658Z" fill="#121212"/>
<path d="M273.166 19.8855C272.54 19.9647 272.148 20.2024 271.992 20.4401V23.1338C270.896 23.6883 269.565 24.1637 267.687 24.1637C264.556 24.1637 262.443 21.7077 262.443 18.6971C262.443 15.5281 265.026 13.389 268.235 13.389C269.487 13.389 270.348 13.5475 271.209 13.7852L271.914 13.9436V16.7957H271.366C271.287 16.3996 271.131 15.6073 270.583 15.132C270.583 15.132 270.505 15.132 270.505 15.0528C270.192 14.8151 269.487 14.1813 268 14.1813C265.652 14.1813 264.478 16.2412 264.478 18.5387C264.478 21.3908 265.808 23.4507 268.157 23.4507C268.861 23.4507 269.8 22.8961 270.113 22.5792V20.5193C269.878 20.2816 268.861 19.9647 268.235 19.9647V19.4102H273.166V19.8855Z" fill="#121212"/>
<path d="M277.627 23.926L273.949 24.0052V23.4507C274.653 23.3714 275.749 23.1338 275.984 22.7376V14.6566C275.827 14.419 275.123 14.1813 274.418 14.1813V13.6267H280.993C281.463 13.6267 281.697 13.5475 281.932 13.5475H282.324V16.3204H281.854C281.776 14.9735 281.228 14.5774 280.054 14.5774H277.862V18.2218H279.975C280.993 18.2218 281.463 18.2218 281.619 17.0334H282.089V20.4401H281.619C281.463 19.1725 281.15 19.0933 279.975 19.0933H277.862V22.5C277.94 22.6584 278.097 22.8961 278.254 22.9753C278.567 22.9753 279.115 22.9753 279.506 22.9753C279.897 22.9753 280.445 22.9753 280.758 22.9753C281.776 22.9753 282.48 22.5 282.558 21.1531H283.028V23.926H277.627Z" fill="#121212"/>
<path d="M294.064 23.926V23.3714C294.769 23.2922 295.551 23.1338 295.708 22.8169C295.63 20.9154 295.473 18.8556 295.395 16.9542V15.5281C295.317 15.845 295.082 16.3204 295.004 16.558L291.794 23.926H291.09L288.35 16.2411C288.194 15.9242 288.116 15.6073 288.037 15.2112C288.037 15.3697 288.037 15.5281 288.037 15.6073C288.037 15.7658 288.037 15.9242 288.037 16.0827L287.568 22.6584C287.724 22.9753 288.429 23.2922 289.133 23.2922V23.8468H284.907V23.2922C285.611 23.213 286.315 22.8961 286.472 22.5792L286.942 16.875C286.942 16.7957 286.942 16.6373 286.942 16.6373C286.942 16.558 286.942 16.3996 286.942 16.3204C287.02 15.845 287.02 15.2112 287.02 15.132C287.02 15.0528 287.02 14.8151 287.02 14.6566C286.863 14.419 286.315 14.1813 285.611 14.1021V13.5475H289.29L289.838 15.132C290.542 17.1126 291.325 19.2517 292.029 21.3116C292.89 19.3309 293.751 17.2711 294.612 15.2904L295.317 13.5475H298.526V14.1021C297.9 14.1813 297.352 14.419 297.117 14.6566V15.0528C297.117 15.2112 297.195 16.4788 297.195 16.9542L297.508 22.8169C297.743 23.0545 298.447 23.3714 299.074 23.3714V23.926H294.064Z" fill="#121212"/>
<path d="M304.161 23.926L300.482 24.0052V23.4507C301.187 23.3714 302.283 23.1338 302.517 22.7376V14.6566C302.361 14.419 301.657 14.1813 300.952 14.1813V13.6267H307.527C307.996 13.6267 308.231 13.5475 308.466 13.5475H308.857V16.3204H308.388C308.31 14.9735 307.762 14.5774 306.588 14.5774H304.318V18.2218H306.431C307.449 18.2218 307.918 18.2218 308.075 17.0334H308.544V20.4401H308.075C307.918 19.1725 307.605 19.0933 306.431 19.0933H304.318V22.5C304.396 22.6584 304.553 22.8961 304.709 22.9753C305.022 22.9753 305.57 22.9753 305.961 22.9753C306.353 22.9753 306.901 22.9753 307.214 22.9753C308.231 22.9753 308.936 22.5 309.014 21.1531H309.484V23.926H304.161Z" fill="#121212"/>
<path d="M323.259 14.1813C322.633 14.2605 321.929 14.5774 321.772 14.8943V21.0739C321.772 21.8661 321.85 23.4506 321.85 24.1637H320.833L314.65 16.4788L314.023 15.6866L314.102 16.3996V20.1232C314.102 20.5193 314.102 20.9947 314.18 21.47C314.18 21.6285 314.18 21.8661 314.18 22.0246V22.183C314.18 22.4207 314.258 22.7376 314.258 22.8961C314.493 23.213 315.354 23.5299 316.058 23.6091V24.1637H311.519V23.6091C312.223 23.5299 312.928 23.213 313.084 22.9753V17.1918C313.084 16.4788 313.084 15.6073 313.006 15.0528C312.849 14.7359 312.145 14.419 311.519 14.419V13.8644H314.806L315.667 15.0528L320.755 21.3116V17.7464C320.755 17.1126 320.676 16.3204 320.676 15.6866C320.676 15.5281 320.676 15.2904 320.676 15.2112V15.132C320.442 14.8151 319.581 14.4982 318.876 14.419V13.8644H323.259V14.1813Z" fill="#121212"/>
<path d="M334.53 16.6373C334.452 15.2904 333.748 14.5774 332.652 14.5774H331.791C331.478 14.5774 331.243 14.5774 331.008 14.5774V22.5792C331.321 23.2922 332.26 23.3714 332.965 23.4507V24.0052H327.173V23.4507C327.877 23.3714 328.895 23.213 329.208 22.8169V14.4982C328.973 14.4982 328.66 14.4982 328.347 14.4982H327.486C326.39 14.4982 325.607 15.2112 325.607 16.5581H325.06V13.4683H325.529C325.764 13.5475 325.921 13.6267 326.468 13.6267H333.669C334.061 13.6267 334.374 13.5475 334.609 13.4683H335V16.6373H334.53Z" fill="#121212"/>
<path d="M95.1776 13.4683C93.9252 13.4683 92.986 14.4982 92.6729 16.162L97.1343 16.0827C97.2126 14.7359 96.3516 13.4683 95.1776 13.4683ZM94.9428 24.0053C92.2815 24.0053 90.1682 21.8662 90.1682 18.8556C90.1682 15.2113 92.3598 12.676 95.5689 12.676C98.0736 12.676 99.4825 14.1021 99.4825 16.3996V16.875L92.5946 16.7958C92.5164 17.1127 92.5163 17.5088 92.5163 18.1426C92.5163 20.757 94.16 22.5 96.3516 22.5C97.6822 22.5 98.3084 22.0246 99.3259 21.1532L99.7173 21.787C98.2301 23.1338 97.0561 24.0053 94.9428 24.0053ZM83.1238 23.7676V23.1338C84.2979 23.0546 84.611 22.8169 84.8458 22.3415V9.03168C84.8458 8.1602 84.6893 7.76408 82.9673 7.60563V7.13027L87.6635 5.94189L87.8201 6.41725L87.1157 7.36795V22.5C87.3505 23.0546 87.8201 23.213 88.9159 23.2922V23.7676H83.1238ZM75.375 19.8063C75.2967 20.2025 75.2185 20.5986 75.2185 21.1532C75.2185 21.9454 75.6881 22.7377 76.4708 22.7377C77.2535 22.7377 77.6449 22.5 78.3493 21.9454V18.4595C77.7231 18.6972 76.0794 19.4102 75.375 19.8063ZM80.4626 24.0053C79.0537 24.0053 78.4276 23.0546 78.3493 22.3415C77.4883 23.2922 76.3925 24.0053 75.2967 24.0053C73.8878 24.0053 72.7138 23.1338 72.7138 21.7077C72.7138 20.9947 72.8703 20.2025 73.2617 19.6479L78.3493 17.7465V15.8451C78.3493 14.6567 77.8014 13.5475 76.6273 13.5475C75.9229 13.5475 75.2967 14.419 75.2185 15.6866L72.9486 16.0827V15.8451C73.7313 13.5475 76.236 12.5968 77.4883 12.5968C79.8364 12.5968 80.6192 13.8644 80.6192 15.7658L80.5409 21.2324C80.5409 22.2623 81.0888 22.5792 81.5584 22.5792C81.9498 22.5792 82.3411 22.3415 82.889 21.8662V22.5792C82.3411 23.213 81.4019 24.0053 80.4626 24.0053ZM72.0876 9.74471L67.861 16.9542V21.787C68.3306 22.9753 69.5829 23.1338 70.757 23.1338V23.7676H62.5386V23.1338C63.7126 23.0546 65.1215 22.8961 65.5129 22.1039V17.1127L61.2079 9.74471C60.5035 8.47711 59.7208 8.08098 58.3119 8.00175V7.36795H65.5129V8.00175C64.1822 8.08098 63.7126 8.31865 63.3213 8.63556L67.3131 15.6074L71.2266 8.63556C70.8353 8.31865 70.2874 8.00175 68.9568 7.92253V7.36795H75.0619V8.00175C73.653 8.08098 72.7921 8.55633 72.0876 9.74471Z" fill="#121212"/>
</g>
<defs>
<clipPath id="clip0_624_126503">
<rect width="335" height="45" fill="white"/>
</clipPath>
</defs>
</svg>
