<svg width="207" height="43" viewBox="0 0 207 43" fill="none" xmlns="http://www.w3.org/2000/svg">
<g clip-path="url(#clip0_662_135444)">
<path d="M19.3576 2.39444C17.76 2.4543 16.7274 2.98557 15.9305 4.34367L11.0518 12.5596V18.0855C11.613 19.4137 13.031 19.5933 14.3928 19.6531V20.4201H4.84874V19.6531C6.20684 19.5933 7.86424 19.3875 8.30572 18.5008V12.7953L3.34099 4.40353C2.48423 2.98557 1.65366 2.51042 0 2.39444V1.62373H8.30572V2.39444C6.73811 2.48423 6.23677 2.7798 5.7953 3.13522L10.4046 11.1117L14.9241 3.16141C14.4527 2.80599 13.8316 2.48049 12.264 2.39444V1.62373H19.3576V2.39444ZM28.4602 19.0021C27.8092 19.7691 26.6569 20.6857 25.6243 20.6857C24.0267 20.6857 23.2598 19.5933 23.1999 18.8226C22.1935 19.8851 20.8952 20.6857 19.6531 20.6857C18.0556 20.6857 16.6975 19.7092 16.6975 18.0257C16.6975 17.1988 16.9033 16.3421 17.3185 15.6611L23.1999 13.5323V11.3474C23.1999 10.0155 22.5788 8.74719 21.2507 8.74719C20.4538 8.74719 19.6831 9.72368 19.6269 11.2314L16.9669 11.6729V11.3773C17.8536 8.71726 20.7793 7.68466 22.1972 7.68466C24.8872 7.68466 25.8637 9.10262 25.8338 11.2913L25.7402 17.4981C25.7103 18.7103 26.3613 19.0059 26.9524 19.0059C27.4238 19.0059 27.899 18.7103 28.4602 18.1491V19.0021ZM23.1999 14.2731C22.4329 14.6285 20.5398 15.4554 19.713 15.8707C19.5933 16.3421 19.5072 16.7573 19.5072 17.4083C19.5072 18.295 20.0086 19.1817 20.985 19.1817C21.8717 19.1817 22.3731 18.8862 23.1737 18.2651L23.1999 14.2731ZM35.2881 20.4238H28.7258V19.7429C30.054 19.6531 30.4393 19.3576 30.675 18.8562V3.54677C30.675 2.54035 30.5291 2.12881 28.4864 1.94922V1.3581L33.9001 0L34.0759 0.501336L33.2191 1.56387V18.8562C33.5147 19.4474 34.0759 19.6531 35.2881 19.7429V20.4238ZM47.8776 18.1154C46.194 19.6531 44.8022 20.6558 42.3816 20.6558C39.2801 20.6558 36.8856 18.2015 36.8856 14.7745C36.8856 10.5767 39.4559 7.71085 43.0925 7.71085C46.0182 7.71085 47.6456 9.36451 47.6456 11.9947V12.5259L39.6654 12.4661C39.6056 12.7916 39.5756 13.3228 39.5756 13.9738C39.5756 16.9893 41.4687 18.9685 43.9792 18.9685C45.4869 18.9685 46.2539 18.4372 47.4361 17.4308L47.8776 18.1154ZM44.9818 11.6168C44.9818 10.0492 44.0053 8.63121 42.6472 8.63121C41.1694 8.63121 40.1368 9.81347 39.7814 11.6766L44.9818 11.6168ZM59.9695 20.7007C58.3982 20.7007 57.1037 20.2443 56.318 19.915L55.9626 16.5927H56.52C56.6959 17.4046 57.3057 18.4671 58.0166 19.0021C58.4992 19.3576 59.4345 19.8888 60.2726 19.8888C61.8963 19.8888 62.7568 18.8749 62.7568 17.76C62.7568 16.3421 61.8439 15.9604 60.325 15.3282C57.4591 14.1122 56.4452 13.3752 56.4452 11.4484C56.4452 9.29343 58.6002 7.82309 61.4623 7.82309C62.8055 7.82309 63.8455 8.17851 64.5302 8.48156V11.6991H63.9989C63.9241 10.8386 63.5949 9.82469 62.8578 9.36825C62.5772 9.19241 61.7916 8.68359 60.9049 8.68359C59.3073 8.68359 58.4955 9.6713 58.4955 10.6366C58.4955 11.9311 59.1539 12.4623 61.1069 13.2218C63.767 14.2843 64.8332 15.1224 64.8332 16.9968C64.8332 19.3052 62.6558 20.7007 59.9695 20.7007ZM79.054 16.8247L78.3693 19.9936C76.899 20.45 76.4164 20.6782 74.1117 20.6782C70.1085 20.6782 67.2165 17.8124 67.2165 14.1646C67.2165 10.4383 70.2843 7.85302 74.1603 7.85302C76.0871 7.85302 77.1497 8.20844 78.62 8.56387V11.9086H78.0887C78.0139 11.0481 77.6585 10.0828 76.9476 9.6264C76.5922 9.37199 75.7055 8.66488 73.9808 8.66488C71.2197 8.66488 69.6446 10.9733 69.6446 13.7082C69.6446 17.3073 71.6724 19.8402 74.8899 19.8402C75.93 19.8402 76.6633 19.4099 76.9925 19.1293C77.752 18.5457 78.287 17.6328 78.4629 16.7199L79.054 16.8247ZM95.7851 20.4238H89.8552V19.8664C90.7418 19.8402 91.5275 19.5858 91.7296 19.2079V14.6435H85.1411V19.2079C85.2945 19.5895 86.1288 19.8402 86.993 19.8664V20.4238H81.1117V19.8664C81.9722 19.8402 82.8103 19.5858 82.9637 19.2079V9.29343C82.8103 8.91181 81.9759 8.66114 81.1117 8.60877V8.10369H86.993V8.60877C86.1325 8.66114 85.2945 8.91181 85.1411 9.29343V13.6034H91.7296V9.29343C91.5275 8.91181 90.7418 8.66114 89.8552 8.60877V8.10369H95.7851V8.60877C94.8984 8.66114 94.1128 8.91181 93.9107 9.29343V19.2042C94.1128 19.5858 94.8984 19.8365 95.7851 19.8626V20.4238ZM117.664 8.63495C116.804 8.68359 115.79 9.11758 115.562 9.72368L111.33 20.6221H109.961L107.35 12.2341L104.36 20.6221H102.965L99.2646 9.54409C99.0887 9.03902 98.0486 8.70604 97.2368 8.63121V8.09995H103.245V8.63121C102.385 8.67985 101.648 8.91181 101.472 9.31587L104.312 18.0107L106.923 10.7862L106.493 9.51791C106.317 9.00909 105.378 8.70604 104.491 8.63121V8.09995H110.399V8.63121C109.512 8.67985 108.753 8.91181 108.573 9.31587L111.312 18.0855L114.406 9.54409C114.204 9.06146 113.317 8.68359 112.453 8.63121V8.09995H117.676V8.63495H117.664ZM129.91 20.4238H124.002V19.8664C124.889 19.814 125.626 19.612 125.828 19.2079L124.56 15.5826H120.605L119.363 18.9797C119.565 19.4361 120.324 19.8177 121.189 19.8664V20.4238H116.145V19.8664C117.032 19.814 117.668 19.6644 118.046 19.1817C118.577 17.8648 119.187 16.3683 119.771 14.7969C120.583 12.6157 121.394 10.4869 121.851 9.16996C122.053 8.58632 122.053 8.3581 122.105 7.98022H124.462C124.515 8.59006 124.563 8.94174 124.717 9.45056C125.375 11.5045 125.906 13.1021 126.464 14.7483C126.92 16.1176 127.403 17.3859 128.035 19.0321C128.237 19.5895 129.023 19.8177 129.91 19.8701V20.4238ZM124.23 14.6173L122.962 10.6366L122.708 9.69749H122.607L122.326 10.6366L120.931 14.6173H124.23ZM145.26 20.5249L143.206 20.4987C141.306 20.4725 141.205 20.6521 140.037 19.1817C138.668 17.4345 138.036 16.3159 137.4 15.4554H135.473V18.8787C135.727 19.511 136.715 19.8177 137.576 19.8664V20.4238H131.245V19.8664C132.132 19.814 133.045 19.612 133.299 18.9797V9.37199C133.123 8.91555 132.158 8.68733 131.272 8.6387V8.10743C133.374 8.10743 134.77 8.0326 136.999 8.0326C140.168 8.0326 141.639 9.07269 141.639 11.2501C141.639 12.4661 140.7 13.7867 139.229 14.4939L141.916 18.0444C142.548 18.8824 143.158 19.3127 143.36 19.4399C143.816 19.7429 144.856 19.8963 145.335 19.9711L145.26 20.5249ZM136.719 8.81454C136.438 8.81454 135.881 8.81454 135.477 8.84073V14.6435H136.872C138.773 14.6435 139.282 13.3266 139.282 11.3212C139.278 9.97809 138.466 8.81454 136.719 8.81454ZM157.427 20.4238H150.532C149.469 20.4238 147.542 20.45 146.274 20.4762V19.9936C146.906 19.3613 147.542 18.5756 148.021 17.891L154.079 9.06895L149.694 9.14377C148.452 9.16996 147.438 10.1315 147.385 11.83H146.854V7.97648H147.337C147.513 8.02886 147.793 8.12988 148.478 8.12988H153.978C154.688 8.12988 156.387 8.15607 157.195 8.05505V8.56013C156.686 8.99038 156.106 9.74987 155.47 10.6627L149.361 19.5072L154.658 19.38C155.953 19.3538 156.862 18.1903 156.888 16.5665H157.42V20.4238H157.427ZM176.317 20.4238H170.308V19.8664C171.195 19.814 172.183 19.5633 172.336 19.1817L171.955 12.0844L171.928 10.0567L171.319 11.6018L167.439 20.4463H166.679L163.308 11.2464L162.807 9.72742L162.755 11.0967L162.223 19.0321C162.351 19.4137 163.29 19.8177 164.15 19.8701V20.4276H159.107V19.8664C159.994 19.814 160.832 19.4099 161.06 19.0283L161.591 12.0844C161.64 11.3736 161.745 10.0043 161.745 9.92945C161.745 9.80225 161.745 9.52539 161.718 9.29717C161.516 8.99412 160.858 8.68733 159.994 8.6387V8.10743H164.326L164.958 9.95938L167.727 17.5842L170.896 10.1315L171.734 8.10369H175.614V8.63495C174.727 8.68359 174.068 8.96419 173.889 9.26724V9.72368C173.889 9.92571 173.99 11.4484 174.016 12.0807L174.42 19.178C174.648 19.5596 175.46 19.8103 176.321 19.8626V20.4238H176.317ZM191.323 20.4238H185.42V19.8664C186.306 19.814 187.043 19.612 187.245 19.2079L185.977 15.5826H182.022L180.78 18.9797C180.982 19.4361 181.742 19.8177 182.606 19.8664V20.4238H177.563V19.8664C178.449 19.814 179.086 19.6644 179.463 19.1817C179.995 17.8648 180.604 16.3683 181.188 14.7969C182 12.6157 182.812 10.4869 183.268 9.16996C183.47 8.58632 183.47 8.3581 183.523 7.98022H185.88C185.932 8.59006 185.981 8.94174 186.134 9.45056C186.793 11.5045 187.324 13.1021 187.881 14.7483C188.338 16.1176 188.82 17.3859 189.453 19.0321C189.655 19.5895 190.44 19.8177 191.327 19.8701V20.4238H191.323ZM185.648 14.6173L184.379 10.6366L184.125 9.69749H184.024L183.743 10.6366L182.348 14.6173H185.648ZM206.999 8.63495C206.113 8.68359 205.327 9.09139 205.125 9.49546V16.922C205.125 17.9621 205.177 19.7354 205.252 20.5735H204.085L196.557 11.3474L195.719 10.1053L195.794 11.2464V15.6836C195.794 16.7499 195.895 18.2165 195.921 19.0283C196.097 19.4099 197.19 19.814 198.076 19.8664V20.4238H192.73V19.8664C193.617 19.814 194.477 19.4099 194.631 19.0283V12.0844C194.631 11.1192 194.631 10.1577 194.556 9.44682C194.354 9.04276 193.568 8.68733 192.704 8.63495V8.10369H196.606L197.695 9.4992L203.98 17.2288V12.7916C203.98 11.7253 203.905 10.0791 203.879 9.49546C203.703 9.09139 202.585 8.68359 201.698 8.63495V8.10369H206.996V8.63495H206.999ZM67.2501 38.1502L66.5655 41.3191C65.0951 41.7755 64.6125 42.0037 62.3079 42.0037C58.3046 42.0037 55.4126 39.1379 55.4126 35.4901C55.4126 31.7638 58.4805 29.1785 62.3565 29.1785C64.2833 29.1785 65.3458 29.5339 66.8161 29.8894V33.2341H66.2849C66.21 32.3736 65.8546 31.4083 65.1438 30.9519C64.7883 30.6975 63.9017 29.9904 62.1769 29.9904C59.4158 29.9904 57.8445 32.2988 57.8445 35.0337C57.8445 38.6328 59.8723 41.1657 63.0898 41.1657C64.1299 41.1657 64.8632 40.7354 65.1924 40.4548C65.9519 39.8712 66.4869 38.9583 66.6627 38.0454L67.2501 38.1502ZM79.8471 41.7493H73.3335L68.9487 41.8017V41.2704C69.8354 41.2181 71.1523 40.9674 71.4067 40.3314V30.6189C71.2533 30.2373 70.419 30.0091 69.5323 29.9604V29.4292H77.5425C78.0738 29.4292 78.4292 29.3768 78.6836 29.302H79.14V32.5457H78.6349C78.5601 30.8471 77.8755 30.3907 76.4051 30.3907H73.5917V34.9813H76.2293C77.5462 34.9813 78.0812 34.9551 78.2571 33.5371H78.7397V37.5441H78.2346C78.0812 35.9989 77.651 35.9727 76.233 35.9727H73.5954V40.1555C73.6478 40.4099 73.7488 40.6868 74.1005 40.814L77.1684 40.7616C78.4629 40.7354 79.3233 40.178 79.372 38.5318H79.8546V41.7493H79.8471ZM96.5259 29.9604C95.6392 30.0091 94.8536 30.4169 94.6515 30.8209V38.2475C94.6515 39.2875 94.7039 41.0609 94.7787 41.899H93.6114L86.0839 32.6729L85.2459 31.4308L85.3207 32.5719V37.0091C85.3207 38.0754 85.4217 39.542 85.4479 40.3538C85.6237 40.7354 86.7162 41.1395 87.6029 41.1919V41.7493H82.2565V41.1919C83.1432 41.1395 84.0037 40.7354 84.1571 40.3538V33.4099C84.1571 32.4447 84.1571 31.4832 84.0823 30.7723C83.8803 30.3683 83.0946 30.0128 82.2304 29.9604V29.4292H86.1325L87.2213 30.8247L93.5067 38.5542V34.1171C93.5067 33.0508 93.4319 31.4046 93.4057 30.8209C93.2298 30.4169 92.1112 30.0091 91.2245 29.9604V29.4292H96.5259V29.9604ZM110.084 32.9535H109.579C109.527 31.3073 108.64 30.4431 107.249 30.4169L105.172 30.3907V40.1256C105.602 41.0385 106.669 41.1395 107.555 41.1919V41.7493H100.559V41.1919C101.446 41.1395 102.714 40.9637 102.991 40.4062V30.3907L100.914 30.4169C99.519 30.4431 98.6323 31.3036 98.6061 32.9535H98.0748V29.2795H98.5574C98.8119 29.3544 99.0625 29.4329 99.6986 29.4329H108.468C108.925 29.4329 109.355 29.3581 109.609 29.2795H110.092V32.9535H110.084ZM122.102 41.7493H115.588L111.203 41.8017V41.2704C112.09 41.2181 113.407 40.9674 113.661 40.3314V30.6189C113.508 30.2373 112.673 30.0091 111.787 29.9604V29.4292H119.797C120.328 29.4292 120.684 29.3768 120.938 29.302H121.394V32.5457H120.889C120.815 30.8471 120.13 30.3907 118.66 30.3907H115.846V34.9813H118.484C119.801 34.9813 120.336 34.9551 120.511 33.5371H120.994V37.5441H120.489C120.336 35.9989 119.905 35.9727 118.487 35.9727H115.85V40.1555C115.902 40.4099 116.003 40.6868 116.359 40.814L119.427 40.7616C120.721 40.7354 121.582 40.178 121.63 38.5318H122.113V41.7493H122.102ZM138.144 41.8503L136.09 41.8242C134.19 41.798 134.089 41.9776 132.921 40.5072C131.552 38.76 130.92 37.6414 130.284 36.7809H128.357V40.2042C128.611 40.8364 129.599 41.1432 130.46 41.1919V41.7493H124.122V41.1919C125.009 41.1395 125.921 40.9375 126.176 40.3052V30.6975C126 30.241 125.035 30.0128 124.148 29.9642V29.4329C126.251 29.4329 127.646 29.3581 129.876 29.3581C133.045 29.3581 134.515 30.3982 134.515 32.5756C134.515 33.7916 133.576 35.1122 132.106 35.8193L134.792 39.3699C135.424 40.2079 136.034 40.6382 136.236 40.7654C136.693 41.0684 137.733 41.2218 138.212 41.2966L138.144 41.8503ZM129.599 30.14C129.319 30.14 128.761 30.14 128.357 30.1662V35.969H129.753C131.653 35.969 132.162 34.6521 132.162 32.6467C132.162 31.3036 131.35 30.14 129.599 30.14Z" fill="#00356B"/>
</g>
<defs>
<clipPath id="clip0_662_135444">
<rect width="207" height="43" fill="white"/>
</clipPath>
</defs>
</svg>
