<svg width="346" height="40" viewBox="0 0 346 40" fill="none" xmlns="http://www.w3.org/2000/svg">
<path d="M23.9196 6.51256L16.603 18.8543V27.1759C17.4472 29.1859 19.5779 29.4271 21.6281 29.5477V30.7136H7.27638V29.5477C9.32663 29.4673 11.8191 29.1457 12.4623 27.8191V19.2161L5.02513 6.63317C3.73869 4.50251 2.49246 3.77889 0 3.57789V2.45226H12.4623V3.61809C10.0905 3.73869 9.36683 4.1809 8.68342 4.74372L15.598 16.7236L22.392 4.78392C21.6683 4.26131 20.7437 3.77889 18.4121 3.61809V2.45226H29.0653V3.61809C26.6935 3.69849 25.1658 4.50251 23.9196 6.51256ZM38.5126 31.0754C36.1005 31.0754 34.9749 29.4271 34.8543 28.2613C33.3266 29.8693 31.397 31.0754 29.5075 31.0754C27.0955 31.0754 25.0854 29.6281 25.0854 27.0955C25.0854 25.8492 25.407 24.5628 26.01 23.5578L34.8543 20.3417V17.0452C34.8543 15.0352 33.9296 13.1457 31.9196 13.1457C30.7136 13.1457 29.5477 14.593 29.4673 16.8844L25.4874 17.5678V17.1256C26.8141 13.1457 31.2362 11.5779 33.3668 11.5779C37.4271 11.5779 38.8744 13.7085 38.8342 17.005L38.7136 26.3317C38.6734 28.1407 39.6382 28.5829 40.5226 28.5829C41.2462 28.5829 41.9296 28.1407 42.7739 27.2965V28.5427C41.809 29.7085 40.0402 31.0754 38.5126 31.0754ZM29.6281 23.8392C29.4673 24.5628 29.3065 25.1658 29.3065 26.1307C29.3065 27.4573 30.0704 28.7839 31.5176 28.7839C32.8442 28.7839 33.608 28.3417 34.8141 27.4171L34.8543 21.4271C33.6884 21.9899 30.8744 23.2362 29.6281 23.8392ZM43.1759 30.6734V29.6683C45.1859 29.5477 45.7487 29.1055 46.1105 28.3417V5.34673C46.1105 3.8191 45.8693 3.21608 42.8141 2.93467V2.05025L50.9347 0L51.2161 0.763819L49.9296 2.37186V28.3417C50.3719 29.2261 51.2161 29.5477 53.0251 29.6683V30.6734H43.1759ZM63.6784 31.0352C59.0151 31.0352 55.4372 27.3367 55.4372 22.191C55.4372 15.8794 59.2965 11.5779 64.7638 11.5779C69.1457 11.5779 71.598 14.0704 71.598 18.01V18.8141L59.6181 18.7337C59.5377 19.2161 59.4975 20.0201 59.4975 20.9849C59.4975 25.5276 62.3518 28.5025 66.1306 28.5025C68.3819 28.5025 69.5477 27.6985 71.3166 26.2111L72 27.2161C69.4271 29.5477 67.3367 31.0352 63.6784 31.0352ZM64.0804 12.9849C61.8693 12.9849 60.3015 14.7538 59.7789 17.5678L67.5779 17.4874C67.5779 15.1156 66.1306 12.9849 64.0804 12.9849Z" fill="#00356B"/>
<path d="M88.52 10.7554H97.768L97.608 11.4594C96.072 11.5234 94.824 11.9714 94.376 12.6114L90.856 29.2194C91.016 29.8594 92.552 30.2754 94.056 30.3394L93.896 31.0754H84.648L84.808 30.3394C86.312 30.2754 87.592 29.8594 88.008 29.2194L91.528 12.6114C91.4 11.9714 89.832 11.5234 88.36 11.4594L88.52 10.7554ZM111.433 26.9794L112.009 27.4594C110.153 29.6994 108.457 31.3314 106.793 31.3314C106.089 31.3314 105.897 30.3074 105.897 29.1874C105.897 28.6114 106.153 27.6514 106.377 26.6594C106.377 26.6594 107.753 21.2514 107.977 19.9394C107.977 19.1074 107.913 18.9154 107.433 18.9154C106.825 18.9154 103.945 21.8914 101.417 24.9634L100.233 31.0754H97.865L99.977 20.7394C100.073 20.1954 100.393 18.9794 100.393 18.8514C100.393 18.7554 100.361 18.5314 100.297 18.5314C99.881 18.5314 98.953 19.4594 97.673 21.2514L97.065 20.8354C98.857 18.2754 100.201 17.0274 101.673 17.0274C102.377 17.0274 102.697 17.9234 102.697 18.9154C102.697 19.2354 102.633 19.6514 102.537 20.0034L101.705 23.5554C104.521 20.1314 107.465 17.0274 109.193 17.0274C109.737 17.0274 110.505 18.2434 110.505 19.2034C110.505 19.7794 110.377 20.5154 110.057 21.6674L108.489 27.5234C108.393 27.8754 108.297 28.5794 108.297 28.8034C108.297 29.3154 108.329 29.5714 108.713 29.5714C109.065 29.5714 110.217 28.4194 111.433 26.9794ZM128.356 9.95544C128.356 10.5314 127.364 11.3954 126.724 11.6514C125.828 10.7554 124.708 9.95544 123.204 9.85944C121.316 10.0194 120.42 11.5234 119.364 17.4114H123.332L122.948 18.7554H119.14L117.316 30.1794C117.06 31.7154 116.612 33.2834 116.036 34.2754C114.34 37.1554 112.26 39.2994 109.028 39.2994C107.46 39.2994 106.628 38.4034 106.628 37.6994C106.628 37.1234 107.524 36.1634 108.164 35.9394C109.028 36.7074 110.084 37.6994 111.524 37.7954C113.124 37.6994 114.116 34.9474 114.916 30.0834L116.804 18.7234H114.148L114.276 18.0514L116.932 17.4434C117.252 15.8754 117.732 14.3394 118.34 13.3474C120.036 10.5634 122.34 8.32344 125.764 8.32344C127.396 8.32344 128.356 9.31544 128.356 9.95544ZM134.265 22.5954C134.265 24.2594 133.625 26.1154 132.313 27.7154C130.137 30.3714 127.865 31.4274 126.681 31.4274C124.921 31.4274 123.033 29.4114 123.033 25.8594C123.033 24.1954 123.673 22.3394 124.985 20.7074C127.001 18.2114 129.529 17.0274 130.617 17.0274C132.441 17.0274 134.265 19.0434 134.265 22.5954ZM131.769 22.7554C131.769 19.9074 130.617 18.3714 129.337 18.3714C127.993 18.3714 125.529 21.1874 125.529 25.5714C125.529 28.6434 126.681 30.1154 127.993 30.1154C129.433 30.1154 131.769 27.2354 131.769 22.7554ZM148.42 17.7634L146.596 20.2914H146.276C145.38 19.7154 145.124 19.5874 144.292 19.5874C143.46 19.5874 141.412 23.0434 141.22 24.0354L139.844 31.0754H137.476L139.524 20.7394C139.62 20.1954 139.748 18.9794 139.748 18.8514C139.748 18.7554 139.684 18.5314 139.62 18.5314C139.204 18.5314 138.308 19.4594 137.028 21.2514L136.42 20.8354C138.212 18.2754 139.524 17.0274 140.996 17.0274C141.7 17.0274 141.988 17.9554 141.988 18.9474C141.988 19.2674 141.924 19.6834 141.86 20.0354L141.604 21.7314C143.3 18.7554 145.092 17.4434 146.212 17.0274C147.012 17.0274 147.748 17.4114 148.42 17.7634ZM170.388 26.9794L170.964 27.4594C169.108 29.6994 167.412 31.3314 165.748 31.3314C165.044 31.3314 164.82 30.3394 164.82 29.2194C164.82 28.6434 165.108 27.6834 165.332 26.6914C165.332 26.6914 166.676 21.4434 166.9 20.1314C166.9 19.1714 166.708 18.9474 166.356 18.9474C165.716 18.9474 163.124 21.7954 160.596 24.8674L159.156 31.0754H156.82C156.82 31.0754 158.996 21.4434 159.22 20.1314C159.22 19.1394 159.028 18.9474 158.676 18.9474C158.004 18.9474 155.412 21.7954 152.884 24.8674L151.668 31.0754H149.3L151.412 20.7394C151.508 20.1954 151.828 18.9794 151.828 18.8514C151.828 18.7554 151.892 18.5314 151.732 18.5314C151.316 18.5314 150.388 19.4594 149.108 21.2514L148.5 20.8354C150.292 18.2754 151.636 17.0274 153.108 17.0274C153.812 17.0274 154.132 17.9234 154.132 18.9154C154.132 19.2354 154.068 19.6514 153.972 20.0034L153.172 23.4594C155.988 20.0354 158.708 17.0274 160.436 17.0274C160.98 17.0274 161.812 18.2434 161.812 19.2034C161.812 19.7794 161.62 20.5154 161.332 21.6674L160.884 23.4594C163.7 20.0354 166.356 17.0274 168.084 17.0274C168.628 17.0274 169.46 18.2434 169.46 19.2034C169.46 19.7794 169.332 20.5154 169.012 21.6674L167.444 27.5234C167.38 27.8114 167.252 28.4834 167.252 28.7074C167.252 29.3154 167.316 29.5714 167.668 29.5714C168.02 29.5714 169.172 28.4194 170.388 26.9794ZM185.786 26.9794L186.362 27.4594C184.506 29.6994 182.81 31.3314 181.146 31.3314C180.442 31.3314 180.154 30.3394 180.154 29.2194L181.018 25.5074C178.394 28.7074 175.77 31.3314 174.042 31.3314C173.498 31.3314 172.506 30.4034 172.506 27.9074C172.506 25.3154 173.434 22.8194 175.354 20.8674C177.754 18.4034 180.826 17.0914 184.09 17.0914H185.05L182.81 27.6194C182.746 27.9394 182.682 28.5474 182.682 28.7714C182.682 29.1874 182.682 29.5074 183.034 29.5074C183.418 29.5074 184.57 28.4194 185.786 26.9794ZM181.178 24.1954L182.234 19.2354C181.85 19.1394 181.37 19.1074 181.018 19.1074C179.738 19.1074 178.33 19.3634 177.85 19.7474C176.282 20.9954 175.002 23.3314 175.002 27.0114C175.002 28.9314 175.482 29.4754 175.834 29.4754C176.41 29.4754 178.874 27.0434 181.178 24.1954ZM193.027 17.4434H196.515L196.131 18.7874H192.771L191.171 27.2994C191.107 27.6194 191.043 28.3554 191.043 28.5794C191.043 29.1874 191.235 29.6034 191.587 29.6034C191.939 29.6034 193.475 28.3554 194.723 26.7234L195.299 27.2034C193.283 29.7954 191.395 31.3314 189.731 31.3314C189.027 31.3314 188.579 30.3394 188.579 29.2194C188.579 28.6434 188.739 27.6194 188.931 26.6914L190.435 18.7554L188.419 18.8194L188.579 18.1474C190.755 17.1554 191.939 16.1954 193.315 13.9874H194.019L193.027 17.4434ZM204.687 11.1714C204.687 11.9074 204.047 12.7074 203.087 12.7074C202.095 12.7074 201.455 11.9074 201.455 11.1714C201.455 10.4034 202.095 9.57144 203.087 9.57144C204.047 9.57144 204.687 10.4034 204.687 11.1714ZM204.015 26.9794L204.591 27.4594C202.735 29.6994 201.039 31.3314 199.375 31.3314C198.671 31.3314 198.415 30.3394 198.415 29.2194C198.415 28.6434 198.607 27.5234 198.863 26.5314L200.303 20.7394C200.463 20.0354 200.687 18.9794 200.687 18.8514C200.687 18.7554 200.751 18.5314 200.591 18.5314C200.175 18.5314 199.247 19.4594 197.967 21.2514L197.359 20.8354C199.151 18.2754 200.559 17.0274 202.031 17.0274C202.735 17.0274 202.991 17.9234 202.991 18.9154C202.991 19.2354 202.991 19.6514 202.895 20.0034L201.039 27.4274C200.975 27.6834 200.879 28.2594 200.879 28.4834C200.879 28.9634 201.039 29.4754 201.391 29.4754C201.711 29.4754 202.799 28.4194 204.015 26.9794ZM217.762 22.5954C217.762 24.2594 217.122 26.1154 215.81 27.7154C213.634 30.3714 211.362 31.4274 210.178 31.4274C208.418 31.4274 206.53 29.4114 206.53 25.8594C206.53 24.1954 207.17 22.3394 208.482 20.7074C210.498 18.2114 213.026 17.0274 214.114 17.0274C215.938 17.0274 217.762 19.0434 217.762 22.5954ZM215.266 22.7554C215.266 19.9074 214.114 18.3714 212.834 18.3714C211.49 18.3714 209.026 21.1874 209.026 25.5714C209.026 28.6434 210.178 30.1154 211.49 30.1154C212.93 30.1154 215.266 27.2354 215.266 22.7554ZM234.412 26.9794L234.988 27.4594C233.132 29.6994 231.436 31.3314 229.772 31.3314C229.068 31.3314 228.876 30.3074 228.876 29.1874C228.876 28.6114 229.132 27.6514 229.356 26.6594C229.356 26.6594 230.732 21.2514 230.956 19.9394C230.956 19.1074 230.892 18.9154 230.412 18.9154C229.804 18.9154 226.924 21.8914 224.396 24.9634L223.212 31.0754H220.844L222.956 20.7394C223.052 20.1954 223.372 18.9794 223.372 18.8514C223.372 18.7554 223.34 18.5314 223.276 18.5314C222.86 18.5314 221.932 19.4594 220.652 21.2514L220.044 20.8354C221.836 18.2754 223.18 17.0274 224.652 17.0274C225.356 17.0274 225.676 17.9234 225.676 18.9154C225.676 19.2354 225.612 19.6514 225.516 20.0034L224.684 23.5554C227.5 20.1314 230.444 17.0274 232.172 17.0274C232.716 17.0274 233.484 18.2434 233.484 19.2034C233.484 19.7794 233.356 20.5154 233.036 21.6674L231.468 27.5234C231.372 27.8754 231.276 28.5794 231.276 28.8034C231.276 29.3154 231.308 29.5714 231.692 29.5714C232.044 29.5714 233.196 28.4194 234.412 26.9794ZM261.429 11.7474L260.597 16.7074L259.893 16.6434C259.925 16.4194 259.925 16.2274 259.925 16.0034C259.925 14.6274 259.605 13.5074 258.677 12.7714C258.165 12.3554 257.141 11.4914 255.221 11.4914C252.277 11.4914 250.837 13.3474 250.837 15.5554C250.837 17.2834 251.797 18.1154 254.741 19.7474C257.877 21.4754 259.573 23.0114 259.573 25.3154C259.573 29.2514 256.085 31.5554 251.765 31.5554C248.917 31.5554 246.773 30.5314 245.461 29.7954L245.781 24.7074L246.485 24.7714C246.517 26.1794 247.093 27.9394 248.213 28.8354C249.045 29.5074 250.357 30.4674 252.085 30.4674C254.965 30.4674 256.693 28.6114 256.693 26.3074C256.693 24.3874 255.381 23.3954 253.045 22.2114C249.653 20.5154 248.021 18.8834 248.021 16.5794C248.021 12.9314 251.381 10.3714 255.861 10.3714C258.357 10.3714 260.309 11.1074 261.429 11.7474ZM272.889 19.5234C272.889 21.3474 270.393 23.3634 265.337 24.7394C265.305 25.1234 265.273 25.6354 265.273 26.0194C265.273 28.2914 266.137 29.7314 267.609 29.7314C268.665 29.7314 269.977 28.7074 271.513 27.0754L272.025 27.5874C269.945 30.0834 267.705 31.3954 266.105 31.3954C264.089 31.3954 262.809 29.3474 262.809 26.4674C262.809 24.0034 263.897 21.5714 265.465 19.7794C266.905 18.1154 268.569 17.0274 270.233 17.0274C272.089 17.0274 272.889 18.2434 272.889 19.5234ZM270.585 20.7394C270.585 19.4274 270.329 18.3074 268.281 18.3074C267.033 19.1394 265.849 21.3154 265.401 23.9394C268.025 23.2354 269.465 22.2114 270.457 21.3154C270.521 21.1554 270.585 20.8994 270.585 20.7394ZM284.877 18.7234C284.877 19.2674 283.853 20.1634 283.245 20.4514C282.381 19.5234 281.581 18.6914 279.949 18.5954C278.925 19.2034 277.197 22.0514 277.197 25.3794C277.197 28.6434 278.221 29.7634 279.469 29.7634C280.429 29.7634 281.837 28.7074 283.341 27.0754L283.853 27.5874C281.773 30.0834 279.533 31.3954 277.997 31.3954C275.981 31.3954 274.637 29.3154 274.637 26.4354C274.637 23.9714 275.725 21.6354 277.261 19.8434C278.797 18.0514 280.621 17.0914 282.285 17.0914C284.013 17.0914 284.877 18.0514 284.877 18.7234ZM300.712 26.9794L301.288 27.4594C299.432 29.6994 297.736 31.3314 296.072 31.3314C295.368 31.3314 295.112 30.3394 295.112 29.2194C295.112 28.4194 296.136 24.6434 296.136 24.6434C293.32 28.2594 290.344 31.3314 288.616 31.3314C288.072 31.3314 287.24 30.1154 287.24 29.1554C287.24 28.5794 287.432 27.8434 287.72 26.6914L289.256 20.8354C289.416 20.2594 289.704 19.0754 289.704 18.9474C289.704 18.8194 289.768 18.5314 289.608 18.5314C289.192 18.5314 288.264 19.4594 286.984 21.2514L286.376 20.8354C288.168 18.2754 289.544 17.0274 291.016 17.0274C291.72 17.0274 292.008 17.9234 292.008 18.9474C292.008 19.2674 291.944 19.5874 291.88 19.9074C291.016 23.2994 290.056 26.9474 289.832 28.2594C289.832 29.1234 290.024 29.4754 290.376 29.4754C291.048 29.4754 293.768 26.5954 296.296 23.3634L297.576 17.3474H299.976L297.736 27.6194C297.64 28.0034 297.576 28.5154 297.576 28.7394C297.576 29.2194 297.64 29.5714 297.992 29.5714C298.344 29.5714 299.496 28.4194 300.712 26.9794ZM314.756 17.7634L312.932 20.2914H312.612C311.716 19.7154 311.46 19.5874 310.628 19.5874C309.796 19.5874 307.748 23.0434 307.556 24.0354L306.18 31.0754H303.812L305.86 20.7394C305.956 20.1954 306.084 18.9794 306.084 18.8514C306.084 18.7554 306.02 18.5314 305.956 18.5314C305.54 18.5314 304.644 19.4594 303.364 21.2514L302.756 20.8354C304.548 18.2754 305.86 17.0274 307.332 17.0274C308.036 17.0274 308.324 17.9554 308.324 18.9474C308.324 19.2674 308.26 19.6834 308.196 20.0354L307.94 21.7314C309.636 18.7554 311.428 17.4434 312.548 17.0274C313.348 17.0274 314.084 17.4114 314.756 17.7634ZM322.228 11.1714C322.228 11.9074 321.588 12.7074 320.628 12.7074C319.636 12.7074 318.996 11.9074 318.996 11.1714C318.996 10.4034 319.636 9.57144 320.628 9.57144C321.588 9.57144 322.228 10.4034 322.228 11.1714ZM321.556 26.9794L322.132 27.4594C320.276 29.6994 318.58 31.3314 316.916 31.3314C316.212 31.3314 315.956 30.3394 315.956 29.2194C315.956 28.6434 316.148 27.5234 316.404 26.5314L317.844 20.7394C318.004 20.0354 318.228 18.9794 318.228 18.8514C318.228 18.7554 318.292 18.5314 318.132 18.5314C317.716 18.5314 316.788 19.4594 315.508 21.2514L314.9 20.8354C316.692 18.2754 318.1 17.0274 319.572 17.0274C320.276 17.0274 320.532 17.9234 320.532 18.9154C320.532 19.2354 320.532 19.6514 320.436 20.0034L318.58 27.4274C318.516 27.6834 318.42 28.2594 318.42 28.4834C318.42 28.9634 318.58 29.4754 318.932 29.4754C319.252 29.4754 320.34 28.4194 321.556 26.9794ZM329.223 17.4434H332.711L332.327 18.7874H328.967L327.367 27.2994C327.303 27.6194 327.239 28.3554 327.239 28.5794C327.239 29.1874 327.431 29.6034 327.783 29.6034C328.135 29.6034 329.671 28.3554 330.919 26.7234L331.495 27.2034C329.479 29.7954 327.591 31.3314 325.927 31.3314C325.223 31.3314 324.775 30.3394 324.775 29.2194C324.775 28.6434 324.935 27.6194 325.127 26.6914L326.631 18.7554L324.615 18.8194L324.775 18.1474C326.951 17.1554 328.135 16.1954 329.511 13.9874H330.215L329.223 17.4434ZM345.491 18.0834C345.491 18.8194 345.043 19.8754 344.563 21.0914C343.795 23.0434 342.195 26.8194 340.659 29.8594C338.099 34.8834 334.867 39.2994 331.283 39.2994C330.419 39.2994 329.939 38.6594 329.939 37.8594C330.067 37.1554 330.451 36.5794 331.219 36.2274C332.307 36.8034 333.011 36.9634 334.035 36.9634C334.835 36.6754 336.883 35.4594 338.611 31.4274C338.611 26.5634 338.067 23.1074 336.563 19.6514C336.371 19.2034 336.083 18.7554 335.379 18.7554C334.995 18.7554 333.747 19.2034 333.747 21.4114V21.7634H333.043C333.011 21.5394 333.011 21.2834 333.011 21.0274C333.011 18.1474 334.995 17.0274 336.243 17.0274C337.491 17.0274 338.131 17.6034 338.451 18.1794C339.987 20.8994 340.627 25.1234 340.595 28.4834C342.451 24.3234 342.995 21.8274 343.155 18.6594C343.219 17.2834 343.795 17.0594 344.339 17.0594C345.171 17.0594 345.491 17.4434 345.491 18.0834Z" fill="#00356B"/>
</svg>
