<svg width="41" height="42" viewBox="0 0 41 42" fill="none" xmlns="http://www.w3.org/2000/svg">
<g clip-path="url(#clip0_625_126484)">
<path d="M39.8158 0.107879H37.134C36.8673 0.107879 36.6115 0.214419 36.4229 0.404063C36.2343 0.593706 36.1283 0.850918 36.1283 1.11911C36.1283 1.38731 36.2343 1.64452 36.4229 1.83417C36.6115 2.02381 36.8673 2.13035 37.134 2.13035H38.8168V3.809C38.8168 4.0772 38.9228 4.33441 39.1114 4.52405C39.3 4.7137 39.5558 4.82024 39.8225 4.82024C40.0892 4.82024 40.345 4.7137 40.5336 4.52405C40.7222 4.33441 40.8282 4.0772 40.8282 3.809V1.11237C40.8282 0.979319 40.8019 0.847588 40.7509 0.72483C40.6998 0.602072 40.6251 0.490733 40.5309 0.397278C40.4367 0.303824 40.325 0.230116 40.2022 0.180436C40.0795 0.130756 39.9481 0.106093 39.8158 0.107879Z" fill="currentColor"/>
<path d="M36.5373 30.7753L34.0231 26.4C33.9342 26.2467 33.8071 26.1193 33.6542 26.0306C33.5013 25.9419 33.328 25.895 33.1515 25.8944H28.1231C27.9476 25.8955 27.7754 25.9427 27.6237 26.0314C27.4719 26.1201 27.3459 26.2472 27.2582 26.4L24.744 30.7753C24.655 30.9276 24.608 31.1009 24.608 31.2776C24.608 31.4542 24.655 31.6276 24.744 31.7798L27.2582 36.1618C27.3459 36.3147 27.4719 36.4417 27.6237 36.5304C27.7754 36.6191 27.9476 36.6664 28.1231 36.6674H33.1515C33.328 36.6669 33.5013 36.6199 33.6542 36.5312C33.8071 36.4425 33.9342 36.3152 34.0231 36.1618L36.5373 31.7798C36.623 31.6265 36.6681 31.4535 36.6681 31.2776C36.6681 31.1016 36.623 30.9287 36.5373 30.7753ZM32.5682 34.618H28.6997L26.7688 31.2472L28.6997 27.8764H32.5682L34.5058 31.2472L32.5682 34.618Z" fill="currentColor"/>
<path d="M30.6373 17.2112C31.7883 17.2112 32.9134 16.8681 33.8705 16.2251C34.8275 15.5821 35.5734 14.6682 36.0139 13.5989C36.4543 12.5296 36.5696 11.3531 36.345 10.218C36.1205 9.08284 35.5662 8.04017 34.7523 7.2218C33.9385 6.40342 32.9015 5.8461 31.7726 5.62031C30.6438 5.39453 29.4736 5.51041 28.4103 5.95331C27.3469 6.39621 26.438 7.14624 25.7985 8.10854C25.1591 9.07085 24.8177 10.2022 24.8177 11.3596C24.8177 12.128 24.9683 12.8889 25.2607 13.5989C25.5532 14.3089 25.9819 14.954 26.5223 15.4973C27.6136 16.5947 29.0939 17.2112 30.6373 17.2112ZM30.6373 7.51687C31.3934 7.51553 32.1329 7.73977 32.7623 8.1612C33.3916 8.58263 33.8825 9.18231 34.1728 9.88435C34.463 10.5864 34.5397 11.3592 34.393 12.1051C34.2463 12.8509 33.8828 13.5363 33.3486 14.0744C32.8145 14.6125 32.1335 14.9791 31.392 15.1279C30.6505 15.2767 29.8818 15.201 29.1831 14.9104C28.4844 14.6197 27.8872 14.1272 27.4669 13.4951C27.0467 12.8631 26.8224 12.1199 26.8224 11.3596C26.8242 10.3421 27.2265 9.36677 27.9413 8.64671C28.6562 7.92664 29.6255 7.52043 30.6373 7.51687Z" fill="currentColor"/>
<path d="M39.8158 7.85391C39.5502 7.85569 39.2962 7.96302 39.109 8.15247C38.9219 8.34192 38.8168 8.59812 38.8168 8.86515V13.8944C38.8168 14.1626 38.9228 14.4198 39.1114 14.6094C39.3 14.7991 39.5558 14.9056 39.8225 14.9056C40.0892 14.9056 40.345 14.7991 40.5336 14.6094C40.7222 14.4198 40.8282 14.1626 40.8282 13.8944V8.84492C40.8264 8.71301 40.7989 8.58273 40.747 8.46153C40.6952 8.34033 40.6202 8.23059 40.5261 8.13856C40.4321 8.04654 40.321 7.97403 40.1991 7.92519C40.0773 7.87635 39.947 7.85213 39.8158 7.85391Z" fill="currentColor"/>
<path d="M39.8158 17.9056C39.5509 17.9056 39.2968 18.0114 39.1094 18.1998C38.9221 18.3882 38.8168 18.6437 38.8168 18.9101V20.6022H37.134C36.8673 20.6022 36.6115 20.7088 36.4229 20.8984C36.2343 21.0881 36.1283 21.3453 36.1283 21.6135C36.1283 21.8817 36.2343 22.1389 36.4229 22.3285C36.6115 22.5182 36.8673 22.6247 37.134 22.6247H38.8168V24.3034C38.8168 24.5716 38.9228 24.8288 39.1114 25.0184C39.3 25.208 39.5558 25.3146 39.8225 25.3146C40.0892 25.3146 40.345 25.208 40.5336 25.0184C40.7222 24.8288 40.8282 24.5716 40.8282 24.3034V18.9101C40.8291 18.7768 40.8034 18.6446 40.7527 18.5215C40.702 18.3983 40.6273 18.2866 40.5329 18.1929C40.4385 18.0993 40.3264 18.0256 40.2033 17.9763C40.0801 17.9269 39.9484 17.9029 39.8158 17.9056Z" fill="currentColor"/>
<path d="M27.875 20.6022C27.7429 20.6022 27.6122 20.6284 27.4901 20.6792C27.3681 20.73 27.2573 20.8045 27.1639 20.8984C27.0705 20.9923 26.9964 21.1038 26.9459 21.2265C26.8953 21.3492 26.8693 21.4807 26.8693 21.6135C26.8693 21.7463 26.8953 21.8778 26.9459 22.0005C26.9964 22.1231 27.0705 22.2346 27.1639 22.3285C27.2573 22.4224 27.3681 22.4969 27.4901 22.5477C27.6122 22.5985 27.7429 22.6247 27.875 22.6247H32.5011C32.7679 22.6247 33.0237 22.5182 33.2123 22.3285C33.4009 22.1389 33.5068 21.8817 33.5068 21.6135C33.5068 21.3453 33.4009 21.0881 33.2123 20.8984C33.0237 20.7088 32.7679 20.6022 32.5011 20.6022H27.875Z" fill="currentColor"/>
<path d="M39.8158 27.9236C39.5502 27.9254 39.2962 28.0327 39.109 28.2222C38.9219 28.4116 38.8168 28.6678 38.8168 28.9348V33.5596C38.8168 33.8278 38.9228 34.085 39.1114 34.2746C39.3 34.4643 39.5558 34.5708 39.8225 34.5708C40.0892 34.5708 40.345 34.4643 40.5336 34.2746C40.7222 34.085 40.8282 33.8278 40.8282 33.5596V28.9348C40.8291 28.8012 40.8035 28.6688 40.7528 28.5452C40.7022 28.4217 40.6276 28.3095 40.5333 28.2154C40.439 28.1212 40.327 28.0469 40.2038 27.9968C40.0806 27.9467 39.9487 27.9218 39.8158 27.9236Z" fill="currentColor"/>
<path d="M39.8158 37.1865C39.5509 37.1865 39.2968 37.2924 39.1094 37.4807C38.9221 37.6691 38.8168 37.9246 38.8168 38.191V39.8832H37.134C36.8673 39.8832 36.6115 39.9897 36.4229 40.1793C36.2343 40.369 36.1283 40.6262 36.1283 40.8944C36.1283 41.1626 36.2343 41.4198 36.4229 41.6094C36.6115 41.7991 36.8673 41.9056 37.134 41.9056H39.8158C39.9481 41.9056 40.0791 41.8792 40.2012 41.8279C40.3233 41.7766 40.434 41.7014 40.527 41.6067C40.6199 41.512 40.6932 41.3996 40.7426 41.2762C40.792 41.1528 40.8166 41.0207 40.8148 40.8876V38.191C40.8148 37.9246 40.7095 37.6691 40.5222 37.4807C40.3348 37.2924 40.0807 37.1865 39.8158 37.1865Z" fill="currentColor"/>
<path d="M32.5011 39.8832H27.875C27.6083 39.8832 27.3525 39.9897 27.1639 40.1794C26.9753 40.369 26.8693 40.6262 26.8693 40.8944C26.8693 41.1626 26.9753 41.4198 27.1639 41.6095C27.3525 41.7991 27.6083 41.9057 27.875 41.9057H32.5011C32.7679 41.9057 33.0237 41.7991 33.2123 41.6095C33.4009 41.4198 33.5068 41.1626 33.5068 40.8944C33.5068 40.6262 33.4009 40.369 33.2123 40.1794C33.0237 39.9897 32.7679 39.8832 32.5011 39.8832Z" fill="currentColor"/>
<path d="M16.5309 12.6202L13.1317 7.22696C12.8898 6.84277 12.5551 6.52635 12.1589 6.30712C11.7627 6.08788 11.3178 5.97296 10.8656 5.97302C10.4134 5.97296 9.96845 6.08788 9.57224 6.30712C9.17603 6.52635 8.8414 6.84277 8.59945 7.22696L5.19354 12.6202C4.93669 13.0281 4.79344 13.4978 4.77873 13.9803C4.76402 14.4628 4.87839 14.9404 5.10992 15.3634C5.34144 15.7863 5.68162 16.1389 6.09495 16.3845C6.50827 16.6301 6.97958 16.7596 7.45968 16.7595H14.2648C14.745 16.7584 15.216 16.6277 15.6288 16.3811C16.0416 16.1344 16.3809 15.7809 16.6114 15.3573C16.8479 14.9372 16.9654 14.46 16.9512 13.9775C16.937 13.4949 16.7917 13.0255 16.5309 12.6202ZM14.8615 14.3932C14.8031 14.5007 14.7167 14.59 14.6115 14.6518C14.5064 14.7136 14.3865 14.7454 14.2648 14.7438H7.45968C7.33794 14.7454 7.21807 14.7136 7.11295 14.6518C7.00782 14.59 6.92141 14.5007 6.86298 14.3932C6.80413 14.2908 6.77315 14.1745 6.77315 14.0562C6.77315 13.9378 6.80413 13.8216 6.86298 13.7191L10.2622 8.32583C10.3219 8.22677 10.4061 8.14486 10.5065 8.08802C10.6069 8.03117 10.7202 8.00131 10.8354 8.00131C10.9506 8.00131 11.0639 8.03117 11.1643 8.08802C11.2648 8.14486 11.3489 8.22677 11.4087 8.32583L14.8146 13.7191C14.8807 13.8174 14.9199 13.9315 14.9281 14.0498C14.9364 14.1682 14.9134 14.2867 14.8615 14.3932Z" fill="currentColor"/>
<path d="M15.1364 25.982H6.6216C6.49041 25.982 6.36051 26.008 6.2393 26.0585C6.1181 26.1089 6.00798 26.1829 5.91521 26.2762C5.82245 26.3695 5.74887 26.4802 5.69866 26.6021C5.64846 26.724 5.62262 26.8546 5.62262 26.9865V35.4944C5.62262 35.7608 5.72787 36.0163 5.91521 36.2046C6.10256 36.393 6.35665 36.4988 6.6216 36.4988H15.1364C15.3955 36.4901 15.641 36.3804 15.8212 36.193C16.0013 36.0055 16.102 35.755 16.1018 35.4944V26.9865C16.102 26.7258 16.0013 26.4753 15.8212 26.2879C15.641 26.1004 15.3955 25.9907 15.1364 25.982ZM14.1039 34.5033H7.62728V27.991H14.1039V34.5033Z" fill="currentColor"/>
<path d="M1.18419 4.81346C1.44913 4.81346 1.70323 4.70763 1.89057 4.51925C2.07792 4.33087 2.18316 4.07538 2.18316 3.80897V2.11683H3.86601C4.13273 2.11683 4.38853 2.01029 4.57713 1.82065C4.76573 1.63101 4.87169 1.37379 4.87169 1.1056C4.87169 0.8374 4.76573 0.580188 4.57713 0.390544C4.38853 0.200901 4.13273 0.0943604 3.86601 0.0943604H1.18419C1.05186 0.0943484 0.920856 0.12077 0.798772 0.172092C0.676688 0.223414 0.565961 0.298612 0.47302 0.393321C0.380079 0.48803 0.306777 0.600361 0.257369 0.723792C0.207962 0.847224 0.183433 0.979296 0.18521 1.11234V3.80897C0.18521 4.07538 0.290459 4.33087 0.477803 4.51925C0.665148 4.70763 0.919241 4.81346 1.18419 4.81346Z" fill="currentColor"/>
<path d="M8.53242 2.11683H13.2256C13.4923 2.11683 13.7481 2.01029 13.9367 1.82065C14.1253 1.63101 14.2313 1.37379 14.2313 1.1056C14.2313 0.8374 14.1253 0.580188 13.9367 0.390544C13.7481 0.200901 13.4923 0.0943604 13.2256 0.0943604H8.53242C8.26569 0.0943604 8.00989 0.200901 7.82129 0.390544C7.63269 0.580188 7.52673 0.8374 7.52673 1.1056C7.52673 1.37379 7.63269 1.63101 7.82129 1.82065C8.00989 2.01029 8.26569 2.11683 8.53242 2.11683Z" fill="currentColor"/>
<path d="M1.18422 14.8786C1.44917 14.8786 1.70326 14.7728 1.89061 14.5844C2.07795 14.396 2.1832 14.1405 2.1832 13.8741V8.84492C2.1832 8.57672 2.07725 8.31951 1.88864 8.12986C1.70004 7.94022 1.44424 7.83368 1.17752 7.83368C0.910796 7.83368 0.654997 7.94022 0.466395 8.12986C0.277793 8.31951 0.171838 8.57672 0.171838 8.84492V13.8741C0.170915 14.0074 0.196571 14.1396 0.24729 14.2628C0.298009 14.3859 0.372763 14.4976 0.467137 14.5913C0.56151 14.6849 0.673589 14.7586 0.796753 14.8079C0.919917 14.8573 1.05167 14.8813 1.18422 14.8786Z" fill="currentColor"/>
<path d="M23.222 0.107844H17.8584C17.5917 0.107844 17.3359 0.214384 17.1473 0.404028C16.9587 0.593671 16.8527 0.850883 16.8527 1.11908C16.8527 1.38728 16.9587 1.64449 17.1473 1.83413C17.3359 2.02377 17.5917 2.13032 17.8584 2.13032H19.5412V3.80897C19.5412 4.07716 19.6472 4.33438 19.8358 4.52402C20.0244 4.71366 20.2802 4.8202 20.5469 4.8202C20.8136 4.8202 21.0694 4.71366 21.2581 4.52402C21.4467 4.33438 21.5526 4.07716 21.5526 3.80897V2.11683H23.2287C23.4955 2.11683 23.7513 2.01029 23.9399 1.82065C24.1285 1.63101 24.2344 1.37379 24.2344 1.1056C24.2344 0.8374 24.1285 0.580188 23.9399 0.390544C23.7513 0.200901 23.4955 0.0943604 23.2287 0.0943604L23.222 0.107844Z" fill="currentColor"/>
<path d="M27.875 2.11683H32.5011C32.7679 2.11683 33.0237 2.01029 33.2123 1.82065C33.4009 1.63101 33.5068 1.37379 33.5068 1.1056C33.5068 0.8374 33.4009 0.580188 33.2123 0.390544C33.0237 0.200901 32.7679 0.0943604 32.5011 0.0943604H27.875C27.6083 0.0943604 27.3525 0.200901 27.1639 0.390544C26.9753 0.580188 26.8693 0.8374 26.8693 1.1056C26.8693 1.37379 26.9753 1.63101 27.1639 1.82065C27.3525 2.01029 27.6083 2.11683 27.875 2.11683Z" fill="currentColor"/>
<path d="M3.86602 20.6022H2.18318V18.9101C2.18318 18.6419 2.07722 18.3847 1.88862 18.195C1.70002 18.0054 1.44422 17.8989 1.1775 17.8989C0.910772 17.8989 0.654973 18.0054 0.466371 18.195C0.277769 18.3847 0.171814 18.6419 0.171814 18.9101V24.3034C0.171814 24.5716 0.277769 24.8288 0.466371 25.0184C0.654973 25.2081 0.910772 25.3146 1.1775 25.3146C1.44422 25.3146 1.70002 25.2081 1.88862 25.0184C2.07722 24.8288 2.18318 24.5716 2.18318 24.3034V22.6112H3.86602C4.13274 22.6112 4.38854 22.5047 4.57714 22.315C4.76574 22.1254 4.8717 21.8682 4.8717 21.6C4.8717 21.3318 4.76574 21.0746 4.57714 20.8849C4.38854 20.6953 4.13274 20.5888 3.86602 20.5888V20.6022Z" fill="currentColor"/>
<path d="M13.1987 22.6112C13.4655 22.6112 13.7213 22.5047 13.9099 22.315C14.0985 22.1254 14.2044 21.8682 14.2044 21.6C14.2044 21.3318 14.0985 21.0746 13.9099 20.8849C13.7213 20.6953 13.4655 20.5887 13.1987 20.5887H8.50556C8.23884 20.5887 7.98304 20.6953 7.79443 20.8849C7.60583 21.0746 7.49988 21.3318 7.49988 21.6C7.49988 21.8682 7.60583 22.1254 7.79443 22.315C7.98304 22.5047 8.23884 22.6112 8.50556 22.6112H13.1987Z" fill="currentColor"/>
<path d="M13.1987 39.8832H8.50556C8.23884 39.8832 7.98304 39.9897 7.79443 40.1794C7.60583 40.369 7.49988 40.6262 7.49988 40.8944C7.49988 41.1626 7.60583 41.4198 7.79443 41.6095C7.98304 41.7991 8.23884 41.9057 8.50556 41.9057H13.1987C13.4655 41.9057 13.7213 41.7991 13.9099 41.6095C14.0985 41.4198 14.2044 41.1626 14.2044 40.8944C14.2044 40.6262 14.0985 40.369 13.9099 40.1794C13.7213 39.9897 13.4655 39.8832 13.1987 39.8832Z" fill="currentColor"/>
<path d="M3.86602 39.8831H2.18318V38.191C2.18318 37.9228 2.07722 37.6656 1.88862 37.4759C1.70002 37.2863 1.44422 37.1797 1.1775 37.1797C0.910772 37.1797 0.654973 37.2863 0.466371 37.4759C0.277769 37.6656 0.171814 37.9228 0.171814 38.191V40.8876C0.171814 41.154 0.277063 41.4095 0.464408 41.5979C0.651752 41.7863 0.905846 41.8921 1.17079 41.8921H3.85261C4.11933 41.8921 4.37513 41.7856 4.56373 41.5959C4.75234 41.4063 4.85829 41.1491 4.85829 40.8809C4.85829 40.6127 4.75234 40.3555 4.56373 40.1658C4.37513 39.9762 4.11933 39.8696 3.85261 39.8696L3.86602 39.8831Z" fill="currentColor"/>
<path d="M1.18422 34.564C1.44917 34.564 1.70326 34.4582 1.89061 34.2698C2.07795 34.0814 2.1832 33.8259 2.1832 33.5595V28.9348C2.1832 28.6666 2.07725 28.4094 1.88864 28.2198C1.70004 28.0301 1.44424 27.9236 1.17752 27.9236C0.910796 27.9236 0.654997 28.0301 0.466395 28.2198C0.277793 28.4094 0.171838 28.6666 0.171838 28.9348V33.5595C0.170915 33.6929 0.196571 33.825 0.24729 33.9482C0.298009 34.0713 0.372763 34.1831 0.467137 34.2767C0.56151 34.3703 0.673589 34.444 0.796753 34.4934C0.919917 34.5427 1.05167 34.5667 1.18422 34.564Z" fill="currentColor"/>
<path d="M20.5402 14.8786C20.672 14.8795 20.8026 14.8542 20.9246 14.8041C21.0466 14.754 21.1575 14.6802 21.2509 14.5868C21.3444 14.4934 21.4186 14.3824 21.4692 14.2601C21.5199 14.1378 21.5459 14.0066 21.5459 13.8741V8.84492C21.5459 8.57672 21.44 8.31951 21.2514 8.12986C21.0627 7.94022 20.807 7.83368 20.5402 7.83368C20.2735 7.83368 20.0177 7.94022 19.8291 8.12986C19.6405 8.31951 19.5345 8.57672 19.5345 8.84492V13.8741C19.5345 14.0066 19.5606 14.1378 19.6112 14.2601C19.6618 14.3824 19.736 14.4934 19.8295 14.5868C19.923 14.6802 20.0339 14.754 20.1559 14.8041C20.2779 14.8542 20.4085 14.8795 20.5402 14.8786Z" fill="currentColor"/>
<path d="M23.222 20.6022H21.5459V18.9101C21.5459 18.6419 21.4399 18.3847 21.2513 18.195C21.0627 18.0054 20.8069 17.8989 20.5402 17.8989C20.2735 17.8989 20.0177 18.0054 19.8291 18.195C19.6405 18.3847 19.5345 18.6419 19.5345 18.9101V20.6022H17.8584C17.7263 20.6022 17.5956 20.6284 17.4735 20.6792C17.3515 20.73 17.2407 20.8045 17.1473 20.8984C17.0539 20.9923 16.9798 21.1038 16.9293 21.2265C16.8787 21.3492 16.8527 21.4807 16.8527 21.6135C16.8527 21.7463 16.8787 21.8778 16.9293 22.0005C16.9798 22.1231 17.0539 22.2346 17.1473 22.3285C17.2407 22.4224 17.3515 22.4969 17.4735 22.5477C17.5956 22.5985 17.7263 22.6247 17.8584 22.6247H19.5412V24.3034C19.5412 24.5716 19.6472 24.8288 19.8358 25.0184C20.0244 25.2081 20.2802 25.3146 20.5469 25.3146C20.8136 25.3146 21.0694 25.2081 21.2581 25.0184C21.4467 24.8288 21.5526 24.5716 21.5526 24.3034V22.6112H23.2287C23.4955 22.6112 23.7513 22.5047 23.9399 22.315C24.1285 22.1254 24.2344 21.8682 24.2344 21.6C24.2344 21.3318 24.1285 21.0746 23.9399 20.8849C23.7513 20.6953 23.4955 20.5888 23.2287 20.5888L23.222 20.6022Z" fill="currentColor"/>
<path d="M23.222 39.8831H21.5459V38.191C21.5459 37.9228 21.4399 37.6656 21.2513 37.4759C21.0627 37.2863 20.8069 37.1797 20.5402 37.1797C20.2735 37.1797 20.0177 37.2863 19.8291 37.4759C19.6405 37.6656 19.5345 37.9228 19.5345 38.191V39.8831H17.8584C17.5917 39.8831 17.3359 39.9897 17.1473 40.1793C16.9587 40.3689 16.8527 40.6262 16.8527 40.8944C16.8527 41.1626 16.9587 41.4198 17.1473 41.6094C17.3359 41.7991 17.5917 41.9056 17.8584 41.9056H23.222C23.4888 41.9056 23.7446 41.7991 23.9332 41.6094C24.1218 41.4198 24.2277 41.1626 24.2277 40.8944C24.2277 40.6262 24.1218 40.3689 23.9332 40.1793C23.7446 39.9897 23.4888 39.8831 23.222 39.8831Z" fill="currentColor"/>
<path d="M20.5402 34.564C20.672 34.5649 20.8026 34.5396 20.9246 34.4895C21.0466 34.4394 21.1575 34.3656 21.2509 34.2722C21.3444 34.1789 21.4186 34.0678 21.4692 33.9455C21.5199 33.8232 21.5459 33.692 21.5459 33.5595V28.9348C21.5459 28.6666 21.44 28.4094 21.2514 28.2198C21.0627 28.0301 20.807 27.9236 20.5402 27.9236C20.2735 27.9236 20.0177 28.0301 19.8291 28.2198C19.6405 28.4094 19.5345 28.6666 19.5345 28.9348V33.5595C19.5345 33.692 19.5606 33.8232 19.6112 33.9455C19.6618 34.0678 19.736 34.1789 19.8295 34.2722C19.923 34.3656 20.0339 34.4394 20.1559 34.4895C20.2779 34.5396 20.4085 34.5649 20.5402 34.564Z" fill="currentColor"/>
</g>
<defs>
<clipPath id="clip0_625_126484">
<rect width="41" height="42" fill="white"/>
</clipPath>
</defs>
</svg>
