<svg width="31" height="25" viewBox="0 0 31 25" fill="none" xmlns="http://www.w3.org/2000/svg">
<path d="M14.0312 24C14.3594 24.0938 14.6406 23.9062 14.7344 23.625L21.1562 1.59375C21.25 1.26562 21.0625 0.9375 20.7812 0.890625L17.9219 0.046875C17.5938 -0.046875 17.3125 0.140625 17.2188 0.421875L10.7969 22.4531C10.7031 22.7812 10.8906 23.0625 11.1719 23.1562L14.0312 24ZM8.6875 18.75L10.75 16.5469C10.9844 16.3125 10.9375 15.9844 10.7031 15.75L6.48438 12L10.7031 8.29688C10.9375 8.0625 10.9844 7.6875 10.75 7.5L8.6875 5.29688C8.5 5.0625 8.125 5.0625 7.89062 5.29688L1.14062 11.625C0.90625 11.8125 0.90625 12.1875 1.14062 12.4219L7.89062 18.75C8.125 18.9844 8.5 18.9844 8.6875 18.75ZM24.0625 18.75L30.8125 12.4219C31.0469 12.2344 31.0469 11.8125 30.8125 11.625L24.0625 5.29688C23.8281 5.0625 23.4531 5.0625 23.2656 5.29688L21.2031 7.45312C21.0156 7.6875 21.0156 8.0625 21.25 8.29688L25.5156 12L21.25 15.75C21.0156 15.9844 20.9688 16.3125 21.2031 16.5469L23.2656 18.75C23.4531 18.9844 23.8281 18.9844 24.0625 18.75Z" fill="#085A7D"/>
</svg>
