<svg width="293" height="293" viewBox="0 0 293 293" fill="none" xmlns="http://www.w3.org/2000/svg">
<path d="M22.8771 65.7718C32.3531 65.7718 40.0349 58.0899 40.0349 48.6139C40.0349 39.1379 32.3531 31.4561 22.8771 31.4561C13.4011 31.4561 5.71924 39.1379 5.71924 48.6139C5.71924 58.0899 13.4011 65.7718 22.8771 65.7718Z" fill="#5AD2E6"/>
<path d="M115.53 8.57892C90.26 8.57892 69.7753 29.0637 69.7753 54.3332C69.7753 79.6027 90.26 100.087 115.53 100.087C140.799 100.087 161.284 79.6027 161.284 54.3332C161.284 29.0637 140.799 8.57892 115.53 8.57892Z" fill="#ECD843"/>
<path d="M115.53 77.2103C128.164 77.2103 138.407 66.9679 138.407 54.3332C138.407 41.6985 128.164 31.4561 115.53 31.4561C102.895 31.4561 92.6525 41.6985 92.6525 54.3332C92.6525 66.9679 102.895 77.2103 115.53 77.2103Z" fill="#ECD843"/>
<path d="M45.7543 157.28C55.2303 157.28 62.9121 149.598 62.9121 140.122C62.9121 130.646 55.2303 122.965 45.7543 122.965C36.2783 122.965 28.5964 130.646 28.5964 140.122C28.5964 149.598 36.2783 157.28 45.7543 157.28Z" fill="#CDE9F4"/>
<path d="M112.098 198.459C121.574 198.459 129.256 190.777 129.256 181.301C129.256 171.825 121.574 164.143 112.098 164.143C102.622 164.143 94.9402 171.825 94.9402 181.301C94.9402 190.777 102.622 198.459 112.098 198.459Z" fill="#5AD2E6"/>
<path d="M189.88 180.158C199.356 180.158 207.038 172.476 207.038 163C207.038 153.524 199.356 145.842 189.88 145.842C180.404 145.842 172.722 153.524 172.722 163C172.722 172.476 180.404 180.158 189.88 180.158Z" fill="#5AD2E6"/>
<path d="M251.649 130.972C261.125 130.972 268.806 123.29 268.806 113.814C268.806 104.338 261.125 96.6559 251.649 96.6559C242.173 96.6559 234.491 104.338 234.491 113.814C234.491 123.29 242.173 130.972 251.649 130.972Z" fill="#5AD2E6"/>
<path d="M228.771 40.0351C238.247 40.0351 245.929 32.3532 245.929 22.8772C245.929 13.4012 238.247 5.71936 228.771 5.71936C219.295 5.71936 211.614 13.4012 211.614 22.8772C211.614 32.3532 219.295 40.0351 228.771 40.0351Z" fill="#CDE9F4"/>
<path d="M62.9121 287.108C72.3881 287.108 80.07 279.426 80.07 269.95C80.07 260.474 72.3881 252.792 62.9121 252.792C53.4361 252.792 45.7543 260.474 45.7543 269.95C45.7543 279.426 53.4361 287.108 62.9121 287.108Z" fill="#CDE9F4"/>
<path d="M247.073 287.108C256.549 287.108 264.231 279.426 264.231 269.95C264.231 260.474 256.549 252.792 247.073 252.792C237.597 252.792 229.915 260.474 229.915 269.95C229.915 279.426 237.597 287.108 247.073 287.108Z" fill="#5AD2E6"/>
<path d="M144.226 54.3332C144.226 38.5652 131.389 25.7368 115.61 25.7368C99.8301 25.7368 86.9932 38.5652 86.9932 54.3332C86.9932 70.1013 99.8301 82.9297 115.61 82.9297C131.389 82.9297 144.226 70.1013 144.226 54.3332ZM98.4397 54.3332C98.4397 44.8724 106.142 37.1754 115.61 37.1754C125.077 37.1754 132.779 44.8724 132.779 54.3332C132.779 63.7941 125.077 71.4911 115.61 71.4911C106.142 71.4911 98.4397 63.7941 98.4397 54.3332Z" fill="#06425C"/>
<path d="M154.528 264.231C151.368 264.231 148.804 266.799 148.804 269.95C148.804 273.102 151.368 275.67 154.528 275.67C157.681 275.67 160.251 273.102 160.251 269.95C160.251 266.799 157.681 264.231 154.528 264.231Z" fill="#06425C"/>
<path d="M6.86252 207.083C5.41611 207.079 3.96227 207.603 2.85616 208.691C0.601049 210.899 0.566734 214.525 2.77552 216.778C4.95457 219.001 8.65437 219.035 10.8689 216.859C13.1234 214.651 13.1583 211.025 10.9489 208.772C9.86229 207.663 8.36669 207.087 6.86252 207.083Z" fill="#06425C"/>
<path d="M290.146 54.5105C289.236 53.9386 288.183 53.6355 287.113 53.6355C285.127 53.6355 283.313 54.6364 282.26 56.3178C281.447 57.6104 281.184 59.1432 281.527 60.6302C281.871 62.1172 282.769 63.3869 284.063 64.199C284.979 64.7709 286.026 65.0741 287.102 65.0741C289.088 65.0741 290.902 64.0732 291.955 62.3917C293.632 59.7208 292.819 56.1863 290.146 54.5105Z" fill="#06425C"/>
<path d="M278.053 73.6472C277.12 73.041 276.038 72.7207 274.928 72.7207C272.987 72.7207 271.19 73.6873 270.132 75.3115L259.139 92.1417C256.839 91.3644 254.381 90.9366 251.822 90.9366C239.199 90.9366 228.929 101.199 228.929 113.814C228.929 117.132 229.646 120.285 230.923 123.133L203.778 144.734C199.944 141.841 195.176 140.122 190.012 140.122C187.276 140.122 184.652 140.606 182.219 141.489L149.226 93.3027C160.177 83.8562 167.119 69.8897 167.119 54.3332C167.119 51.5496 166.894 48.8175 166.466 46.1523L209.116 34.3134C213.08 41.1457 220.474 45.7543 228.93 45.7543C235.013 45.7543 240.545 43.3665 244.649 39.4859L264.672 52.0398C265.588 52.6117 266.635 52.9148 267.711 52.9148C269.691 52.9148 271.505 51.914 272.559 50.2325C274.241 47.5616 273.429 44.0271 270.756 42.3513L250.747 29.8061C251.444 27.619 251.824 25.2918 251.824 22.8771C251.824 10.2627 241.553 0 228.93 0C216.307 0 206.037 10.2627 206.037 22.8771C206.037 23.0167 206.045 23.154 206.048 23.2929L163.399 35.1319C155.767 16.2325 137.223 2.85964 115.61 2.85964C90.2303 2.85964 69.0815 21.298 64.8664 45.4729L45.3665 44.2701C43.3299 33.7266 34.0297 25.7368 22.8932 25.7368C10.2701 25.7368 0 35.9995 0 48.6139C0 61.2284 10.2701 71.4911 22.8932 71.4911C33.0466 71.4911 41.6724 64.8493 44.6613 55.687L64.1647 56.8903C64.8046 69.9057 70.3066 81.6634 78.8872 90.3893L55.3278 119.336C52.4207 117.997 49.1904 117.245 45.7863 117.245C33.1633 117.245 22.8932 127.508 22.8932 140.122C22.8932 146.61 25.6138 152.471 29.9696 156.638L11.12 190.275C9.57466 193.026 10.5652 196.52 13.3174 198.058C16.0426 199.582 19.5828 198.578 21.107 195.868L39.9498 162.243C41.8143 162.735 43.7697 163 45.7863 163C58.4093 163 68.6795 152.737 68.6795 140.122C68.6795 135.047 67.0146 130.355 64.2053 126.556L87.7596 97.6156C93.9055 101.578 100.947 104.268 108.505 105.315L107.053 159.009C96.8893 161.34 89.2826 170.447 89.2826 181.301C89.2826 187.822 92.0313 193.709 96.4254 197.88L68.7063 247.805C66.8682 247.328 64.9413 247.073 62.9556 247.073C58.7965 247.073 54.8971 248.193 51.5319 250.138C51.5319 250.138 27.0322 225.165 26.9733 225.105C24.8011 222.891 21.0899 222.865 18.8811 225.025C16.6746 227.182 16.6471 230.926 18.7999 233.112L43.355 258.142C41.2658 261.591 40.0619 265.633 40.0619 269.95C40.0619 282.565 50.332 292.827 62.955 292.827C73.6026 292.827 82.5756 285.526 85.1236 275.67H131.634C134.788 275.67 137.357 273.102 137.357 269.95C137.357 266.799 134.788 264.231 131.634 264.231H85.1236C84.0352 260.02 81.7692 256.279 78.7054 253.371L106.424 203.446C108.263 203.923 110.189 204.178 112.175 204.178C113.819 204.178 115.422 204 116.969 203.669C116.969 203.669 140.23 250.16 140.251 250.202C141.612 252.922 145.106 254.171 147.929 252.76C150.757 251.347 151.902 247.912 150.489 245.086L127.2 198.539C131.899 194.444 134.913 188.469 135.056 181.796L169.754 173.637C173.593 180.907 181.231 185.876 190.012 185.876C191.873 185.876 193.682 185.647 195.416 185.226L231.751 253.125C228.555 256.067 226.195 259.9 225.076 264.23H177.42C174.261 264.23 171.697 266.798 171.697 269.949C171.697 273.1 174.261 275.668 177.42 275.668H225.076C227.624 285.524 236.597 292.826 247.244 292.826C259.867 292.826 270.137 282.564 270.137 269.949C270.137 257.335 259.867 247.072 247.244 247.072C245.382 247.072 243.573 247.301 241.84 247.722L205.505 179.822C210.05 175.639 212.905 169.647 212.905 162.998C212.905 159.68 212.188 156.528 210.911 153.679L238.057 132.078C241.891 134.971 246.66 136.69 251.823 136.69C264.446 136.69 274.716 126.427 274.716 113.813C274.716 107.879 272.443 102.467 268.722 98.3969L279.719 81.5616C281.441 78.9261 280.697 75.3745 278.053 73.6472ZM228.93 11.4386C235.208 11.4386 239.46 16.2634 240.081 22.2726C240.749 28.7451 235.43 34.3157 228.93 34.3157C224.588 34.3157 220.803 31.8862 218.863 28.3168C215.194 18.8736 221.49 11.4386 228.93 11.4386ZM22.8932 60.0525C16.5814 60.0525 11.4466 54.9212 11.4466 48.6139C11.4466 42.3067 16.5814 37.1754 22.8932 37.1754C29.205 37.1754 34.3397 42.3067 34.3397 48.6139C34.3397 54.9212 29.205 60.0525 22.8932 60.0525ZM45.7863 151.561C39.4745 151.561 34.3397 146.43 34.3397 140.122C34.3397 133.815 39.4745 128.684 45.7863 128.684C52.0981 128.684 57.2329 133.815 57.2329 140.122C57.2329 146.43 52.0975 151.561 45.7863 151.561ZM72.8534 275.67C70.8705 279.083 67.1816 281.389 62.9556 281.389C56.6438 281.389 51.509 276.257 51.509 269.95C51.509 263.643 56.6438 258.512 62.9556 258.512C69.2674 258.512 74.4022 263.643 74.4022 269.95C74.4022 272.81 72.8534 275.67 72.8534 275.67ZM75.5472 54.3332C75.5472 32.2579 93.5195 14.2982 115.61 14.2982C137.701 14.2982 155.673 32.2579 155.673 54.3332C155.673 76.4085 137.701 94.3682 115.61 94.3682C93.5195 94.3682 75.5472 76.4085 75.5472 54.3332ZM112.176 192.74C105.864 192.74 100.729 187.609 100.729 181.301C100.729 174.994 105.864 169.863 112.176 169.863C118.488 169.863 123.622 174.994 123.622 181.301C123.622 187.609 118.488 192.74 112.176 192.74ZM172.775 147.957C169.282 151.959 167.245 157.203 167.123 162.512C155.563 165.231 144.004 167.95 132.443 170.668C132.681 170.612 127.259 164.112 126.61 163.582C124.222 161.634 121.458 160.17 118.495 159.318L119.947 105.623C127.067 105.027 133.779 102.977 139.786 99.7729C150.518 115.447 161.234 131.133 171.996 146.786C172.26 147.171 172.525 147.555 172.789 147.94C172.785 147.945 172.78 147.951 172.775 147.957ZM194.746 173.401C194.114 173.303 190.755 174.438 190.012 174.438C183.7 174.438 178.565 169.307 178.565 163C178.565 156.924 183.828 151.561 190.012 151.561C196.324 151.561 201.458 156.692 201.458 163C201.458 167.619 198.699 171.597 194.746 173.401ZM247.245 258.512C253.556 258.512 258.691 263.643 258.691 269.95C258.691 276.257 253.556 281.389 247.245 281.389C240.933 281.389 235.798 276.257 235.798 269.95C235.798 263.643 240.933 258.512 247.245 258.512ZM251.823 125.252C245.511 125.252 240.376 120.121 240.376 113.814C240.376 107.507 245.511 102.375 251.823 102.375C258.135 102.375 263.27 107.507 263.27 113.814C263.27 120.121 258.135 125.252 251.823 125.252Z" fill="#06425C"/>
</svg>
