<svg width="434" height="246" viewBox="0 0 434 246" fill="none" xmlns="http://www.w3.org/2000/svg">
<g clip-path="url(#clip0)">
<path d="M366.537 75.5651C366.537 72.2275 369.243 69.5219 372.58 69.5219H398.433V33.8001H300.642V82.3593C300.642 86.3257 303.857 89.541 307.823 89.541H366.537C366.537 86.6398 366.537 78.4701 366.537 75.5651Z" fill="white"/>
<path d="M398.433 17.5117C398.433 13.5453 395.218 10.33 391.251 10.33H307.823C303.857 10.3303 300.642 13.5456 300.642 17.5117V33.7998H398.433V17.5117ZM313.097 26.2781C310.625 26.2781 308.621 24.2739 308.621 21.8014C308.621 19.3291 310.625 17.3247 313.097 17.3247C315.57 17.3247 317.574 19.3289 317.574 21.8014C317.574 24.2739 315.57 26.2781 313.097 26.2781ZM330.321 26.2781C327.849 26.2781 325.844 24.2739 325.844 21.8014C325.844 19.3291 327.848 17.3247 330.321 17.3247C332.793 17.3247 334.798 19.3289 334.798 21.8014C334.797 24.2739 332.793 26.2781 330.321 26.2781ZM347.544 26.2781C345.072 26.2781 343.067 24.2739 343.067 21.8014C343.067 19.3291 345.071 17.3247 347.544 17.3247C350.017 17.3247 352.021 19.3291 352.021 21.8014C352.021 24.2739 350.017 26.2781 347.544 26.2781Z" fill="#CDE9F4"/>
<path d="M316.258 24.9659C318.006 23.2179 318.006 20.3838 316.258 18.6358C314.51 16.8878 311.676 16.8878 309.928 18.6358C308.18 20.3838 308.18 23.2179 309.928 24.9659C311.676 26.7139 314.51 26.7139 316.258 24.9659Z" fill="#33B9F1"/>
<path d="M333.48 24.9675C335.228 23.2195 335.228 20.3854 333.48 18.6374C331.732 16.8894 328.898 16.8894 327.15 18.6374C325.402 20.3854 325.402 23.2195 327.15 24.9675C328.898 26.7155 331.732 26.7155 333.48 24.9675Z" fill="#ECD843"/>
<path d="M347.544 26.2781C350.017 26.2781 352.021 24.2738 352.021 21.8014C352.021 19.329 350.017 17.3247 347.544 17.3247C345.072 17.3247 343.067 19.329 343.067 21.8014C343.067 24.2738 345.072 26.2781 347.544 26.2781Z" fill="white"/>
<path d="M430.608 84.6403V83.2313H429.2C429.72 83.6476 430.193 84.1202 430.608 84.6403Z" fill="white"/>
<path d="M423.614 99.1792C418.669 99.1792 414.661 95.1706 414.661 90.226C414.661 87.3955 415.974 84.872 418.025 83.2313H366.537V114.474L383.015 97.6727C387.07 93.5383 393.69 93.4136 397.897 97.3927L411.517 110.272C414.162 112.773 418.2 113.072 421.184 110.987L430.608 104.402V95.8117C428.968 97.8637 426.445 99.1792 423.614 99.1792Z" fill="white"/>
<path d="M429.2 83.2313H418.024C415.974 84.872 414.66 87.3955 414.66 90.226C414.66 95.1708 418.669 99.1792 423.614 99.1792C426.445 99.1792 428.968 97.8634 430.608 95.8117V84.6403C430.192 84.1202 429.72 83.6476 429.2 83.2313Z" fill="#33B9F1"/>
<path d="M424.565 69.5217H398.433H372.58C369.243 69.5217 366.537 72.2272 366.537 75.5649V83.2311H430.609V75.5649C430.608 72.2275 427.903 69.5217 424.565 69.5217Z" fill="#CDE9F4"/>
<path d="M411.517 110.272L397.897 97.3929C393.69 93.4139 387.07 93.5386 383.015 97.673L366.537 114.475V118.877C366.537 122.214 369.243 124.92 372.58 124.92H424.565C427.903 124.92 430.608 122.214 430.608 118.877V104.402L421.184 110.987C418.2 113.072 414.162 112.773 411.517 110.272Z" fill="#ECD843"/>
<path d="M424.565 66.8801H401.074C401.074 64.1793 401.074 20.4708 401.074 17.5117C401.074 12.0951 396.668 7.68839 391.251 7.68839H307.823C302.407 7.68865 298 12.0954 298 17.5117V82.3593C298 87.7759 302.407 92.1826 307.823 92.1826H363.896V114.474V118.877C363.896 123.666 367.791 127.561 372.58 127.561H424.565C429.354 127.561 433.25 123.665 433.25 118.877C433.25 105.552 433.25 89.2241 433.25 75.5651C433.25 70.7762 429.354 66.8801 424.565 66.8801ZM369.178 89.541V85.8729H412.864C409.035 95.3336 418.506 104.804 427.967 100.975V103.025L419.671 108.821C417.724 110.182 415.058 109.985 413.332 108.353L399.712 95.4736C394.494 90.539 386.158 90.6962 381.129 95.8233L369.178 108.008V89.541ZM419.046 85.8729H427.967V94.7944C426.798 95.9113 425.253 96.5379 423.614 96.5379C418.064 96.5379 415.242 89.8512 419.046 85.8729ZM427.967 75.5651V80.5897C426.225 80.5897 370.921 80.5897 369.178 80.5897V75.5651C369.178 73.6893 370.705 72.1635 372.58 72.1635H424.565C426.441 72.1633 427.967 73.6893 427.967 75.5651ZM307.823 86.8994C305.32 86.8994 303.283 84.8628 303.283 82.3593V36.4417H367.474C368.933 36.4417 370.116 35.259 370.116 33.8001C370.116 32.3411 368.933 31.1585 367.474 31.1585H303.283V17.512C303.283 15.0085 305.32 12.9719 307.823 12.9719H391.251C393.755 12.9719 395.791 15.0085 395.791 17.512V31.1585H388.607C387.148 31.1585 385.965 32.3411 385.965 33.8001C385.965 35.259 387.148 36.4417 388.607 36.4417H395.791V66.8801H372.58C367.791 66.8801 363.895 70.7762 363.895 75.5649V86.8992H307.823V86.8994ZM427.967 118.877C427.967 120.752 426.441 122.278 424.565 122.278H372.58C370.704 122.278 369.178 120.752 369.178 118.877V115.554L384.902 99.5226C387.927 96.438 392.943 96.3432 396.082 99.3123L409.702 112.191C413.241 115.538 418.706 115.941 422.697 113.152L427.967 109.47V118.877Z" fill="#043145"/>
<path d="M313.097 14.6833C309.172 14.6833 305.979 17.8765 305.979 21.8014C305.979 25.7263 309.172 28.9197 313.097 28.9197C317.022 28.9197 320.216 25.7266 320.216 21.8014C320.216 17.8763 317.022 14.6833 313.097 14.6833ZM313.097 23.6365C312.086 23.6365 311.262 22.8134 311.262 21.8014C311.262 20.7897 312.086 19.9666 313.097 19.9666C314.109 19.9666 314.932 20.7897 314.932 21.8014C314.932 22.8134 314.109 23.6365 313.097 23.6365Z" fill="#043145"/>
<path d="M330.321 14.6833C326.396 14.6833 323.203 17.8765 323.203 21.8014C323.203 25.7263 326.396 28.9197 330.321 28.9197C334.246 28.9197 337.439 25.7266 337.439 21.8014C337.439 17.8763 334.246 14.6833 330.321 14.6833ZM330.321 23.6365C329.309 23.6365 328.486 22.8134 328.486 21.8014C328.486 20.7897 329.309 19.9666 330.321 19.9666C331.332 19.9666 332.156 20.7897 332.156 21.8014C332.156 22.8134 331.332 23.6365 330.321 23.6365Z" fill="#043145"/>
<path d="M347.544 14.6833C343.619 14.6833 340.426 17.8765 340.426 21.8014C340.426 25.7263 343.619 28.9197 347.544 28.9197C351.469 28.9197 354.662 25.7266 354.662 21.8014C354.662 17.8763 351.469 14.6833 347.544 14.6833ZM347.544 23.6365C346.532 23.6365 345.709 22.8134 345.709 21.8014C345.709 20.7897 346.532 19.9666 347.544 19.9666C348.556 19.9666 349.379 20.7897 349.379 21.8014C349.379 22.8134 348.556 23.6365 347.544 23.6365Z" fill="#043145"/>
<path d="M342.025 54.5837C342.978 53.479 342.855 51.8108 341.75 50.858C340.645 49.9046 338.977 50.028 338.024 51.1324L333.659 56.1924C331.79 58.359 331.79 61.6262 333.659 63.7928L338.024 68.8528C338.976 69.9554 340.644 70.0817 341.75 69.1273C342.855 68.1744 342.978 66.5063 342.025 65.4016L337.659 60.3418C337.488 60.1429 337.488 59.8426 337.659 59.6437L342.025 54.5837Z" fill="#043145"/>
<path d="M365.416 56.1921L361.05 51.1322C360.097 50.0277 358.429 49.9049 357.324 50.8577C356.22 51.8105 356.097 53.4787 357.05 54.5834L361.415 59.6431C361.587 59.842 361.587 60.1424 361.415 60.3413L357.05 65.4013C356.097 66.506 356.22 68.1742 357.324 69.127C358.431 70.082 360.099 69.9549 361.05 68.8525L365.416 63.7926C367.284 61.6262 367.284 58.3588 365.416 56.1921Z" fill="#043145"/>
<path d="M351.538 48.5783C350.101 48.3226 348.73 49.2812 348.475 50.7177L345.397 68.0646C345.111 69.6802 346.352 71.1682 348.001 71.1682C349.258 71.1682 350.372 70.2679 350.599 68.9878L353.677 51.6409C353.932 50.2042 352.974 48.8332 351.538 48.5783Z" fill="#043145"/>
<path d="M378.047 36.4417C379.506 36.4417 380.689 35.259 380.689 33.8001C380.689 32.3411 379.506 31.1585 378.047 31.1585H378.041C376.582 31.1585 375.402 32.3411 375.402 33.8001C375.402 35.259 376.588 36.4417 378.047 36.4417Z" fill="#043145"/>
</g>
<path d="M297.12 107.086H271.4V121.169H276.012C279.55 121.169 282.418 124.037 282.418 127.575V165.966C282.418 176.069 274.228 184.26 264.125 184.26C254.021 184.26 245.831 176.069 245.831 165.966V127.575C245.831 124.037 248.699 121.169 252.237 121.169H256.85V107.086H206.311V168.179C206.311 177.219 198.983 184.547 189.944 184.547C180.904 184.547 173.576 177.219 173.576 168.179V107.086H152.88C146.047 107.086 140.509 112.624 140.509 119.457V196.61H309.491V119.457C309.491 112.624 303.952 107.086 297.12 107.086Z" fill="white"/>
<path d="M140.509 205.521C140.509 212.354 146.047 217.892 152.88 217.892H213.172H236.827H297.12C303.952 217.892 309.491 212.354 309.491 205.521V196.61H140.509V205.521Z" fill="#1A96CA"/>
<path d="M189.944 184.547C198.984 184.547 206.312 177.219 206.312 168.179V107.086V91.306C206.312 83.1804 210.882 75.7455 218.132 72.0765C226.22 67.9837 231.318 59.6897 231.318 50.6254V45.3725C231.318 36.3879 226.517 28.0877 218.73 23.6074C215.487 21.742 211.4 23.8394 211.024 27.5609L209.956 38.1402C208.919 48.4149 200.27 56.2345 189.944 56.2345C179.617 56.2345 170.968 48.4144 169.931 38.1402L168.863 27.5609C168.487 23.8394 164.4 21.742 161.158 23.6074C153.37 28.0877 148.57 36.3879 148.57 45.3725V50.6254C148.57 59.6897 153.668 67.9837 161.755 72.0765C169.006 75.7455 173.576 83.1804 173.576 91.306V168.179C173.576 177.219 180.904 184.547 189.944 184.547Z" fill="#CDE9F4"/>
<path d="M252.237 121.169C248.699 121.169 245.83 124.037 245.83 127.575V165.966C245.83 176.069 254.021 184.26 264.124 184.26C274.227 184.26 282.418 176.069 282.418 165.966V127.575C282.418 124.037 279.55 121.169 276.011 121.169C266.974 121.169 257.119 121.169 252.237 121.169Z" fill="#33B9F1"/>
<path d="M271.4 121.169V107.086V66.922C271.4 63.6695 272.942 60.6097 275.556 58.6748C278.883 56.2118 280.846 52.3176 280.846 48.1779V30.3694C280.846 25.9974 277.301 22.4531 272.929 22.4531H255.32C250.948 22.4531 247.404 25.9974 247.404 30.3694V48.1784C247.404 52.318 249.366 56.2123 252.693 58.6753C255.307 60.6102 256.85 63.6699 256.85 66.9225V121.169H271.4V121.169Z" fill="#ECD843"/>
<path d="M208.626 241.547H241.374L236.827 217.892H213.172L208.626 241.547Z" fill="#ECD843"/>
<path d="M313.944 119.457C313.944 110.18 306.397 102.633 297.12 102.633H275.852V66.922C275.852 65.0896 276.732 63.3448 278.205 62.2547C282.647 58.967 285.299 53.7047 285.299 48.1784V30.3694C285.299 23.549 279.75 18 272.929 18H255.32C248.499 18 242.95 23.549 242.95 30.3694V48.1779C242.95 53.7043 245.602 58.9665 250.044 62.2543C251.517 63.3444 252.396 65.0891 252.396 66.9216V102.632H210.765V91.3051C210.765 84.8218 214.358 78.9757 220.143 76.0487C229.783 71.1703 235.772 61.4282 235.772 50.624V45.3725C235.772 34.8257 230.092 25.0065 220.951 19.747C214.907 16.2704 207.294 20.1865 206.595 27.1129L205.527 37.6931C204.716 45.7247 198.018 51.7819 189.945 51.7819C181.872 51.7819 175.173 45.7247 174.363 37.6926L173.295 27.1129C172.595 20.178 164.975 16.2753 158.939 19.747C149.796 25.0061 144.116 34.8257 144.116 45.3725V50.6254C144.116 61.4295 150.105 71.1716 159.745 76.05C165.529 78.9771 169.123 84.8231 169.123 91.3064V102.633H152.88C143.603 102.633 136.056 110.18 136.056 119.457C136.056 122.843 136.055 202.127 136.055 205.522C136.055 214.799 143.603 222.346 152.88 222.346H207.782L204.947 237.094H194.31C191.851 237.094 189.857 239.088 189.857 241.547C189.857 244.006 191.851 246 194.31 246H255.689C258.149 246 260.143 244.006 260.143 241.547C260.143 239.088 258.149 237.094 255.689 237.094H245.053L242.218 222.345H297.12C306.397 222.345 313.944 214.798 313.944 205.521C313.944 202.124 313.944 122.855 313.944 119.457ZM250.283 165.966V127.575C250.283 126.498 251.16 125.622 252.237 125.622H276.012C277.089 125.622 277.965 126.498 277.965 127.575V165.966C277.965 173.598 271.756 179.807 264.125 179.807C256.483 179.807 250.283 173.588 250.283 165.966ZM251.856 48.1784V30.3694C251.856 28.4599 253.41 26.9062 255.32 26.9062H272.929C274.839 26.9062 276.393 28.4599 276.393 30.3694V48.1779C276.393 50.8939 275.089 53.4798 272.907 55.0954C269.174 57.8573 266.946 62.2788 266.946 66.922V116.716H261.302C261.302 112.001 261.302 72.643 261.302 66.922C261.302 62.2788 259.074 57.8581 255.342 55.0954C253.159 53.4803 251.856 50.8939 251.856 48.1784ZM163.766 68.103C157.139 64.7498 153.023 58.0523 153.023 50.6254V45.3725C153.023 38.003 156.991 31.1421 163.378 27.4669C163.848 27.1975 164.383 27.5172 164.433 28.008L165.5 38.5872C166.771 51.1869 177.28 60.6881 189.944 60.6881C202.607 60.6881 213.115 51.1869 214.387 38.5877L215.455 28.008C215.507 27.4941 216.061 27.21 216.508 27.4669C222.896 31.1421 226.864 38.003 226.864 45.3725V50.6254C226.864 58.0523 222.748 64.7498 216.121 68.103C207.323 72.5552 201.858 81.4463 201.858 91.306V107.086C201.837 171.77 201.914 168.251 201.797 169.396C201.185 175.396 196.103 180.094 189.944 180.094C183.367 180.094 178.029 174.742 178.029 168.179C178.029 159.771 178.029 99.0674 178.029 91.306C178.029 81.4463 172.564 72.5552 163.766 68.103ZM152.88 111.539H169.123V168.179C169.123 179.66 178.463 189 189.944 189C201.425 189 210.765 179.66 210.765 168.179V111.539H252.396V116.716H252.237C246.249 116.716 241.378 121.587 241.378 127.576V165.967C241.378 178.509 251.582 188.714 264.125 188.714C276.667 188.714 286.872 178.509 286.872 165.967V127.576C286.872 121.588 282 116.716 276.012 116.716H275.853V111.539H297.12C301.486 111.539 305.038 115.091 305.038 119.457V192.157H144.962V119.457C144.962 115.091 148.514 111.539 152.88 111.539ZM235.983 237.094H214.017L216.851 222.345H233.149L235.983 237.094ZM152.88 213.439C148.514 213.439 144.962 209.887 144.962 205.521V201.063H305.038V205.521C305.038 209.887 301.486 213.439 297.12 213.439C291.67 213.439 158.917 213.439 152.88 213.439Z" fill="#043145"/>
<path d="M189.944 169.677C192.403 169.677 194.397 167.683 194.397 165.224V138.981C194.397 136.522 192.403 134.528 189.944 134.528C187.485 134.528 185.49 136.522 185.49 138.981V165.224C185.49 167.683 187.485 169.677 189.944 169.677Z" fill="#043145"/>
<path d="M264.124 131.947C261.665 131.947 259.671 133.942 259.671 136.401V161.412C259.671 163.871 261.665 165.866 264.124 165.866C266.583 165.866 268.577 163.871 268.577 161.412V136.401C268.577 133.941 266.584 131.947 264.124 131.947Z" fill="#043145"/>
<path d="M189.072 116.801C184.323 117.766 184.311 124.567 189.072 125.534C191.811 126.08 194.398 123.99 194.398 121.17C194.398 118.382 191.826 116.245 189.072 116.801Z" fill="#043145"/>
<g clip-path="url(#clip1)">
<path d="M355.053 171.46C358.131 170.961 360.222 168.061 359.723 164.983C359.224 161.905 356.324 159.814 353.246 160.313C350.168 160.812 348.077 163.712 348.576 166.79C349.075 169.868 351.975 171.959 355.053 171.46Z" fill="white"/>
<path d="M353.055 183.601H355.262C356.462 183.601 357.434 182.628 357.434 181.428V177.92C358.467 177.64 359.445 177.23 360.352 176.71L362.834 179.191C363.683 180.04 365.059 180.04 365.907 179.191L367.467 177.631C368.316 176.783 368.316 175.407 367.467 174.558L364.986 172.076C365.506 171.169 365.916 170.191 366.196 169.158H369.704C370.904 169.158 371.877 168.186 371.877 166.986V164.779C371.877 163.579 370.904 162.606 369.704 162.606H366.196C365.916 161.574 365.506 160.596 364.986 159.688L367.467 157.207C368.316 156.358 368.316 154.982 367.467 154.134L365.907 152.573C365.059 151.725 363.683 151.725 362.834 152.573L360.352 155.055C359.445 154.535 358.467 154.125 357.434 153.845V150.337C357.434 149.137 356.462 148.164 355.262 148.164H353.055C351.855 148.164 350.882 149.137 350.882 150.337V153.845C349.85 154.125 348.872 154.535 347.964 155.055L345.483 152.574C344.634 151.725 343.258 151.725 342.41 152.574L340.849 154.134C340.001 154.982 340.001 156.358 340.849 157.207L343.331 159.689C342.811 160.596 342.401 161.574 342.121 162.606H338.613C337.413 162.606 336.44 163.579 336.44 164.779V166.986C336.44 168.186 337.413 169.159 338.613 169.159H342.121C342.401 170.191 342.811 171.169 343.331 172.077L340.849 174.558C340.001 175.407 340.001 176.783 340.849 177.631L342.41 179.192C343.258 180.04 344.634 180.04 345.483 179.192L347.964 176.71C348.872 177.23 349.85 177.64 350.882 177.92V181.428C350.882 182.628 351.855 183.601 353.055 183.601ZM348.512 165.883C348.512 162.764 351.04 160.236 354.158 160.236C357.277 160.236 359.805 162.764 359.805 165.883C359.805 169.001 357.277 171.529 354.158 171.529C351.04 171.529 348.512 169.001 348.512 165.883Z" fill="#9BBECF"/>
<path d="M383.251 178.672H377.63V187.863H382.893C385.49 187.863 387.595 185.758 387.595 183.162V183.015C387.595 180.616 385.65 178.672 383.251 178.672Z" fill="#CDE9F4"/>
<path d="M351.019 205.89V191.899C351.019 189.67 352.826 187.863 355.055 187.863H377.63V178.672V142.288C377.63 139.165 375.098 136.633 371.974 136.633C343.841 136.732 344.965 136.409 342.869 136.922V144.386C342.869 147.072 340.691 149.25 338.004 149.25H329.629C329.206 151.236 329.486 148.522 329.406 210.723C329.406 213.847 331.938 216.379 335.062 216.379H371.974C375.098 216.379 377.63 213.847 377.63 210.723V209.926H355.055C352.826 209.926 351.019 208.119 351.019 205.89ZM347.964 176.71L345.483 179.191C344.634 180.04 343.258 180.04 342.41 179.191L340.849 177.631C340.001 176.783 340.001 175.407 340.849 174.558L343.331 172.076C342.811 171.169 342.401 170.191 342.121 169.159H338.613C337.413 169.159 336.44 168.186 336.44 166.986V164.779C336.44 163.579 337.413 162.606 338.613 162.606H342.121C342.401 161.574 342.811 160.596 343.331 159.688L340.849 157.207C340.001 156.358 340.001 154.982 340.849 154.134L342.41 152.573C343.258 151.725 344.634 151.725 345.483 152.573L347.964 155.055C348.872 154.535 349.85 154.125 350.882 153.845V150.337C350.882 149.137 351.855 148.164 353.055 148.164H355.262C356.462 148.164 357.435 149.137 357.435 150.337V153.845C358.467 154.125 359.445 154.535 360.353 155.055L362.834 152.574C363.683 151.725 365.059 151.725 365.907 152.574L367.467 154.134C368.316 154.982 368.316 156.358 367.467 157.207L364.986 159.689C365.506 160.596 365.916 161.574 366.196 162.606H369.704C370.904 162.606 371.877 163.579 371.877 164.779V166.986C371.877 168.186 370.904 169.159 369.704 169.159H366.196C365.916 170.191 365.506 171.169 364.986 172.077L367.467 174.558C368.316 175.407 368.316 176.783 367.467 177.631L365.907 179.192C365.059 180.04 363.683 180.04 362.834 179.192L360.353 176.71C359.445 177.23 358.467 177.64 357.435 177.92V181.428C357.435 182.628 356.462 183.601 355.262 183.601H353.055C351.855 183.601 350.882 182.628 350.882 181.428V177.92C349.85 177.64 348.872 177.23 347.964 176.71Z" fill="white"/>
<path d="M342.869 144.385C342.869 135.93 342.869 145.391 342.869 136.922C342.693 136.995 341.047 137.23 338.967 138.846C333.611 143.347 331.719 143.981 330.261 147.296C329.781 148.387 329.67 149.111 329.629 149.25H338.004C340.691 149.25 342.869 147.072 342.869 144.385Z" fill="#AEC0C4"/>
<path d="M382.893 187.863H377.63H355.054C352.826 187.863 351.019 189.67 351.019 191.899V205.89C351.019 208.119 352.826 209.926 355.054 209.926H377.63H381.606C384.913 209.926 387.594 207.245 387.594 203.938V183.162C387.594 185.758 385.49 187.863 382.893 187.863ZM364.542 203.765C363.912 204.093 363.15 204.258 362.276 204.258C360.872 204.258 359.805 203.894 359.104 203.175C358.404 202.456 358.049 201.491 358.049 200.305V199.064C358.049 197.89 358.404 196.928 359.104 196.204C359.804 195.478 360.859 195.11 362.24 195.11C363.125 195.11 363.877 195.264 364.477 195.567C365.095 195.879 365.407 196.262 365.407 196.707C365.407 197.027 365.295 197.352 365.073 197.675C364.845 198.008 364.562 198.176 364.23 198.176C364.161 198.176 364.013 198.154 363.533 197.961C363.197 197.825 362.842 197.756 362.477 197.756C361.511 197.756 361.042 198.186 361.042 199.069V200.3C361.042 201.183 361.517 201.612 362.495 201.612C362.847 201.612 363.188 201.535 363.511 201.383C363.86 201.218 364.096 201.137 364.23 201.137C364.608 201.137 364.922 201.296 365.162 201.607C365.397 201.913 365.517 202.237 365.517 202.57C365.517 203.027 365.189 203.429 364.542 203.765ZM372.199 203.474C371.573 203.994 370.68 204.258 369.545 204.258C368.588 204.258 367.752 204.087 367.062 203.748C366.353 203.4 365.994 202.979 365.994 202.497C365.994 202.227 366.09 201.939 366.281 201.641C366.479 201.331 366.723 201.174 367.007 201.174C367.168 201.174 367.357 201.236 367.585 201.363C367.792 201.479 368.059 201.601 368.378 201.724C368.69 201.844 369.058 201.905 369.472 201.905C370.17 201.905 370.523 201.737 370.523 201.406C370.523 201.228 370.396 201.083 370.132 200.962C369.847 200.83 369.493 200.717 369.08 200.625C368.659 200.531 368.232 200.406 367.81 200.253C367.378 200.096 367.007 199.834 366.707 199.473C366.404 199.108 366.25 198.636 366.25 198.068C366.25 197.253 366.534 196.549 367.095 195.976C367.656 195.401 368.554 195.11 369.765 195.11C370.586 195.11 371.324 195.238 371.959 195.491C372.617 195.753 372.95 196.094 372.95 196.507C372.95 196.764 372.848 197.063 372.646 197.398C372.437 197.745 372.168 197.921 371.846 197.921C371.714 197.921 371.43 197.845 370.98 197.688C370.552 197.539 370.155 197.464 369.801 197.464C369.477 197.464 369.23 197.516 369.068 197.619C368.915 197.715 368.841 197.822 368.841 197.946C368.841 198.082 368.973 198.199 369.234 198.291C369.528 198.394 369.888 198.497 370.304 198.596C370.726 198.696 371.153 198.827 371.574 198.985C372.006 199.148 372.38 199.428 372.687 199.819C372.995 200.213 373.151 200.711 373.151 201.301C373.151 202.218 372.831 202.949 372.199 203.474ZM380.034 203.474C379.407 203.994 378.514 204.258 377.38 204.258C376.422 204.258 375.587 204.087 374.897 203.748C374.188 203.4 373.829 202.979 373.829 202.497C373.829 202.227 373.925 201.939 374.115 201.641C374.313 201.331 374.558 201.174 374.841 201.174C375.003 201.174 375.192 201.236 375.42 201.363C375.627 201.479 375.894 201.601 376.213 201.724C376.525 201.844 376.893 201.905 377.307 201.905C378.005 201.905 378.358 201.737 378.358 201.406C378.358 201.228 378.23 201.083 377.967 200.962C377.682 200.83 377.328 200.717 376.915 200.625C376.494 200.531 376.067 200.406 375.645 200.253C375.213 200.096 374.842 199.834 374.542 199.473C374.238 199.108 374.085 198.636 374.085 198.068C374.085 197.253 374.369 196.549 374.93 195.976C375.491 195.401 376.389 195.11 377.599 195.11C378.421 195.11 379.159 195.238 379.794 195.491C380.452 195.753 380.785 196.094 380.785 196.507C380.785 196.764 380.683 197.063 380.481 197.398C380.272 197.745 380.002 197.921 379.681 197.921C379.549 197.921 379.265 197.845 378.815 197.688C378.386 197.539 377.99 197.464 377.636 197.464C377.312 197.464 377.065 197.516 376.903 197.619C376.75 197.715 376.676 197.822 376.676 197.946C376.676 198.082 376.808 198.199 377.069 198.291C377.363 198.394 377.722 198.497 378.139 198.596C378.56 198.696 378.988 198.827 379.409 198.985C379.841 199.148 380.215 199.428 380.521 199.819C380.83 200.213 380.986 200.711 380.986 201.301C380.986 202.218 380.666 202.949 380.034 203.474Z" fill="#CDE9F4"/>
<path d="M361.426 165.882C361.426 161.875 358.166 158.615 354.158 158.615C350.151 158.615 346.891 161.875 346.891 165.882C346.891 169.89 350.151 173.15 354.158 173.15C358.166 173.15 361.426 169.89 361.426 165.882ZM350.133 165.882C350.133 163.663 351.939 161.857 354.158 161.857C356.378 161.857 358.184 163.663 358.184 165.882C358.184 168.102 356.378 169.908 354.158 169.908C351.939 169.908 350.133 168.102 350.133 165.882Z" fill="#043145"/>
<path d="M353.055 185.222H355.262C357.353 185.222 359.055 183.52 359.055 181.428V179.101C359.389 178.977 359.718 178.84 360.042 178.691L361.688 180.338C363.167 181.817 365.574 181.817 367.053 180.338L368.613 178.777C370.093 177.298 370.093 174.891 368.613 173.412L366.967 171.766C367.116 171.442 367.253 171.113 367.377 170.779H369.704C371.796 170.779 373.498 169.078 373.498 166.986V164.779C373.498 162.687 371.796 160.985 369.704 160.985H367.377C367.253 160.652 367.117 160.323 366.967 159.999L368.614 158.353C370.093 156.874 370.093 154.467 368.614 152.988L367.053 151.427C365.574 149.948 363.167 149.949 361.688 151.427L360.042 153.074C359.718 152.925 359.389 152.788 359.055 152.664V150.337C359.055 148.245 357.354 146.543 355.262 146.543H353.055C350.963 146.543 349.262 148.245 349.262 150.337V152.664C348.928 152.788 348.599 152.925 348.275 153.073L346.629 151.427C345.15 149.948 342.743 149.948 341.264 151.427L339.703 152.987C338.224 154.467 338.224 156.873 339.703 158.353L341.35 159.999C341.201 160.323 341.064 160.652 340.94 160.985H338.613C336.521 160.985 334.819 162.687 334.819 164.779V166.986C334.819 169.077 336.521 170.779 338.613 170.779H340.94C341.064 171.113 341.201 171.442 341.349 171.766L339.703 173.412C338.224 174.891 338.224 177.298 339.703 178.777L341.264 180.337C342.743 181.817 345.15 181.817 346.629 180.337L348.275 178.691C348.599 178.84 348.928 178.977 349.262 179.101V181.428C349.261 183.52 350.963 185.222 353.055 185.222ZM348.771 175.303C348.131 174.937 347.332 175.05 346.818 175.563L344.336 178.045C344.121 178.26 343.771 178.26 343.556 178.045L341.996 176.485C341.78 176.27 341.78 175.919 341.996 175.704L344.477 173.222C344.995 172.705 345.101 171.905 344.737 171.27C344.279 170.471 343.925 169.617 343.685 168.734C343.493 168.028 342.853 167.538 342.121 167.538H338.613C338.309 167.538 338.061 167.29 338.061 166.986V164.779C338.061 164.475 338.309 164.227 338.613 164.227H342.121C342.853 164.227 343.494 163.737 343.685 163.031C343.925 162.147 344.279 161.294 344.737 160.495C345.101 159.86 344.995 159.06 344.477 158.542L341.996 156.061C341.78 155.845 341.78 155.495 341.996 155.28L343.556 153.72C343.771 153.504 344.121 153.504 344.336 153.72L346.818 156.201C347.335 156.719 348.136 156.825 348.77 156.461C349.57 156.003 350.423 155.649 351.307 155.409C352.013 155.217 352.503 154.576 352.503 153.845V150.337C352.503 150.033 352.751 149.785 353.055 149.785H355.261C355.566 149.785 355.813 150.033 355.813 150.337V153.845C355.813 154.577 356.303 155.218 357.01 155.409C357.893 155.649 358.747 156.003 359.546 156.462C360.181 156.825 360.981 156.719 361.498 156.202L363.98 153.72C364.195 153.505 364.546 153.505 364.761 153.72L366.321 155.28C366.536 155.495 366.536 155.846 366.321 156.061L363.839 158.543C363.322 159.06 363.215 159.86 363.579 160.495C364.037 161.294 364.391 162.147 364.631 163.031C364.823 163.737 365.464 164.227 366.195 164.227H369.703C370.008 164.227 370.256 164.475 370.256 164.779V166.986C370.256 167.29 370.008 167.538 369.703 167.538H366.195C365.464 167.538 364.823 168.028 364.631 168.734C364.391 169.618 364.037 170.471 363.579 171.27C363.215 171.905 363.322 172.705 363.839 173.223L366.321 175.704C366.536 175.92 366.536 176.27 366.321 176.485L364.761 178.045C364.546 178.261 364.195 178.261 363.98 178.045L361.498 175.564C360.981 175.046 360.181 174.94 359.546 175.304C358.747 175.762 357.893 176.116 357.009 176.356C356.303 176.548 355.813 177.189 355.813 177.92V181.428C355.813 181.732 355.566 181.98 355.261 181.98H353.055C352.75 181.98 352.503 181.732 352.503 181.428V177.92C352.503 177.188 352.013 176.548 351.307 176.356C350.423 176.116 349.57 175.762 348.771 175.303Z" fill="#043145"/>
<path d="M383.251 177.051H379.251V142.288C379.251 138.276 375.987 135.012 371.974 135.012C344.046 135.122 344.893 134.758 342.486 135.348C342.485 135.348 342.484 135.348 342.483 135.348C340.836 135.752 339.269 136.524 337.952 137.583L332.14 142.254C329.313 144.525 327.785 147.933 327.785 151.341V210.723C327.785 214.736 331.049 218 335.062 218H371.974C375.708 218 378.793 215.173 379.203 211.547H381.606C385.802 211.547 389.215 208.133 389.215 203.938C389.215 201.634 389.215 185.284 389.215 183.015C389.215 179.726 386.54 177.051 383.251 177.051ZM334.171 144.78L339.982 140.11C340.376 139.793 340.801 139.512 341.248 139.271V144.385C341.248 146.174 339.793 147.629 338.004 147.629H331.893C332.433 146.53 333.209 145.553 334.171 144.78ZM371.974 214.758H335.061C332.837 214.758 331.026 212.948 331.026 210.723C331.031 147.353 331.014 151.318 331.04 150.871H338.004C341.58 150.871 344.489 147.962 344.489 144.385V138.289C345.207 138.223 343.795 138.266 371.974 138.253C374.199 138.253 376.009 140.063 376.009 142.288V186.243H355.055C351.935 186.243 349.398 188.78 349.398 191.899V205.89C349.398 209.009 351.935 211.547 355.055 211.547H375.925C375.543 213.378 373.917 214.758 371.974 214.758ZM385.974 203.938C385.974 206.346 384.014 208.305 381.606 208.305C375.574 208.305 360.492 208.305 355.055 208.305C353.723 208.305 352.64 207.222 352.64 205.891V191.899C352.64 190.568 353.723 189.484 355.055 189.484C384.667 189.484 383.946 189.818 385.974 188.682V203.938ZM385.974 183.162C385.974 184.86 384.592 186.242 382.893 186.242H379.251V180.292H383.251C384.753 180.292 385.974 181.514 385.974 183.015V183.162Z" fill="#043145"/>
<path d="M345.792 190.745H334.924C334.029 190.745 333.303 191.471 333.303 192.366C333.303 193.261 334.029 193.987 334.924 193.987H345.792C346.687 193.987 347.413 193.261 347.413 192.366C347.413 191.471 346.687 190.745 345.792 190.745Z" fill="#043145"/>
<path d="M345.792 197.469H341.408C340.513 197.469 339.787 198.195 339.787 199.09C339.787 199.986 340.513 200.711 341.408 200.711H345.792C346.687 200.711 347.413 199.986 347.413 199.09C347.413 198.195 346.687 197.469 345.792 197.469Z" fill="#043145"/>
<path d="M334.924 200.711H334.928C335.823 200.711 336.547 199.986 336.547 199.09C336.547 198.195 335.819 197.469 334.924 197.469C334.029 197.469 333.303 198.195 333.303 199.09C333.303 199.986 334.029 200.711 334.924 200.711Z" fill="#043145"/>
<path d="M345.792 204.194H334.924C334.029 204.194 333.303 204.92 333.303 205.815C333.303 206.71 334.029 207.436 334.924 207.436H345.792C346.687 207.436 347.413 206.71 347.413 205.815C347.413 204.92 346.687 204.194 345.792 204.194Z" fill="#043145"/>
<path d="M364.231 201.138C364.096 201.138 363.861 201.219 363.511 201.384C363.189 201.536 362.847 201.613 362.496 201.613C361.518 201.613 361.042 201.184 361.042 200.3V199.07C361.042 198.187 361.512 197.757 362.477 197.757C362.842 197.757 363.197 197.826 363.534 197.961C364.013 198.155 364.161 198.177 364.231 198.177C364.562 198.177 364.846 198.009 365.074 197.676C365.295 197.353 365.408 197.028 365.408 196.708C365.408 196.263 365.095 195.88 364.477 195.567C363.878 195.265 363.125 195.111 362.24 195.111C360.86 195.111 359.805 195.479 359.104 196.205C358.405 196.929 358.05 197.891 358.05 199.064V200.306C358.05 201.492 358.404 202.457 359.104 203.175C359.805 203.895 360.872 204.259 362.276 204.259C363.15 204.259 363.912 204.093 364.542 203.766C365.189 203.43 365.517 203.028 365.517 202.571C365.517 202.238 365.398 201.914 365.163 201.608C364.922 201.296 364.608 201.138 364.231 201.138Z" fill="#043145"/>
<path d="M371.574 198.985C371.153 198.827 370.725 198.696 370.304 198.596C369.887 198.497 369.528 198.394 369.234 198.291C368.973 198.199 368.841 198.082 368.841 197.946C368.841 197.822 368.915 197.715 369.068 197.619C369.23 197.516 369.477 197.464 369.801 197.464C370.155 197.464 370.552 197.539 370.979 197.688C371.43 197.845 371.713 197.921 371.846 197.921C372.167 197.921 372.436 197.745 372.646 197.398C372.848 197.063 372.95 196.764 372.95 196.507C372.95 196.094 372.616 195.753 371.958 195.491C371.324 195.238 370.586 195.11 369.764 195.11C368.554 195.11 367.656 195.401 367.095 195.976C366.534 196.549 366.249 197.253 366.249 198.068C366.249 198.636 366.403 199.108 366.707 199.473C367.007 199.834 367.378 200.096 367.81 200.253C368.232 200.406 368.659 200.531 369.08 200.625C369.493 200.717 369.846 200.83 370.132 200.962C370.395 201.083 370.523 201.228 370.523 201.406C370.523 201.737 370.169 201.905 369.472 201.905C369.058 201.905 368.69 201.844 368.378 201.724C368.059 201.601 367.792 201.479 367.585 201.363C367.357 201.236 367.168 201.174 367.006 201.174C366.723 201.174 366.478 201.331 366.28 201.641C366.09 201.939 365.994 202.227 365.994 202.497C365.994 202.979 366.353 203.4 367.062 203.748C367.752 204.087 368.587 204.258 369.545 204.258C370.679 204.258 371.572 203.994 372.199 203.474C372.831 202.949 373.151 202.218 373.151 201.301C373.151 200.711 372.994 200.213 372.686 199.819C372.38 199.428 372.006 199.148 371.574 198.985Z" fill="#043145"/>
<path d="M380.521 199.819C380.215 199.428 379.841 199.148 379.409 198.985C378.987 198.826 378.56 198.695 378.138 198.596C377.722 198.497 377.363 198.394 377.069 198.29C376.808 198.198 376.676 198.082 376.676 197.945C376.676 197.822 376.75 197.715 376.903 197.619C377.065 197.516 377.312 197.464 377.636 197.464C377.99 197.464 378.386 197.539 378.814 197.688C379.265 197.845 379.548 197.921 379.681 197.921C380.002 197.921 380.271 197.745 380.481 197.397C380.683 197.063 380.785 196.763 380.785 196.506C380.785 196.094 380.451 195.752 379.793 195.49C379.159 195.238 378.421 195.11 377.599 195.11C376.389 195.11 375.491 195.401 374.93 195.975C374.369 196.549 374.084 197.253 374.084 198.068C374.084 198.636 374.238 199.108 374.541 199.473C374.842 199.834 375.213 200.096 375.645 200.253C376.067 200.406 376.494 200.531 376.915 200.624C377.328 200.716 377.681 200.83 377.967 200.961C378.23 201.083 378.358 201.228 378.358 201.406C378.358 201.737 378.004 201.905 377.307 201.905C376.893 201.905 376.525 201.844 376.213 201.723C375.894 201.6 375.627 201.479 375.419 201.363C375.192 201.236 375.003 201.174 374.841 201.174C374.558 201.174 374.313 201.331 374.115 201.641C373.925 201.939 373.829 202.227 373.829 202.497C373.829 202.979 374.188 203.4 374.897 203.748C375.587 204.086 376.422 204.258 377.38 204.258C378.514 204.258 379.407 203.994 380.034 203.474C380.666 202.949 380.986 202.218 380.986 201.3C380.986 200.711 380.83 200.213 380.521 199.819Z" fill="#043145"/>
</g>
<g clip-path="url(#clip2)">
<path d="M31.9602 138.797V141.097C31.9602 144.1 29.5263 146.534 26.5239 146.534C23.5215 146.534 21.0875 144.1 21.0875 141.097V138.797C11.4857 139.826 5.17109 143.262 4.22583 143.607V154.064C4.22583 166.379 14.2089 176.362 26.5239 176.362C38.8386 176.362 48.8219 166.379 48.8219 154.064V143.607C47.8492 143.252 41.5333 139.823 31.9602 138.797Z" fill="#1A96CA"/>
<path d="M31.4624 118.853V113.629C31.4624 110.901 29.2515 108.691 26.5241 108.691C23.7967 108.691 21.5858 110.901 21.5858 113.629V118.853C24.8192 118.122 28.223 118.121 31.4624 118.853Z" fill="#ECD843"/>
<path d="M42.9391 125.511C29.0727 110.416 4.22607 120.535 4.22607 140.602V143.608C5.19875 143.252 11.5147 139.823 21.0878 138.797V136.836C21.0878 133.833 23.5217 131.399 26.5241 131.399C29.5265 131.399 31.9604 133.833 31.9604 136.836V138.797C41.5622 139.826 47.8769 143.262 48.8221 143.608C48.618 142.234 50.1821 133.381 42.9391 125.511Z" fill="#CDE9F4"/>
<path d="M26.5239 146.534C29.5263 146.534 31.9603 144.1 31.9603 141.098C31.9603 140.059 31.9603 137.938 31.9603 136.835C31.9603 133.833 29.5263 131.399 26.5239 131.399C23.5215 131.399 21.0875 133.833 21.0875 136.835V141.098C21.0878 144.1 23.5217 146.534 26.5239 146.534Z" fill="#ECD843"/>
<path d="M58.5505 98.6819C58.5505 103.001 62.0523 106.503 66.3718 106.503H122.953C127.272 106.503 130.774 103.001 130.774 98.6819V60.5977H58.5505V98.6819ZM97.4824 73.7114C97.4824 71.5105 99.2667 69.7263 101.468 69.7263H119.271C121.472 69.7263 123.257 71.5105 123.257 73.7114V93.9314C123.257 96.1325 121.472 97.9168 119.271 97.9168H101.468C99.2667 97.9168 97.4824 96.1325 97.4824 93.9314V73.7114Z" fill="white"/>
<path d="M122.953 46.6367H66.3718C62.0521 46.6367 58.5505 50.1385 58.5505 54.4579V60.5977H130.774V54.4579C130.774 50.1385 127.272 46.6367 122.953 46.6367Z" fill="#CDE9F4"/>
<path d="M101.468 97.9167H119.271C121.472 97.9167 123.257 96.1325 123.257 93.9313V73.7111C123.257 71.5103 121.472 69.726 119.271 69.726H101.468C99.2664 69.726 97.4822 71.5103 97.4822 73.7111V93.9313C97.4824 96.1325 99.2667 97.9167 101.468 97.9167Z" fill="#33B9F1"/>
<path d="M122.953 44H66.3721C60.6054 44 55.9139 48.6915 55.9139 54.4579V98.6819C55.9139 104.448 60.6054 109.14 66.3721 109.14H92.0258V130.331C92.0258 131.648 90.9546 132.719 89.638 132.719H61.4291C60.1126 132.719 59.0415 131.648 59.0415 130.331V121.22C59.0415 117.042 55.6423 113.643 51.4645 113.643H48.1899C46.9199 113.643 45.8863 112.609 45.8863 111.339V90.9759C45.8863 84.911 40.952 79.9767 34.8868 79.9767C28.8218 79.9767 23.8875 84.911 23.8875 90.9759V106.528C21.0066 107.601 18.9492 110.379 18.9492 113.629V116.845C8.8926 120.059 1.58948 129.493 1.58948 140.602V154.065C1.58948 176.353 28.704 187.306 44.1685 171.627C48.8697 166.861 51.4587 160.464 51.4587 153.617V143.608C51.2042 142.036 53.0868 131.722 44.1424 122.902C41.2713 120.071 37.837 118.013 34.0989 116.831V113.629C34.0989 110.379 32.0412 107.601 29.1606 106.528V90.9759C29.1606 87.8185 31.729 85.2501 34.8865 85.2501C38.0439 85.2501 40.6126 87.8185 40.6126 90.9759V111.339C40.6126 115.517 44.0118 118.916 48.1897 118.916H51.4642C52.7343 118.916 53.7679 119.95 53.7679 121.22V130.331C53.7679 134.555 57.2046 137.992 61.4288 137.992H89.6378C93.862 137.992 97.299 134.555 97.299 130.331V109.14H122.953C128.719 109.14 133.411 104.448 133.411 98.6819C133.411 95.5904 133.411 56.1481 133.411 54.4579C133.411 48.6915 128.719 44 122.953 44ZM34.5893 136.481C34.4393 133.139 32.2461 130.271 29.1609 129.206V121.122C38.518 122.392 45.6809 130.178 46.1597 139.592C42.4298 138.125 38.5549 137.083 34.5893 136.481ZM18.4588 136.481C14.4932 137.083 10.6183 138.124 6.88845 139.592C7.37492 130.094 14.6467 122.351 23.8875 121.123V129.206C20.744 130.303 18.6065 133.19 18.4588 136.481ZM23.7246 136.835C23.7246 135.292 24.9807 134.036 26.5242 134.036C28.0677 134.036 29.3236 135.292 29.3236 136.835V141.097C29.3236 142.641 28.0677 143.897 26.5242 143.897C24.9807 143.897 23.7246 142.641 23.7246 141.097C23.7246 140.055 23.7246 137.936 23.7246 136.835ZM26.5242 173.726C15.6829 173.726 6.86287 164.906 6.86287 154.064V145.319C10.5825 143.665 14.48 142.491 18.4849 141.818C18.8506 145.933 22.3155 149.171 26.5242 149.171C30.7329 149.171 34.1975 145.933 34.5632 141.818C38.5681 142.491 42.4657 143.665 46.1853 145.319V153.617C46.1853 164.897 37.418 173.726 26.5242 173.726ZM24.2224 115.775V113.629C24.2224 112.36 25.2549 111.327 26.5239 111.327C27.793 111.327 28.8255 112.36 28.8255 113.629V115.773C27.3012 115.634 25.7899 115.631 24.2224 115.775ZM61.1873 54.4579C61.1873 51.5992 63.5131 49.2734 66.3721 49.2734H122.953C125.812 49.2734 128.138 51.5992 128.138 54.4579V57.9611H61.1873V54.4579ZM122.953 103.866H66.3721C63.5131 103.866 61.1873 101.541 61.1873 98.6819V63.2344H128.138V98.6817C128.138 101.54 125.811 103.866 122.953 103.866Z" fill="#043145"/>
<path d="M85.806 67.0893H67.5886C66.1326 67.0893 64.9519 68.27 64.9519 69.726C64.9519 71.182 66.1326 72.3627 67.5886 72.3627H85.806C87.262 72.3627 88.4427 71.182 88.4427 69.726C88.4427 68.27 87.262 67.0893 85.806 67.0893Z" fill="#043145"/>
<path d="M85.8059 76.4862H85.7993C84.3433 76.4862 83.166 77.667 83.166 79.123C83.166 80.5789 84.3499 81.7597 85.8062 81.7597C87.2624 81.7597 88.4429 80.5789 88.4429 79.123C88.4429 77.667 87.2619 76.4862 85.8059 76.4862Z" fill="#043145"/>
<path d="M67.5886 81.7597H75.2523C76.7083 81.7597 77.889 80.5789 77.889 79.123C77.889 77.667 76.7083 76.4862 75.2523 76.4862H67.5886C66.1326 76.4862 64.9519 77.667 64.9519 79.123C64.9519 80.5789 66.1324 81.7597 67.5886 81.7597Z" fill="#043145"/>
<path d="M85.806 85.8832H67.5886C66.1326 85.8832 64.9519 87.0639 64.9519 88.5199C64.9519 89.9759 66.1326 91.1566 67.5886 91.1566H85.806C87.262 91.1566 88.4427 89.9759 88.4427 88.5199C88.4427 87.0639 87.262 85.8832 85.806 85.8832Z" fill="#043145"/>
<path d="M85.806 95.2798H67.5886C66.1326 95.2798 64.9519 96.4606 64.9519 97.9165C64.9519 99.3725 66.1326 100.553 67.5886 100.553H85.806C87.262 100.553 88.4427 99.3725 88.4427 97.9165C88.4427 96.4606 87.262 95.2798 85.806 95.2798Z" fill="#043145"/>
<path d="M119.272 67.0893H101.468C97.8166 67.0893 94.8461 70.0601 94.8461 73.7112V93.9314C94.8461 97.583 97.8169 100.553 101.468 100.553H119.272C122.923 100.553 125.894 97.5827 125.894 93.9314V73.7112C125.894 70.0601 122.923 67.0893 119.272 67.0893ZM120.62 93.9314C120.62 94.6749 120.015 95.2801 119.272 95.2801H101.468C100.724 95.2801 100.12 94.6749 100.12 93.9314V73.7112C100.12 72.9676 100.724 72.3627 101.468 72.3627H119.272C120.015 72.3627 120.62 72.9676 120.62 73.7112V93.9314Z" fill="#043145"/>
<path d="M120.975 50.9807H117.618C116.162 50.9807 114.982 52.1614 114.982 53.6174C114.982 55.0734 116.162 56.2541 117.618 56.2541H120.975C122.431 56.2541 123.611 55.0734 123.611 53.6174C123.611 52.1614 122.431 50.9807 120.975 50.9807Z" fill="#043145"/>
<path d="M116.664 77.5269C115.634 76.4976 113.965 76.4976 112.935 77.5269L110.369 80.0922L107.804 77.5269C106.774 76.4976 105.105 76.4976 104.075 77.5269C103.045 78.5566 103.045 80.2262 104.075 81.2561L106.64 83.8213L104.075 86.3866C103.045 87.4162 103.045 89.0858 104.075 90.1157C105.105 91.1453 106.774 91.1451 107.804 90.1157L110.369 87.5504L112.935 90.1157C113.965 91.1453 115.634 91.1451 116.664 90.1157C117.693 89.0861 117.693 87.4165 116.664 86.3866L114.099 83.8213L116.664 81.2561C117.693 80.2264 117.693 78.5568 116.664 77.5269Z" fill="#043145"/>
</g>
<g clip-path="url(#clip3)">
<path d="M99.0072 179.003C101.475 178.757 103.276 176.558 103.031 174.09C102.785 171.622 100.586 169.821 98.118 170.066C95.6503 170.312 93.8488 172.511 94.0944 174.979C94.3399 177.447 96.5394 179.248 99.0072 179.003Z" fill="white"/>
<path d="M97.6779 188.643H99.4327C100.387 188.643 101.161 187.869 101.161 186.914V184.125C101.982 183.902 102.76 183.576 103.481 183.162L105.455 185.136C106.13 185.811 107.224 185.811 107.899 185.136L109.14 183.895C109.815 183.22 109.815 182.126 109.14 181.451L107.166 179.477C107.58 178.756 107.906 177.978 108.129 177.157H110.919C111.873 177.157 112.647 176.383 112.647 175.429V173.674C112.647 172.719 111.873 171.946 110.919 171.946H108.129C107.906 171.125 107.58 170.347 107.166 169.625L109.14 167.651C109.815 166.977 109.815 165.882 109.14 165.207L107.899 163.967C107.224 163.292 106.13 163.292 105.455 163.967L103.481 165.94C102.76 165.527 101.982 165.201 101.161 164.978V162.188C101.161 161.234 100.387 160.46 99.4327 160.46H97.6779C96.7235 160.46 95.9498 161.234 95.9498 162.188V164.978C95.1289 165.201 94.3509 165.527 93.6292 165.941L91.6556 163.967C90.9807 163.292 89.8864 163.292 89.2116 163.967L87.9708 165.208C87.2959 165.883 87.2959 166.977 87.9708 167.652L89.9444 169.625C89.5307 170.347 89.2048 171.125 88.9819 171.946H86.192C85.2376 171.946 84.4639 172.72 84.4639 173.674V175.429C84.4639 176.383 85.2376 177.157 86.192 177.157H88.9819C89.2048 177.978 89.5307 178.756 89.9444 179.478L87.9708 181.451C87.2959 182.126 87.2959 183.22 87.9708 183.895L89.2116 185.136C89.8864 185.811 90.9807 185.811 91.6556 185.136L93.6292 183.162C94.3509 183.576 95.1289 183.902 95.9498 184.125V186.915C95.9498 187.869 96.7235 188.643 97.6779 188.643ZM94.0646 174.551C94.0646 172.071 96.0751 170.061 98.5553 170.061C101.035 170.061 103.046 172.071 103.046 174.551C103.046 177.032 101.035 179.042 98.5553 179.042C96.0751 179.042 94.0646 177.031 94.0646 174.551Z" fill="#9BBECF"/>
<path d="M121.408 192.032H117.222H99.2681C97.4955 192.032 96.0585 193.469 96.0585 195.242V206.369C96.0585 208.142 97.4954 209.579 99.2681 209.579H117.222H120.384C123.015 209.579 125.147 207.447 125.147 204.816V188.294C125.147 190.358 123.473 192.032 121.408 192.032ZM105.088 204.172C105.088 204.897 103.375 204.857 103.375 204.173V201.704C103.375 201.287 103.02 200.877 102.579 200.877C102.216 200.877 101.838 201.181 101.838 201.704V204.173C101.838 204.306 101.751 204.427 101.578 204.537C101.002 204.904 100.124 204.617 100.124 204.173V196.963C100.124 196.256 101.838 196.286 101.838 196.963V200.22C102.05 199.765 102.54 199.374 103.209 199.374C104.316 199.374 105.088 200.531 105.088 201.696V204.172ZM108.648 203.199C109.13 203.199 109.378 203.562 109.378 203.951C109.378 204.159 109.315 204.336 109.19 204.483C108.92 204.798 108.503 204.675 108.172 204.703C106.728 204.703 106.006 204.089 106.006 202.862V197.774C106.006 197.435 106.516 197.262 106.857 197.262C107.203 197.262 107.719 197.419 107.719 197.757V199.44H108.968C109.268 199.44 109.388 199.809 109.388 200.104C109.388 200.404 109.274 200.767 108.968 200.767H107.719V202.797C107.719 203.359 108.2 203.151 108.648 203.199ZM118.089 204.172C118.089 204.492 117.604 204.703 117.227 204.703C116.882 204.703 116.376 204.494 116.376 204.174V201.704C116.376 201.153 116.012 200.867 115.635 200.867C115.273 200.867 114.928 201.152 114.928 201.704V204.185C114.928 204.878 113.214 204.875 113.214 204.185V201.715C113.214 201.175 112.839 200.877 112.462 200.877C112.099 200.877 111.766 201.154 111.766 201.704V204.174C111.766 204.496 111.258 204.703 110.903 204.703C110.532 204.703 110.052 204.518 110.052 204.172V199.96C110.052 199.583 110.525 199.44 110.903 199.44C111.258 199.44 111.655 199.612 111.655 199.964V200.22C112.282 199.105 113.918 198.974 114.419 200.488C115.388 198.573 118.089 199.222 118.089 201.696V204.172H118.089ZM120.853 204.172C120.853 204.608 119.924 204.899 119.383 204.542C118.949 204.257 119.223 204.675 119.139 196.953C119.139 196.249 120.853 196.271 120.853 196.953V204.172Z" fill="#33B9F1"/>
<path d="M121.693 184.722H117.222V192.032H121.408C123.473 192.032 125.147 190.358 125.147 188.294V188.177C125.147 186.269 123.6 184.722 121.693 184.722Z" fill="#33B9F1"/>
<path d="M96.0583 206.369V195.242C96.0583 193.47 97.4952 192.032 99.2679 192.032H117.222V184.722C117.222 174.351 117.222 156.541 117.222 155.787C117.222 153.303 115.208 151.289 112.724 151.289C90.3496 151.368 91.2435 151.111 89.5765 151.52V154.398V154.584V157.455C89.5765 159.592 87.8444 161.324 85.7076 161.324H79.0472C78.7106 162.903 78.9331 160.745 78.8696 210.213C78.8696 212.697 80.8835 214.711 83.3676 214.711H112.724C115.208 214.711 117.222 212.697 117.222 210.213V209.579H99.2679C97.4953 209.579 96.0583 208.142 96.0583 206.369ZM93.6292 183.162L91.6555 185.136C90.9807 185.811 89.8864 185.811 89.2116 185.136L87.9707 183.895C87.2959 183.22 87.2959 182.126 87.9707 181.451L89.9444 179.477C89.5306 178.756 89.2047 177.978 88.9819 177.157H86.1919C85.2375 177.157 84.4638 176.383 84.4638 175.429V173.674C84.4638 172.719 85.2375 171.946 86.1919 171.946H88.9819C89.2047 171.125 89.5306 170.347 89.9444 169.625L87.9707 167.652C87.2959 166.977 87.2959 165.882 87.9707 165.208L89.2116 163.967C89.8864 163.292 90.9807 163.292 91.6555 163.967L93.6292 165.94C94.3508 165.527 95.1289 165.201 95.9498 164.978V162.188C95.9498 161.234 96.7235 160.46 97.6779 160.46H99.4327C100.387 160.46 101.161 161.234 101.161 162.188V164.978C101.982 165.201 102.76 165.527 103.481 165.941L105.455 163.967C106.13 163.292 107.224 163.292 107.899 163.967L109.14 165.208C109.815 165.883 109.815 166.977 109.14 167.652L107.166 169.625C107.58 170.347 107.906 171.125 108.129 171.946H110.919C111.873 171.946 112.647 172.72 112.647 173.674V175.429C112.647 176.383 111.873 177.157 110.919 177.157H108.129C107.906 177.978 107.58 178.756 107.166 179.478L109.14 181.451C109.815 182.126 109.815 183.22 109.14 183.895L107.899 185.136C107.224 185.811 106.13 185.811 105.455 185.136L103.481 183.162C102.76 183.576 101.982 183.902 101.161 184.125V186.915C101.161 187.869 100.387 188.643 99.4327 188.643H97.6779C96.7235 188.643 95.9498 187.869 95.9498 186.915V184.125C95.1288 183.902 94.3508 183.576 93.6292 183.162Z" fill="white"/>
<path d="M89.5766 157.455V154.584V154.398V151.52H89.5764C87.2615 152.087 86.565 153.033 81.8519 156.764C79.4545 158.691 79.0788 161.265 79.0472 161.324H85.7077C87.8444 161.324 89.5766 159.592 89.5766 157.455Z" fill="#AEC0C4"/>
<path d="M104.335 174.551C104.335 171.364 101.742 168.772 98.5551 168.772C95.3682 168.772 92.7755 171.364 92.7755 174.551C92.7755 177.738 95.3682 180.331 98.5551 180.331C101.742 180.331 104.335 177.738 104.335 174.551ZM95.3538 174.551C95.3538 172.786 96.79 171.35 98.5553 171.35C100.321 171.35 101.757 172.786 101.757 174.551C101.757 176.317 100.321 177.753 98.5553 177.753C96.7899 177.753 95.3538 176.317 95.3538 174.551Z" fill="#043145"/>
<path d="M97.678 189.932H99.4327C101.096 189.932 102.45 188.578 102.45 186.914V185.064C102.715 184.965 102.977 184.857 103.234 184.738L104.544 186.047C105.72 187.224 107.634 187.224 108.811 186.047L110.051 184.807C111.228 183.63 111.228 181.716 110.051 180.54L108.742 179.23C108.861 178.973 108.969 178.711 109.068 178.446H110.919C112.582 178.446 113.936 177.092 113.936 175.429V173.674C113.936 172.01 112.582 170.657 110.919 170.657H109.068C108.969 170.391 108.861 170.13 108.742 169.872L110.051 168.563C111.228 167.387 111.228 165.472 110.051 164.296L108.811 163.055C107.634 161.879 105.72 161.879 104.544 163.055L103.235 164.365C102.977 164.246 102.715 164.137 102.45 164.039V162.188C102.45 160.524 101.096 159.171 99.4327 159.171H97.678C96.0144 159.171 94.6609 160.524 94.6609 162.188V164.039C94.3954 164.137 94.1338 164.246 93.8762 164.364L92.5672 163.055C91.3906 161.879 89.4766 161.879 88.3001 163.055L87.0594 164.296C85.883 165.472 85.883 167.386 87.0594 168.563L88.3686 169.872C88.25 170.13 88.1414 170.391 88.0431 170.657H86.1922C84.5286 170.657 83.175 172.01 83.175 173.674V175.429C83.175 177.092 84.5286 178.446 86.1922 178.446H88.0431C88.1414 178.711 88.25 178.973 88.3684 179.23L87.0594 180.539C85.883 181.716 85.883 183.63 87.0594 184.806L88.3001 186.047C89.4765 187.224 91.3908 187.224 92.5672 186.047L93.8763 184.738C94.1338 184.857 94.3954 184.965 94.6609 185.064V186.914C94.6609 188.578 96.0144 189.932 97.678 189.932ZM94.2704 182.044C94.0699 181.929 93.849 181.873 93.6296 181.873C93.296 181.873 92.966 182.002 92.7177 182.251L90.7439 184.224C90.5727 184.396 90.2943 184.396 90.1231 184.224L88.8824 182.983C88.7112 182.812 88.7112 182.534 88.8824 182.363L90.8561 180.389C91.2675 179.977 91.3523 179.341 91.0628 178.836C90.6984 178.201 90.4167 177.522 90.226 176.819C90.0735 176.258 89.5638 175.868 88.982 175.868H86.1921C85.95 175.868 85.753 175.671 85.753 175.429V173.674C85.753 173.432 85.95 173.235 86.1921 173.235H88.982C89.5639 173.235 90.0736 172.845 90.226 172.284C90.4167 171.581 90.6984 170.902 91.0628 170.267C91.3523 169.762 91.2677 169.125 90.8561 168.714L88.8822 166.74C88.7111 166.569 88.7111 166.29 88.8822 166.119L90.123 164.878C90.2942 164.707 90.5726 164.707 90.7438 164.878L92.7176 166.852C93.1291 167.264 93.7656 167.348 94.2703 167.059C94.906 166.694 95.5847 166.413 96.2874 166.222C96.8489 166.07 97.2387 165.56 97.2387 164.978V162.188C97.2387 161.946 97.4357 161.749 97.6778 161.749H99.4324C99.6745 161.749 99.8715 161.946 99.8715 162.188V164.978C99.8715 165.56 100.261 166.07 100.823 166.222C101.525 166.413 102.204 166.694 102.84 167.059C103.345 167.348 103.981 167.264 104.393 166.852L106.366 164.878C106.538 164.707 106.816 164.707 106.987 164.878L108.228 166.119C108.399 166.291 108.399 166.569 108.228 166.74L106.254 168.714C105.843 169.126 105.758 169.762 106.047 170.267C106.412 170.902 106.693 171.581 106.884 172.284C107.037 172.845 107.546 173.235 108.128 173.235H110.918C111.16 173.235 111.357 173.432 111.357 173.674V175.429C111.357 175.671 111.16 175.868 110.918 175.868H108.128C107.546 175.868 107.037 176.258 106.884 176.819C106.693 177.522 106.412 178.201 106.047 178.836C105.758 179.341 105.843 179.977 106.254 180.389L108.228 182.363C108.399 182.534 108.399 182.812 108.228 182.984L106.987 184.224C106.816 184.396 106.537 184.396 106.366 184.224L104.393 182.251C103.981 181.839 103.345 181.755 102.84 182.044C102.204 182.408 101.525 182.69 100.823 182.881C100.261 183.033 99.8714 183.543 99.8714 184.125V186.915C99.8714 187.157 99.6744 187.354 99.4323 187.354H97.6776C97.4356 187.354 97.2386 187.157 97.2386 186.915V184.125C97.2386 183.543 96.8489 183.033 96.2874 182.881C95.5849 182.69 94.906 182.408 94.2704 182.044Z" fill="#043145"/>
<path d="M103.209 199.374C102.54 199.374 102.05 199.765 101.838 200.22V196.963C101.838 196.286 100.124 196.256 100.124 196.963V204.173C100.124 204.617 101.002 204.904 101.578 204.537C101.751 204.427 101.838 204.306 101.838 204.173V201.704C101.838 201.181 102.216 200.877 102.579 200.877C103.02 200.877 103.375 201.287 103.375 201.704V204.173C103.375 204.857 105.088 204.897 105.088 204.172V201.696C105.088 200.531 104.316 199.374 103.209 199.374Z" fill="#043145"/>
<path d="M108.969 200.767C109.275 200.767 109.389 200.404 109.389 200.104C109.389 199.809 109.269 199.44 108.969 199.44H107.719V197.757C107.719 197.419 107.203 197.262 106.857 197.262C106.516 197.262 106.006 197.435 106.006 197.774V202.862C106.006 204.089 106.728 204.703 108.173 204.703C108.503 204.675 108.921 204.798 109.19 204.483C109.315 204.336 109.378 204.159 109.378 203.951C109.378 203.562 109.131 203.199 108.648 203.199C108.2 203.151 107.72 203.359 107.72 202.797V200.767H108.969V200.767Z" fill="#043145"/>
<path d="M114.419 200.488C113.918 198.974 112.281 199.105 111.655 200.22V199.964C111.655 199.612 111.258 199.44 110.903 199.44C110.525 199.44 110.052 199.584 110.052 199.96V204.172C110.052 204.518 110.531 204.703 110.903 204.703C111.258 204.703 111.765 204.496 111.765 204.174V201.704C111.765 201.154 112.099 200.878 112.462 200.878C112.839 200.878 113.214 201.175 113.214 201.716V204.185C113.214 204.875 114.927 204.878 114.927 204.185V201.704C114.927 201.152 115.273 200.867 115.635 200.867C116.012 200.867 116.376 201.153 116.376 201.704V204.174C116.376 204.494 116.881 204.703 117.227 204.703C117.604 204.703 118.089 204.492 118.089 204.172V201.696C118.089 199.222 115.388 198.573 114.419 200.488Z" fill="#043145"/>
<path d="M119.139 196.953C119.223 204.675 118.949 204.257 119.383 204.542C119.924 204.899 120.853 204.608 120.853 204.172V196.953C120.853 196.271 119.139 196.25 119.139 196.953Z" fill="#043145"/>
<path d="M121.693 183.433H118.511V155.787C118.511 152.596 115.915 150 112.724 150H91.475C89.3803 150 87.3139 150.721 85.6661 152.045L81.0444 155.759C78.2544 158.002 77.7814 161.068 77.7866 161.055C77.3987 162.874 77.6511 160.82 77.5806 210.213C77.5806 213.404 80.1767 216 83.3677 216H112.724C115.694 216 118.147 213.752 118.473 210.868H120.384C123.721 210.868 126.436 208.153 126.436 204.816V188.294V188.176C126.436 185.561 124.308 183.433 121.693 183.433ZM121.693 186.012C122.887 186.012 123.858 186.983 123.858 188.177V188.294C123.858 189.644 122.759 190.744 121.408 190.744H118.511V186.012H121.693V186.012ZM82.6595 157.769C87.2871 154.092 87.3674 153.884 88.2875 153.387V157.455C88.2875 158.877 87.1302 160.035 85.7077 160.035H80.8478C81.2774 159.161 81.8946 158.384 82.6595 157.769ZM112.724 213.422H83.3677C81.5982 213.422 80.1587 211.982 80.1587 210.213C80.1626 159.815 80.1489 162.968 80.1697 162.613H85.7077C88.5518 162.613 90.8657 160.299 90.8657 157.455V152.606C91.4365 152.554 90.3137 152.588 112.724 152.578C114.494 152.578 115.933 154.018 115.933 155.787V184.722V190.743H99.268C96.7875 190.743 94.7695 192.761 94.7695 195.242V206.369C94.7695 208.85 96.7875 210.868 99.268 210.868H115.866C115.563 212.324 114.269 213.422 112.724 213.422ZM123.858 204.816C123.858 206.732 122.3 208.29 120.384 208.29H117.222H99.268C98.2091 208.29 97.3476 207.428 97.3476 206.369V195.242C97.3476 194.183 98.2092 193.322 99.268 193.322C122.161 193.322 122.238 193.591 123.858 192.684V204.816Z" fill="#043145"/>
<path d="M91.9017 194.324H83.2584C82.5466 194.324 81.9694 194.901 81.9694 195.613C81.9694 196.325 82.5466 196.902 83.2584 196.902H91.9017C92.6135 196.902 93.1908 196.325 93.1908 195.613C93.1908 194.901 92.6137 194.324 91.9017 194.324Z" fill="#043145"/>
<path d="M91.9017 199.672H88.4147C87.7029 199.672 87.1256 200.249 87.1256 200.961C87.1256 201.673 87.7029 202.25 88.4147 202.25H91.9017C92.6135 202.25 93.1908 201.673 93.1908 200.961C93.1908 200.249 92.6137 199.672 91.9017 199.672Z" fill="#043145"/>
<path d="M83.2584 202.25H83.2617C83.9735 202.25 84.549 201.673 84.549 200.961C84.549 200.249 83.9702 199.672 83.2583 199.672C82.5464 199.672 81.9692 200.249 81.9692 200.961C81.9692 201.673 82.5466 202.25 83.2584 202.25Z" fill="#043145"/>
<path d="M91.9017 205.02H83.2584C82.5466 205.02 81.9694 205.597 81.9694 206.309C81.9694 207.021 82.5466 207.598 83.2584 207.598H91.9017C92.6135 207.598 93.1908 207.021 93.1908 206.309C93.1908 205.597 92.6137 205.02 91.9017 205.02Z" fill="#043145"/>
</g>
<defs>
<clipPath id="clip0">
<rect width="135.25" height="135.25" fill="white" transform="translate(298)"/>
</clipPath>
<clipPath id="clip1">
<rect width="83" height="83" fill="white" transform="translate(317 135)"/>
</clipPath>
<clipPath id="clip2">
<rect width="135" height="135" fill="white" transform="translate(0 44)"/>
</clipPath>
<clipPath id="clip3">
<rect width="66" height="66" fill="white" transform="translate(69 150)"/>
</clipPath>
</defs>
</svg>
