<svg width="24" height="24" viewBox="0 0 24 24" fill="none" xmlns="http://www.w3.org/2000/svg">
<path d="M17.3906 11.1562L9.14062 6.14062C8.39062 5.76562 7.5 6.28125 7.5 7.125V16.875C7.5 17.7656 8.39062 18.2812 9.14062 17.8594L17.3906 13.125C18.1875 12.7031 18.1875 11.625 17.3906 11.1562ZM23.625 12C23.625 5.57812 18.4219 0.375 12 0.375C5.57812 0.375 0.375 5.57812 0.375 12C0.375 18.4219 5.57812 23.625 12 23.625C18.4219 23.625 23.625 18.4219 23.625 12ZM2.625 12C2.625 6.84375 6.79688 2.625 12 2.625C17.1562 2.625 21.375 6.84375 21.375 12C21.375 17.2031 17.1562 21.375 12 21.375C6.79688 21.375 2.625 17.2031 2.625 12Z" fill="#CDE9F4"/>
</svg>
