<svg width="447" height="267" viewBox="0 0 447 267" fill="none" xmlns="http://www.w3.org/2000/svg">
<path d="M53.924 120.94L40.4997 102.742L27.0754 84.5447L13.6511 66.3471L4.37451 53.7722C5.32918 55.0664 59.6665 128.725 60.1697 129.405C58.0182 126.503 56.6223 123.009 56.268 119.212L53.924 120.94Z" fill="#9BBECF"/>
<path d="M46.407 42.1829L37.1304 29.608C34.8397 26.5028 30.4652 25.8423 27.3596 28.133L5.84923 44.0011C2.7437 46.2918 2.08349 50.6663 4.37421 53.7719L13.6508 66.3468L46.407 42.1829Z" fill="#CDE9F4"/>
<path d="M13.6511 66.3467L27.0754 84.5444L56.1754 63.0776V61.5848V55.4246L46.407 42.1829L13.6511 66.3467Z" fill="white"/>
<path d="M40.4996 102.742L56.1753 91.1783V84.1985V63.0776L27.0753 84.5444L40.4996 102.742Z" fill="#9BBECF"/>
<path d="M53.9239 120.94L56.2676 119.211C56.2087 118.58 56.1753 117.942 56.1753 117.297V106.812V91.1786L40.4996 102.742L53.9239 120.94Z" fill="#9BBECF"/>
<path d="M89.8926 16.3578H63.1628C59.3038 16.3578 56.1754 19.4862 56.1754 23.3452V38.9715H96.88V23.3452C96.88 19.4862 93.7516 16.3578 89.8926 16.3578Z" fill="#1A96CA"/>
<path d="M56.1754 55.4246V61.5849H96.88V38.9715H56.1754V55.4246Z" fill="#CDE9F4"/>
<path d="M56.1754 61.5848V63.0776V84.1985H96.88V61.5848H56.1754Z" fill="#ECD843"/>
<path d="M56.1754 84.1985V91.1783V106.812H96.88V84.1985H56.1754Z" fill="#33B9F1"/>
<path d="M77.2088 128.356C80.7337 128.005 83.3069 124.863 82.9562 121.338C82.6055 117.813 79.4637 115.24 75.9388 115.591C72.4139 115.942 69.8407 119.084 70.1914 122.608C70.5421 126.133 73.684 128.707 77.2088 128.356Z" fill="#CDE9F4"/>
<path d="M56.1754 106.812C56.2055 117.38 56.1062 117.479 56.2677 119.211C58.1732 139.625 86.2059 144.813 94.9998 125.839C97.8999 119.579 96.5064 115.014 96.8797 106.812H56.1754ZM76.5275 128.439C72.985 128.439 70.1131 125.567 70.1131 122.025C70.1131 118.482 72.985 115.611 76.5275 115.611C80.0701 115.611 82.9419 118.482 82.9419 122.025C82.9419 125.567 80.0701 128.439 76.5275 128.439Z" fill="white"/>
<path d="M117.854 38.497C120.684 38.497 122.979 36.2023 122.979 33.372C122.979 28.3483 122.979 30.0225 122.979 24.9796C119.745 25.5186 118.515 27.6385 110.521 34.5029C109.336 35.5562 108.49 36.9567 108.106 38.497H117.854Z" fill="#9BBECF"/>
<path d="M127.8 46.3869C127.038 44.0092 121.564 43.9938 120.798 46.3869L114.414 67.3234C114.368 67.5065 114.346 67.6323 114.346 67.7008C114.346 69.6397 118.985 70.8699 119.528 68.9022L120.695 64.6118H127.937L129.104 68.9022C129.643 70.8575 134.287 69.6511 134.287 67.7008C134.287 67.6323 134.263 67.5065 134.218 67.3234L127.8 46.3869ZM121.793 60.4932L124.299 51.2947L126.804 60.4932H121.793Z" fill="#043145"/>
<path d="M108.116 38.4549C108.126 38.4168 108.125 38.4196 108.116 38.4549V38.4549Z" fill="white"/>
<path d="M121.793 60.4931H126.805L124.299 51.2946L121.793 60.4931Z" fill="white"/>
<path d="M108.106 38.4968H108.107C108.111 38.4797 108.114 38.4658 108.117 38.4549C108.114 38.4655 108.111 38.4794 108.106 38.4968Z" fill="white"/>
<path d="M132.651 36.2979C132.651 37.406 133.178 38.7399 134.301 38.7399C134.448 38.7399 134.85 38.5447 135.505 38.1531C136.583 37.5097 138.93 37.1605 139.819 38.2972C140.539 39.2203 140.365 40.1575 140.39 40.3569C139.728 40.3997 136.124 40.1079 133.746 41.3955C132.466 42.0882 131.827 43.2796 131.827 44.9697C131.827 49.7753 137.1 51.1063 140.707 46.6758V47.4211C140.707 49.6577 145.305 49.4526 145.305 47.5243V39.9765C145.305 38.2006 144.708 36.7208 143.513 35.5366C140.344 32.3959 132.651 33.9392 132.651 36.2979ZM140.39 42.8531C140.39 45.4215 136.774 46.6562 136.774 44.3233C136.774 42.7361 138.908 42.7671 140.39 42.7358V42.8531Z" fill="#043145"/>
<path d="M144.612 24.8536C123.091 24.8981 124.233 24.754 122.978 24.9805V33.3719C122.978 36.2022 120.684 38.4968 117.853 38.4968H108.107C108.052 38.7471 107.869 39.6302 107.869 40.4071V70.8611C107.869 74.3847 110.726 77.2412 114.25 77.2412H144.612C148.136 77.2412 150.992 74.3847 150.992 70.8611V31.2337C150.992 27.71 148.136 24.8536 144.612 24.8536ZM129.104 68.9019L127.937 64.6116H120.695L119.528 68.9019C118.984 70.8696 114.346 69.6394 114.346 67.7006C114.346 67.632 114.368 67.5063 114.414 67.3231L120.798 46.3868C121.563 43.9939 127.038 44.0092 127.8 46.3868L134.218 67.3231C134.264 67.5063 134.287 67.632 134.287 67.7006C134.287 69.6508 129.643 70.8572 129.104 68.9019ZM145.305 47.5244C145.305 49.4527 140.706 49.6578 140.706 47.4212V46.6759C137.099 51.106 131.827 49.7754 131.827 44.9699C131.827 43.2795 132.466 42.0884 133.745 41.3957C136.124 40.1081 139.728 40.3999 140.389 40.3571C140.365 40.1577 140.539 39.2205 139.818 38.2974C138.93 37.1605 136.583 37.51 135.505 38.1533C134.85 38.5447 134.448 38.7402 134.3 38.7402C133.178 38.7402 132.651 37.4062 132.651 36.2981C132.651 33.9391 140.343 32.3962 143.513 35.5369C144.707 36.7213 145.305 38.2009 145.305 39.9767V47.5244Z" fill="white"/>
<path d="M136.774 44.3232C136.774 46.656 140.39 45.421 140.39 42.853V42.7357C138.908 42.7669 136.774 42.736 136.774 44.3232Z" fill="white"/>
<path d="M76.5275 131.447C81.7229 131.447 85.9498 127.22 85.9498 122.025C85.9498 116.83 81.7229 112.603 76.5275 112.603C71.3321 112.603 67.1052 116.83 67.1052 122.025C67.1052 127.22 71.3321 131.447 76.5275 131.447ZM76.5275 118.618C78.4059 118.618 79.9341 120.147 79.9341 122.025C79.9341 123.903 78.4059 125.431 76.5275 125.431C74.6491 125.431 73.1209 123.903 73.1209 122.025C73.1212 120.147 74.6491 118.618 76.5275 118.618Z" fill="#043145"/>
<path d="M80.3246 36.0223C78.6938 36.3532 77.6362 37.9215 77.9635 39.5595C78.2239 40.9473 79.4752 41.9808 80.9111 41.9808C82.56 41.9808 83.9189 40.636 83.9189 38.973C83.9189 37.0462 82.1485 35.6572 80.3246 36.0223Z" fill="#043145"/>
<path d="M89.8925 13.3502H63.1627C57.6513 13.3502 53.1676 17.8339 53.1676 23.345V38.9713V46.2805L39.5511 27.8224C36.2792 23.3874 30.0092 22.4409 25.5742 25.7124C1.96166 43.1374 4.03492 41.5854 3.61112 41.9367C-0.450882 45.3033 -1.20343 51.2764 1.95414 55.5571C3.88934 58.1805 49.7516 120.35 51.504 122.725L51.5049 122.726C59.8541 134.043 57.2756 130.591 57.7962 131.252C71.8597 149.329 99.888 139.499 99.888 117.297C99.888 105.39 99.888 34.1026 99.888 23.345C99.8877 17.8339 95.404 13.3502 89.8925 13.3502ZM6.38489 51.2942C6.38369 51.2918 6.38279 51.2891 6.38189 51.2867C5.6134 49.6167 6.08863 47.563 7.63523 46.4216L29.1453 30.5534C30.9175 29.246 33.4125 29.6343 34.71 31.3935L42.2009 41.5481C38.8268 44.037 17.6821 59.6353 14.2857 62.1408C6.21916 51.1934 6.63815 51.8416 6.38489 51.2942ZM53.1676 114.848L44.7058 103.377C46.7102 101.899 51.2459 98.553 53.1676 97.1354V114.848ZM53.1676 89.6599L41.1346 98.5364L31.2815 85.1795C33.9003 83.2476 50.5938 70.9329 53.1676 69.0343V89.6599ZM53.1676 61.5588L27.7103 80.3385L17.8572 66.9815C21.2313 64.4926 42.376 48.8943 45.7723 46.3888L53.1679 56.414V61.5588H53.1676ZM93.8721 117.297C93.8721 126.86 86.0913 134.641 76.5275 134.641C66.9669 134.641 59.1828 126.861 59.1828 117.297V109.82H93.8718V117.297H93.8721ZM93.8721 103.805H59.1831C59.1831 100.633 59.1831 90.6654 59.1831 87.2064H93.8721V103.805ZM93.8721 81.1909H59.1831V64.5928H93.8721V81.1909ZM93.8721 35.9638H92.9421C91.2809 35.9638 89.9343 37.3104 89.9343 38.9716C89.9343 40.6328 91.2809 41.9794 92.9421 41.9794H93.8721V58.5775H59.1831V55.4251V41.9797H68.8799C70.5411 41.9797 71.8877 40.6331 71.8877 38.9719C71.8877 37.3107 70.5411 35.9641 68.8799 35.9641H59.1831V23.3453C59.1831 21.1511 60.9685 19.366 63.1627 19.366H89.8925C92.0867 19.366 93.8721 21.1511 93.8721 23.3453V35.9638Z" fill="#043145"/>
<path d="M144.612 21.8458H124.381C121.731 21.8458 119.134 22.8236 117.135 24.6003C108.492 32.3805 106.209 33.4898 105.183 37.7975C104.611 40.1123 104.973 38.7669 104.861 70.8611C104.861 76.0375 109.073 80.249 114.249 80.249H144.612C149.788 80.249 154 76.0375 154 70.8611V31.2336C154 26.0573 149.788 21.8458 144.612 21.8458ZM119.97 30.1283V33.3719C119.97 34.5392 119.02 35.489 117.853 35.489H113.938L119.97 30.1283ZM147.984 70.8611C147.984 72.7208 146.471 74.2334 144.612 74.2334H114.249C112.389 74.2334 110.877 72.7205 110.877 70.8611V41.5046H117.853C122.337 41.5046 125.986 37.8562 125.986 33.3719V27.8613H144.612C146.471 27.8613 147.984 29.3742 147.984 31.2336V70.8611H147.984Z" fill="#043145"/>
<g clip-path="url(#clip0)">
<path d="M367.788 17.6611C367.788 12.2004 363.361 7.77368 357.901 7.77368H310.554C305.093 7.77368 300.667 12.2004 300.667 17.6611V25.6624H367.788V17.6611Z" fill="#CDE9F4"/>
<path d="M388.774 87.851H341.427C335.967 87.851 331.54 92.2777 331.54 97.7383V105.74H398.661V97.7383C398.661 92.2777 394.235 87.851 388.774 87.851Z" fill="#CDE9F4"/>
<path d="M436.093 22.7439C439.639 18.2956 438.908 11.8144 434.46 8.26807C430.011 4.72171 423.53 5.45314 419.984 9.90169L416.332 14.4816L432.441 27.3241L436.093 22.7439Z" fill="white"/>
<path d="M433.869 28.4618L432.442 27.3241L416.332 14.4816L414.905 13.3439C412.317 11.281 408.547 11.7064 406.484 14.2939C404.422 16.8818 404.847 20.6519 407.434 22.7148L408.862 23.8525L424.971 36.695L426.398 37.8328C428.986 39.8957 432.756 39.4703 434.819 36.8824C436.882 34.2952 436.456 30.5248 433.869 28.4618Z" fill="#1A96CA"/>
<path d="M355.984 114.453H345.547C343.494 114.453 341.829 116.118 341.829 118.171V140.417C341.829 142.47 343.494 144.135 345.547 144.135H355.984C358.038 144.135 359.702 142.47 359.702 140.417V118.171C359.702 116.118 358.038 114.453 355.984 114.453Z" fill="#ECD843"/>
<path d="M384.654 114.453H374.218C372.164 114.453 370.5 116.118 370.5 118.171V140.417C370.5 142.47 372.164 144.135 374.218 144.135H384.654C386.708 144.135 388.372 142.47 388.372 140.417V118.171C388.372 116.118 386.708 114.453 384.654 114.453Z" fill="#33B9F1"/>
<path d="M391.361 45.7418L408.815 23.8327L424.926 36.6677L407.472 58.5768L391.361 45.7418Z" fill="white"/>
<path d="M391.397 45.7596C385.983 52.8956 382.918 54.6776 383.287 60.6259C383.579 65.3182 379.226 66.2007 378.807 70.2826C378.23 75.8235 384.967 78.695 388.661 74.9186C390.134 73.4161 390.846 71.6326 392.751 70.5497C395.172 69.1828 396.798 70.325 400.191 67.465C401.68 66.2001 402.051 65.3 407.506 58.6024L391.397 45.7596Z" fill="#ECD843"/>
<path d="M328.59 45.2543L337.13 54.6815C338.984 56.7287 342.053 57.1207 344.363 55.6055L349.898 51.9743C352.333 50.3773 355.458 50.282 357.985 51.7282L367.788 57.3381V25.662H300.667V62.285L317.29 45.0735C320.4 41.8541 325.585 41.9371 328.59 45.2543Z" fill="white"/>
<path d="M310.554 74.8953H357.901C362.364 74.8953 366.136 71.9384 367.365 67.8773C367.375 67.8458 367.384 67.8144 367.393 67.7829C367.65 66.9025 367.788 65.9715 367.788 65.0079V57.3381L357.985 51.7282C355.458 50.282 352.332 50.3774 349.898 51.9744L344.363 55.6055C342.053 57.1208 338.984 56.7287 337.13 54.6815L328.59 45.2543C325.585 41.9371 320.4 41.8542 317.29 45.0736L300.667 62.285V65.0079C300.667 70.4694 305.094 74.8953 310.554 74.8953Z" fill="#33B9F1"/>
<path d="M388.774 84.8235H341.427C334.306 84.8235 328.512 90.6171 328.512 97.7383V145.085C328.512 152.206 334.306 158 341.427 158H388.774C395.895 158 401.689 152.206 401.689 145.085V105.74V97.7383C401.689 90.6171 395.895 84.8235 388.774 84.8235ZM334.567 97.7383C334.567 93.9558 337.644 90.8784 341.427 90.8784H388.774C392.557 90.8784 395.634 93.9558 395.634 97.7383V102.712H334.567V97.7383ZM388.774 151.945H341.427C337.644 151.945 334.567 148.868 334.567 145.085V108.767H395.634V145.085C395.634 148.868 392.557 151.945 388.774 151.945Z" fill="#043145"/>
<path d="M438.46 24.6312C443.041 18.8845 442.093 10.4821 436.347 5.9009C430.6 1.32005 422.198 2.26794 417.616 8.01437L415.802 10.2907C411.997 8.00287 406.98 8.81634 404.117 12.4066C401.265 15.9836 401.568 21.0579 404.658 24.2691L383.118 51.288C380.97 53.9821 379.969 57.355 380.26 60.7373C380.534 63.9316 375.095 65.5737 375.805 71.8669C376.684 79.6632 386.568 82.4491 391.42 76.3627C393.008 74.6222 393.454 73.0667 395.387 72.7963C398.78 72.3219 401.825 70.5847 403.961 67.9051L425.506 40.8808C429.366 43.1938 434.365 42.3086 437.186 38.7701C440.032 35.2001 439.723 30.1173 436.645 26.9088L438.46 24.6312ZM427.223 9.09517C431.215 8.64348 434.815 11.5114 435.266 15.5073C435.729 19.6108 432.837 21.67 431.961 23.0696L420.587 14.0015C421.763 12.8292 423.118 9.55777 427.223 9.09517ZM394.548 66.7998C389.604 67.4907 387.932 71.3522 386.685 72.5883C385.176 74.4805 382.095 73.6177 381.821 71.1878C381.635 69.5382 382.715 68.939 384.516 66.5086C388.02 61.7863 384.652 59.0758 387.852 55.0623L391.877 50.0137L403.251 59.0819L399.227 64.1305C398.061 65.5928 396.4 66.5407 394.548 66.7998ZM407.026 54.3476L395.651 45.2794L409.342 28.107L420.716 37.1752L407.026 54.3476ZM432.452 34.9954C431.432 36.2739 429.563 36.4843 428.285 35.4656L409.321 20.3473C408.04 19.3262 407.829 17.4628 408.851 16.1809C409.869 14.9043 411.73 14.6851 413.018 15.7108C415.174 17.4292 429.634 28.9574 431.981 30.829C433.263 31.8508 433.473 33.7142 432.452 34.9954Z" fill="#043145"/>
<path d="M370.815 65.0078C370.815 60.1971 370.815 30.5998 370.815 25.6623V17.661C370.815 10.5398 365.022 4.74615 357.901 4.74615H310.554C303.432 4.74615 297.639 10.5398 297.639 17.661V65.0078C297.639 72.129 303.432 77.9226 310.554 77.9226H357.901C365.022 77.9226 370.815 72.129 370.815 65.0078ZM303.694 17.661C303.694 13.8785 306.771 10.8011 310.554 10.8011H357.901C361.683 10.8011 364.76 13.8785 364.76 17.661V22.6348H331.862C330.19 22.6348 328.834 23.9905 328.834 25.6623C328.834 27.334 330.19 28.6897 331.862 28.6897H364.76V52.1175L359.488 49.1006C355.953 47.0779 351.642 47.2093 348.237 49.4433L342.702 53.0741C341.632 53.7756 340.232 53.5973 339.373 52.6491L330.833 43.2216C326.654 38.6089 319.438 38.4912 315.113 42.9703L303.693 54.7931V28.6897H307.642C309.313 28.6897 310.669 27.334 310.669 25.6623C310.669 23.9905 309.313 22.6348 307.642 22.6348H303.694V17.661ZM303.694 65.0078V63.5086L319.468 47.1766C321.374 45.2024 324.524 45.2754 326.346 47.2865L334.886 56.7141C337.76 59.8865 342.444 60.4847 346.023 58.1367L351.558 54.5058C353.048 53.5282 354.934 53.471 356.481 54.356L364.76 59.0933V65.0075C364.76 68.79 361.683 71.8674 357.901 71.8674H310.554C306.771 71.8677 303.694 68.7903 303.694 65.0078Z" fill="#043145"/>
<path d="M355.984 111.426H345.547C341.828 111.426 338.802 114.452 338.802 118.171V140.417C338.802 144.136 341.828 147.162 345.547 147.162H355.984C359.704 147.162 362.73 144.136 362.73 140.417V118.171C362.73 114.452 359.704 111.426 355.984 111.426ZM356.675 140.417C356.675 140.798 356.365 141.108 355.984 141.108H345.547C345.166 141.108 344.857 140.798 344.857 140.417V118.172C344.857 117.791 345.166 117.481 345.547 117.481H355.984C356.365 117.481 356.675 117.791 356.675 118.172V140.417Z" fill="#043145"/>
<path d="M384.654 111.426H374.217C370.498 111.426 367.472 114.452 367.472 118.171V140.417C367.472 144.136 370.498 147.162 374.217 147.162H384.654C388.374 147.162 391.4 144.136 391.4 140.417V118.171C391.4 114.452 388.374 111.426 384.654 111.426ZM385.345 140.417C385.345 140.798 385.035 141.108 384.654 141.108H374.217C373.837 141.108 373.527 140.798 373.527 140.417V118.172C373.527 117.791 373.837 117.481 374.217 117.481H384.654C385.035 117.481 385.345 117.791 385.345 118.172V140.417Z" fill="#043145"/>
<path d="M353.912 19.7455H358.604C360.276 19.7455 361.632 18.3898 361.632 16.718C361.632 15.0462 360.276 13.6906 358.604 13.6906H353.912C352.24 13.6906 350.884 15.0462 350.884 16.718C350.884 18.3898 352.24 19.7455 353.912 19.7455Z" fill="#043145"/>
<path d="M389.205 93.7678H384.512C382.841 93.7678 381.485 95.1235 381.485 96.7953C381.485 98.467 382.841 99.8227 384.512 99.8227H389.205C390.877 99.8227 392.232 98.467 392.232 96.7953C392.232 95.1235 390.877 93.7678 389.205 93.7678Z" fill="#043145"/>
<path d="M319.759 28.6896C321.431 28.6896 322.786 27.3339 322.786 25.6622C322.786 23.9905 321.431 22.6349 319.759 22.6349H319.752C318.08 22.6349 316.728 23.9905 316.728 25.6622C316.728 27.3339 318.087 28.6896 319.759 28.6896Z" fill="#043145"/>
</g>
<path d="M203.302 243.569H233.698L227.09 219.848H209.91L203.302 243.569Z" fill="#CBCAF3"/>
<path d="M189.987 243.569C185.541 243.569 181.937 247.173 181.937 251.619V262.137H255.063V251.619C255.063 247.173 251.458 243.569 247.013 243.569H233.698H203.302H189.987Z" fill="#1A96CA"/>
<path d="M287.802 120.021H273.785C270.519 120.021 267.871 122.668 267.871 125.935V139.952C267.871 143.218 270.519 145.866 273.785 145.866H287.802C291.068 145.866 293.716 143.218 293.716 139.952V125.935C293.716 122.668 291.068 120.021 287.802 120.021Z" fill="#CDE9F4"/>
<path d="M287.331 159.021H259.149C255.883 159.021 253.235 161.669 253.235 164.935V176.706C253.235 179.973 255.883 182.62 259.149 182.62H287.331C290.598 182.62 293.245 179.973 293.245 176.706V164.935C293.245 161.669 290.598 159.021 287.331 159.021Z" fill="#1A96CA"/>
<path d="M168.519 132.944H155.427C149.758 132.944 145.163 137.539 145.163 143.208V171.012C145.163 176.681 149.758 181.276 155.427 181.276H168.519C174.187 181.276 178.782 176.681 178.782 171.012V143.208C178.783 137.539 174.188 132.944 168.519 132.944Z" fill="#33B9F1"/>
<path d="M218.5 115.513C232.018 115.513 242.976 104.555 242.976 91.0367C242.976 77.5188 232.018 66.5603 218.5 66.5603C204.982 66.5603 194.023 77.5188 194.023 91.0367C194.023 104.555 204.982 115.513 218.5 115.513Z" fill="#ECD843"/>
<path d="M135.847 217.864C137.752 219.118 140.032 219.847 142.483 219.847H209.909H227.089H294.515C299.941 219.847 304.529 216.274 306.058 211.355C306.806 208.949 306.57 208.522 306.602 195.791H130.397C130.425 206.92 129 213.353 135.847 217.864Z" fill="#1A96CA"/>
<path d="M186.629 122.825C193.681 129.716 198.482 138.571 200.116 148.278H236.884C238.522 138.556 243.349 129.701 250.406 122.791C279.653 94.1507 258.941 44.037 217.85 44.6094C177.61 45.1702 157.672 94.5295 186.629 122.825ZM194.024 91.0367C194.024 77.5188 204.982 66.5603 218.5 66.5603C232.018 66.5603 242.976 77.5188 242.976 91.0367C242.976 104.555 232.018 115.513 218.5 115.513C204.982 115.513 194.024 104.555 194.024 91.0367Z" fill="#ECD843"/>
<path d="M200.106 148.278C201.612 157.207 200.979 162.376 206.954 165.502C209.029 166.589 209.759 166.968 225.303 166.666C230.369 166.666 234.674 162.96 235.425 157.949L236.758 149.066C236.758 149.063 236.759 149.06 236.759 149.057C236.798 148.795 236.85 148.537 236.893 148.277H236.884H200.116H200.106V148.278Z" fill="#ECD843"/>
<path d="M294.516 92.9796H264.021C263.322 104.639 258.242 115.116 250.406 122.79C243.348 129.701 238.521 138.555 236.883 148.277H236.893C236.849 148.537 236.798 148.795 236.759 149.057C236.758 149.06 236.758 149.063 236.757 149.066L235.425 157.949C234.735 162.546 231.032 166.48 225.302 166.666C211.154 166.666 209.73 167.125 206.561 165.286C200.975 162.037 201.53 156.73 200.106 148.278H200.115C198.481 138.571 193.681 129.716 186.628 122.825C178.771 115.147 173.678 104.656 172.978 92.9796H142.484C135.809 92.9796 130.397 98.391 130.397 105.066V195.792H306.603V105.066C306.603 98.391 301.191 92.9796 294.516 92.9796ZM178.783 171.012C178.783 176.681 174.188 181.276 168.519 181.276H155.428C149.759 181.276 145.164 176.681 145.164 171.012V143.208C145.164 137.539 149.759 132.944 155.428 132.944H168.519C174.188 132.944 178.783 137.539 178.783 143.208V171.012ZM293.245 176.706C293.245 179.973 290.598 182.62 287.331 182.62H259.149C255.883 182.62 253.235 179.973 253.235 176.706V164.935C253.235 161.669 255.883 159.022 259.149 159.022H287.331C290.598 159.022 293.245 161.669 293.245 164.935V176.706ZM293.716 139.952C293.716 143.218 291.068 145.866 287.802 145.866H273.785C270.519 145.866 267.871 143.218 267.871 139.952V125.935C267.871 122.668 270.519 120.021 273.785 120.021H287.802C291.068 120.021 293.716 122.668 293.716 125.935V139.952Z" fill="white"/>
<path d="M294.516 88.1163H268.922C267.159 44.4971 213.424 22.9066 182.251 55.19C173.549 64.2016 168.586 75.7933 168.079 88.1163H142.484C133.138 88.1163 125.534 95.7201 125.534 105.066V207.761C125.534 215.647 130.947 222.292 138.253 224.176C142.454 225.26 141.413 224.398 203.507 224.711L199.609 238.706H189.987C182.867 238.706 177.074 244.499 177.074 251.619V257.273H165.418C162.732 257.273 160.555 259.451 160.555 262.137C160.555 264.822 162.732 267 165.418 267H181.937H271.582C274.268 267 276.445 264.822 276.445 262.137C276.445 259.451 274.268 257.273 271.582 257.273H259.926V251.619C259.926 244.499 254.133 238.706 247.013 238.706H237.391L233.493 224.711H294.516C303.863 224.711 311.466 217.107 311.466 207.761C311.466 202.532 311.466 108.591 311.466 105.066C311.466 95.7201 303.862 88.1163 294.516 88.1163ZM217.917 49.4722C255.019 48.9334 272.872 93.9839 247.003 119.316C240.28 125.899 235.343 134.038 232.954 143.414H204.047C203.878 142.747 203.694 142.084 203.498 141.426C198.581 124.97 189.497 120.469 184.171 112.15C184.144 112.109 184.117 112.069 184.09 112.028C166.894 84.9562 186.549 49.9094 217.917 49.4722ZM211.69 161.803C209.055 161.799 206.775 159.834 206.384 157.227L205.771 153.141H231.229L230.616 157.227C230.225 159.831 227.948 161.796 225.316 161.802C225.312 161.802 225.307 161.803 225.303 161.803H211.697C211.695 161.803 211.692 161.803 211.69 161.803ZM142.484 97.8429H168.608C170.003 107.077 173.952 115.906 180.442 123.35C184.091 127.529 193.181 134.717 195.432 149.787C196.787 158.149 196.523 162.142 200.421 166.515C205.362 172.058 211.575 171.503 211.697 171.53H225.304C232.893 171.53 239.125 166.072 240.235 158.671C241.892 152.196 240.364 139.43 253.809 126.266C261.417 118.816 266.716 109.022 268.399 97.8439H294.516C298.499 97.8439 301.74 101.084 301.74 105.067V190.93H135.26V105.066C135.26 101.083 138.501 97.8429 142.484 97.8429ZM250.199 251.619V257.273H186.801V251.619C186.801 249.862 188.23 248.432 189.987 248.432H247.013C248.769 248.432 250.199 249.862 250.199 251.619ZM227.295 238.706H209.705L213.604 224.711H223.396L227.295 238.706ZM301.739 207.761C301.739 211.743 298.499 214.984 294.516 214.984C263.508 214.984 173.602 214.984 142.483 214.984C138.508 214.984 135.26 211.752 135.26 207.761V200.655H301.739V207.761H301.739Z" fill="#043145"/>
<path d="M209.809 186.14H227.191C229.876 186.14 232.054 183.962 232.054 181.276C232.054 178.591 229.876 176.413 227.191 176.413H209.809C207.123 176.413 204.946 178.591 204.946 181.276C204.946 183.962 207.123 186.14 209.809 186.14Z" fill="#043145"/>
<path d="M273.785 150.729H287.802C293.745 150.729 298.579 145.895 298.579 139.953V125.935C298.579 119.993 293.745 115.158 287.802 115.158H273.785C267.842 115.158 263.008 119.993 263.008 125.935V139.953C263.008 145.895 267.842 150.729 273.785 150.729ZM272.735 125.935C272.735 125.355 273.206 124.884 273.785 124.884H287.802C288.381 124.884 288.853 125.355 288.853 125.935V139.952C288.853 140.531 288.381 141.002 287.802 141.002H273.785C273.206 141.002 272.735 140.531 272.735 139.952V125.935Z" fill="#043145"/>
<path d="M259.149 187.483H287.331C293.274 187.483 298.108 182.649 298.108 176.706V164.935C298.108 158.993 293.274 154.159 287.331 154.159H259.149C253.206 154.159 248.372 158.993 248.372 164.935V176.706C248.372 182.649 253.206 187.483 259.149 187.483ZM258.098 164.935C258.098 164.357 258.569 163.885 259.149 163.885H287.331C287.911 163.885 288.382 164.357 288.382 164.935V176.706C288.382 177.285 287.911 177.756 287.331 177.756H259.149C258.569 177.756 258.098 177.285 258.098 176.706V164.935Z" fill="#043145"/>
<path d="M155.428 186.14H168.519C176.86 186.14 183.646 179.353 183.646 171.012V143.208C183.646 134.867 176.86 128.08 168.519 128.08H155.428C147.087 128.08 140.3 134.867 140.3 143.208V171.012C140.3 179.353 147.086 186.14 155.428 186.14ZM150.026 143.208C150.026 140.229 152.449 137.807 155.427 137.807H168.519C171.497 137.807 173.919 140.229 173.919 143.208V171.012C173.919 173.991 171.496 176.413 168.519 176.413H155.427C152.449 176.413 150.026 173.991 150.026 171.012V143.208Z" fill="#043145"/>
<path d="M218.5 120.376C234.678 120.376 247.84 107.215 247.84 91.0368C247.84 88.3512 245.662 86.1735 242.976 86.1735C240.291 86.1735 238.113 88.3512 238.113 91.0368C238.113 101.851 229.314 110.65 218.5 110.65C207.685 110.65 198.887 101.851 198.887 91.0368C198.887 79.5312 208.823 70.3936 220.408 71.5151C223.078 71.7728 225.458 69.8158 225.717 67.142C225.974 64.4682 224.017 62.0915 221.344 61.8332C204.009 60.1656 189.16 73.8319 189.16 91.0368C189.16 107.214 202.322 120.376 218.5 120.376Z" fill="#043145"/>
<path d="M218.5 37.1404C221.186 37.1404 223.363 34.9626 223.363 32.2771V22.8633C223.363 20.1778 221.186 18 218.5 18C215.814 18 213.637 20.1778 213.637 22.8633V32.2771C213.637 34.9631 215.814 37.1404 218.5 37.1404Z" fill="#043145"/>
<path d="M166.385 46.333L172.272 51.3539C174.315 53.0969 177.385 52.8532 179.128 50.8097C180.871 48.7661 180.627 45.6964 178.584 43.9534L172.697 38.9326C170.653 37.1891 167.583 37.4332 165.84 39.4768C164.097 41.5203 164.341 44.59 166.385 46.333Z" fill="#043145"/>
<path d="M264.728 51.3538L270.615 46.333C272.658 44.59 272.902 41.5203 271.159 39.4767C269.416 37.4332 266.346 37.19 264.303 38.9325L258.416 43.9534C256.373 45.6964 256.129 48.7661 257.872 50.8096C259.616 52.8532 262.684 53.0963 264.728 51.3538Z" fill="#043145"/>
<path d="M236.893 79.7603H236.905C239.59 79.7603 241.762 77.5825 241.762 74.897C241.762 72.2115 239.579 70.0337 236.893 70.0337C234.207 70.0337 232.03 72.2115 232.03 74.897C232.03 77.5825 234.208 79.7603 236.893 79.7603Z" fill="#043145"/>
<path d="M103.931 197.186C103.931 199.049 102.421 200.559 100.558 200.559C98.6956 200.559 97.1856 199.049 97.1856 197.186V195.056H87.4926C87.1035 196.39 85.8746 197.364 84.417 197.364C82.9586 197.364 81.7297 196.389 81.3409 195.056H76.7451C75.4205 195.056 74.2275 194.255 73.7269 193.028C71.982 188.753 71.982 183.965 73.7269 179.689C74.2275 178.463 75.4203 177.661 76.7451 177.661H76.7734H108.901V169.319H49.7936V201.165C49.7936 204.849 52.7805 207.836 56.4647 207.836H102.229C105.914 207.836 108.9 204.849 108.9 201.165V195.056H103.931V197.186Z" fill="white"/>
<path d="M108.9 159.111V159.105C108.9 156.119 106.48 153.699 103.495 153.699H103.489H56.4647C52.7803 153.699 49.7936 156.686 49.7936 160.371V169.319H108.9V159.111ZM58.846 164.882C56.9835 164.882 55.4736 163.372 55.4736 161.509C55.4736 159.647 56.9835 158.137 58.846 158.137C60.7085 158.137 62.2184 159.647 62.2184 161.509C62.2184 163.372 60.7085 164.882 58.846 164.882ZM70.0284 164.882C68.1659 164.882 66.6559 163.372 66.6559 161.509C66.6559 159.647 68.1659 158.137 70.0284 158.137C71.8909 158.137 73.4008 159.647 73.4008 161.509C73.4008 163.372 71.8909 164.882 70.0284 164.882ZM81.2108 164.882C79.3483 164.882 77.8383 163.372 77.8383 161.509C77.8383 159.647 79.3483 158.137 81.2108 158.137C83.0733 158.137 84.5832 159.646 84.5832 161.509C84.5832 163.372 83.0733 164.882 81.2108 164.882Z" fill="#CDE9F4"/>
<path d="M59.8243 164.732C61.6068 164.191 62.6139 162.309 62.0737 160.526C61.5336 158.744 59.6508 157.737 57.8683 158.277C56.0858 158.817 55.0787 160.7 55.6189 162.482C56.159 164.265 58.0419 165.272 59.8243 164.732Z" fill="#33B9F1"/>
<path d="M71.8157 164.374C73.4007 163.394 73.8914 161.315 72.9117 159.73C71.932 158.145 69.8529 157.655 68.2679 158.634C66.6829 159.614 66.1922 161.693 67.1719 163.278C68.1516 164.863 70.2307 165.354 71.8157 164.374Z" fill="#FFD277"/>
<path d="M81.2108 164.882C83.0734 164.882 84.5833 163.372 84.5833 161.509C84.5833 159.647 83.0734 158.137 81.2108 158.137C79.3483 158.137 77.8384 159.647 77.8384 161.509C77.8384 163.372 79.3483 164.882 81.2108 164.882Z" fill="white"/>
<path d="M96.4465 216.533H91.1798C89.9383 216.533 88.9319 217.54 88.9319 218.781V232.42C88.9319 235.115 91.1173 237.301 93.8131 237.301C96.5089 237.301 98.6942 235.115 98.6942 232.42V218.781C98.6942 217.54 97.688 216.533 96.4465 216.533Z" fill="#1A96CA"/>
<path d="M111.128 177.671C111.136 177.671 111.143 177.673 111.151 177.673C111.143 177.673 111.136 177.671 111.128 177.671Z" fill="#FFD277"/>
<path d="M81.2108 182.099C81.2108 179.648 79.2241 177.661 76.7733 177.661H76.7449C75.4204 177.661 74.2274 178.463 73.7268 179.689C71.9819 183.965 71.9819 188.753 73.7268 193.028C74.2274 194.255 75.4202 195.056 76.7449 195.056H81.3408C81.2576 194.771 81.2107 194.47 81.2107 194.158V182.099H81.2108Z" fill="#ECD843"/>
<path d="M92.3779 184.761C89.7831 184.761 87.6746 186.855 87.6562 189.45L87.6229 194.18C87.6207 194.485 87.5737 194.778 87.4924 195.056H97.1855V189.569C97.1855 186.914 95.0331 184.761 92.3779 184.761Z" fill="#ECD843"/>
<path d="M115.15 184.939H107.951C105.731 184.939 103.931 186.739 103.931 188.959V195.056H108.9H110.881C112.206 195.056 113.399 194.255 113.899 193.028C114.954 190.444 115.37 187.672 115.15 184.939Z" fill="#ECD843"/>
<path d="M81.2108 182.099V194.158C81.2108 194.47 81.2577 194.771 81.341 195.056C81.7298 196.389 82.9586 197.364 84.4171 197.364C85.8747 197.364 87.1035 196.39 87.4927 195.056C87.5739 194.778 87.6211 194.485 87.6232 194.18L87.6565 189.45C87.6748 186.855 89.7832 184.762 92.3779 184.762C95.0331 184.762 97.1855 186.914 97.1855 189.569V195.057V197.186C97.1855 199.049 98.6954 200.559 100.558 200.559C102.42 200.559 103.93 199.049 103.93 197.186V195.057V188.96C103.93 186.739 105.73 184.939 107.951 184.939H115.15C115.092 184.567 115.01 182.409 113.897 179.685C113.391 178.458 112.248 177.688 110.881 177.662C109.298 177.662 79.4163 177.662 76.7733 177.662C79.2241 177.661 81.2108 179.648 81.2108 182.099Z" fill="#ECD843"/>
<path d="M58.846 156.438C56.0494 156.438 53.7742 158.713 53.7742 161.509C53.7742 164.306 56.0494 166.581 58.846 166.581C61.6426 166.581 63.9177 164.306 63.9177 161.509C63.9177 158.713 61.6426 156.438 58.846 156.438ZM58.846 163.182C57.9233 163.182 57.1726 162.432 57.1726 161.509C57.1726 160.586 57.9233 159.836 58.846 159.836C59.7687 159.836 60.5192 160.586 60.5192 161.509C60.5192 162.432 59.7687 163.182 58.846 163.182Z" fill="#043145"/>
<path d="M70.0284 156.438C67.2319 156.438 64.9568 158.713 64.9568 161.509C64.9568 164.306 67.2319 166.581 70.0284 166.581C72.825 166.581 75.1003 164.306 75.1003 161.509C75.1003 158.713 72.825 156.438 70.0284 156.438ZM70.0284 163.182C69.1058 163.182 68.3552 162.432 68.3552 161.509C68.3552 160.586 69.1058 159.836 70.0284 159.836C70.9511 159.836 71.7018 160.586 71.7018 161.509C71.7018 162.432 70.9509 163.182 70.0284 163.182Z" fill="#043145"/>
<path d="M81.2107 156.438C78.4142 156.438 76.1389 158.713 76.1389 161.509C76.1389 164.306 78.4142 166.581 81.2107 166.581C84.0073 166.581 86.2824 164.306 86.2824 161.509C86.2824 158.713 84.0073 156.438 81.2107 156.438ZM81.2107 163.182C80.2881 163.182 79.5374 162.432 79.5374 161.509C79.5374 160.586 80.2881 159.836 81.2107 159.836C82.1334 159.836 82.884 160.586 82.884 161.509C82.884 162.432 82.1334 163.182 81.2107 163.182Z" fill="#043145"/>
<path d="M95.0185 171.018H95.0226C95.9609 171.018 96.7196 170.257 96.7196 169.319C96.7196 168.38 95.9568 167.62 95.0183 167.62C94.0798 167.62 93.3191 168.38 93.3191 169.319C93.3191 170.257 94.0802 171.018 95.0185 171.018Z" fill="#043145"/>
<path d="M115.466 179.032C114.092 175.673 110.617 175.968 110.6 175.962C110.6 172.371 110.6 162.654 110.6 159.105C110.6 155.187 107.412 152 103.495 152H103.489H56.4647C51.8493 152 48.0944 155.755 48.0944 160.37V201.165C48.0944 205.78 51.8495 209.535 56.4649 209.535H92.114V214.834H91.1799C89.0034 214.834 87.2328 216.605 87.2328 218.781V232.42C87.2328 236.048 90.1847 239 93.8132 239C97.4417 239 100.394 236.048 100.394 232.42V218.781C100.394 216.605 98.623 214.834 96.4466 214.834H95.5126V209.535H102.229C106.845 209.535 110.6 205.78 110.6 201.165V196.755C110.624 196.748 114.102 197.029 115.473 193.67C117.355 189.06 117.414 183.792 115.466 179.032ZM96.9952 218.781V232.42C96.9952 234.174 95.5678 235.602 93.813 235.602C92.0586 235.602 90.6311 234.174 90.6311 232.42V218.781C90.6311 218.479 90.8771 218.233 91.1798 218.233H96.4463C96.7489 218.233 96.9952 218.479 96.9952 218.781ZM102.231 188.959V197.186C102.231 198.173 101.376 198.952 100.387 198.851C99.5445 198.765 98.8849 198.051 98.8849 197.186V189.569C98.8849 186.205 96.3194 183.43 93.0423 183.096C89.2515 182.71 85.9837 185.685 85.9572 189.438L85.9239 194.168C85.9188 194.991 85.2376 195.665 84.417 195.665C83.5871 195.665 82.9102 194.982 82.9102 194.158C82.8939 181.301 83.1163 181.062 82.2646 179.361H110.881C111.518 179.361 112.083 179.737 112.321 180.319C112.708 181.264 113.002 182.241 113.2 183.24C107.993 183.274 107.767 183.158 106.8 183.356C104.196 183.89 102.231 186.2 102.231 188.959ZM89.3556 189.462C89.3672 187.807 90.723 186.46 92.3779 186.46C94.0869 186.46 95.4862 187.85 95.4862 189.569V193.357H89.3281L89.3556 189.462ZM76.7449 193.357C76.1079 193.357 75.5408 192.976 75.3 192.386C73.6878 188.436 73.7481 184.134 75.2999 180.332C76.0824 178.415 79.5116 179.502 79.5116 182.099V193.357H76.7449ZM56.4647 206.137C53.723 206.137 51.4926 203.907 51.4926 201.165V171.018H88.2214C89.1597 171.018 89.9206 170.257 89.9206 169.319C89.9206 168.38 89.1597 167.62 88.2214 167.62H51.4928V160.37C51.4928 157.629 53.7232 155.398 56.4649 155.398H103.489C105.536 155.398 107.201 157.064 107.201 159.111V167.62H101.816C100.877 167.62 100.116 168.381 100.116 169.319C100.116 170.258 100.877 171.018 101.816 171.018H107.201V175.962C105.363 175.962 78.4879 175.962 76.7451 175.962C74.7209 175.962 72.9188 177.173 72.1536 179.047C71.4347 180.809 70.9845 182.637 70.8029 184.482H68.9664C65.7768 184.482 63.1819 187.077 63.1819 190.267V197.443C63.1819 200.881 65.9788 203.678 69.4167 203.678H90.2727C91.288 203.678 92.114 204.504 92.114 205.519V206.137H56.4647ZM107.201 201.165C107.201 203.906 104.971 206.137 102.229 206.137H95.5122V205.519C95.5122 202.63 93.1617 200.279 90.2725 200.279H69.4165C67.8525 200.279 66.5802 199.007 66.5802 197.443V190.267C66.5802 188.951 67.6505 187.881 68.9662 187.881H70.772C70.9288 189.846 71.3886 191.796 72.1536 193.67C72.9186 195.545 74.7206 196.755 76.7449 196.755H80.2589C82.1856 199.828 86.6403 199.83 88.5735 196.755H95.4864V197.186C95.4864 199.983 97.7617 202.258 100.558 202.258C103.343 202.258 105.63 199.994 105.63 197.186V196.755H107.202V201.165H107.201ZM112.326 192.386C112.085 192.976 111.518 193.357 110.881 193.357C109.137 193.357 107.539 193.357 105.63 193.357V188.959C105.63 187.679 106.671 186.638 107.951 186.638H113.504C113.469 188.606 113.069 190.567 112.326 192.386Z" fill="#043145"/>
<defs>
<clipPath id="clip0">
<rect width="155" height="155" fill="white" transform="translate(292 3)"/>
</clipPath>
</defs>
</svg>
